<?xml version="1.0" standalone="no"?>
<!DOCTYPE svg PUBLIC "-//W3C//DTD SVG 20010904//EN"
 "http://www.w3.org/TR/2001/REC-SVG-20010904/DTD/svg10.dtd">
<svg version="1.0" xmlns="http://www.w3.org/2000/svg"
 width="700.000000pt" height="700.000000pt" viewBox="0 0 700.000000 700.000000"
 preserveAspectRatio="xMidYMid meet">
<metadata>
Created by potrace 1.14, written by Peter Selinger 2001-2017
</metadata>
<g transform="translate(0.000000,700.000000) scale(0.100000,-0.100000)"
fill="#000000" stroke="none">
<path d="M1045 6985 c-134 -21 -234 -53 -360 -115 -257 -127 -442 -314 -565
-573 -56 -117 -84 -211 -105 -347 -22 -143 -22 -4757 0 -4900 40 -261 152
-491 329 -673 140 -146 355 -276 536 -327 187 -52 88 -50 2620 -50 2532 0
2434 -2 2620 50 99 28 261 106 356 172 92 63 210 178 282 273 66 87 164 285
192 385 52 188 50 89 50 2620 0 2532 2 2434 -50 2620 -28 99 -106 261 -172
357 -68 99 -202 233 -301 301 -96 66 -258 144 -357 172 -187 52 -86 50 -2630
49 -1847 -1 -2383 -4 -2445 -14z m2585 -1223 l115 -67 0 -2195 0 -2195 -115
-67 c-63 -37 -119 -67 -124 -68 -4 0 -64 32 -132 71 l-124 72 0 2187 0 2187
123 72 c67 39 127 70 132 70 6 0 62 -30 125 -67z m-760 -2262 c0 -1078 -3
-1960 -6 -1960 -4 0 -317 179 -695 397 l-689 397 0 1166 0 1166 241 140 c133
76 246 140 250 142 5 2 10 -518 11 -1164 l3 -1167 188 -109 c104 -59 190 -108
193 -108 2 0 5 626 6 1391 l3 1391 240 139 c132 76 243 139 248 139 4 0 7
-882 7 -1960z m1708 1713 c235 -135 486 -280 557 -321 274 -158 370 -214 383
-224 9 -8 12 -148 10 -662 l-3 -651 -245 -141 -245 -141 -5 654 -5 655 -189
109 c-104 60 -191 109 -193 109 -2 0 -3 -495 -3 -1100 0 -605 2 -1100 3 -1100
2 0 199 113 438 250 238 138 437 250 441 250 5 0 8 -127 8 -283 l0 -282 -690
-398 c-379 -218 -692 -397 -695 -397 -3 0 -5 882 -5 1960 0 1078 2 1960 6
1960 3 0 197 -111 432 -247z"/>
</g>
</svg>
