<svg xmlns="http://www.w3.org/2000/svg" viewBox="0 0 1600 1200"><style>.st1,.st2{stroke:#000;stroke-miterlimit:10}.st2{stroke-width:.5}.st3{stroke-width:2}.st3,.st4,.st5{stroke:#000;stroke-miterlimit:10}.st4{fill:none}.st5{stroke-width:.75}</style><g id="Layer_3"><path d="M1123.8 308.6c7.4-5.6 15-12.3 22.5-20.2 1.8-1.9 3.5-3.8 5.1-5.6 6.5 5.1 16.4 11.5 29.8 15.7 7.1 2.3 13.6 3.4 19.1 3.9-3.8 8.4-3.2 13-1.7 15.7 1 1.8 3.4 4.7 3.4 9 0 1.7-.4 2.2 0 2.8 1.9 2.8 12.2-5.1 18-1.7 4.5 2.6 6 11.6 2.8 16.9-3.4 5.6-11 4.7-11.8 9-.8 4 5 8 5.6 8.4 6 4.2 15.5 4.6 21.9 0 6.9-4.9 7.8-13.9 8.4-21.4.9-9.9-1.9-10.9-1.1-20.8 1.1-13.1 6.2-14.7 4.5-21.4-2.6-10.1-16.8-15-25.3-18-11.4-4-13.2-1.7-23.1-4.5-24.9-7-30.1-25.7-46.1-24.7-4.4.3-10.7 2.1-18 9.6-1.6-1.3-9.5-7.8-20.8-6.7-10.4 1-19.3 8.1-23.1 17.4-4.8 12 1 22.8 2.8 25.9 7.7 12.9 21.8 14.9 23.6 15.2M1065.4 169.2v-19.6c7.5.4 15.1.7 22.8.9 31.5.8 61.4-.1 89.5-2.3-.2 7.6-.3 15.2-.5 22.8-37.2-.6-74.5-1.2-111.8-1.8zM689 284.1c-10.2-2.2-13.7-4.4-16.2-6.9-8.3-8.2-9.9-23.8-3.4-34.9 5.9-10.1 16.9-12.9 22.1-14.2 15-3.9 21.3 4.1 46.2 10.3 27.8 7 32 .7 51.1 9.3 9.5 4.3 22.8 10.3 29 24.1 5.4 12 3.1 24.5 1 35.9-1.7 9.2-4.4 15.7-7.9 24.1-6.4 15.4-9.6 23.1-16.2 28-8.4 6.2-22.8 10.3-32.9 3.4-6-4.1-10.9-12.3-9.3-19.2.9-4.2 3.5-4.2 5.9-9.8.7-1.6 4.4-10.6 0-19.2-.7-1.3-5.3-10-14.2-10.3-5.5-.2-9.5 2.8-10.8 3.9 7.9-11.7 7.5-16.7 5.9-19.2-4.7-6.8-21.8.8-50.3-5.3z"/><path class="st1" d="M731.2 310.1c-.4-.3.6-2 1.8-4.8 1.2-2.7 2.7-6.6 2.7-11 0-4.3-1.7-8.1-3.5-10.4-1.7-2.3-3.4-3.3-3.2-3.8.1-.2.6-.2 1.5.1.9.3 2.1 1 3.4 2.1 1.3 1.1 2.5 2.8 3.5 4.8.9 2 1.6 4.5 1.6 7.1 0 2.6-.5 5-1.3 7.1-.8 2.1-1.7 3.8-2.7 5.1-1.9 2.8-3.5 4-3.8 3.7z"/><path class="st1" d="M735.5 302.3c-.8-.5 1.1-4.2 1.9-9 .9-4.8.6-8.8 1.5-9.1.4-.1 1.1.9 1.6 2.6.5 1.8.7 4.3.1 7.1-.5 2.7-1.6 5.1-2.7 6.5-1.1 1.5-2 2.1-2.4 1.9zM759.2 255.7c-.5.1-1.1-1.4-2.1-3.5-.5-1.1-1.2-2.3-2-3.6-.8-1.3-1.8-2.7-3-4.1-1.2-1.4-2.4-2.6-3.5-3.6-1.2-1-2.3-1.9-3.2-2.6-1.9-1.4-3.2-2.3-3.1-2.7.1-.4 1.8-.3 4.2.7 1.2.5 2.6 1.3 4 2.3 1.4 1 2.8 2.3 4.1 3.9 1.3 1.5 2.3 3.2 3.1 4.7.8 1.6 1.3 3 1.6 4.3.5 2.5.3 4.2-.1 4.2zM757.1 364.9c-.2.4-1.9.1-3.9-1.8-2-1.9-3.8-5.5-3.8-9.7 0-4.2 1.6-7.6 2.9-9.8 1.4-2.2 2.6-3.2 3-3 .4.3-.1 1.7-.9 4s-1.7 5.4-1.7 8.8c0 3.4 1.1 6.3 2.3 8.2 1.2 1.9 2.3 2.9 2.1 3.3zM1118.9 321.6c-.4-.1-.6-1.7-.2-4.2.4-2.5 1.4-5.9 3.3-9.3 1.9-3.4 4.3-6.1 6.2-7.7 1.9-1.6 3.4-2.3 3.7-2 .6.7-3.6 5-7 11.3-3.6 6.3-5 12.1-6 11.9zM1196.4 322.9c-.4.2-1.4-.9-2.1-3-.4-1-.7-2.3-.8-3.8-.1-1.5-.1-3.1.3-4.8.3-1.7.9-3.2 1.5-4.5.7-1.3 1.4-2.4 2.2-3.2 1.5-1.7 2.8-2.2 3.1-1.9.3.3-.3 1.5-1.2 3.2-.4.9-.9 1.9-1.3 3.1-.4 1.2-.8 2.5-1.1 4-.3 1.4-.4 2.8-.5 4.1 0 1.3 0 2.4.1 3.4.1 1.9.3 3.2-.2 3.4zM1220 372.7c-.1.4-1.6.4-3.6-.5-.5-.2-1.1-.5-1.6-1-.6-.4-1.1-.9-1.6-1.4-1.1-1.1-2.1-2.4-2.8-4-.8-1.6-1.2-3.2-1.4-4.7-.1-.8-.1-1.5-.1-2.1 0-.7.1-1.3.2-1.8.5-2.2 1.4-3.3 1.8-3.2.5.2.4 1.5.5 3.4 0 .5.1 1 .2 1.5s.2 1.1.3 1.7c.3 1.2.8 2.5 1.4 3.8.6 1.3 1.4 2.4 2.1 3.4.4.5.8.9 1.2 1.3l1.1 1.1c1.4 1.3 2.4 2 2.3 2.5z"/><path class="st2" d="M1130.2 341.8c-.1-.3.2-.7.7-1.1l-.4.5c-.1 0-.1-.1-.1-.1h.5s-.3 0-.4.1c-.2.1-.3.3-.5.3s-.4-.1-.5-.5c-.1-.4.1-1.1.9-1.4l.2-.1.3.1c.3.1.6.2.8.5.4.5.5 1.1.3 1.6l-.2.4h-.2c-.8.1-1.3 0-1.4-.3zM1136.6 339.3c.1-.1.2-.1.3-.2v-.1-.1-.2s.1 0 .1.1h.2s-.1 0-.1.1l-.1.2.2-.3c.1-.1 0 .1 0 .2l-.1-.1c-.1-.1-.1 0-.2-.1-.1 0-.2.1-.3.2h-.3c-.1-.1-.2-.4-.1-.6.1-.2.2-.5.5-.6.2-.1.3-.1.6-.1.2 0 .5.1.7.4l-.1-.1c.1.1.3.3.4.5.2.7-.1 1.1-.4 1.3-.3.2-.6.3-.9.3-.3 0-.5-.2-.6-.4.1-.3.1-.4.2-.4zM1133.8 348.5c0-.1.1-.2.1-.3v-.1c-.1-.1-.2-.2-.2-.1h.3l.2-.1c0-.1.1.1.2.1h-.1c-.1 0-.1.1-.1.1v.3c0 .1-.1.2-.2.2-.2 0-.4 0-.5-.2-.2-.2-.2-.4-.2-.7 0-.1.1-.3.2-.5s.4-.3.7-.4h.2l.2.1c.2.1.4.2.5.4.3.5.2.9.1 1.1-.1.3-.3.5-.6.5-.2.1-.5 0-.6-.1-.3-.1-.3-.2-.2-.3zM1166.4 337.6c.1-.2.3-.3.3-.5v-.2l.1.1.2.4s-.1.2 0 .3c0 .1 0-.1-.1-.1l-.1-.1c-.2.1-.3.1-.4.1-.1 0-.2 0-.3-.1-.1-.2-.1-.4 0-.6.1-.2.3-.4.6-.5.3-.1.8-.1 1.2.3.1.1.1.2.2.2l.2.4-.2.4c-.4.7-1.1.7-1.4.5-.4-.2-.4-.5-.3-.6zM1179 339.9c0-.3.3-.6.9-.8l-.7.7c-.1-.3-.1-.5-.1-.9l.4.6v.1h-.4c-.1 0-.2 0-.3.1-.1.1-.2.2-.3.2-.1 0-.2 0-.3-.1-.1-.2-.2-.4-.1-.7.1-.3.3-.6.6-.8.3-.2.9-.3 1.4 0l.1.1.4.2v.5c0 .3 0 .6-.1.9l-.2.8-.5-.1c-.4-.2-.8-.5-.8-.8zM1172.2 348.6c.1-.2.3-.4.3-.6.1-.2.1-.5.1-.5l.5.5v.1h-.1c-.1 0-.2 0-.3.1-.2.1-.3.3-.5.4-.1 0-.6-.2-.5-.8 0-.3.2-.7.5-.9.3-.3.9-.5 1.5-.3h.1l.4.2.1.4c.1.5-.1 1-.4 1.3-.3.3-.6.5-.9.5-.6.2-.9-.2-.8-.4z"/><path class="st3" d="M350.2 995.9c-.9.2-2.4-3.9-5.1-10.3-.7-1.6-1.4-3.3-2.3-5.2-.8-1.9-1.7-3.8-2.7-5.9-1.9-4.2-4-8.8-6.2-13.8-2.1-5-3.9-9.9-5.3-14.4-.6-2.3-1.2-4.5-1.6-6.6-.2-1.1-.4-2.1-.5-3-.1-1-.2-1.9-.3-2.9-.2-1.8-.2-3.5-.1-4.9 0-.7 0-1.4.1-2 .1-.6.2-1.2.3-1.7.4-2 .8-3.1 1.2-3.1.4 0 .9 1.1 1.3 3 .1.5.2 1 .3 1.6.1.6.3 1.2.4 1.9.3 1.3.6 2.8 1 4.5.2.8.4 1.7.7 2.6.3.9.6 1.8.8 2.8.5 1.9 1.3 3.9 2 6.1 1.6 4.2 3.5 8.9 5.5 13.8 2.1 4.9 4.1 9.6 5.7 14 .8 2.2 1.6 4.3 2.2 6.3.7 2 1.2 3.9 1.6 5.6 1.9 6.9 1.8 11.5 1 11.6z"/><path class="st1" d="M798.9 648c.2.3-3.6 3.6-10.3 8.3-3.4 2.3-7.5 5-12.1 7.7-4.7 2.7-9.9 5.6-15.5 8.4-5.6 2.8-11 5.2-16.1 7.2-5 2-9.6 3.7-13.5 4.9-7.8 2.5-12.7 3.6-12.9 3.2-.3-.9 18.8-7.2 41-18.2 22.2-10.9 38.8-22.3 39.4-21.5z"/><path class="st3" d="M804.9 647.4c.5.7-3.1 4.2-9.7 8.7-3.3 2.3-7.3 4.8-11.9 7.4-4.6 2.6-9.8 5.2-15.4 7.7s-11 4.6-16 6.3c-5 1.7-9.6 3-13.5 3.9-7.8 1.8-12.8 2.3-13 1.4-.5-1.8 18.1-7.8 39.8-17.6 21.8-9.6 38.6-19.4 39.7-17.8z"/><path class="st3" d="M784.2 655.5c-.4-.8.4-2 1.7-3.5 1.4-1.4 3.3-3.1 5.4-4.8 2.2-1.8 4.2-3.3 5.8-4.3 1.7-1 3-1.5 3.7-1 .7.5.7 2-.3 4-.9 2-2.7 4.3-5.2 6.4-2.5 2-5.2 3.3-7.3 3.8-2 .5-3.5.3-3.8-.6z"/><path class="st3" d="M794.1 654.4c-.6-.7-.6-1.8-.2-3 .4-1.2 1.2-2.6 2.2-3.9 1-1.3 2.2-2.4 3.3-3.1 1.1-.7 2.1-.9 2.9-.5.8.4 1.2 1.5 1 2.9-.2 1.4-.9 3.1-2.1 4.7-1.2 1.6-2.7 2.7-4.1 3.1-1.2.5-2.4.4-3-.2z"/><path class="st1" d="M725.2 647.9c-.1.4-3.5 0-8.6-2.1-.6-.3-1.3-.6-2-.9-.7-.3-1.4-.7-2.1-1.1-1.4-.7-2.9-1.7-4.4-2.6-3-2.1-6.1-4.6-9-7.6-2.9-3.1-5.2-6.3-7.1-9.4-.9-1.6-1.8-3.1-2.4-4.6-.3-.7-.7-1.4-1-2.1-.3-.7-.5-1.4-.7-2-1.8-5.2-2-8.6-1.6-8.7.5-.1 1.5 3.1 3.8 7.8l.9 1.8c.3.6.7 1.3 1.1 2 .7 1.4 1.6 2.7 2.5 4.2 1.9 2.9 4.2 5.9 7 8.8 2.8 2.9 5.6 5.3 8.4 7.4 1.4 1 2.7 2 4 2.8.7.4 1.3.8 1.9 1.2.6.3 1.2.7 1.8 1 4.6 2.4 7.7 3.6 7.5 4.1z"/><path d="M726.5 1028.1c-1.3 14.6-2.5 29.3-3.8 43.9-62 22.5-70.6 31.1-69.7 34.9 1.7 7.4 42.3 6.6 75 0 10.5-2.1 19.3-4.7 25.8-6.8-1.3-24-2.5-48-3.8-72h-23.5zM822 1033.4c4.5 13.1 9.1 26.3 13.6 39.4-17.3 14.5-30 20.2-38.6 22.7-3 .9-12.4 3.3-17.4 11.4-1.4 2.3-3.4 5.5-2.3 7.6 4.7 8.9 58.7-11.8 61.4-12.9 10.3-4 18.6-7.9 24.2-10.6l-11.4-69c-9.8 3.9-19.7 7.7-29.5 11.4zM1144.8 969.8c1.5 4 6.6 18.6-.8 29.6-3.1 4.5-7 6.6-12.1 9.1-19.5 9.7-31 3-48.5 12.9-3.5 2-12.2 6.9-11.4 10.6 1.7 7.3 40.7 6.5 61.4.8 1.9-.5 8.7-2.5 18.2-4.5 7.2-1.5 13.1-2.5 16.7-3 1.3-17.9 2.5-35.9 3.8-53.8-9.1-.7-18.2-1.2-27.3-1.7zM1250.1 974.3c1.3 8.8 2.5 17.7 3.8 26.5-12.6 7.8-25.3 15.7-37.9 23.5-4.7 4.6-9.6 10.4-8 13.6 2.5 5 19.5 1.1 28.9-1 22.1-5.1 33.5-13.9 36.4-16.1 3.2-2.6 5.7-5 7.4-6.8-.6-15.9-1.2-31.7-1.9-47.6-9.5 2.7-19.1 5.3-28.7 7.9z"/><path class="st1" d="M1256.6 668.9c.1.4-2.5 1.4-6.9 1.3-2.2 0-4.8-.4-7.6-1.3s-5.7-2.3-8.4-4.4c-2.7-2.1-4.9-4.5-6.5-6.9-1.6-2.4-2.7-4.9-3.3-7-1.3-4.2-1-7-.6-7 .5-.1 1 2.5 2.7 6.2 1.7 3.7 4.7 8.5 9.6 12.1 4.8 3.7 10.3 5.3 14.3 6 4 .7 6.7.5 6.7 1z"/><ellipse transform="rotate(-17.118 1238.525 625.03)" class="st1" cx="1238.3" cy="625" rx="6.5" ry="1.6"/><ellipse class="st1" cx="1263.9" cy="644.8" rx="1.6" ry="11.9"/><path class="st1" d="M799.8 439.2c-.2-.3.4-.9 1.2-1.9.8-1 1.9-2.5 2.5-4.5l.8-2.5 1.6 2.2c.5.7.8 1.6.9 2.5 0 .9-.1 1.8-.5 2.6-.7 1.7-2.3 2.9-3.7 3.7-1.1.6-2.2.9-3.2 1.2-1 .3-2 .6-3 .8-1.9.4-3.7.6-5.2.7-3 .1-4.8-.3-4.8-.7 0-.5 1.8-.9 4.5-1.6 1.4-.3 3-.8 4.8-1.3l2.7-.9c.9-.3 1.9-.7 2.8-1.1 1.1-.6 2-1.3 2.4-2.1.4-.8.4-1.7.2-2.2l2.5-.3c-1.1 2.4-2.8 3.9-4 4.7-1.5.8-2.4 1-2.5.7z"/></g><g id="Layer_2"><path class="st1" d="M1165.2 408.3c-.3-.1.2-1.7 0-4.5-.1-1.4-.5-3.1-1.2-5-.7-1.8-1.9-3.8-3.7-5.4-1.8-1.7-4.2-2.9-7-4.1-1.4-.6-2.9-1.2-4.4-1.9-.8-.3-1.6-.7-2.3-1.2l-1.2-.6c-.4-.2-.8-.5-1.1-.7-6.1-3.9-11.6-10-15.4-17.4-3.8-7.4-5.7-15.1-6.5-22.2-.8-7.1-.7-13.4-.3-18.7.3-5.3.9-9.5 1.3-12.5.4-2.9.8-4.5 1-4.5.2 0 .3 1.7.3 4.6 0 2.9-.2 7.2-.2 12.4s.1 11.5 1 18.2c.9 6.8 2.8 14.1 6.4 21 3.6 6.9 8.6 12.7 14.1 16.4.3.2.7.5 1 .7.4.2.7.4 1.1.6.7.4 1.4.8 2.1 1.1 1.4.7 2.9 1.3 4.3 2 2.8 1.3 5.6 2.9 7.5 4.9 2 2.1 3.2 4.4 3.8 6.5.7 2.1.8 4 .8 5.6-.3 3.3-1.2 4.8-1.4 4.7zM1207.1 350.3c.2-.2.8.4 1.9.9 1.1.5 3 .9 5.1.5 1.1-.2 2.2-.7 3.2-1.4.5-.3 1-.8 1.4-1.2.4-.5.9-1.1 1.2-1.7 1.4-2.5 1.9-5.9 1.3-9.3-.5-3.4-2-6.6-3.9-8.7-1-1.1-2.1-1.9-3.2-2.4s-2.3-.7-3.4-.7c-2.2 0-4 .7-5 1.4-1.1.7-1.6 1.3-1.8 1.2-.2-.1-.1-1 .9-2.1 1-1.2 3-2.5 5.7-2.8 1.4-.1 2.9 0 4.5.5 1.6.6 3.1 1.5 4.4 2.8 2.6 2.6 4.4 6.3 5 10.3.6 4 0 8.2-2 11.4-.5.8-1.1 1.5-1.7 2.1-.7.6-1.4 1.2-2.1 1.6-1.5.8-3 1.2-4.3 1.4-2.8.2-5-.7-6.2-1.7-.9-1.1-1.1-2-1-2.1zM1143.6 309c-.4.2-1.1-.7-2.2-1.5-1.1-.9-2.8-1.9-4.7-2.1-1.9-.2-3.8.4-5 1.1-1.3.6-2.1 1.3-2.5 1.1-.4-.2-.3-1.4 1-2.9 1.2-1.4 3.7-2.9 6.8-2.5 3.1.3 5.3 2.3 6.2 3.9.9 1.6.8 2.8.4 2.9zM1180.1 310.9c-.4.3-1.4-.6-2.8-2s-3.3-3.4-5.7-4.4c-1.1-.4-2.3-.5-3.4-.4-1.1.2-2.1.5-2.8.9-1.4.8-1.9 2.1-2.3 2-.2 0-.4-.4-.4-1.1 0-.7.4-1.7 1.2-2.6 1.6-1.9 5.3-3.3 9-1.8 1.7.7 3.1 1.8 4.1 2.9 1 1.1 1.7 2.2 2.3 3.1.8 1.8 1.1 3.1.8 3.4zM1141 323c-.5.1-1-.7-1.8-1.6-.4-.4-.9-.9-1.5-1.4-.6-.4-1.3-.9-2.1-1.2-.8-.3-1.6-.5-2.4-.7-.7-.1-1.4-.2-2-.1-1.2 0-2.1.2-2.4-.2-.3-.3.2-1.3 1.8-2 .7-.4 1.7-.6 2.8-.6 1.1 0 2.3.2 3.5.7 1.2.5 2.1 1.2 2.9 2 .7.8 1.3 1.7 1.5 2.5.5 1.5.1 2.6-.3 2.6z"/><path class="st1" d="M1132.7 327.8c-.3.3-1.1.1-1.8-.7-.8-.8-1.4-2.3-1.4-4 0-1.7.7-3.2 1.4-4 .8-.8 1.5-1 1.8-.7.3.3.3 1 .2 1.8-.1.8-.2 1.8-.2 2.9 0 1.1.1 2.1.2 2.9.1.9.1 1.5-.2 1.8zM1181 323.3c-.3.3-1.3-.2-2.6-1.1-1.3-.9-2.9-2.2-4.8-3.2-1.8-.9-3.7-1.3-5.1-1.3-1.4 0-2.3.2-2.6-.2-.3-.3.4-1.4 2.2-2.1 1.8-.7 4.5-.6 7 .7 2.5 1.3 4 3.1 5 4.5.9 1.3 1.2 2.3.9 2.7z"/><path class="st1" d="M1170.6 327.9c-.3.3-1.1.1-1.9-.8-.8-.8-1.6-2.3-1.7-4.1-.2-1.8.3-3.4.9-4.4.6-1 1.3-1.4 1.7-1.1.4.2.5.9.5 1.8s0 2.1.1 3.4c.1 1.3.3 2.4.5 3.3.2.9.3 1.6-.1 1.9zM1152.6 351.8c0 .1-.1.2-.4.3-.2 0-.3.1-.6.1h-.8c-1.2-.1-3-1-4.3-2.7-1.3-1.7-2.3-4.1-2.6-6.9-.1-.7-.1-1.4-.1-2.1 0-.7 0-1.4.1-2.1.1-1.4.4-2.9.7-4.4.6-2.9 1.4-5.6 2-8 .6-2.4 1.2-4.6 1.5-6.4.7-3.6.6-6 1.1-6.1.4-.1 1.3 2.3 1.2 6.3 0 2-.3 4.3-.8 6.8s-1.2 5.2-1.7 8c-.3 1.4-.5 2.8-.7 4.1-.1.7-.1 1.3-.2 1.9-.1.6-.1 1.2 0 1.7.1 2.3.7 4.3 1.5 5.8s1.9 2.3 2.7 2.7l.6.3c.2.1.3.1.5.2.2.2.3.4.3.5zM1162.9 356.3c.3.2.1 1.5-1.2 3-.6.8-1.5 1.6-2.7 2.3-1.1.7-2.5 1.2-4 1.6-1.5.3-3 .3-4.3.2-1.3-.2-2.5-.5-3.4-1-1.8-.9-2.5-2-2.3-2.3.3-.4 1.4-.1 3 .1.8.1 1.8.2 2.9.2 1.1 0 2.2-.1 3.4-.4 1.2-.3 2.3-.6 3.3-1s1.8-.9 2.5-1.3c1.5-1 2.4-1.7 2.8-1.4z"/><path class="st4" d="M1181.1 340.2"/><path class="st1" d="M1213.1 408.6c.3.2-1.5 4.5-6.1 10.5-2.3 3-5.2 6.4-9 9.7-1.9 1.7-4.1 3.3-6.7 4.5-1.3.6-2.7 1.1-4.2 1.4-1.5.3-3 .4-4.6.4-1.5-.1-3-.4-4.5-.8-1.4-.4-2.8-1-4.1-1.7-2.5-1.4-4.7-3.2-6.4-5.2-3.4-4.1-4.7-8.8-5.1-12.6-.4-3.9.1-7 .6-9 .6-2.1 1.1-3.1 1.3-3 .2.1.1 1.2-.1 3.2-.1 2-.3 5 .4 8.5.6 3.5 2.1 7.6 5.1 11 3 3.4 7.6 6.1 12.8 6.4 1.3 0 2.5 0 3.7-.3 1.2-.2 2.4-.6 3.5-1.1 2.3-1 4.3-2.4 6.1-3.9 3.7-3 6.7-6.2 9.2-8.9 5.1-5.6 7.6-9.4 8.1-9.1zM1285.4 570c-.1-.1.4-.7 1.3-1.7.5-.5 1.1-1.1 1.7-1.9.7-.8 1.4-1.6 2.3-2.6 3.4-4 7.8-10.2 11.8-18.6 3.9-8.4 7.2-19.1 8.5-31.4.6-6.1.8-12.6.3-19.3-.5-6.7-1.5-13.5-3.4-20.4-1.8-6.8-4.3-13.3-7.3-19.3s-6.5-11.4-10.4-16.2a89.99 89.99 0 00-24.5-21.2c-4-2.3-7.8-4.1-11.3-5.6-1.7-.7-3.3-1.3-4.8-1.8s-2.9-1-4.1-1.3c-1.3-.3-2.4-.6-3.4-.9-1-.3-1.8-.4-2.5-.6-1.3-.3-2-.6-2-.7 0-.1.7-.1 2.1 0 .7.1 1.6.1 2.6.3 1 .2 2.2.4 3.5.6 1.3.3 2.7.7 4.3 1.1 1.6.4 3.2 1 5 1.6 3.6 1.3 7.5 3 11.7 5.3 8.3 4.6 17.6 11.5 25.7 21.4 4 4.9 7.7 10.5 10.9 16.6 3.2 6.1 5.7 12.8 7.6 19.9 1.9 7.1 3 14.1 3.4 21 .4 6.9.2 13.5-.5 19.8-1.5 12.6-5.1 23.5-9.4 32.1-4.3 8.5-9.2 14.7-12.9 18.5-1 .9-1.8 1.7-2.6 2.4-.7.7-1.4 1.2-2 1.7-1 .9-1.6 1.3-1.6 1.2zM1245.3 553.3c-.2-.2.7-1.3 2.2-3.2 1.5-1.9 3.7-4.7 5.9-8.4 1.1-1.8 2.3-3.9 3.4-6.2 1.1-2.3 2.1-4.8 3-7.5 1.8-5.4 2.9-11.6 2.8-18.1-.1-3.2-.5-6.4-1.2-9.4-.6-3-1.6-5.8-2.7-8.4-2.2-5.2-5.1-9.5-7.9-12.8-2.8-3.2-5.5-5.5-7.4-7-.5-.4-.9-.7-1.3-1-.4-.3-.7-.5-1-.7-.5-.4-.8-.7-.7-.8.1-.1.4 0 1 .2.3.1.7.3 1.1.5.4.2 1 .4 1.5.8 2.2 1.2 5.2 3.3 8.4 6.5.8.8 1.6 1.7 2.4 2.6.8 1 1.6 2 2.3 3.1 1.5 2.2 3 4.7 4.2 7.4 1.2 2.7 2.3 5.7 3.1 8.9.7 3.2 1.2 6.6 1.3 10.1.1 7-1.2 13.5-3.2 19.2-1 2.8-2.2 5.4-3.4 7.8-1.3 2.3-2.6 4.4-3.9 6.3-2.6 3.7-5.1 6.3-6.9 8-1.7 1.4-2.9 2.2-3 2.1zM1281.8 575.3c.1.2-.4.6-1.5 1.1-1.1.4-2.8.7-4.8.7-2.1-.1-4.5-.6-7-1.3-2.5-.8-5.2-1.8-8-3.2-2.7-1.4-5.2-3-7.3-4.7-2.1-1.7-3.7-3.5-4.9-5.2-2.4-3.3-3-5.8-2.6-6 .5-.2 1.7 1.8 4.4 4.5 2.6 2.7 6.7 5.9 11.9 8.5 2.6 1.3 5.1 2.4 7.5 3.3 2.3.9 4.5 1.6 6.3 1.9 3.5.6 5.8-.1 6 .4zM1237.1 607.8c0 .2-.8.5-2.3.2-1.4-.3-3.5-1.5-4.8-3.9-1.4-2.4-1.8-5.5-1.7-8.8.1-3.3.8-7 2.4-10.6 1.6-3.6 3.9-6.5 6-8.9 2.2-2.4 4.3-4.4 6.1-6 3.7-3.2 6.2-4.8 6.5-4.5.3.3-1.7 2.6-4.9 6.1-1.6 1.8-3.5 3.9-5.5 6.3s-3.9 5.1-5.3 8.3c-1.4 3.1-2.2 6.4-2.4 9.4-.3 3 0 5.7.8 7.6.8 1.9 2.2 3.1 3.2 3.7 1.2.7 1.9.9 1.9 1.1z"/><path class="st1" d="M1278.4 621.7c-.2 0-.4-.8-.1-2.1.2-1.3 1.1-3 1.9-4.9.7-1.8.8-4.1.3-6.8-.6-2.7-1.5-5.7-2.6-8.8-1.1-3.1-2.2-6-3.3-8.7-1.1-2.7-2-5.3-2.5-7.5-.4-2.3-.3-4.2 0-5.5.3-1.3.7-1.9.9-1.8.5.1-.1 2.8 1.3 6.7.6 2 1.7 4.3 3 6.9 1.3 2.6 2.6 5.6 3.7 8.8.6 1.6 1 3.2 1.4 4.8.4 1.5.8 3.1 1 4.6.2 1.5.3 3 .1 4.5-.2 1.4-.7 2.8-1.2 3.8-1.2 2.1-2.2 3.4-2.8 4.4-.6 1-.9 1.6-1.1 1.6zM1245.5 639.1c-.2.1-.6-.4-1.1-1.5-.4-1.1-.8-2.7-.8-4.7s.2-4.4.7-7c.5-2.5 1.1-5.2 1.5-8 .4-2.8.7-5.5.8-8 .1-2.5-.1-4.7-.3-6.5-.5-3.7-1.3-5.9-.9-6.1.4-.2 2 1.8 3.1 5.7.6 1.9 1 4.3 1.1 7 .1 2.6-.1 5.5-.5 8.5-.5 3-1.2 5.8-1.8 8.2-.6 2.4-1.1 4.6-1.4 6.4-.5 3.5.1 5.8-.4 6z"/><path class="st1" d="M1246.4 637.3c-.8-.6 4.8-8 8.2-18.6 3.5-10.6 3.2-19.9 4.2-19.9.4 0 1 2.3 1.1 6.1.1 1.9-.1 4.2-.4 6.7-.4 2.5-1 5.3-1.8 8.1-.9 2.8-2 5.4-3.2 7.6-1.2 2.2-2.4 4.2-3.6 5.7-2.3 3-4.2 4.6-4.5 4.3zM1254.8 633.7c-.3-.4 1.5-1.7 3.5-4.3 2-2.5 4.2-6.6 5.3-11.4 1.2-4.9 1.4-9.5 1.6-12.9.2-3.4.4-5.6.9-5.6.4 0 1 2.1 1.4 5.5.4 3.4.6 8.4-.7 13.7-1.3 5.4-4.1 9.8-6.8 12.2-2.8 2.6-5.1 3.2-5.2 2.8zM1263.7 631.1c-.3-.3.6-1.7 1.9-3.9.7-1.1 1.4-2.4 2.1-3.9.7-1.5 1.4-3.2 1.9-5 .5-1.8.9-3.6 1.2-5.2.2-1.6.4-3.1.5-4.4.1-2.5.1-4.2.6-4.3.4-.1 1.2 1.4 1.7 4.2.2 1.4.3 3 .2 4.8-.1 1.8-.5 3.8-1.1 5.9-.6 2-1.5 3.9-2.4 5.4-1 1.6-1.9 2.9-2.9 3.9-1.8 2-3.4 2.8-3.7 2.5zM1019.1 397.3c-.4.1-1.8-2.6-2.7-7.6-.4-2.4-.7-5.4-.7-8.7 0-3.3.3-6.9.7-10.6.5-3.7 1.1-7.2 1.7-10.4.6-3.1 1.2-6 1.9-8.4 1.3-4.8 2.7-7.5 3.1-7.4.4.1-.2 3.1-.8 7.8-.7 4.8-1.6 11.4-2.6 18.7-1 7.3-1.3 13.8-.9 18.6.1 5 .7 7.9.3 8zM1123.4 468.4c-.2.4-6.5-3-16.2-9-9.8-6-23-14.6-37.3-24.6-14.3-10-26.9-19.6-35.9-26.7-9-7.1-14.3-11.8-14-12.2.3-.4 6.1 3.7 15.4 10.3 9.3 6.6 22.1 15.8 36.4 25.9 14.3 10 27.3 18.9 36.7 25.4 9.4 6.4 15.1 10.5 14.9 10.9zM1160 398c-.1.1-.5-.1-1.4-.5-.8-.5-2-1.1-3.6-1.9-3.1-1.7-7.7-3.8-13.7-5.9-6-2.1-13.2-4-21.4-6.1-8.2-2.1-17.1-4.7-26.3-7.7-18.5-6.1-34.8-13-46.3-18.5-5.8-2.7-10.3-5.1-13.5-6.9-3.1-1.8-4.8-2.8-4.7-3 .2-.4 7.4 2.9 19.1 7.8 11.7 4.9 28 11.4 46.4 17.5 9.2 3 18 5.6 26.1 7.9 8.1 2.3 15.4 4.5 21.4 6.9 6 2.4 10.6 4.9 13.5 6.9 1.5 1 2.6 1.9 3.3 2.5.8.6 1.2.9 1.1 1z"/><path class="st1" d="M1116.7 614c-.4 0-.5-8.4-.3-21.9.3-13.5.8-32.1 1.7-52.7s1.8-39.2 2.7-52.6c.9-13.5 1.6-21.8 2.1-21.8s.5 8.4.3 21.9c-.3 13.5-.8 32.1-1.7 52.7-.8 20.6-1.8 39.2-2.7 52.7-.9 13.4-1.7 21.7-2.1 21.7z"/><path class="st1" d="M1219.9 629.1c.1.4-5.7 2.6-15.7 4.3-9.9 1.8-24 2.6-39.3.5-15.3-2.1-28.6-6.9-37.6-11.3-2.3-1-4.3-2.2-6-3.3-1.7-1.2-3-2.4-3.9-3.5-.9-1.2-1.4-2.2-1.6-2.9-.2-.7-.2-1.1-.2-1.2.3-.1.8 1.4 2.7 3.2 1.9 1.9 5.3 3.8 9.9 5.6 9.1 3.8 22.2 8.1 37.2 10.2 14.9 2.1 28.7 1.6 38.5.5 9.9-1.2 15.9-2.6 16-2.1z"/><path class="st1" d="M1124.8 952.9c-.1 0-.1-1.2.1-3.4s.5-5.4.8-9.6c.7-8.3 1.5-20.4 2-35.4s.7-32.8.7-52.6c0-19.8.1-41.6.1-64.5.2-45.7.5-87.1.9-117.1.2-15 .4-27.1.6-35.5.1-4.2.1-7.4.2-9.6.1-2.2.2-3.4.3-3.4.1 0 .2 1.1.4 3.4s.3 5.5.4 9.7c.3 8.4.3 20.5.5 35.5.2 30 .2 71.4.1 117.1-.1 22.9-.2 44.7-.4 64.5-.2 19.8-.6 37.7-1.4 52.7-.8 15-2 27.1-3.1 35.4-.6 4.2-1 7.4-1.4 9.6-.4 2.1-.6 3.2-.8 3.2zM1288.5 949.8c-.3 0 0-4-.2-11.2-.1-7.2-1-17.6-3-30.3-1-6.4-2.2-13.3-3.5-20.8-.6-3.7-1.3-7.6-1.9-11.6-.3-2-.6-4-1-6.1-.3-2.1-.6-4.1-.9-6.3-2.4-16.9-4.5-35.6-6.1-55.2-3.3-39.3-4.3-75-4.9-100.8-.3-12.9-.4-23.3-.4-30.6 0-7.2.1-11.2.3-11.2.2 0 .6 4 .9 11.2.4 7.2.9 17.6 1.4 30.5 1.2 25.8 2.6 61.4 5.9 100.6 1.6 19.6 3.6 38.2 5.8 55.1.3 2.1.5 4.2.8 6.3.3 2.1.6 4.1.9 6.1.6 4 1.1 7.9 1.7 11.6 1.2 7.5 2.3 14.5 3.1 20.9 1.7 12.8 2.2 23.4 2 30.6-.1 1.8-.1 3.4-.2 4.8s-.2 2.6-.3 3.5c-.1 2-.3 3-.4 2.9zM1222.9 962.6c-.1 0-.3-1.1-.5-3.1s-.4-5-.7-8.9c-.5-7.7-1.3-19-2.3-32.8-2-27.7-5.2-65.9-10.1-108-2.5-21-4.9-41.1-7.8-59.1-2.9-18.1-6.5-34.2-10.6-47.4-4-13.2-8.3-23.6-11.5-30.6-.8-1.7-1.5-3.3-2.2-4.7-.7-1.3-1.2-2.5-1.7-3.4-.9-1.8-1.3-2.8-1.2-2.9.1-.1.7.8 1.8 2.6.5.9 1.2 2 2 3.2.8 1.3 1.5 2.8 2.5 4.6 3.6 6.9 8.3 17.2 12.6 30.5 4.4 13.3 8.2 29.4 11.3 47.6 3.1 18.2 5.6 38.2 8.1 59.3 4.9 42.1 7.7 80.4 9.1 108.2.7 13.9 1.1 25.1 1.3 32.9.1 3.9.1 6.9.1 8.9s-.1 3.1-.2 3.1z"/><path class="st1" d="M1190.5 967.2c-.2 0-.5-3.3-.8-9.2-.2-3-.3-6.6-.5-10.8-.1-4.2-.3-9-.4-14.4-.3-10.6-.4-23.3-.4-37.4 0-14.1.2-29.6.7-45.8.5-16.2 1.2-31.7 2-45.8.8-14.1 1.7-26.7 2.6-37.3.4-5.3.9-10.1 1.3-14.3.4-4.2.8-7.8 1.1-10.8.7-5.9 1.2-9.2 1.4-9.2s.2 3.3-.1 9.3c-.3 5.9-.8 14.5-1.4 25.2-.6 10.6-1.2 23.3-1.9 37.3-.6 14.1-1.2 29.5-1.7 45.7-.5 16.2-.8 31.7-1 45.7-.2 14.1-.3 26.7-.3 37.4 0 10.6-.1 19.3-.1 25.2-.2 5.9-.3 9.2-.5 9.2zM1180.6 971.4c0 .9-12.8 1.5-28.4-.4-3.9-.5-7.6-1-11-1.7-3.4-.7-6.4-1.6-8.8-2.7-2.4-1.1-4.2-2.3-5.4-3.2-1.1-1-1.6-1.7-1.5-1.8.3-.4 2.9 1.4 7.6 2.9 2.4.7 5.3 1.4 8.5 1.9 3.3.5 7 .9 10.8 1.4 15.6 1.8 28.2 2.7 28.2 3.6zM1287.7 960.6c.3.3-2.1 3.2-7.3 6.2-5.1 3-13.1 5.8-22.1 6.4-9 .6-17.2-.7-22.8-2-5.7-1.4-9.1-2.7-9-3.1.1-.5 3.7.1 9.4.8 5.7.7 13.6 1.6 22.2 1.1 8.6-.6 16.2-2.8 21.3-5.2 5.2-2.4 8-4.6 8.3-4.2zM999.6 341.5c-.2.4-4.2-.7-10.5-2.6-6.4-1.8-15.2-4.3-25.2-4.3-2.5-.1-5.1-.1-7.6-.4-2.5-.3-4.9-.8-7-1.5-4.3-1.4-7.9-3.1-11-4.3-1.5-.6-2.9-1.1-4.2-1.4-1.2-.3-2.2-.4-2.8-.1-.7.3-1.1.8-1.2 1.2-.2.4-.2.7-.3.7-.1 0-.3-.2-.4-.8 0-.6.3-1.5 1.2-2.2 1-.7 2.4-.8 3.8-.6 1.4.2 2.9.5 4.5 1 3.3.9 7 2.4 11.1 3.6 2.1.6 4.2 1 6.5 1.2 2.3.2 4.7.3 7.3.3 2.6.1 5.1.2 7.6.5 2.4.3 4.8.8 7 1.3 4.4 1.1 8.2 2.4 11.3 3.6 6.3 2.5 10 4.4 9.9 4.8zM988.9 357.6c0 .4-1.6.9-4.4 1.1-1.4.1-3 .1-4.9-.2-1.9-.3-3.9-.9-5.9-2-.5-.3-.9-.6-1.4-.9-.5-.4-1-.8-1.4-1.5-.4-.7-.6-1.6-.5-2.4.1-.8.4-1.4.7-1.9 1.2-1.8 2.7-2.9 4-3.5 1.4-.6 2.6-.8 3.4-.8.8 0 1.3.2 1.3.4.1.5-1.6.9-3.5 2.4-.9.7-1.9 1.8-2.6 3-.1.3-.2.6-.2.7 0 .1 0 .2.1.4s.3.4.6.6c.3.2.7.5 1.1.7 3.2 1.8 6.8 2.3 9.3 2.7 2.6.4 4.3.7 4.3 1.2zM954.5 345.3c-.2.8-6.2 0-12.8-3.2-4.7-2.3-8.2-5-9.7-6.7l-2.5-2.9 3.1 1.6c.8.4 1.2.8 1.2 1-.1.3-.6.4-1.5.4l.6-1.3c2 .8 5.8 2.8 10.3 5 6.2 3.1 11.5 5.2 11.3 6.1zM963.4 355.1c.2.4-.8 1.3-2.9 2-1 .3-2.3.6-3.8.6s-3.2-.3-4.8-1.1c-3.4-1.6-5.1-4.8-5.3-7.1-.1-1.2 0-2.1.3-2.7.3-.6.6-.9.8-.8.5.1.5 1.4 1.2 3s2.2 3.6 4.5 4.7 4.9 1.2 6.8 1.1c1.7 0 3-.2 3.2.3z"/><path class="st1" d="M963.1 363.4c.2.4-.8 1.3-2.8 1.9-2 .6-5.1.5-8-.9-.7-.4-1.4-.8-2-1.3-.6-.5-1.2-1.1-1.6-1.6-.9-1.2-1.4-2.4-1.5-3.6-.1-1.1.2-2.1.5-2.6.4-.5.7-.7.9-.6.4.2.2 1.3.8 2.7.3.7.8 1.5 1.6 2.2.4.4.8.7 1.2 1 .5.3 1 .6 1.6.9 2.2 1.1 4.6 1.5 6.3 1.6 1.6 0 2.8-.2 3 .3z"/><path class="st1" d="M963.6 370.8c.3.3-.4 1.4-2.2 2.3-.9.4-2 .7-3.4.7-1.3 0-2.8-.3-4.2-1.1-1.4-.8-2.4-1.9-3.1-3-.7-1.1-1-2.3-1.1-3.3-.2-2 .5-3.1.9-3 .5 0 .7 1.1 1.4 2.4.6 1.3 1.8 3 3.6 4.1 1.8 1 3.8 1.2 5.3 1 1.5-.2 2.5-.5 2.8-.1zM1022.7 349.8c-.1.9-5.9.8-12.6-1.6-6.7-2.3-11.4-5.9-10.9-6.6.5-.8 5.6 1.3 12 3.5 6.3 2.3 11.7 3.8 11.5 4.7zM1012.4 374c-.2.9-5.4.4-11.6-1.1-3.1-.7-5.9-1.6-7.9-2.3-.5-.2-.9-.4-1.3-.6-.1 0-.2-.1-.3-.1-.1.2.1-.3.1-.2v.2s-.1-.1-.2-.1h-.2l-.2-.1h-.1l.1-.1V369.9c0 .1 0 .1-.1.2 0 0-.2.1-.4-.1-.2-.3-.1-.5 0-.7.1-.2.2-.3.3-.5.2-.2.4-.3.7-.4H992.2c.4 0 .9 0 1.4.1 2.1.2 5 .7 8.1 1.4 6 1.3 10.9 3.2 10.7 4.1z"/><path class="st5" d="M733.7 389.8c-.2 0-.2-1.7-1.3-4.4-.5-1.4-1.3-2.9-2.5-4.6-1.2-1.7-2.8-3.4-4.7-5.1-1.9-1.7-4.2-3.4-6.9-5-2.6-1.6-5.5-3.3-8.5-5.2-3-1.9-6-4.2-8.7-7.2-2.6-3-4.7-6.6-6.1-10.5-1.4-3.9-2.2-7.9-2.6-11.8-.4-3.9-.5-7.6-.4-11.1 0-3.5.2-6.9.4-10 .2-3.1.3-6 .4-8.7.3-5.3.6-9.6.8-12.5.2-3 .5-4.6.6-4.6s.3 1.6.3 4.6v12.6c0 2.7-.1 5.6-.1 8.7-.1 3.1-.2 6.4-.1 9.9 0 3.5.1 7.1.6 10.8.4 3.7 1.2 7.5 2.5 11.2 1.3 3.7 3.2 7 5.6 9.8 2.4 2.8 5.3 5 8.1 6.9 2.9 1.9 5.7 3.7 8.3 5.4 2.6 1.7 5 3.6 6.9 5.4 1.9 1.9 3.5 3.8 4.7 5.7 1.1 1.8 1.9 3.6 2.2 5.1.9 2.9.6 4.7.5 4.6zM741.3 340.2c.1-.2.9.5 2.5 1s4.2.6 6.9-.7c2.7-1.2 5.1-4.2 6.2-8.1.6-1.9.9-4.1.9-6.3.1-2.2-.1-4.5-.6-6.8s-1.3-4.4-2.4-6.3c-1.1-1.8-2.6-3.4-4.2-4.6-1.6-1.2-3.3-2-5-2.3-1.7-.4-3.3-.3-4.8 0-2.9.7-5 2.3-6.1 3.6-1.1 1.3-1.5 2.3-1.7 2.2-.1 0-.1-1.1.9-2.8 1-1.6 3-3.7 6.4-4.7 1.6-.5 3.6-.7 5.6-.4 2 .3 4.1 1.2 6 2.5 1.9 1.3 3.6 3 4.9 5.1 1.3 2.1 2.2 4.5 2.8 7 .5 2.5.7 5 .6 7.4-.1 2.4-.5 4.7-1.2 6.9-.7 2.1-1.7 4.1-3.1 5.6-1.3 1.6-3 2.7-4.6 3.3-3.3 1.3-6.3.9-8 0-1.6-.5-2.1-1.5-2-1.6z"/><path class="st5" d="M694.6 333.6c0 .1-.3.4-.9.6-.7.2-1.8.2-3-.2-1.2-.5-2.4-1.4-3.4-2.7-1-1.3-1.7-3.1-1.7-5.1 0-1.9.5-3.7 1.2-5.1.7-1.4 1.4-2.6 2.1-3.5 1.4-1.8 2.5-2.7 2.7-2.6.3.2-.3 1.5-1.3 3.5-.9 2-2.3 4.7-2.3 7.7 0 1.4.5 2.8 1.1 3.9.7 1.1 1.5 1.9 2.3 2.4 1.7 1 3.1.8 3.2 1.1zM709.7 335.4c.2.3-.3 1.1-1.4 2.1-1.1 1-2.8 2.3-5.1 3.1-2.4.7-4.8.4-6.2-.4-1.5-.8-1.9-1.8-1.7-2 .2-.3 1 .2 2.3.4 1.2.2 3 .3 4.9-.3 1.9-.6 3.5-1.5 4.8-2.1 1.3-.7 2.2-1.1 2.4-.8z"/><path class="st1" d="M776.1 445.5c0-.2 1.7-.7 4.7-1.4 1.5-.4 3.4-.8 5.5-1.4 2.1-.6 4.5-1.4 6.9-2.6 2.4-1.2 5-2.7 7.2-4.9.5-.6 1.1-1.1 1.6-1.8.5-.6 1-1.3 1.4-2 .8-1.4 1.5-2.9 2-4.6 1-3.3 1.1-7 .2-10.7-.2-1-.5-2.1-.6-3.3 0-1.3.3-2.6.8-3.7 1.1-2.2 2.8-3.8 4.2-5.3.7-.8 1.4-1.5 1.9-2.3.5-.8.9-1.5 1.1-2.3.4-1.5.1-3.3-.6-4.8-1.5-3.1-4.9-4.7-8.2-5.2-3.4-.5-6.8 0-9.9.7-3.1.8-6 1.8-8.6 2.7-2.6.9-5.1 1.7-7.3 2.3-2.2.6-4.1.9-5.7 1-3.2.2-5-.2-4.9-.4 0-.3 1.8-.3 4.8-.9 1.5-.3 3.3-.8 5.4-1.5 2.1-.7 4.4-1.7 7-2.7 2.6-1.1 5.5-2.3 8.7-3.2 3.3-.9 7-1.6 11-1.1 2 .3 4 .8 5.9 1.9 1.9 1.1 3.7 2.7 4.7 4.8 1.1 2.1 1.6 4.6.9 7.1-.4 1.2-.9 2.3-1.6 3.3-.7 1-1.5 1.8-2.2 2.6-1.5 1.6-2.9 3-3.7 4.5-.4.7-.5 1.5-.5 2.3 0 .8.2 1.7.4 2.7 1 4.2.8 8.5-.4 12.3-.6 1.9-1.4 3.7-2.5 5.2-.5.8-1.1 1.5-1.7 2.2-.6.7-1.2 1.3-1.9 1.9-2.6 2.4-5.5 3.9-8.1 5-2.7 1.1-5.2 1.7-7.4 2.2-2.2.5-4.1.7-5.7.9-3 .7-4.8.7-4.8.5zM770.7 446.7c.1.2-.9.7-2.8 1.4s-4.6 1.6-8.2 2.3c-3.5.7-7.9 1.4-12.8.8-2.4-.3-5-.9-7.5-2s-4.9-2.6-7.1-4.4c-2.2-1.8-4-3.9-5.6-6.1-1.6-2.1-2.9-4.4-3.9-6.5-2.1-4.4-3.3-8.5-4.2-12-.9-3.5-1.3-6.3-1.6-8.3-.3-2-.3-3.1-.1-3.1.2-.1.7 1 1.3 2.9.6 1.9 1.5 4.6 2.6 8 1.1 3.3 2.6 7.2 4.7 11.3 1.1 2 2.3 4 3.8 6s3.2 3.8 5.2 5.5c1.9 1.7 4.1 3 6.2 4 2.2 1 4.4 1.6 6.6 1.9 4.4.7 8.6.3 12-.1 3.5-.4 6.3-1 8.2-1.3 2.1-.4 3.2-.5 3.2-.3zM807 631.1c-.2.1-1.2-2.6-2.7-7.4-.8-2.4-1.6-5.4-2.5-8.9-1-3.5-1.8-7.5-2.7-11.9-1.7-8.9-3.3-19.6-4.1-31.6-.8-12-.9-25.2-.1-39s2.3-26.9 4.2-38.7c1.8-11.8 4.1-22.4 6.1-31.2 1-4.4 1.9-8.3 2.4-11.8s.8-6.5.8-9c0-5-.8-7.7-.5-7.8.2-.1 1.3 2.6 1.7 7.7.2 2.6.2 5.7-.2 9.3-.4 3.6-1.1 7.7-2 12.1-1.7 8.8-3.7 19.4-5.4 31.1-1.7 11.8-3.1 24.8-3.9 38.4-.8 13.7-.8 26.7-.1 38.6.6 11.9 2 22.5 3.3 31.3 2.9 18 6.2 28.7 5.7 28.8zM679 705.4c-.2.1-1-2.6-2.3-7.5-.6-2.5-1.2-5.5-2-9-.6-3.5-1.4-7.6-2-12.1-1.3-9-2.3-19.7-2.8-31.7s-.4-25.1.1-38.9c.5-13.8 1.3-26.9 2-38.8.7-11.9 1.5-22.6 2.1-31.6.6-9 1.2-16.3 1.7-21.3s.8-7.8 1.1-7.8c.2 0 .3 2.8.2 7.9s-.3 12.4-.7 21.4c-.4 9-.8 19.8-1.4 31.7-.6 11.9-1.3 25-1.8 38.7-.5 13.7-.6 26.8-.3 38.7.3 11.9 1.1 22.6 2 31.5 2 17.8 4.7 28.6 4.1 28.8z"/><path class="st1" d="M805.4 636c.2.1-1 1.8-3.5 4.5s-6.3 6.4-11.4 10.6c-5.1 4.2-11.5 8.6-19 13s-16 8.7-25.2 12.7-18 7.4-26.1 10.5c-8.1 3-15.3 5.8-21.4 8.1-12.2 4.6-19.6 7.8-19.8 7.3-.2-.4 6.9-4.3 18.9-9.5 6-2.6 13.2-5.5 21.2-8.7 8-3.2 16.8-6.7 25.9-10.7 9.1-4 17.5-8.1 25-12.3 7.5-4.2 13.9-8.4 19.1-12.3 10.4-7.6 15.9-13.5 16.3-13.2zM812.2 842.8c-.2 0-.4-2.8-.4-7.8-.1-5-.1-12.3-.1-21.3 0-18-.1-42.8-.5-70.2-.4-27.4-1.1-52.2-1.7-70.1-.2-4.5-.6-8.5-1.1-11.9-.6-3.5-1.3-6.4-2-8.8-1.5-4.7-2.9-7.1-2.7-7.3.1-.1.5.5 1.3 1.6.3.6.7 1.3 1.2 2.2.4.9.9 1.9 1.4 3.1 1 2.4 1.9 5.3 2.6 8.9.8 3.5 1.3 7.6 1.7 12.1 1.2 18 2.2 42.8 2.6 70.2.4 27.4.1 52.3-.4 70.2-.3 9-.6 16.3-.9 21.3-.5 5.1-.8 7.8-1 7.8z"/><path class="st1" d="M860.9 1006.3c-.2.1-1.2-2.4-2.9-7s-4-11.2-6.6-19.5c-2.7-8.3-5.7-18.2-9-29.2-3.2-11-6.6-23.2-9.9-36.1-3.3-12.9-6.2-25.2-8.7-36.4-2.5-11.2-4.6-21.4-6.2-29.9-1.6-8.5-2.8-15.5-3.6-20.3-.7-4.8-1-7.5-.8-7.5.2 0 .9 2.6 2.1 7.3 1.1 4.7 2.6 11.6 4.6 20.1 1.9 8.5 4.2 18.5 6.9 29.7s5.7 23.4 8.9 36.2c3.3 12.8 6.6 25 9.6 36.1 3.1 11.1 5.9 21 8.3 29.3 2.4 8.4 4.3 15.1 5.6 19.8 1.3 4.7 1.9 7.3 1.7 7.4zM715.2 1025.9c-.1 0-.6-1-1.5-3s-2-5.1-3.4-9c-2.7-7.9-6.1-19.6-9.1-34.2-1.5-7.3-3-15.4-4.3-24.1-.7-4.3-1.4-8.8-2.1-13.5-.6-4.6-1.3-9.4-2-14.3-2.5-19.6-4.5-41.2-6-64-2.9-45.5-3-86.8-3-116.6.1-14.9.2-27 .4-35.4.1-4.2.2-7.4.3-9.6.1-2.2.2-3.4.3-3.4s.2 1.2.3 3.4c.1 2.2.2 5.4.3 9.6.2 8.3.4 20.4.6 35.3.5 29.8 1 71.1 3.9 116.5 1.4 22.7 3.4 44.3 5.7 63.8.6 4.9 1.2 9.6 1.8 14.3.6 4.6 1.3 9.1 1.9 13.4 1.2 8.7 2.6 16.7 3.9 24 2.7 14.6 5.7 26.3 8.1 34.3 1.2 4 2.2 7.1 2.8 9.2.9 2.2 1.2 3.3 1.1 3.3zM767.2 1020.8c-.1 0-.4-.9-.9-2.8s-1.2-4.7-2.1-8.3c-.4-1.8-.9-3.8-1.4-6-.5-2.2-.9-4.6-1.4-7.2-1-5.2-2.2-11-3-17.6-.5-3.3-1-6.7-1.5-10.3-.5-3.6-.8-7.3-1.2-11.2-.9-7.7-1.3-16.1-1.9-24.8-.8-17.5-.9-36.8.2-57 1.1-20.2 3.2-39.3 5.6-56.7.7-4.3 1.3-8.5 1.9-12.6.6-4.1 1.4-8.1 2-11.9.7-3.8 1.3-7.5 2-11.1.7-3.5 1.4-6.9 2.1-10.2 1.3-6.5 2.7-12.3 3.8-17.4.6-2.6 1.2-4.9 1.7-7.1.6-2.2 1.1-4.2 1.5-6 .9-3.6 1.7-6.3 2.2-8.2.5-1.9.9-2.8 1-2.8.1 0 0 1-.4 3-.3 1.9-.9 4.7-1.6 8.4-.4 1.8-.8 3.8-1.3 6-.4 2.2-.9 4.6-1.4 7.2-1 5.1-2.2 11-3.4 17.5-.6 3.2-1.2 6.6-1.9 10.2-.6 3.5-1.2 7.3-1.8 11.1-.6 3.8-1.3 7.8-1.9 11.9-.6 4.1-1.2 8.3-1.8 12.6-2.2 17.3-4.2 36.4-5.3 56.4-1 20.1-1 39.3-.4 56.7.5 8.7.8 17 1.6 24.7.4 3.9.6 7.6 1 11.2.4 3.6.9 7 1.3 10.3.7 6.6 1.8 12.4 2.6 17.6.4 2.6.8 5 1.1 7.2.4 2.2.8 4.2 1.2 6 .7 3.6 1.2 6.5 1.5 8.4.3 1.8.4 2.8.3 2.8z"/><path class="st1" d="M802.2 1029.9c-.2.1-1.3-2-3-5.9-.9-2-1.9-4.4-3-7.2s-2.5-6-3.8-9.6c-1.4-3.6-2.8-7.5-4.3-11.7-1.5-4.2-3.1-8.8-4.7-13.6-3.2-9.6-6.4-20.2-9.6-31.5-3.1-11.3-5.7-22.1-7.9-32-1.1-4.9-2.1-9.6-2.9-14.1-.9-4.4-1.6-8.5-2.3-12.3-.7-3.8-1.2-7.2-1.7-10.2-.5-3-.8-5.6-1.1-7.7-.5-4.2-.7-6.6-.5-6.6s.8 2.3 1.7 6.4c.9 4.2 2.2 10.2 3.7 17.7.8 3.7 1.7 7.8 2.7 12.2 1 4.4 2.1 9 3.2 13.9 2.4 9.8 5.1 20.5 8.2 31.8 3.1 11.2 6.3 21.8 9.3 31.4 1.5 4.8 3 9.4 4.4 13.6 1.4 4.3 2.7 8.2 4 11.8 2.5 7.2 4.5 13.1 5.9 17.1 1.2 4.2 1.9 6.4 1.7 6.5zM859.9 1013.5c.2.1-.2.9-1.2 2.1-1 1.2-2.7 2.7-5 4.2-4.6 2.9-11.3 6.2-19.3 8.5-7.9 2.3-15.4 3.1-20.8 3.1s-8.7-.6-8.7-1c0-.5 3.3-.7 8.5-1.3 5.2-.6 12.4-1.7 20-3.9 7.7-2.2 14.4-5.1 19-7.4 4.9-2.3 7.2-4.6 7.5-4.3zM763.9 1020.2c.1-.1.3 0 .6.4s.3 1.2-.2 1.9c-.4.7-1.1 1.4-2 1.9-.2.1-.5.3-.8.4-.2.1-.5.2-.7.3-.5.2-1 .4-1.6.6-4.5 1.7-10.9 3.5-18.3 4.2-7.3.8-14 .4-18.7-.3-4.8-.7-7.6-1.7-7.5-2.1.2-1 11.7.7 25.9-.9 7.1-.8 13.4-2.1 17.9-3.2.6-.1 1.1-.3 1.6-.4.3-.1.5-.1.8-.2.2 0 .4-.1.6-.2.8-.3 1.4-.7 1.8-1 .4-.4.5-.7.6-1 0-.1-.1-.3 0-.4zM679.7 496.4c0 .1-.4.4-1.3 1-.5.3-1 .6-1.7 1s-1.5.8-2.4 1.2c-3.6 1.7-9.1 3.9-16 5.7-1.7.5-3.6.9-5.5 1.3s-4 .7-6 1.1c-2.1.2-4.3.6-6.5.7-1.1.1-2.3.2-3.4.3-1.2 0-2.3.1-3.5.1-4.8.1-9.8-.1-15-.7-5.2-.6-10.5-1.6-15.8-3.1-5.3-1.5-10.4-3.4-15.1-5.5-4.8-2.1-9.1-4.6-13.2-7.1-1-.6-2-1.3-3-1.9-1-.6-1.9-1.3-2.8-2-1.9-1.3-3.5-2.7-5.2-4-1.6-1.4-3.2-2.7-4.6-4-1.4-1.4-2.8-2.6-4.1-3.9-5-5.2-8.6-9.8-10.8-13.2-.6-.8-1.1-1.6-1.4-2.2-.4-.7-.7-1.2-1-1.7-.5-.9-.7-1.4-.6-1.5.1-.1.5.3 1.2 1.1.3.4.7.9 1.2 1.5s1 1.3 1.7 2c2.5 3.1 6.3 7.4 11.4 12.3 1.2 1.3 2.7 2.4 4.1 3.7 1.5 1.3 3 2.5 4.6 3.8 1.7 1.2 3.3 2.6 5.2 3.8.9.6 1.8 1.3 2.8 1.9 1 .6 1.9 1.2 2.9 1.8 7.9 4.8 17.3 9.1 27.6 12 10.3 2.8 20.6 4 29.9 4h3.4c1.1 0 2.2-.1 3.3-.2 2.2-.1 4.3-.4 6.4-.6 2.1-.3 4-.5 5.9-.9 1.9-.4 3.7-.6 5.4-1.1 6.9-1.5 12.4-3.3 16.1-4.7.9-.3 1.8-.6 2.5-.9.7-.3 1.3-.5 1.8-.7.9-.4 1.4-.5 1.5-.4zM547.6 432.4c.8.4-.8 5.6-2.4 12.1-1.6 6.5-2.4 11.9-3.3 11.9-.9 0-1.5-5.8.1-12.7 1.7-6.8 4.9-11.7 5.6-11.3zM705.7 407.6c0 .1-.6.2-1.7.3-.5 0-1.2.1-2 .1-.8.1-1.7.2-2.7.3-4.1.6-9.8 2-16.4 5.4-3.3 1.6-6.8 3.7-10.4 6-3.7 2.3-7.5 5-11.6 7.7s-8.5 5.6-13.3 8.1c-1.2.6-2.4 1.2-3.7 1.9-1.3.6-2.6 1.1-3.8 1.7-2.6 1.2-5.3 2-8 3-11.1 3.4-22.1 4.7-32.1 4.4-10-.3-18.9-2.1-26.1-4.3-1.8-.6-3.5-1.2-5.1-1.7-1.6-.7-3-1.3-4.4-1.8-1.4-.5-2.6-1.2-3.8-1.8-1.1-.6-2.2-1.1-3.1-1.6-3.6-2.2-5.5-3.5-5.4-3.7.1-.2 2.2.7 6 2.5 1 .4 2 .8 3.2 1.3 1.2.5 2.4 1.1 3.8 1.5 1.4.5 2.9 1 4.4 1.6 1.6.5 3.3.9 5 1.5 7.1 1.9 15.8 3.4 25.5 3.5 9.7.1 20.4-1.2 31.1-4.5 2.6-.9 5.3-1.7 7.8-2.8 1.2-.5 2.5-1 3.7-1.6l3.6-1.8c4.7-2.4 9-5.1 13.2-7.8 8.2-5.3 15.8-10.2 22.7-13.3 6.9-3.2 13-4.4 17.3-4.6 1.1 0 2-.1 2.8-.1.8.1 1.5.1 2 .2 1 .1 1.5.3 1.5.4z"/><path class="st1" d="M668 655.6c-.1.2-1.6-.2-4.5-1-1.4-.4-3.2-.9-5.2-1.6-1-.3-2.1-.7-3.2-1l-1.8-.6c-.8-.3-1.7-.6-2.6-.9.1-2.1.2-4.4.2-6.8.1-2.2.2-4.5.3-6.9.2-4.8.5-10.1.8-15.7.7-11.2 1.6-23.9 2.8-37.3 2.1-22.9 4.6-43.6 6.8-58.5 1.1-7.5 2.1-13.5 2.8-17.6.8-4.1 1.3-6.4 1.5-6.4.2 0 .1 2.4-.3 6.6-.4 4.2-1 10.3-1.8 17.7-1.6 15-3.8 35.6-5.9 58.5-1.2 13.4-2.3 26-3.1 37.2-.8 10.9-1.6 20.4-2.2 27.8.2.1.3.1.5.2s.4.2.7.3c.6.2 1.2.5 1.7.7 1.1.4 2.2.9 3.2 1.2 2 .8 3.7 1.5 5 2 2.9 1.3 4.4 2 4.3 2.1zM527.9 437.7c.5-.7 4.2 1.2 7.3 5.1 3.1 3.9 4.2 7.8 3.4 8.2-.8.4-3.1-2.6-5.9-6.2-2.9-3.5-5.4-6.3-4.8-7.1zM479.5 377.5c.2.2-.6 1-1.4 2.6-.8 1.6-1.3 4.2-1 7.4.2 1.6.6 3.3 1.2 5.2.6 1.8 1.4 3.8 2.3 5.8 1.8 4 4.2 8.2 7.4 12.2 3.1 4 6.6 7.3 10.2 9.8 3.6 2.5 7.1 4.3 10.2 5.5 6.2 2.4 10.5 2.6 10.4 3.2 0 .2-1.1.4-3 .4-1.9-.1-4.8-.4-8.1-1.3-3.4-1-7.3-2.6-11.1-5.2-3.9-2.6-7.7-6-11.1-10.3-3.3-4.2-5.8-8.7-7.6-13-.9-2.1-1.6-4.2-2.2-6.2-.5-2-.8-4-.9-5.8 0-1.8.1-3.4.5-4.8s1-2.5 1.6-3.3c1.4-1.9 2.5-2.3 2.6-2.2z"/><path class="st1" d="M489.2 348.9c.3.4-2.1 2.2-4.2 6.1-1.1 1.9-2 4.4-2.6 7.3-.6 2.9-.7 6.2-.3 9.5.9 6.8 3.4 12.7 5.2 17 1.8 4.3 2.9 7.1 2.4 7.3-.4.2-2.2-2.1-4.5-6.3-1.2-2.1-2.5-4.6-3.7-7.6-1.2-3-2.2-6.4-2.7-10.1-.4-3.8-.2-7.4.6-10.6.8-3.2 2.1-5.9 3.6-7.9s3-3.4 4.1-4.1c1.2-.5 1.9-.7 2.1-.6z"/><path class="st1" d="M495.6 342.6c.4.3-1.4 2.5-2.9 6.6s-2.5 10.1-1.5 16.7 3.2 12.5 4.7 16.7c1.5 4.3 2.4 7 2 7.2-.4.2-2-2.2-4.1-6.3-2.1-4.1-4.7-10-5.8-17.2-.5-3.6-.4-7.1.1-10.2.5-3.1 1.4-5.8 2.6-7.9 1.1-2.1 2.3-3.6 3.3-4.6.8-.8 1.5-1.1 1.6-1zM502.3 338.3c.5.2-.3 2.8-1.1 7-.2 1.1-.4 2.2-.5 3.4-.2 1.2-.3 2.6-.4 4-.2 2.8-.3 5.9-.1 9.1.2 3.2.7 6.3 1.2 9 .3 1.4.6 2.7.9 3.9.3 1.2.6 2.3 1 3.3 1.3 4.1 2.3 6.6 1.9 6.8-.3.2-2.1-1.9-4.1-6-.5-1-1-2.1-1.4-3.4-.5-1.2-.9-2.6-1.3-4-.7-2.9-1.3-6.1-1.5-9.5-.2-3.4 0-6.7.4-9.6.2-1.5.4-2.9.8-4.1.3-1.3.6-2.5 1-3.5 1.3-4.2 2.8-6.6 3.2-6.4zM519.9 382.9c-.1.2-.8-.1-1.7-.8-.9-.7-2.2-2-3.4-3.8-1.2-1.8-2.4-4.1-3.2-6.8-.9-2.7-1.5-5.7-1.9-8.8-.4-3.1-.6-6.1-.8-8.8-.2-2.7-.5-5-.7-7-.1-1-.3-1.9-.4-2.7-.1-.7-.3-1.3-.5-1.7-.4-.9-1-1-1-1.2 0-.1.2-.2.6-.2.4 0 1 .2 1.4.7.5.5.9 1.2 1.3 2 .3.8.6 1.7.9 2.7.6 2 1.1 4.5 1.4 7.2.4 2.7.7 5.7 1.1 8.7.7 6.1 2.2 11.3 3.9 14.9 1.6 3.4 3.4 5.3 3 5.6z"/><path class="st1" d="M536.1 413.8c-.5 0-1.2-4.1-2.2-10.7-.5-3.3-1.2-7.2-2-11.6-.8-4.3-1.8-9.1-3.3-13.9-.8-2.4-1.6-4.7-2.7-6.6-1-1.8-2.6-3.8-4-4.7l-.2-.1c-.1 0-.1 0-.1-.1h-.2c-.2 0-.3.1-.5.3-.4.4-.6 1.2-.7 2-.1.9 0 1.7.1 2.6.1.9.2 1.8.2 2.6.6 6.7.7 10.9.3 10.9-.4.1-1.4-4-2.6-10.6-.1-.8-.3-1.7-.4-2.6-.2-.9-.3-2-.3-3.1.1-1.1.2-2.4 1.2-3.7.5-.6 1.4-1.2 2.2-1.3.4-.1.9 0 1.4.1.2.1.5.1.7.2.2.1.4.2.5.3 1.2.7 2.1 1.6 2.9 2.6.4.5.8.9 1.2 1.5.4.5.8 1.1 1.1 1.7.3.6.6 1.1.9 1.7.3.6.5 1.2.8 1.8.3.6.5 1.2.7 1.8.2.6.4 1.2.6 1.9 1.5 5 2.4 9.9 3.1 14.3.7 4.4 1.1 8.4 1.3 11.8.5 6.7.4 10.9 0 10.9zM485.7 345.1c-.8.3-6.2-15.5-11.2-35.4-5-19.9-7.6-36.3-6.7-36.5.9-.2 4.9 15.9 9.9 35.7 4.9 19.9 8.8 36 8 36.2zM649.7 238.9c0 .2-2.5.6-7 1.1-2.3.3-5 .6-8.3.9-3.2.4-6.9.7-10.9 1.2s-8.5 1-13.2 1.6c-4.8.6-9.8 1.3-15.2 2.1-10.7 1.6-22.4 3.5-34.6 5.7-12.2 2.3-23.8 4.8-34.3 7.1-5.2 1.2-10.2 2.4-14.9 3.5-4.7 1.1-9 2.2-12.9 3.3-4 1-7.5 2-10.6 2.8-3.1.8-5.8 1.5-8 2.1-4.4 1.2-6.9 1.7-7 1.5-.1-.2 2.3-1.2 6.6-2.7 2.2-.8 4.8-1.7 7.9-2.7 3.1-1 6.6-2.1 10.5-3.3 3.9-1.2 8.2-2.4 12.9-3.7 4.6-1.3 9.6-2.5 14.9-3.8 10.5-2.5 22.1-5.1 34.4-7.4 12.3-2.3 24-4.1 34.8-5.5 5.4-.7 10.5-1.3 15.3-1.8 4.8-.5 9.2-.9 13.3-1.2 4.1-.4 7.8-.6 11-.8 3.2-.2 6-.3 8.3-.4 4.5.1 7 .2 7 .4zM704.1 314.5c-.4.1-1-.6-1.4-1.9-.4-1.3-.6-3.1-.4-5.2.3-2 1-3.8 1.7-4.9.7-1.1 1.5-1.7 1.9-1.5.8.4.1 3.3-.3 6.8-.6 3.5-.6 6.4-1.5 6.7zM710.8 295.1c-.4.3-1 0-1.8-.3s-1.8-.6-3-.9c-1.2-.2-2.2-.2-3.1-.2-.8 0-1.5 0-1.8-.4-.3-.3 0-1.1 1-1.8s2.6-1.1 4.4-.8c1.8.3 3.2 1.3 3.9 2.3.8 1 .8 1.9.4 2.1z"/><ellipse transform="rotate(-15.041 613.125 400.53)" class="st1" cx="613.1" cy="400.5" rx="67.2" ry="1.6"/><path class="st1" d="M556.1 357.6c.2-.3 3.1 3.2 10 7.1 3.4 1.9 7.9 3.8 13.3 4.9 2.7.5 5.7.9 8.8.9 3.1 0 6.4-.3 9.8-1.1 6.7-1.5 13.7-5.1 19.6-10.7 5.9-5.6 10.7-13.2 12.7-22.1 1-4.4 1.3-9.2 1.1-14-.2-4.8-.7-9.8-1.8-14.7-1.1-4.9-2.6-9.8-5-14.3-1.1-2.3-2.5-4.5-4-6.6-.8-1-1.6-2-2.5-3-.4-.5-.9-1-1.3-1.4l-1.4-1.3c-3.9-3.4-8.6-5.7-13.5-6.9-2.5-.6-5-1-7.5-1.1l-.9-.1h-2.8c-1.2 0-2.5.2-3.7.3-9.8 1.2-18.8 5.6-25.7 11.5-3.5 3-6.4 6.4-8.7 10-2.3 3.6-4.1 7.5-5.4 11.4-2.5 7.8-3 15.6-2.3 22.5.1 1.7.5 3.4.7 5.1.4 1.6.7 3.2 1.2 4.7.8 3 2 5.8 3.1 8.3 2.4 5 5.3 8.9 8 11.8 2.7 2.8 5.2 4.6 7 5.7 1.8 1.1 2.8 1.6 2.7 1.7 0 .1-1.1-.2-3-1.1-1.9-.9-4.6-2.6-7.6-5.4-2.9-2.8-6.1-6.7-8.7-11.8-1.3-2.6-2.6-5.4-3.5-8.5-.5-1.5-.9-3.2-1.3-4.9-.3-1.7-.7-3.4-.9-5.2-.9-7.2-.6-15.3 2-23.6 1.3-4.1 3.1-8.2 5.5-12.1 2.4-3.9 5.5-7.5 9.2-10.7 7.3-6.4 16.8-11.1 27.3-12.5 1.3-.1 2.6-.3 4-.3h3l1 .1c2.7.1 5.4.5 8.1 1.2 2.7.7 5.3 1.6 7.8 2.9 1.3.6 2.4 1.4 3.7 2.1.6.4 1.1.8 1.7 1.3.6.4 1.2.8 1.7 1.3l1.6 1.4 1.5 1.5c1 1 1.8 2.1 2.7 3.2 1.6 2.3 3.1 4.6 4.3 7.1 2.5 4.9 4.1 10 5.2 15.1 1.1 5.1 1.6 10.2 1.8 15.3.1 5-.2 10-1.3 14.8-2.2 9.5-7.5 17.6-13.8 23.4-6.3 5.9-13.8 9.5-21 11-3.6.8-7.1 1-10.4 1-3.3-.1-6.3-.6-9.2-1.2-5.6-1.4-10.2-3.5-13.6-5.6-3.4-2.1-5.8-4.2-7.3-5.7-1.4-1.8-2.1-2.7-2-2.7z"/><path class="st1" d="M590.9 326.6c-.9.3-5.8-10.6-11.8-24.2-5.9-13.6-10.6-24.7-9.8-25.1.8-.4 6.8 10.1 12.8 23.8 6 13.6 9.6 25.1 8.8 25.5z"/><ellipse transform="rotate(-31.622 608.925 312.91)" class="st1" cx="609" cy="312.9" rx="23.7" ry="1.6"/><path class="st1" d="M630.9 336c-.1.4-2.5.4-6.2-.2-3.8-.6-8.9-1.7-14.4-3.3-11.1-3.1-19.8-6.5-19.6-7.4.3-.9 9.4 1.1 20.5 4.2 10.9 3.2 19.8 5.8 19.7 6.7zM541.3 271.1c.3.8-12.8 5.9-29.6 9.8-16.8 3.9-30.8 4.9-30.9 4-.1-.9 13.5-3.4 30.1-7.2 16.7-3.8 30.1-7.5 30.4-6.6zM533.1 284.5c.1.9-10.9 3.3-24.5 6.6s-24.5 6.2-24.8 5.3c-.3-.8 10.3-5.2 24-8.5s25.1-4.3 25.3-3.4z"/><ellipse transform="rotate(-10.603 501.184 300.414)" class="st1" cx="501.3" cy="300.5" rx="13.3" ry="1.6"/><path class="st1" d="M673.5 359.6c.2.9-16.6 5.6-37.4 11.4-20.8 5.7-37.6 10.3-37.9 9.4-.3-.8 16.2-6.8 37-12.5 20.9-5.8 38.1-9.2 38.3-8.3z"/><ellipse transform="rotate(77.983 671.532 307.38)" class="st1" cx="671.5" cy="307.4" rx="68.4" ry="1.6"/><path class="st1" d="M674.4 415.9c-.2.4-2 0-4.7-1.4-1.3-.7-2.9-1.6-4.5-2.8-1.6-1.2-3.3-2.6-4.8-4.3-1.6-1.7-2.9-3.4-4-5.1-1.1-1.7-1.9-3.3-2.5-4.6-1.2-2.8-1.5-4.6-1.1-4.8.9-.4 4.1 6 10 12.3 5.8 6.3 12.1 9.9 11.6 10.7zM726 385.9c-.3.8-8.8-1.4-19-5.1-10.2-3.7-18.2-7.3-17.9-8.2.3-.8 8.8 1.4 19 5.1 10.2 3.7 18.2 7.4 17.9 8.2zM746.8 399c-.2.5-2.4 0-6.1-.6-1.8-.3-4-.5-6.4-.7-2.4-.1-5.1-.2-7.8-.1-2.8.2-5.4.5-7.8.9-2.4.4-4.5.9-6.3 1.4-3.6.9-5.8 1.6-6 1.2-.2-.4 1.7-1.8 5.2-3.4 1.8-.8 3.9-1.5 6.4-2.1 2.5-.6 5.3-1 8.2-1.2 2.9-.1 5.8 0 8.3.3 2.5.4 4.8.9 6.6 1.5 3.8 1.1 5.9 2.4 5.7 2.8z"/><ellipse class="st3" cx="342.9" cy="520.2" rx="3.3" ry="247.1"/><path class="st1" d="M309.2 1049.4c0 .4-2.5.6-6.5.5-1 0-2.1-.1-3.2-.1-1.2-.1-2.4-.1-3.9-.4-.7-.2-1.5-.4-2.3-.9-.8-.5-1.5-1.2-2-2-1-1.7-1.1-3.5-1.1-5.1 0-1.6.2-3 .2-4.4.1-1.4.1-2.8.2-4.1.1-2.6.1-4.9.1-6.9 0-3.9 0-6.4.5-6.5.4-.1 1.2 2.3 1.8 6.3.3 2 .5 4.4.6 7 0 1.3.1 2.7 0 4.2 0 1.4-.1 3-.2 4.4 0 1.4.1 2.6.6 3.4.4.8 1.2 1.3 2.3 1.6 1.1.3 2.3.4 3.5.6 1.2.2 2.2.4 3.2.5 3.9.8 6.3 1.5 6.2 1.9z"/><path class="st1" d="M325.8 1135.2c-.4.1-2.5-4.5-5.3-12.2-2.8-7.7-6.2-18.5-9.4-30.7-3.1-12.1-5.4-23.3-6.7-31.4-1.3-8.1-1.7-13.2-1.3-13.3.9-.2 4.9 19.7 11.1 43.8 6.3 24.3 12.5 43.5 11.6 43.8zM421 1121.9c-.9-.1.1-15.3 2.8-33.9 2.7-18.6 6-33.5 6.9-33.4.9.2-1 15.3-3.6 33.8-2.7 18.6-5.2 33.6-6.1 33.5zM419.2 1125.7c.1.4-4.7 2.5-12.8 5-2 .6-4.3 1.2-6.7 1.8-2.4.6-5 1.2-7.8 1.7-5.5 1.1-11.6 2-18 2.6-6.4.6-12.6.8-18.2.7-2.8-.1-5.5-.1-7.9-.3-2.5-.1-4.8-.3-6.9-.6-8.4-.9-13.5-2.1-13.5-2.5.1-1 20.8 1.9 46.2-.6 25.5-2.2 45.3-8.8 45.6-7.8z"/><ellipse class="st1" cx="377.1" cy="1048.7" rx="55.3" ry="1.6"/><path class="st1" d="M437.1 1042.9c-.9-.2-.8-3.9-1.6-8.1-.7-4.3-2-7.7-1.2-8.2.4-.2 1.2.4 2.2 1.8.9 1.3 1.8 3.4 2.2 5.9.4 2.5.2 4.7-.2 6.3-.4 1.5-1 2.4-1.4 2.3zM424.7 1021.4c0 .4-6.8 1.5-17.9 2.7-11.1 1.1-26.5 2.3-43.6 2.8-17 .5-32.5.3-43.7-.2-11.2-.5-18-1.2-18-1.6 0-.5 6.9-.6 18.1-.7 11.1-.1 26.5-.3 43.5-.8s32.4-1.3 43.5-1.8c11.2-.6 18.1-.9 18.1-.4zM351.4 1020.5c-.1 0-.2-1.5-.4-4.4-.3-2.9-.6-7.2-1.7-12.6-1-5.4-2.7-12-5.3-19.3-1.3-3.7-2.9-7.6-4.7-11.6-1.8-4-3.8-8.3-6.1-12.6-4.6-8.7-10.1-18-16.2-27.9-6.1-9.9-12.7-20.5-18.8-32.2-3.1-5.8-5.9-12-8.5-18.3-2.6-6.4-5.1-12.9-7.9-19.4-2.8-6.5-5.8-13.1-9.5-19.2-1-1.5-1.9-3.1-3-4.5l-1.6-2.2-1.7-2.1-.9-1.1-.9-1-1.9-2c-.6-.6-1.6-1.5-1.5-1.4l-.2-.2-.1-.1v.1l-.1.1c-.1.1-.1.2-.2.3l-.4 1c-.4.8-.6 1.6-.9 2.5-.5 1.7-.9 3.4-1.2 5.2-.5 3.5-.5 7.2-.2 10.7.2 3.6.8 7.2 1.3 10.7.6 3.6 1.1 7.1 1.7 10.6 2.3 14 4.8 27.5 8.8 39.8 3.9 12.4 9.2 23.7 12.6 35 1.7 5.6 2.8 11.2 3.7 16.6.9 5.3 1.6 10.5 2.6 15.3 1 4.8 2.1 9.3 3.7 13.4 1.5 4.1 3.6 7.7 5.8 10.8 4.5 6.3 10.1 10.2 15.3 11.9 2.6.8 5 1.1 7.1 1.4 2.1.3 4 .7 5.3 1.4 1.4.6 2.2 1.6 2.5 2.3.4.7.4 1.1.3 1.1-.1 0-.2-.4-.6-.9-.4-.6-1.2-1.4-2.5-1.8-1.3-.5-3.1-.8-5.2-1-2.1-.2-4.6-.3-7.4-1.1-5.4-1.6-11.5-5.6-16.3-12.1-2.4-3.2-4.6-6.9-6.3-11.1-1.7-4.2-3-8.8-4-13.7-2.1-9.8-3.1-20.6-6.6-31.5-3.4-11-8.8-22.3-12.8-34.9-4.1-12.6-6.7-26.2-9-40.2-.6-3.5-1.1-7.1-1.7-10.7-.6-3.6-1.1-7.2-1.4-11-.3-3.7-.3-7.6.2-11.4.3-1.9.7-3.8 1.3-5.7.3-.9.6-1.9 1.1-2.8l.7-1.6 1.2-2.1.6-1.1c.1-.2.2-.4.3-.5l.5.4c.6.5 1.2 1.1 1.8 1.7 1.4 1.4 1.9 1.7 2.6 2.5l2 2.1 1 1.1.9 1.1 1.8 2.2 1.7 2.3c1.1 1.5 2.1 3.1 3.1 4.7 3.9 6.4 6.9 13.1 9.7 19.7 2.8 6.6 5.2 13.2 7.8 19.5 2.6 6.3 5.3 12.4 8.3 18.1 6 11.6 12.5 22.2 18.4 32.2 6 10 11.5 19.4 16 28.3 2.2 4.4 4.2 8.7 6 12.9 1.7 4.1 3.2 8.1 4.5 11.8 2.5 7.5 4 14.2 4.8 19.7.9 5.5 1 9.8 1.1 12.8-.2 2.5-.3 4-.4 4z"/><path class="st1" d="M383.8 1022.3c-.1 0-.2-.3-.4-.9-.2-.6-.4-1.6-.5-2.9 0-.6-.1-1.4 0-2.2 0-.4.1-.8.1-1.2.1-.4.2-.9.3-1.3.4-1.8 1.1-3.9 2.3-6.1 2.3-4.3 6.4-8.9 12.2-12.8 2.8-2 6-3.8 9.2-5.9 3.2-2.1 6.6-4.3 9.7-7.1 3.1-2.8 5.6-6.3 7.5-10.4 1.9-4.1 3-8.8 3.9-13.7.9-4.9 1.5-10.1 2.5-15.4.5-2.7 1.1-5.4 1.9-8.1.4-1.3.9-2.7 1.4-4 .5-1.3 1.1-2.7 1.8-4 2.6-5.2 5.9-10 8.9-15.1 3.1-5 5.6-10.3 7.3-16.1 1.7-5.8 2.5-11.9 2.4-18.1 0-3.1-.3-6.2-.9-9.3-.3-1.5-.6-3.1-1-4.5s-1-2.8-1.8-4.1c-.7-1.3-1.6-2.5-2.7-3.5-1-1-2.2-1.7-3.4-1.9-1.2-.2-2.5 0-3.6.6s-2.1 1.6-3 2.8c-.9 1.2-1.8 2.5-2.7 3.8-.9 1.3-1.8 2.6-2.7 3.8-1.8 2.6-3.6 5.1-5.3 7.6-7 10.1-13.7 19.9-19.9 29.4-6.2 9.4-11.9 18.7-18.7 26.3-3.4 3.8-7.1 7.1-10.6 10.2-3.5 3.1-7 5.9-10 8.9-3.1 2.9-5.7 5.9-7.8 9-2.1 3.1-3.7 6.3-4.7 9.5-2.2 6.3-2.7 12.2-3 16.9-.3 4.8-.2 8.5-.3 11 0 2.5-.1 3.8-.2 3.9-.1 0-.3-1.3-.5-3.8s-.4-6.2-.3-11.1c.1-4.8.5-10.8 2.5-17.4 1-3.3 2.6-6.7 4.7-10s4.9-6.5 7.9-9.5c6.1-6.2 13.7-11.8 20.2-19.2 6.5-7.5 12-16.7 18.2-26.2 6.2-9.5 12.7-19.4 19.7-29.6 1.8-2.5 3.5-5.1 5.3-7.7l2.7-3.9c.9-1.3 1.8-2.6 2.8-3.9 1.1-1.3 2.3-2.7 4-3.6 1.7-.9 3.8-1.3 5.8-.9s3.7 1.5 5 2.7c1.3 1.3 2.4 2.7 3.3 4.2.9 1.5 1.6 3.1 2.1 4.8.5 1.7.8 3.3 1.1 4.9.6 3.3.9 6.5.9 9.8.1 6.5-.8 13-2.6 19-.9 3-2 6-3.3 8.8-1.3 2.8-2.8 5.5-4.4 8-3.1 5.1-6.4 9.8-8.9 14.8-.6 1.2-1.2 2.5-1.7 3.7-.5 1.3-.9 2.5-1.4 3.8-.8 2.6-1.4 5.2-1.9 7.8-1 5.2-1.7 10.4-2.7 15.4-.9 5-2.2 9.8-4.3 14.2-2 4.4-4.9 8.2-8.2 11.1-3.3 2.9-6.8 5.1-10.1 7.2-3.3 2-6.5 3.8-9.3 5.6-5.6 3.6-9.7 7.9-12.1 11.9-2.4 4-3.1 7.7-3.1 10.2.2 2.4.6 3.7.4 3.8z"/><path class="st1" d="M378.9 937.2c-.1 0-.3-1-.5-3s-.4-4.9-.6-8.7c-.2-3.8-.5-8.5-.5-13.9-.1-5.4 0-11.6.4-18.4.3-3.4.6-7 1.1-10.7.5-3.7 1.2-7.5 2-11.5 1.4-7.8 3.1-16.2 2.7-25-.4-8.8-2.9-17.8-6.7-26.7-1.8-4.5-4-8.9-6.2-13.5l-.5-1-.2-.4-.1-.2v-.1h-.1c-.1.1-.3.1-.4.2l-.1.1-.3.3-.6.6c-1.5 1.6-2.7 3.8-3.7 6.1-4.1 9.3-6.6 19.1-8.8 28.6-2.2 9.5-4.1 18.8-6.8 27.5-1.3 4.4-2.9 8.5-4.7 12.5-.9 1.9-1.8 3.9-2.9 5.7-1 1.8-2 3.6-3.1 5.3-2 3.5-4 6.7-5.5 10-1.6 3.3-2.7 6.6-3.6 9.8-.9 3.2-1.4 6.4-1.8 9.4-.1 1.5-.3 3-.4 4.4 0 .7-.1 1.4-.1 2.1v2c.1 5.3.7 9.9 1.6 13.6.4 1.9.9 3.4 1.2 4.9.4 1.4.8 2.6 1.1 3.5.7 1.9 1 2.9.9 2.9-.1 0-.6-.9-1.5-2.7-.4-.9-.9-2.1-1.4-3.4-.5-1.4-1.1-3-1.5-4.9-1-3.7-1.9-8.4-2.2-13.8 0-.7-.1-1.4-.1-2.1v-2.2c0-1.5.1-3 .2-4.5.3-3.1.8-6.4 1.7-9.7.9-3.3 1.9-6.8 3.5-10.3 1.5-3.5 3.5-6.9 5.4-10.4 1-1.7 2-3.5 2.9-5.3 1-1.8 1.8-3.7 2.7-5.6 1.6-3.9 3.2-7.9 4.4-12.2 2.6-8.5 4.4-17.8 6.6-27.3 2.1-9.6 4.6-19.6 8.9-29.3 1.1-2.4 2.3-4.9 4.3-7l.8-.8c.1-.1.3-.2.4-.4l.3-.2c.1-.1.2-.2.3-.2.5-.3.9-.6 1.4-.8l1.5-.6.4-.2c.1 0 .1.2.2.3l.3.6.7 1.3c.4.8 1 1.8 1.2 2.3 2.2 4.6 4.4 9.1 6.2 13.7 3.8 9.1 6.4 18.6 6.7 27.8.3 9.3-1.5 17.8-3.1 25.6-.8 3.9-1.6 7.7-2.1 11.3-.6 3.6-1 7.2-1.3 10.5-.6 6.7-.8 12.9-.9 18.3-.1 5.4 0 10 0 13.8 0 3.8.1 6.8 0 8.8.5 2.2.4 3.2.3 3.2z"/><ellipse transform="rotate(.678 846.907 797.67) scale(.99997)" class="st1" cx="846.9" cy="797.7" rx="32.2" ry="1.6"/><ellipse class="st3" cx="887.3" cy="529.8" rx="3.3" ry="262.2"/><ellipse class="st3" cx="509.3" cy="790.8" rx="163.3" ry="3.3"/><path class="st1" d="M376.7 258.2c-.2 0-.5-2.7-.8-7.5-.3-4.8-.7-11.8-1.2-20.4-.9-17.2-2.1-41-3.7-67.2-.4-6.6-.8-13-1.2-19.1-.2-3.1-.4-6.1-.6-9.1-.2-3-.4-5.8-1-8.5-.3-1.3-.7-2.6-1.1-3.8-.5-1.2-1.1-2.3-1.7-3.4-1.4-2.1-3.1-3.9-5-5.4-3.8-3-8.1-4.7-12.2-5.7-4.1-.9-7.9-1.1-11.3-1.1-3.4 0-6.3.3-8.7.5-4.8.4-7.5.7-7.5.4 0-.2 2.6-.9 7.3-1.7 2.4-.4 5.3-.8 8.8-1 3.5-.2 7.5-.2 11.8.7 4.3.9 9.1 2.6 13.3 5.8 2.1 1.6 4.1 3.6 5.7 6 .8 1.2 1.5 2.5 2.1 3.9.6 1.4 1 2.8 1.3 4.3.7 2.9.9 5.9 1.2 8.9.2 3 .4 6 .7 9.1.4 6.2.9 12.6 1.2 19.2 1.6 26.3 2.4 50.1 2.7 67.3.2 8.6.2 15.6.1 20.4.1 4.7 0 7.4-.2 7.4z"/><ellipse class="st3" cx="471.8" cy="252.3" rx="80.9" ry="3.3"/><ellipse class="st1" cx="837.1" cy="246.3" rx="53.2" ry="1.6"/><path class="st1" d="M569.3 537.8c0 .2-2.8.4-7.8.5-5 .1-12.3.2-21.4.3-18 .1-42.9.2-70.4.4-27.5.2-52.4.3-70.4.5h-21.4c-5-.1-7.8-.2-7.8-.4s2.8-.5 7.8-.8c5-.3 12.3-.7 21.3-1 18-.7 42.9-1.2 70.5-1.4 27.5-.2 52.4.1 70.5.6 9 .2 16.3.5 21.4.7 5 .1 7.7.3 7.7.6zM492.5 572.6c0 .4-6.6 1.2-17.3 1.9-10.7.8-25.5 1.5-41.8 2-16.3.5-31.2.7-41.9.6-10.7-.1-17.4-.4-17.4-.8 0-.5 6.6-1 17.3-1.5 10.7-.5 25.5-1 41.8-1.6 16.3-.5 31.1-.9 41.8-1.1 10.8 0 17.5 0 17.5.5zM518.2 652.9c0 .5-7.6.8-20 1-12.3.2-29.4.2-48.2.1s-35.9-.5-48.2-.9c-12.3-.4-20-.9-20-1.3 0-.5 7.6-.8 20-1 12.3-.2 29.4-.2 48.2-.1s35.9.5 48.2.9c12.4.4 20 .9 20 1.3zM443.2 671c0 .9-12.8 1.1-28.5 1.2-15.7.2-28.4.3-28.5-.6-.1-.9 12.7-2.5 28.5-2.7 15.8-.1 28.6 1.2 28.5 2.1zM558.5 703.4c0 .2-2.5.1-6.9-.3s-10.8-1-18.8-1.5c-15.8-1.2-37.8-2.2-62-1.6-12.1.3-23.7.9-34.2 1.1-10.6.2-20.1 0-28.1-.8s-14.4-1.9-18.7-3c-2.2-.5-3.8-1-5-1.4-1.1-.4-1.7-.6-1.7-.7.1-.6 9.7 1.9 25.5 2.8 7.9.5 17.3.4 27.8.1 10.5-.3 22-1 34.2-1.4 24.4-.6 46.4.8 62.3 2.6 7.9.9 14.3 1.8 18.7 2.6 4.6.8 7 1.3 6.9 1.5z"/><ellipse transform="matrix(.0295 .9996 -.9996 .0295 725.281 -28.79)" class="st1" cx="377.5" cy="359.1" rx="61.4" ry="1.6"/><ellipse class="st1" cx="430.1" cy="417.6" rx="50.9" ry="1.6"/><ellipse class="st1" cx="423.4" cy="294.6" rx="45.7" ry="1.6"/><path class="st1" d="M454.1 508.4c0 .9-18.6 1.6-41.4-.1-22.8-1.7-41-5.3-40.9-6.1.1-.9 18.5 1.2 41.2 2.9 22.6 1.7 41.1 2.4 41.1 3.3z"/><ellipse transform="scale(.99998) rotate(88.055 837.422 372.609)" class="st1" cx="837.4" cy="372.6" rx="83.9" ry="1.6"/><path class="st1" d="M861.7 450.5c-.2 0-.4-2.5-.6-7.1-.2-4.6-.3-11.3-.5-19.5-.4-16.4-.8-39.2-1.4-64.2-.4-12.5-.7-24.5-1-35.4-.2-5.4-.3-10.6-.5-15.4-.1-2.4-.1-4.7-.2-7 0-1.1-.1-2.2-.1-3.3 0-1.1-.1-2.1-.3-2.9-.2-.9-.5-1.5-1.1-2-.5-.5-1.3-.8-2.1-1.1-1.6-.4-3.4-.7-5-1-3.2-.6-6-1.1-8.2-1.5-4.5-.9-7-1.5-7-1.7 0-.2 2.6-.1 7.2.4 2.3.2 5.1.6 8.3 1 .8.1 1.6.2 2.5.3.9.1 1.8.2 2.8.5 1 .2 2 .6 3 1.4 1 .8 1.6 2 1.9 3.1.3 1.1.4 2.3.4 3.4.1 1.1.1 2.2.2 3.3.1 2.2.3 4.6.4 7 .2 4.8.5 10 .8 15.4.5 10.9.9 22.8 1.2 35.4.6 25.1.7 47.9.5 64.3-.1 8.2-.3 14.9-.5 19.5-.3 4.6-.5 7.1-.7 7.1zM863.6 458c.1.9-4.6 2.2-10.6 2-6-.2-10.6-2-10.4-2.8.2-.9 4.9-.6 10.6-.4 5.6.1 10.2.3 10.4 1.2zM1064.2 136.4c0 .1-.7.4-2.2.8-1.5.4-3.7.9-6.7 1.4-5.9.9-14.6 1.6-25.5.1-2.7-.4-5.5-.9-8.4-1.5-.7-.2-1.5-.4-2.2-.6l-.8-.2-.5-.1-.5-.1h-.1-.1v.3c.1.3.1.7.2 1.1l.2 1c.1.4.1.8.2 1.2.1.8.2 1.6.4 2.5.3 1.7.5 3.3.7 5 .4 3.4.8 7 1.2 10.6.7 7.3 1.2 15.1 1.3 23.2.1 4.1.1 8.2 0 12.4-.1 2.1-.1 4.2-.2 6.4-.1 2.3-.2 3.6-.4 8.1-6.7-.4-13.6-.8-20.6-1.3-6.5-.4-13-.7-19.7-1.1-15.4-.8-30.3-1.5-44.4-2-7.1-.3-13.9-.5-20.5-.7-6.1-.2-12-.4-17.7-.5.1 10.8.2 20.7.3 29.5.1 9.2.1 17.3.2 23.9 0 6.6 0 11.8-.1 15.4-.1 3.5-.2 5.4-.3 5.4-.1 0-.3-1.9-.5-5.4-.2-3.5-.4-8.7-.7-15.4-.2-6.6-.5-14.7-.8-23.9-.3-9.7-.6-20.5-.9-32.4 6.6.1 13.4.3 20.6.4 6.6.2 13.5.4 20.6.6 14.1.5 29.1 1.1 44.5 1.9 6.7.4 13.2.8 19.7 1.1 5.9.4 11.7.8 17.4 1.1 0 .2.2-2.9.3-4.8.1-2.1.2-4.2.2-6.3.1-4.2.2-8.3.1-12.3-.1-8-.5-15.7-1-23-.3-3.6-.6-7.1-1-10.6-.2-1.7-.4-3.4-.6-5l-.3-2.4c-.1-.4-.1-.8-.2-1.2-.1-.5-.1-.9-.2-1.3-.2-1.2-.4-2.5-.5-3.7l-.1-.9v-.2l.2.1.4.1c.6.2 1.2.4 1.7.5.6.2 1.1.3 1.7.5.3.1.6.2.8.2l.5.1 2.1.6c2.8.7 5.6 1.3 8.2 1.7 10.6 1.7 19.2 1.3 25 .8 5.8-.6 9-1.3 9-1.1zM1050.8 125.1c.1-.1.3.1.6.3.1.1.3.3.5.4.2.2.4.3.7.6l.9.6c.3.2.7.4 1.1.6.8.3 1.8.6 2.9.7 1.1.1 2.4 0 3.6-.4 1.2-.4 2.4-1 3.3-2 .9-1 1.4-2.3 1.4-3.7 0-1.4-.5-3-1.4-4.3-1.8-2.7-5-4-7.4-2.9-1.2.5-2.1 1.4-2.7 2.5-.6 1.1-1 2.3-1.1 3.4-.2 2.2.3 4 1 5.1.2.3.4.5.5.7.1.2.3.3.4.5.2.3.3.5.3.6-.1.1-.3.1-.7 0-.2-.1-.4-.1-.7-.3-.2-.2-.5-.4-.8-.6-1.2-1-2.4-3.2-2.4-6 0-1.4.3-3 1-4.5s2-3.1 3.9-4c.4-.3 1-.4 1.5-.5.5-.1 1-.2 1.6-.2.5 0 1.1 0 1.6.1s1.1.2 1.6.4c2.1.8 3.8 2.2 5.1 4 1.2 1.8 2 4 1.9 6.2 0 2.2-1 4.3-2.4 5.7-1.4 1.4-3.2 2.2-4.8 2.6-1.6.4-3.2.3-4.6 0-1.4-.3-2.5-.8-3.5-1.4-.5-.3-.9-.6-1.2-.9l-.9-.9c-.2-.3-.4-.6-.5-.9-.1-.3-.2-.5-.3-.7-.1-.5-.1-.7 0-.8zM1096.3 120.4c.1-.1.3 0 .5.1.1.1.3.2.4.2.2.1.4.1.6.2.9.3 2.3.4 3.8-.3 1.5-.6 3.1-2.1 3.2-3.8.1-.8-.3-1.8-1-2.5s-1.7-1.3-2.9-1.5c-1.2-.2-2.3-.1-3.3.3-.9.4-1.6 1.1-1.9 2-.8 1.8-.2 3.9.6 5.3.8 1.5 1.9 2.4 2.8 2.9l.6.3c.2.1.3.2.5.2.3.1.4.3.4.4 0 .1-.2.2-.5.3-.2 0-.4.1-.6.1-.2 0-.5 0-.8-.1-.3 0-.6-.2-1-.3-.3-.1-.7-.3-1.1-.5-.7-.5-1.5-1.1-2.2-2-.7-.9-1.3-2-1.6-3.3-.3-1.3-.4-2.9.2-4.4.5-1.5 1.7-3 3.4-3.8 1.6-.8 3.5-1 5.2-.6 1.8.3 3.4 1.1 4.6 2.5 1.2 1.3 1.9 3.2 1.7 4.9-.2 1.7-1.2 3.1-2.2 4-1 .9-2.2 1.5-3.3 1.7-2.2.6-4.2 0-5.1-.8l-.6-.6c-.2-.2-.2-.4-.3-.5-.1-.2-.1-.4-.1-.4zM1124.3 117.8c-.1.1-.2 0-.5-.1s-.6-.4-1-.9c-.7-.9-1.4-2.5-1.2-4.5.1-1 .3-2.1.9-3.2.6-1.1 1.5-2.2 2.7-3 1.3-.8 2.9-1.2 4.5-.9 1.6.2 3.1.9 4.4 2 1.2 1.1 2.2 2.4 2.7 4 .5 1.5.4 3.2-.1 4.6-.5 1.4-1.5 2.5-2.5 3.2-1 .8-2 1.2-3 1.5-2 .5-3.7.1-4.7-.4-.5-.3-.8-.5-1-.8-.2-.2-.2-.4-.2-.5.1-.2.7 0 1.6.1.9.1 2.2 0 3.6-.6s2.9-1.8 3.4-3.5c.2-.8.3-1.7-.1-2.6-.3-.9-.9-1.8-1.7-2.5-.8-.7-1.8-1.1-2.7-1.3-.9-.2-1.8 0-2.6.4-1.5.8-2.5 2.5-2.8 3.9-.3 1.5-.2 2.8.1 3.6.1.9.4 1.4.2 1.5z"/><path class="st1" d="M1058.5 176.1c-.8.2-3.4-6.2-4.5-14.7-1.1-8.4-.4-15.3.5-15.3s1.6 6.7 2.7 14.9c1.2 8.2 2.2 14.9 1.3 15.1z"/><path class="st1" d="M1186 149c0 .5-7.4.3-19.2 0-11.9-.3-28.2-.8-46.3-1.1-18.1-.3-34.4-.3-46.3-.4-11.9 0-19.2-.3-19.2-.7 0-.4 7.3-1 19.2-1.6 11.9-.5 28.3-.9 46.4-.6 18.1.3 34.5 1.2 46.4 2.1 11.7 1 19 1.9 19 2.3z"/><ellipse transform="matrix(1 -.00435 .00435 1 -.74 4.875)" class="st1" cx="1119.3" cy="172.5" rx="57.7" ry="1.6"/><path class="st1" d="M1178.4 174.6c-.4.1-1.2-1.3-1.9-3.7-.7-2.4-1.3-5.9-1.2-9.8 0-3.9.7-7.4 1.4-9.8.8-2.4 1.6-3.8 2-3.7.9.3-.1 6.2-.2 13.5-.2 7.4.8 13.3-.1 13.5zM298 129.4c0 .2-2.6.8-7.4 1.6-4.8.8-11.7 1.8-20.4 2.6-17.2 1.8-41.2 3.1-67.7 1.9-4.8-.2-9.6-.5-14.2-.8-2.3-.2-4.6-.3-6.9-.5-2.7-.2-5.4-.5-8-.7-.1-5.4-.2-10.6-.3-15.6-.1-4.5-.2-8.9-.2-13-.1-8.2-.2-15.5-.2-21.5v-8.1c0-2.4.1-4.4-.1-6-.3-3.2-1.7-4.6-1.5-4.7.1-.1.5.2 1 .9s1.2 1.9 1.5 3.6c.4 1.7.5 3.7.6 6.1.1 2.4.3 5.1.4 8.1.3 6 .6 13.3.9 21.5.3 7.8.6 16.5.9 25.8 1.7.1 3.5.3 5.3.4 2.2.2 4.5.3 6.8.5 4.6.3 9.3.6 14.1.7 26.3 1.1 50.2.2 67.4-1 8.6-.6 15.6-1.2 20.4-1.6 4.9-.3 7.6-.4 7.6-.2z"/><path class="st1" d="M303.8 123.5c-.2 0-.4-2.6-.5-7.3-.1-4.7-.2-11.5-.2-20 0-4.2 0-8.8.1-13.8v-3.8-1.9-1.8c0-.5-.2-1-.3-1.3-.2-.3-.3-.4-.7-.5-.4-.1-1-.1-1.7-.1s-1.4 0-2.1-.1c-11.1-.3-23.4-.7-36.2-1.1-25.7-.9-49-1.9-65.8-2.7-8.4-.4-15.2-.8-19.9-1.2s-7.3-.7-7.3-.9c0-.2 2.6-.3 7.3-.4s11.5 0 20 .2c16.8.3 40.1.9 65.8 1.8 12.8.4 25.1.9 36.2 1.4.7 0 1.4.1 2.1.1.7 0 1.5 0 2.4.3.9.2 2 1 2.4 1.9.5.9.6 1.8.7 2.5v2.1c0 .6 0 1.3-.1 1.9 0 1.3-.1 2.5-.1 3.8-.2 5-.3 9.6-.5 13.8-.3 8.4-.6 15.2-.9 19.9s-.4 7.2-.7 7.2z"/><path class="st1" d="M195.6 110.5c-.2-.1.5-1.3 2-3.2.8-.9 1.8-2.1 3.2-3.2 1.4-1.1 3.2-2.2 5.6-2.7 2.5-.5 5.3.2 7.5 2 1.1.9 2.2 2.2 2.6 3.9.4 1.7 0 3.7-.9 5.1-.9 1.4-2.1 2.5-3.2 3.5s-2.2 2.1-3.5 3c-1.3 1-2.8 1.9-4.4 2.5-.8.3-1.7.6-2.7.7-.9.1-1.9.1-2.8 0-1.9-.2-3.8-.9-5.3-2.3-.7-.7-1.3-1.5-1.7-2.5-.4-.9-.6-1.8-.7-2.7-.2-1.8.1-3.3.3-4.9.2-1.5.6-3 1-4.4 1.7-5.7 4.6-10.2 7.6-13.4 3-3.3 6-5.2 8.2-6.4.5-.3 1-.5 1.5-.7.4-.2.8-.3 1.1-.4.6-.2 1-.2 1-.1s-.2.4-.7.7c-.3.2-.6.4-.9.7-.4.3-.8.6-1.3.9-1.9 1.4-4.5 3.5-7.1 6.8-2.6 3.2-5.1 7.5-6.5 12.7-.3 1.3-.6 2.7-.8 4-.2 1.4-.3 2.8-.2 4.1.1 1.3.6 2.3 1.4 3.1.8.8 2.1 1.3 3.4 1.5 2.7.4 5.3-.9 7.6-2.6 1.2-.8 2.3-1.8 3.4-2.8 1.1-1 2.1-1.9 2.7-2.8.6-.9.8-1.9.6-2.8-.2-.9-.8-1.8-1.6-2.5-1.6-1.4-3.7-2-5.4-1.8-1.9.2-3.5 1-4.9 1.9-1.4.9-2.4 1.8-3.3 2.6-1.7 1.7-2.7 2.6-2.8 2.5zM242.6 119c-.1.6-6.7 0-16.3-1.4l.6-2.8c.3.1.6 0 .9 0 .3-.1.5-.3.8-.6.6-.6 1-1.7 1.4-2.7.2-.5.3-1.1.4-1.7.1-.5.1-1.2.2-1.9.1-1.3.3-2.7.4-4.1.7-6.6 1.4-12.7 2.1-17.8l.7-5.5 1.8 5.1c.8 2.2.8 4.4.4 6.2-.4 1.8-1.2 3.2-1.9 4.3-1.6 2.1-3 2.6-3.2 2.4-.2-.3.9-1.2 1.8-3.2.5-1 .9-2.3 1.1-3.8.2-1.5 0-3.2-.7-4.9l2.6-.4c-.3 5.1-.8 11.2-1.5 17.8-.1 1.4-.3 2.8-.4 4.1-.1.7-.1 1.3-.3 2.1-.1.7-.3 1.4-.5 2.1-.5 1.4-1.1 2.7-2.2 3.9-.6.6-1.2 1.1-2.1 1.4-.9.3-1.8.2-2.6 0l.6-2.8c9.6 2 16 3.6 15.9 4.2zM260.3 117.6c-.4 0-.7-1.9-.5-4.9.2-3 1-7 2.5-11.3 1.6-4.3 3.6-7.9 5.3-10.3 1.7-2.4 3.1-3.7 3.5-3.4.8.5-2.8 6.7-5.7 14.9-2.9 8-4.2 15-5.1 15z"/><circle transform="scale(-1) rotate(-74.079 -117.914 337.792)" class="st1" cx="254.9" cy="89" r="1.6"/><path class="st1" d="M277.2 111.8c-.1-.5.6-.9 1-1.9.5-.9.7-2.4.2-3.3l-.1-.1 1.5.7c-.1 0-.2.1-.4.1-.2.1-.3.3-.4.5-.3.4-.4 1-.4 1.4 0 .4 0 .8.1 1.1.1.3.2.6.1.8-.1.2-.4.3-.9.2-.5-.1-1.1-.6-1.5-1.4-.4-.8-.5-1.9-.2-3.1.2-.6.5-1.2 1-1.8.5-.5 1.4-1 2.2-1.1l1-.1.5.8.2.3c.8 1.4.8 2.9.4 4-.3 1.1-1 2-1.7 2.5s-1.4.7-1.9.7c-.4.1-.7-.1-.7-.3zM328.1 1024.5c-.5-.1-.8-.7-1.1-1.5-.4-.8-.8-1.8-1.4-2.9-.6-1.1-1.2-2-1.7-2.7-.5-.7-.8-1.3-.6-1.7.2-.4.9-.5 2-.1s2.4 1.4 3.2 2.9c.9 1.5 1 3.2.8 4.3-.3 1.2-.8 1.8-1.2 1.7zM418.7 981.4c.3.3-1.4 3-5.1 6.6-1.9 1.8-4.2 3.8-7 5.8-1.4 1-2.9 2-4.5 2.9-1.6.9-3.2 1.9-4.7 2.9-1.6 1-2.9 2.1-4.1 3.3-1.2 1.2-2.2 2.5-3.1 3.9-1.7 2.7-2.8 5.4-3.4 7.7-.6 2.3-.8 4.3-1 5.7-.1 1.4-.2 2.2-.4 2.2s-.6-.7-.8-2.2c-.3-1.4-.4-3.6 0-6.2s1.3-5.7 3.1-8.8c.9-1.5 2-3.1 3.3-4.5 1.3-1.4 2.9-2.7 4.6-3.8 1.7-1.1 3.4-2 5-2.9 1.6-.9 3-1.8 4.4-2.6 2.8-1.8 5.2-3.5 7.2-5 3.8-3.2 6.2-5.3 6.5-5z"/><path class="st1" d="M431.8 948.4c.2 0 .5 1.3.6 3.7.1 2.4.3 5.8-.4 10.1-.3 2.1-1 4.5-2.1 6.9-1.1 2.4-2.5 4.7-4.3 7-3.5 4.6-8.4 8.6-13.5 12.5-5.2 3.8-10.1 7.3-14 11.1-3.9 3.7-6.7 7.7-8.4 11.4-1.7 3.7-2.2 7-2.3 9.2-.1 2.3 0 3.6-.2 3.6s-.8-1.2-1.1-3.6c-.3-2.4-.1-6 1.5-10.1.8-2 1.8-4.2 3.2-6.4 1.4-2.1 3.2-4.3 5.2-6.3 4-4.1 9-7.8 14.1-11.5 5.1-3.8 9.7-7.6 13.2-11.7 1.7-2.1 3.1-4.2 4.2-6.3 1-2.1 1.8-4.2 2.2-6.2.9-4 1.1-7.3 1.4-9.7.3-2.4.5-3.7.7-3.7zM422.4 905.5c.2.1-.2 1.8-1.2 4.7-1 3-2.9 7.2-5.6 12.1-2.7 4.9-6.4 10.6-10.7 16.6-4.3 6-9.4 12.4-14.5 19.2-5.1 6.8-9.7 13.4-13.4 19.6-3.7 6.3-6.6 12.2-8.4 17.4-3.8 10.3-4.1 17.3-4.7 17.3-.1 0-.2-.4-.2-1.3v-1.5c0-.6 0-1.3.1-2.1.2-3.2 1-7.7 2.6-13.1 1.6-5.4 4.4-11.6 8-18.1 3.7-6.5 8.3-13.3 13.4-20.1 5.2-6.8 10.3-13.1 14.7-19 4.4-5.9 8.2-11.2 11.2-16 5.8-9.4 8.2-15.9 8.7-15.7zM346 958.3c-.2 0-.7-1.7-1.2-4.9s-.9-8-.8-13.8c.1-5.9.9-12.8 2.4-20.4 1.5-7.6 3.6-15.8 6.2-24.3 2.5-8.5 5.1-16.5 7.2-23.8 2.2-7.3 3.9-13.9 5.1-19.6 2.5-11.2 3-18.4 3.5-18.3.4 0 .7 7.3-1.3 18.8-1 5.8-2.5 12.5-4.5 19.9-2 7.4-4.5 15.5-7 23.9-2.5 8.4-4.7 16.5-6.4 23.9-1.6 7.4-2.6 14.2-3 19.9-.8 11.5.3 18.6-.2 18.7zM336.2 1022.6c-.2.1-1-1.8-2.1-5.2-.3-.8-.6-1.8-.9-2.8-.4-1-.8-2.1-1.3-3.3-.9-2.3-1.9-5.1-3.2-7.9-.6-1.5-1.3-3-2-4.6-.7-1.6-1.5-3.2-2.3-4.9-1.6-3.4-3.5-6.9-5.4-10.6-4-7.4-8.6-15.5-13.4-24-4.8-8.5-9.2-16.7-12.9-24.4-1.8-3.9-3.5-7.5-4.8-11.1-.7-1.8-1.4-3.5-2-5.1-.6-1.7-1.1-3.3-1.6-4.8-1.1-3-1.7-5.9-2.3-8.4-.3-1.2-.6-2.4-.8-3.5-.2-1.1-.3-2.1-.5-3-.5-3.6-.7-5.5-.5-5.6.2 0 .8 1.9 1.7 5.3.2.9.5 1.8.7 2.9.3 1 .7 2.2 1.1 3.4.8 2.4 1.5 5.2 2.7 8.1.6 1.5 1.1 3 1.8 4.7.6 1.6 1.4 3.2 2.1 5 1.4 3.5 3.2 7 5 10.8 3.8 7.5 8.3 15.6 13.1 24.1 4.8 8.5 9.3 16.6 13.2 24.2 1.9 3.8 3.7 7.4 5.2 10.9.8 1.7 1.5 3.4 2.2 5 .6 1.6 1.2 3.2 1.8 4.7 1.2 3 2 5.8 2.8 8.2.4 1.2.7 2.4 1 3.4.2 1.1.5 2 .7 2.9.8 3.5 1.1 5.5.9 5.6z"/><ellipse transform="rotate(10.964 404.023 1052.789)" class="st1" cx="404.1" cy="1053" rx="27.4" ry="1.6"/><path class="st1" d="M428 1049c.2 0 .5.5.8 1.5.3 1.1.6 2 1 5.1.1.7.2 1.5.3 2.3 0 .1.1.2 0 .3l-.3-.1c-.2-.1-.4-.1-.5-.2-.4-.1-.8-.2-1.1-.4-.8-.2-1.6-.5-2.4-.7-.4-.1-.8-.2-1.2-.4-.3-.1-.5-.1-.8-.2-2.2-.6-4.7-1.2-7.3-1.8-5.2-1.1-10-1.8-13.5-2.2-.9-.1-1.7-.2-2.4-.3-.4-.1-.7-.1-1-.2-.4-.1-.8-.2-1-.4-.2-.2-.4-.5-.3-.7.1-.2.4-.2.6-.2.1 0 .2 0 .3-.1h.1v-.1-.2c0-.1-.1-.2-.2-.2s-.2 0-.3.1c-.1.1.1.2.2.3.2.1.3 0 .6 0 .2 0 .6-.1 1-.1.7-.1 1.5-.1 2.4-.2 3.6-.1 8.6.2 14.1 1.3 2.7.6 5.2 1.3 7.5 2.1.3.1.6.2.8.3.2.1.2.1.3.1l.2.1c.2.1.5.2.7.3.1.1.2.1.3.2l.2.1h.1c0-.2 0-.3.1-.5.1-.4.1-2.4.2-3.3.1-1 .3-1.5.5-1.6z"/><ellipse transform="rotate(8.773 419.64 1051.706)" class="st1" cx="419.5" cy="1051.4" rx="8.7" ry="1.6"/><path class="st1" d="M427.4 1051.9c-.5 0-.9-.1-1.2-.2-.3-.1-.6-.1-.7-.2-.2-.1-.3-.3-.4-.7-.1-.3-.4-.7-.5-1.1-.1-.4.1-.9.7-1.2.6-.3 1.5-.2 2.2.3.7.5 1 1.4 1 2-.2.7-.6 1.1-1.1 1.1zM444.8 1132.8c.2.4-4.7 2.8-13.3 4.4-4.3.8-9.4 1.4-15.1 1.8-5.7.3-11.9.4-18.5.5-13.1.1-25-.2-33.5-.7-8.6-.5-13.9-1.1-13.9-1.5 0-.5 5.3-.7 13.9-.8 8.6-.1 20.4-.2 33.5-.3 6.5-.1 12.8-.1 18.4-.2 5.6-.2 10.7-.5 14.9-1 8.3-1.1 13.4-2.7 13.6-2.2zM421.6 1125.9c.3.8-7.7 4.9-18.6 7.1-6.7 1.4-12.7 1.8-16.3 1.6l-3.5-.1 3-1.6c1.2-.6 2.3-.6 3-.4.7.2.9.5.9.6-.1.2-.4.2-.9.3-.5.1-1.3.4-1.9.9l-.6-1.7c3.5-.7 9.3-1.6 15.8-3 10.4-1.9 18.8-4.5 19.1-3.7z"/><path class="st1" d="M426 1124.7c.3.8-8 5.1-19 8.5-7.7 2.4-14.7 3.7-18.1 3.9l.1-1.4c1.2.7 1.9 1.3 1.8 1.5-.1.2-.9.2-2.4-.2l-2.1-.5 2.2-.9c3.2-1.3 9.9-3.3 17.5-5.6 10.9-3.3 19.7-6.2 20-5.3z"/><path class="st1" d="M428 1127.5c.2.9-6.8 3-15.3 5.8-5.7 1.8-10.7 3.5-13.5 4.2l-.1-1.5c.3.2.7.2 1 .1.3-.1.5-.1.6-.1.1.1.2.3-.1.7-.3.4-.9.9-2 .7l-2-.3 1.9-1.2c2.4-1.6 7.3-3.9 13.1-5.8 8.8-2.7 16.2-3.4 16.4-2.6z"/><path class="st1" d="M434.6 1125.9c0 .5-1.7 1-4.5 2-1.4.5-3 1.2-4.7 2-1.8.8-3.7 1.7-5.8 2.6-2.1.9-4.2 1.7-6.2 2.3-1 .2-2 .5-2.9.6-.5.1-.9.1-1.3.2-.4 0-.8 0-1.2.1-3.2.1-5.1-.7-5-1.1.1-.5 1.9-.5 4.7-1.2.3-.1.7-.2 1.1-.2l1.2-.3c.8-.2 1.7-.6 2.6-.8 1.8-.7 3.7-1.5 5.8-2.4 2.1-.9 4.1-1.8 6-2.4 1.9-.7 3.7-1.2 5.2-1.4 3-.7 5-.4 5 0z"/><ellipse transform="rotate(-19.013 423.763 1131.607)" class="st1" cx="423.8" cy="1131.7" rx="15.9" ry="1.6"/><ellipse transform="rotate(-18.195 429.962 1132.683)" class="st1" cx="430" cy="1132.6" rx="11.7" ry="1.6"/><ellipse transform="rotate(-28.042 438.517 1131)" class="st1" cx="438.6" cy="1131.1" rx="4.5" ry="1.6"/><path class="st1" d="M788.5 406.3c0 .4-2.9.9-7.7.9-4.8 0-11.3-.5-18.5-1.8-7.1-1.4-13.4-3.4-17.8-5.2-4.4-1.8-6.9-3.3-6.8-3.7.4-.9 11.3 3 25.2 5.7 14 2.7 25.5 3.2 25.6 4.1z"/><ellipse class="st1" cx="459.2" cy="600.6" rx="78.3" ry="1.6"/><path class="st1" d="M370.4 764.4c-.9-.3.2-5.9.7-12.7.5-6.9.1-12.5 1-12.7.4-.1 1.1 1.3 1.6 3.6s.9 5.6.6 9.3c-.2 3.6-1 6.9-1.8 9.1-.8 2.3-1.6 3.5-2.1 3.4z"/><ellipse class="st1" cx="471.3" cy="741.3" rx="98.5" ry="1.6"/><ellipse class="st1" cx="470.7" cy="764.4" rx="97.9" ry="1.6"/><path class="st1" d="M569 762c-.9.2-2.4-3.6-2.8-8.5-.4-4.9.5-8.8 1.4-8.8.9 0 1.5 3.9 1.9 8.5.3 4.8.4 8.7-.5 8.8z"/></g></svg>