<svg xmlns="http://www.w3.org/2000/svg" width="1400" height="950" viewBox="0 0 1400 950">
  <g fill="none" fill-rule="evenodd">
    <path fill="#FBFBFB" d="M0,119 L0,930.450962 C0,941.203407 8.31,950 18.467,950 L1381.534,950 C1391.69,950 1400,941.203407 1400,930.450962 L1400,119 L0,119 Z"/>
    <g transform="translate(0 60)">
      <polygon fill="#657273" points="0 59 1400 59 1400 0 0 0"/>
      <g fill="#FFF" transform="translate(18 21)">
        <polygon points="130.547 10.467 126.939 6.947 126.939 1.666 124.534 1.666 124.534 4.601 120.925 1.08 111.304 10.467 111.304 11.054 113.709 11.054 113.709 16.92 119.723 16.92 119.723 13.4 122.128 13.4 122.128 16.92 128.143 16.92 128.143 11.054 130.547 11.054"/>
        <path d="M93.6167446,7.02072 L87.5100723,7.02072 L89.7925808,4.80096 C88.6387446,3.67704 87.1059706,3.06 85.4762418,3.06 C83.8442927,3.06 82.3100384,3.67704 81.1569424,4.80096 C80.0031062,5.92272 79.3680893,7.41456 79.3680893,9 C79.3680893,10.58688 80.0031062,12.078 81.1569424,13.20048 C82.3100384,14.32224 83.8442927,14.94 85.4762418,14.94 C87.1059706,14.94 88.6387446,14.32224 89.7925808,13.20048 C89.8887955,13.10688 89.9820497,13.01112 90.0708633,12.91248 L91.6028972,14.21568 C90.1100893,15.8724 87.9186147,16.92072 85.4762418,16.92072 C80.9785751,16.92072 77.3342588,13.374 77.3342588,9 C77.3342588,4.62672 80.9785751,1.08072 85.4762418,1.08072 C87.723965,1.08072 89.7592757,1.96704 91.2313605,3.40128 L93.6167446,1.08072 L93.6167446,7.02072 Z"/>
        <polygon points="58.598 9 49.347 0 49.347 5.625 40.095 5.625 40.095 12.375 49.347 12.375 49.347 18"/>
        <polygon points="0 9 9.251 18 9.251 12.375 18.503 12.375 18.503 5.625 9.251 5.625 9.251 0"/>
      </g>
      <g transform="translate(167 12)">
        <path fill="#939C9D" d="M1158,27.820625 C1158,31.7690625 1153.33702,35 1147.63675,35 L10.3621771,35 C4.66404797,35 0,31.7690625 0,27.820625 L0,7.179375 C0,3.2309375 4.66404797,0 10.3621771,0 L1147.63675,0 C1153.33702,0 1158,3.2309375 1158,7.179375 L1158,27.820625 Z"/>
        <path fill="#FFF" d="M1149.7786 15.4059063C1149.7786 16.6695521 1149.2414 17.8085104 1148.38719 18.5960104L1148.39458 18.5960104 1143.77479 23.2838229C1143.31444 23.7526771 1142.85113 24.2215313 1142.39078 24.2215313 1141.92747 24.2215313 1141.46711 23.7526771 1141.00528 23.2838229L1136.38549 18.5960104 1136.39288 18.5960104C1135.5372 17.8085104 1135 16.6695521 1135 15.4059063 1135 13.0251771 1136.90053 11.0965313 1139.24589 11.0965313 1140.49173 11.0965313 1141.61268 11.6419479 1142.39078 12.5096563 1143.16739 11.6419479 1144.28687 11.0965313 1145.53418 11.0965313 1147.87807 11.0965313 1149.7786 13.0251771 1149.7786 15.4059063M22.7181039 21.7861146L22.2126758 21.2880938C22.1912469 21.3136146 22.1698179 21.3376771 22.1483889 21.3617396L22.1409996 21.3704896 22.1276989 21.3865313C22.021293 21.5046563 21.9237542 21.6067396 21.8269544 21.7015313 21.7331103 21.7934063 21.6333548 21.8874688 21.5092146 21.9953854L21.5069978 21.9983021 21.4951749 22.0085104C21.4663566 22.0318438 21.4375384 22.0573646 21.4087201 22.0814271L21.9141482 22.5801771 22.316126 22.1827812 22.7181039 21.7861146zM26.0344212 24.2630938L25.836388 24.0684063 25.8371269 24.0676771 23.6498945 21.9086146C23.6373327 21.8969479 23.6240319 21.8954896 23.6151648 21.8954896 23.6062976 21.8954896 23.5929969 21.8969479 23.5804351 21.9093437L23.507281 21.9815313 22.4749959 23.0016354 22.0382884 23.4318437C22.0286823 23.4420521 22.0242487 23.4529896 22.0242487 23.4668437 22.0242487 23.4777813 22.0286823 23.4894479 22.0382884 23.4989271L24.4235541 25.8526771C24.4316823 25.8614271 24.4435052 25.8658021 24.4582838 25.8658021 24.4656731 25.8658021 24.4789738 25.8636146 24.4893188 25.8534062L25.2615006 25.0914271 26.0344212 24.3287187C26.0440273 24.3206979 26.047722 24.3090313 26.047722 24.2959063 26.047722 24.2835104 26.0440273 24.2718438 26.0344212 24.2630938L26.0344212 24.2630938zM20.2811131 20.1753854C19.2857745 21.1590313 17.9608732 21.6993437 16.5517339 21.6993437 15.1440725 21.6993437 13.8199101 21.1590313 12.8245716 20.1753854 11.8284941 19.1924687 11.2794692 17.8865313 11.2794692 16.4981979 11.2794692 15.1069479 11.8284941 13.7995521 12.8230937 12.8166354 13.8199101 11.8337188 15.1440725 11.2919479 16.5524729 11.2919479 17.9608732 11.2919479 19.2857745 11.8337188 20.282591 12.8166354 21.2779295 13.7995521 21.8254766 15.1069479 21.8254766 16.4960104 21.8254766 17.8850729 21.2779295 19.1910104 20.2811131 20.1753854L20.2811131 20.1753854zM21.6385273 20.8899687L21.6555227 20.8688229C21.7427164 20.7696563 21.8269544 20.6690312 21.9082367 20.5662188L21.9274489 20.5436146 21.957745 20.5027813C22.8451998 19.3412188 23.3136814 17.9558021 23.3136814 16.4960104 23.3136814 14.7146563 22.610959 13.0375729 21.3333493 11.7783021 20.0564784 10.5190313 18.3584175 9.82413542 16.5524729 9.82413542 14.7457893 9.82413542 13.0484673 10.5190313 11.7723354 11.7783021 10.4947256 13.0375729 9.79126439 14.7146563 9.79126439 16.4960104 9.79126439 18.2773646 10.4947256 19.9529896 11.7723354 21.2129896 13.0484673 22.4737187 14.7457893 23.1686146 16.5524729 23.1686146 18.0428945 23.1686146 19.5111482 22.6727813 20.6860467 21.7744479 20.7843244 21.6986146 20.8855577 21.6184062 20.9845744 21.5316354L21.0015697 21.5185104 21.0215208 21.5010104C21.1404886 21.3974687 21.2402441 21.3055938 21.3333493 21.2129896 21.4286712 21.1196563 21.5217764 21.0204896 21.6200541 20.9111146L21.6385273 20.8899687z"/>
      </g>
      <g fill="#FFF" transform="translate(1361 20)">
        <polygon points="0 3.614 18 3.614 18 0 0 0"/>
        <polygon points="0 10.807 18 10.807 18 7.192 0 7.192"/>
        <polygon points="0 18 18 18 18 14.386 0 14.386"/>
      </g>
    </g>
    <path fill="#243638" d="M1381.53301,0 L18.4659868,0 C8.30999406,0 0,6.02740741 0,13.3962963 L0,60 L1400,60 L1400,13.3962963 C1400,6.02740741 1391.68901,0 1381.53301,0"/>
    <g transform="translate(21 21)">
      <path fill="#0A1516" d="M19.3069307,9.50073077 C19.3069307,14.7469231 14.9858911,19 9.65346535,19 C4.3210396,19 0,14.7469231 0,9.50073077 C0,4.25380769 4.3210396,0 9.65346535,0 C14.9858911,0 19.3069307,4.25380769 19.3069307,9.50073077"/>
      <path fill="#FBFBFB" d="M17.8217822,9.50073077 C17.8217822,13.9394231 14.1653465,17.5391923 9.65346535,17.5391923 C5.14158416,17.5391923 1.48514851,13.9394231 1.48514851,9.50073077 C1.48514851,5.06130769 5.14158416,1.46226923 9.65346535,1.46226923 C14.1653465,1.46226923 17.8217822,5.06130769 17.8217822,9.50073077"/>
      <path fill="#ED412F" d="M16.3366337,9.50073077 C16.3366337,13.1326538 13.3455446,16.0769231 9.65346535,16.0769231 C5.96287129,16.0769231 2.97029703,13.1326538 2.97029703,9.50073077 C2.97029703,5.86880769 5.96287129,2.92307692 9.65346535,2.92307692 C13.3455446,2.92307692 16.3366337,5.86880769 16.3366337,9.50073077"/>
      <g transform="translate(27.537)">
        <path fill="#0A1516" d="M19.3069307,9.50073077 C19.3069307,14.7469231 14.9858911,19 9.65420792,19 C4.3210396,19 0,14.7469231 0,9.50073077 C0,4.25380769 4.3210396,0 9.65420792,0 C14.9858911,0 19.3069307,4.25380769 19.3069307,9.50073077"/>
        <path fill="#FBFBFB" d="M17.8217822,9.50073077 C17.8217822,13.9394231 14.1660891,17.5391923 9.65420792,17.5391923 C5.14158416,17.5391923 1.48514851,13.9394231 1.48514851,9.50073077 C1.48514851,5.06130769 5.14158416,1.46226923 9.65420792,1.46226923 C14.1660891,1.46226923 17.8217822,5.06130769 17.8217822,9.50073077"/>
        <path fill="#FFA310" d="M16.3366337,9.50073077 C16.3366337,13.1326538 13.3440594,16.0769231 9.65420792,16.0769231 C5.96138614,16.0769231 2.97029703,13.1326538 2.97029703,9.50073077 C2.97029703,5.86880769 5.96138614,2.92307692 9.65420792,2.92307692 C13.3440594,2.92307692 16.3366337,5.86880769 16.3366337,9.50073077"/>
      </g>
      <g transform="translate(55.073)">
        <path fill="#0A1516" d="M19.3069307,9.50073077 C19.3069307,14.7469231 14.9858911,19 9.65346535,19 C4.3210396,19 0,14.7469231 0,9.50073077 C0,4.25380769 4.3210396,0 9.65346535,0 C14.9858911,0 19.3069307,4.25380769 19.3069307,9.50073077"/>
        <path fill="#FBFBFB" d="M17.8221535,9.50073077 C17.8221535,13.9394231 14.1657178,17.5391923 9.65383663,17.5391923 C5.14195545,17.5391923 1.4855198,13.9394231 1.4855198,9.50073077 C1.4855198,5.06130769 5.14195545,1.46226923 9.65383663,1.46226923 C14.1657178,1.46226923 17.8221535,5.06130769 17.8221535,9.50073077"/>
        <path fill="#71DD2A" d="M16.3373762,9.50073077 C16.3373762,13.1326538 13.3455446,16.0769231 9.65346535,16.0769231 C5.96212871,16.0769231 2.9710396,13.1326538 2.9710396,9.50073077 C2.9710396,5.86880769 5.96212871,2.92307692 9.65346535,2.92307692 C13.3455446,2.92307692 16.3373762,5.86880769 16.3373762,9.50073077"/>
      </g>
    </g>
    <g fill="#FBFBFB" transform="translate(1359 20)">
      <polygon points="22 0 22 10.191 18.08 6.271 13.375 10.976 11.024 8.623 15.728 3.92 11.808 0"/>
      <polygon points="10.974 13.376 6.271 18.08 10.191 22 0 22 0 11.808 3.919 15.729 8.623 11.024"/>
    </g>
  </g>
</svg>
