<?xml version="1.0" standalone="no"?>
<!DOCTYPE svg PUBLIC "-//W3C//DTD SVG 20010904//EN"
 "http://www.w3.org/TR/2001/REC-SVG-20010904/DTD/svg10.dtd">
<svg version="1.0" xmlns="http://www.w3.org/2000/svg"
 width="512.000000pt" height="512.000000pt" viewBox="0 0 512.000000 512.000000"
 preserveAspectRatio="xMidYMid meet">
<metadata>
Created by potrace 1.14, written by Peter Selinger 2001-2017
</metadata>
<g transform="translate(0.000000,512.000000) scale(0.100000,-0.100000)"
fill="#000000" stroke="none">
<path d="M1456 4428 c-14 -13 -34 -39 -44 -58 -11 -19 -43 -75 -72 -125 -53
-92 -74 -128 -110 -190 -36 -62 -57 -98 -110 -190 -29 -49 -61 -105 -71 -122
-37 -64 -57 -100 -129 -223 -82 -142 -88 -152 -160 -275 -29 -49 -61 -105 -71
-122 -66 -114 -195 -338 -225 -388 -50 -85 -68 -125 -58 -134 9 -9 145 -94
209 -131 17 -10 68 -41 115 -70 151 -93 214 -132 245 -150 17 -9 68 -41 115
-70 47 -29 99 -60 115 -70 17 -10 68 -42 115 -71 l85 -54 1145 0 1145 0 515
296 c309 178 516 303 518 313 2 9 -15 49 -38 89 -24 39 -50 86 -60 102 -21 36
-155 266 -181 313 -11 17 -27 47 -38 65 -10 17 -42 73 -71 122 -29 50 -61 105
-71 123 -11 17 -27 47 -38 65 -10 17 -42 73 -71 122 -29 50 -61 105 -71 123
-37 63 -57 99 -129 222 -40 69 -80 139 -90 155 -9 17 -29 50 -43 75 -15 25
-48 82 -73 127 -26 45 -60 98 -76 118 l-29 35 -1084 0 -1084 0 -25 -22z"/>
<path d="M560 2233 c0 -11 11 -30 89 -165 28 -50 161 -279 181 -313 20 -34
153 -263 181 -312 11 -18 27 -48 38 -65 10 -18 42 -73 71 -123 29 -49 61 -105
71 -122 11 -18 27 -48 38 -65 10 -18 42 -73 71 -123 69 -119 86 -148 111 -193
11 -20 31 -47 45 -59 l25 -23 1084 0 1084 0 28 35 c16 19 60 90 99 156 38 67
80 140 93 163 13 22 32 55 41 71 10 17 41 71 70 120 29 50 61 105 71 123 37
63 57 99 129 222 82 142 88 152 160 275 29 50 61 105 71 123 42 72 58 100 98
168 58 101 55 114 -22 70 -39 -22 -60 -33 -152 -86 -19 -11 -51 -29 -70 -40
412 235 -321 -184 -140 -80 -19 -11 -51 -29 -70 -40 -19 -11 -51 -29 -70 -40
-92 -52 -113 -64 -151 -86 -101 -57 -31 -54 -1286 -54 -1305 0 -1182 -7 -1323
79 -38 24 -83 51 -100 61 -16 9 -68 41 -115 70 -47 29 -128 79 -180 110 -52
32 -124 75 -160 97 -69 42 -110 60 -110 46z"/>
</g>
</svg>
