<svg xmlns="http://www.w3.org/2000/svg" version="1.1" xmlns:xlink="http://www.w3.org/1999/xlink" width="1026" height="1026"><svg xmlns="http://www.w3.org/2000/svg" width="1026" height="1026" viewBox="0 0 1026 1026"><g fill="none" fill-rule="evenodd"><rect width="1026" height="1026" fill="#000" rx="100"></rect><path fill="#FFF" d="M737.064151,576.072011 L737.064151,384.064123 L679.928739,351.133373 L679.928739,674.874909 L810,599.89418 L809.996445,683.985857 L607,801 L607,225 L809.996445,342.167965 L809.99289,534.035047 L737.064151,576.072011 M477,192.025199 L477,833.972434 L513.500593,855 L550,833.972434 L550,192.025199 L513.500593,171 L477,192.025199 M347.067706,674.877164 L289.932294,641.940159 L289.932294,299.97795 L217,342.015345 L217,683.988204 L420,801 L420,225 L347.067706,267.035029 L347.067706,674.877164"></path></g></svg><style>@media (prefers-color-scheme: light) { :root { filter: none; } }
@media (prefers-color-scheme: dark) { :root { filter: none; } }
</style></svg>