<svg width="357" height="308" viewBox="0 0 357 308" fill="none" xmlns="http://www.w3.org/2000/svg">
<rect x="0.5" width="356" height="308" rx="7.63539" fill="#1C212B"/>
<path d="M21.5695 30V19.8605H24.6808C25.6624 19.8605 26.4402 20.0966 27.0143 20.5689C27.5884 21.0318 27.8755 21.6661 27.8755 22.4717C27.8755 22.9255 27.7736 23.319 27.5699 23.6524C27.3662 23.9857 27.0884 24.245 26.7365 24.4302C26.3939 24.6154 25.9957 24.708 25.542 24.708V24.6524C26.0328 24.6432 26.468 24.7358 26.8476 24.9302C27.2365 25.1154 27.5421 25.3932 27.7643 25.7636C27.9958 26.134 28.1116 26.5831 28.1116 27.1109C28.1116 27.6943 27.9773 28.2036 27.7088 28.6388C27.4403 29.074 27.0606 29.412 26.5698 29.6528C26.0883 29.8843 25.5096 30 24.8336 30H21.5695ZM23.2641 28.5555H24.7225C25.2318 28.5555 25.63 28.4212 25.917 28.1527C26.2133 27.8749 26.3615 27.4998 26.3615 27.0276C26.3615 26.5553 26.2133 26.1757 25.917 25.8886C25.63 25.5923 25.2318 25.4442 24.7225 25.4442H23.2641V28.5555ZM23.2641 24.0413H24.653C25.116 24.0413 25.4772 23.9209 25.7364 23.6802C26.005 23.4301 26.1392 23.0922 26.1392 22.6662C26.1392 22.2403 26.005 21.9069 25.7364 21.6661C25.4772 21.4254 25.116 21.305 24.653 21.305H23.2641V24.0413ZM32.1481 30.1389C31.361 30.1389 30.7406 29.9306 30.2869 29.5139C29.8331 29.0972 29.6063 28.5369 29.6063 27.8332C29.6063 27.0831 29.8563 26.5044 30.3563 26.097C30.8563 25.6895 31.5647 25.4858 32.4814 25.4858H34.3843V24.833C34.3843 24.4626 34.264 24.1756 34.0232 23.9718C33.7824 23.7589 33.4537 23.6524 33.037 23.6524C32.6574 23.6524 32.3425 23.7357 32.0925 23.9024C31.8425 24.0691 31.6944 24.2959 31.6481 24.583H29.9535C30.0368 23.8607 30.3609 23.2866 30.9258 22.8607C31.4906 22.4347 32.2129 22.2217 33.0926 22.2217C34.0278 22.2217 34.764 22.4579 35.3011 22.9301C35.8474 23.3931 36.1206 24.0228 36.1206 24.8191V30H34.4399V28.6666H34.1621L34.4399 28.2916C34.4399 28.8564 34.2316 29.3055 33.8149 29.6389C33.3982 29.9722 32.8426 30.1389 32.1481 30.1389ZM32.7176 28.8333C33.2083 28.8333 33.6065 28.7083 33.9121 28.4582C34.2269 28.2082 34.3843 27.8841 34.3843 27.486V26.5553H32.5092C32.1573 26.5553 31.8749 26.6572 31.6619 26.8609C31.449 27.0646 31.3425 27.3332 31.3425 27.6665C31.3425 28.0277 31.4629 28.3147 31.7036 28.5277C31.9536 28.7314 32.2916 28.8333 32.7176 28.8333ZM40.671 30.1389C39.9117 30.1389 39.2959 29.875 38.8236 29.3472C38.3606 28.8194 38.1291 28.111 38.1291 27.222V25.1525C38.1291 24.2543 38.3606 23.5413 38.8236 23.0134C39.2866 22.4856 39.9024 22.2217 40.671 22.2217C41.3006 22.2217 41.8007 22.4023 42.1711 22.7634C42.5415 23.1153 42.7267 23.6014 42.7267 24.2219L42.3377 23.8191H42.7406L42.685 21.9995V19.8605H44.4212V30H42.7267V28.5416H42.3377L42.7267 28.1388C42.7267 28.7592 42.5415 29.25 42.1711 29.6111C41.8007 29.963 41.3006 30.1389 40.671 30.1389ZM41.2821 28.6388C41.7266 28.6388 42.0692 28.5092 42.31 28.2499C42.56 27.9814 42.685 27.611 42.685 27.1387V25.2219C42.685 24.7497 42.56 24.3839 42.31 24.1246C42.0692 23.8561 41.7266 23.7218 41.2821 23.7218C40.8377 23.7218 40.4904 23.8515 40.2404 24.1107C39.9904 24.37 39.8654 24.7404 39.8654 25.2219V27.1387C39.8654 27.6202 39.9904 27.9906 40.2404 28.2499C40.4904 28.5092 40.8377 28.6388 41.2821 28.6388ZM47.5965 32.5002V31.0556H49.8606C50.2495 31.0556 50.5412 30.9584 50.7356 30.7639C50.9301 30.5787 51.0273 30.3102 51.0273 29.9583V29.3889L51.0551 27.9582H50.6801L51.0551 27.5832C51.0551 28.2036 50.8699 28.6897 50.4995 29.0416C50.1384 29.3842 49.6476 29.5555 49.0272 29.5555C48.2494 29.5555 47.629 29.2916 47.166 28.7638C46.7122 28.236 46.4854 27.523 46.4854 26.6248V25.1386C46.4854 24.2496 46.7122 23.5413 47.166 23.0134C47.629 22.4856 48.2494 22.2217 49.0272 22.2217C49.6476 22.2217 50.1384 22.3977 50.4995 22.7495C50.8699 23.0922 51.0551 23.5737 51.0551 24.1941L50.6801 23.8191H51.0551L51.0134 22.3606H52.7496V30C52.7496 30.7686 52.495 31.3751 51.9857 31.8196C51.4764 32.2733 50.7773 32.5002 49.8884 32.5002H47.5965ZM49.6106 28.0554C50.055 28.0554 50.3976 27.9258 50.6384 27.6665C50.8884 27.398 51.0134 27.0276 51.0134 26.5553V25.2219C51.0134 24.7497 50.8884 24.3839 50.6384 24.1246C50.3976 23.8561 50.055 23.7218 49.6106 23.7218C49.1661 23.7218 48.8235 23.8515 48.5827 24.1107C48.342 24.37 48.2216 24.7404 48.2216 25.2219V26.5553C48.2216 27.0369 48.342 27.4072 48.5827 27.6665C48.8235 27.9258 49.1661 28.0554 49.6106 28.0554ZM57.9946 30.1389C57.3464 30.1389 56.7815 30.0139 56.3 29.7639C55.8185 29.5139 55.4435 29.1666 55.1749 28.7221C54.9157 28.2684 54.786 27.7406 54.786 27.1387V25.2219C54.786 24.62 54.9157 24.0969 55.1749 23.6524C55.4435 23.1986 55.8185 22.8468 56.3 22.5968C56.7815 22.3467 57.3464 22.2217 57.9946 22.2217C58.6335 22.2217 59.1891 22.3467 59.6613 22.5968C60.1428 22.8468 60.5132 23.1986 60.7725 23.6524C61.041 24.0969 61.1753 24.62 61.1753 25.2219V26.597H56.4667V27.1387C56.4667 27.6758 56.5963 28.0832 56.8556 28.361C57.1149 28.6295 57.4991 28.7638 58.0084 28.7638C58.3974 28.7638 58.7122 28.699 58.9529 28.5694C59.1937 28.4305 59.3465 28.2314 59.4113 27.9721H61.1197C60.9901 28.6295 60.6382 29.1574 60.0641 29.5555C59.4993 29.9444 58.8094 30.1389 57.9946 30.1389ZM59.4946 25.6247V25.208C59.4946 24.6802 59.3696 24.2774 59.1196 23.9996C58.8696 23.7126 58.4946 23.569 57.9946 23.569C57.4945 23.569 57.1149 23.7126 56.8556 23.9996C56.5963 24.2867 56.4667 24.6941 56.4667 25.2219V25.5136L59.6197 25.4858L59.4946 25.6247Z" fill="#EFF0F1"/>
<path fill-rule="evenodd" clip-rule="evenodd" d="M23.2654 45C21.7381 45 20.5 46.2381 20.5 47.7654V76.2346C20.5 77.7619 21.7381 79 23.2654 79H45.2746C46.8019 79 48.04 77.7619 48.04 76.2346V47.7654C48.04 47.763 48.04 47.7605 48.04 47.7581V53.5L39.54 45H23.2654Z" fill="#1166C0"/>
<path d="M24.0503 69.5212V68.507H28.8287V69.5212H27.0475V74.3252H25.8316V69.5212H24.0503ZM32.7719 70.1803C32.7492 69.9511 32.6517 69.7731 32.4793 69.6462C32.307 69.5193 32.0731 69.4559 31.7776 69.4559C31.5768 69.4559 31.4073 69.4843 31.2691 69.5411C31.1308 69.596 31.0248 69.6727 30.9509 69.7712C30.8789 69.8697 30.8429 69.9814 30.8429 70.1064C30.8392 70.2106 30.8609 70.3015 30.9083 70.3792C30.9575 70.4568 31.0248 70.5241 31.11 70.5809C31.1952 70.6358 31.2937 70.6841 31.4054 70.7258C31.5172 70.7655 31.6365 70.7996 31.7634 70.828L32.2861 70.953C32.5399 71.0099 32.7729 71.0856 32.985 71.1803C33.1971 71.275 33.3808 71.3915 33.5361 71.5297C33.6914 71.668 33.8117 71.8309 33.8969 72.0184C33.984 72.2059 34.0285 72.4208 34.0304 72.6633C34.0285 73.0193 33.9376 73.328 33.7577 73.5894C33.5797 73.8489 33.3221 74.0506 32.985 74.1945C32.6498 74.3366 32.2454 74.4076 31.7719 74.4076C31.3022 74.4076 30.8931 74.3356 30.5446 74.1917C30.1981 74.0477 29.9272 73.8347 29.7321 73.5525C29.539 73.2684 29.4376 72.9171 29.4282 72.4985H30.6185C30.6318 72.6936 30.6876 72.8564 30.7861 72.9871C30.8865 73.1159 31.02 73.2135 31.1867 73.2797C31.3553 73.3441 31.5456 73.3763 31.7577 73.3763C31.966 73.3763 32.1469 73.346 32.3003 73.2854C32.4556 73.2248 32.5759 73.1405 32.6611 73.0326C32.7463 72.9246 32.789 72.8006 32.789 72.6604C32.789 72.5297 32.7501 72.4199 32.6725 72.3309C32.5967 72.2419 32.485 72.1661 32.3373 72.1036C32.1914 72.0411 32.0124 71.9843 31.8003 71.9331L31.1668 71.7741C30.6763 71.6547 30.289 71.4682 30.0049 71.2144C29.7208 70.9606 29.5797 70.6188 29.5816 70.1888C29.5797 69.8366 29.6734 69.5288 29.8628 69.2655C30.0541 69.0023 30.3164 68.7968 30.6498 68.6491C30.9831 68.5013 31.3619 68.4275 31.7861 68.4275C32.2179 68.4275 32.5948 68.5013 32.9168 68.6491C33.2407 68.7968 33.4926 69.0023 33.6725 69.2655C33.8524 69.5288 33.9452 69.8337 33.9509 70.1803H32.7719Z" fill="white"/>
<path d="M42.3055 53.5L48.04 53.5L39.54 45L39.54 50.7346C39.54 52.2619 40.7782 53.5 42.3055 53.5Z" fill="#2C89ED"/>
<path d="M61.1096 67V56.8605H64.2209C65.2024 56.8605 65.9802 57.0966 66.5543 57.5689C67.1284 58.0318 67.4155 58.6661 67.4155 59.4717C67.4155 59.9255 67.3136 60.319 67.1099 60.6524C66.9062 60.9857 66.6284 61.245 66.2765 61.4302C65.9339 61.6154 65.5358 61.708 65.082 61.708V61.6524C65.5728 61.6432 66.008 61.7358 66.3877 61.9302C66.7766 62.1154 67.0821 62.3932 67.3044 62.7636C67.5359 63.134 67.6516 63.5831 67.6516 64.1109C67.6516 64.6943 67.5174 65.2036 67.2488 65.6388C66.9803 66.074 66.6006 66.412 66.1099 66.6528C65.6284 66.8843 65.0496 67 64.3736 67H61.1096ZM62.8041 65.5555H64.2625C64.7718 65.5555 65.17 65.4212 65.457 65.1527C65.7534 64.8749 65.9015 64.4998 65.9015 64.0276C65.9015 63.5553 65.7534 63.1757 65.457 62.8886C65.17 62.5923 64.7718 62.4442 64.2625 62.4442H62.8041V65.5555ZM62.8041 61.0413H64.1931C64.6561 61.0413 65.0172 60.9209 65.2765 60.6802C65.545 60.4301 65.6793 60.0922 65.6793 59.6662C65.6793 59.2403 65.545 58.9069 65.2765 58.6661C65.0172 58.4254 64.6561 58.305 64.1931 58.305H62.8041V61.0413ZM71.6881 67.1389C70.901 67.1389 70.2806 66.9306 69.8269 66.5139C69.3732 66.0972 69.1463 65.5369 69.1463 64.8332C69.1463 64.0831 69.3963 63.5044 69.8963 63.097C70.3964 62.6895 71.1048 62.4858 72.0215 62.4858H73.9244V61.833C73.9244 61.4626 73.804 61.1756 73.5632 60.9718C73.3225 60.7589 72.9938 60.6524 72.5771 60.6524C72.1974 60.6524 71.8826 60.7357 71.6326 60.9024C71.3826 61.0691 71.2344 61.2959 71.1881 61.583H69.4935C69.5769 60.8607 69.901 60.2866 70.4658 59.8607C71.0307 59.4347 71.7529 59.2217 72.6326 59.2217C73.5679 59.2217 74.304 59.4579 74.8411 59.9301C75.3874 60.3931 75.6606 61.0228 75.6606 61.8191V67H73.9799V65.6666H73.7021L73.9799 65.2916C73.9799 65.8564 73.7716 66.3055 73.3549 66.6389C72.9382 66.9722 72.3826 67.1389 71.6881 67.1389ZM72.2576 65.8333C72.7484 65.8333 73.1466 65.7083 73.4521 65.4582C73.767 65.2082 73.9244 64.8841 73.9244 64.486V63.5553H72.0493C71.6974 63.5553 71.415 63.6572 71.202 63.8609C70.989 64.0646 70.8825 64.3332 70.8825 64.6665C70.8825 65.0277 71.0029 65.3147 71.2437 65.5277C71.4937 65.7314 71.8317 65.8333 72.2576 65.8333ZM80.211 67.1389C79.4517 67.1389 78.8359 66.875 78.3637 66.3472C77.9007 65.8194 77.6692 65.111 77.6692 64.222V62.1525C77.6692 61.2543 77.9007 60.5413 78.3637 60.0134C78.8267 59.4856 79.4424 59.2217 80.211 59.2217C80.8407 59.2217 81.3407 59.4023 81.7111 59.7634C82.0815 60.1153 82.2667 60.6014 82.2667 61.2219L81.8778 60.8191H82.2806L82.225 58.9995V56.8605H83.9613V67H82.2667V65.5416H81.8778L82.2667 65.1388C82.2667 65.7592 82.0815 66.25 81.7111 66.6111C81.3407 66.963 80.8407 67.1389 80.211 67.1389ZM80.8222 65.6388C81.2666 65.6388 81.6093 65.5092 81.85 65.2499C82.1 64.9814 82.225 64.611 82.225 64.1387V62.2219C82.225 61.7497 82.1 61.3839 81.85 61.1246C81.6093 60.8561 81.2666 60.7218 80.8222 60.7218C80.3777 60.7218 80.0304 60.8515 79.7804 61.1107C79.5304 61.37 79.4054 61.7404 79.4054 62.2219V64.1387C79.4054 64.6202 79.5304 64.9906 79.7804 65.2499C80.0304 65.5092 80.3777 65.6388 80.8222 65.6388ZM87.1366 69.5002V68.0556H89.4006C89.7895 68.0556 90.0812 67.9584 90.2757 67.7639C90.4701 67.5787 90.5674 67.3102 90.5674 66.9583V66.3889L90.5951 64.9582H90.2201L90.5951 64.5832C90.5951 65.2036 90.4099 65.6897 90.0395 66.0416C89.6784 66.3842 89.1876 66.5555 88.5672 66.5555C87.7894 66.5555 87.169 66.2916 86.706 65.7638C86.2523 65.236 86.0254 64.523 86.0254 63.6248V62.1386C86.0254 61.2496 86.2523 60.5413 86.706 60.0134C87.169 59.4856 87.7894 59.2217 88.5672 59.2217C89.1876 59.2217 89.6784 59.3977 90.0395 59.7495C90.4099 60.0922 90.5951 60.5737 90.5951 61.1941L90.2201 60.8191H90.5951L90.5535 59.3606H92.2897V67C92.2897 67.7686 92.035 68.3751 91.5257 68.8196C91.0165 69.2733 90.3173 69.5002 89.4284 69.5002H87.1366ZM89.1506 65.0554C89.5951 65.0554 89.9377 64.9258 90.1784 64.6665C90.4285 64.398 90.5535 64.0276 90.5535 63.5553V62.2219C90.5535 61.7497 90.4285 61.3839 90.1784 61.1246C89.9377 60.8561 89.5951 60.7218 89.1506 60.7218C88.7061 60.7218 88.3635 60.8515 88.1228 61.1107C87.882 61.37 87.7616 61.7404 87.7616 62.2219V63.5553C87.7616 64.0369 87.882 64.4072 88.1228 64.6665C88.3635 64.9258 88.7061 65.0554 89.1506 65.0554ZM97.5346 67.1389C96.8864 67.1389 96.3216 67.0139 95.84 66.7639C95.3585 66.5139 94.9835 66.1666 94.715 65.7221C94.4557 65.2684 94.3261 64.7406 94.3261 64.1387V62.2219C94.3261 61.62 94.4557 61.0969 94.715 60.6524C94.9835 60.1986 95.3585 59.8468 95.84 59.5968C96.3216 59.3467 96.8864 59.2217 97.5346 59.2217C98.1735 59.2217 98.7291 59.3467 99.2014 59.5968C99.6829 59.8468 100.053 60.1986 100.313 60.6524C100.581 61.0969 100.715 61.62 100.715 62.2219V63.597H96.0067V64.1387C96.0067 64.6758 96.1364 65.0832 96.3956 65.361C96.6549 65.6295 97.0392 65.7638 97.5485 65.7638C97.9374 65.7638 98.2522 65.699 98.493 65.5694C98.7337 65.4305 98.8865 65.2314 98.9513 64.9721H100.66C100.53 65.6295 100.178 66.1574 99.6042 66.5555C99.0393 66.9444 98.3495 67.1389 97.5346 67.1389ZM99.0347 62.6247V62.208C99.0347 61.6802 98.9097 61.2774 98.6597 60.9996C98.4096 60.7126 98.0346 60.569 97.5346 60.569C97.0346 60.569 96.6549 60.7126 96.3956 60.9996C96.1364 61.2867 96.0067 61.6941 96.0067 62.2219V62.5136L99.1597 62.4858L99.0347 62.6247ZM105.849 67.1389C105.451 67.1389 105.131 67.0231 104.891 66.7917C104.659 66.5602 104.543 66.2453 104.543 65.8471C104.543 65.449 104.659 65.1341 104.891 64.9026C105.131 64.6619 105.451 64.5415 105.849 64.5415C106.247 64.5415 106.562 64.6619 106.794 64.9026C107.034 65.1341 107.155 65.449 107.155 65.8471C107.155 66.2453 107.034 66.5602 106.794 66.7917C106.562 67.0231 106.247 67.1389 105.849 67.1389ZM113.886 67.125C113.303 67.125 112.793 67.0324 112.358 66.8472C111.923 66.662 111.58 66.4074 111.33 66.0833C111.089 65.7499 110.96 65.361 110.941 64.9165H112.677C112.696 65.1573 112.812 65.3517 113.025 65.4999C113.247 65.6481 113.534 65.7221 113.886 65.7221H114.497C114.923 65.7221 115.242 65.6388 115.455 65.4721C115.668 65.3054 115.775 65.0786 115.775 64.7915C115.775 64.523 115.678 64.3146 115.483 64.1665C115.298 64.0091 115.006 63.9072 114.608 63.8609L113.664 63.722C112.793 63.6016 112.154 63.3701 111.747 63.0275C111.339 62.6849 111.136 62.171 111.136 61.4858C111.136 60.7728 111.376 60.2218 111.858 59.8329C112.339 59.4347 113.048 59.2356 113.983 59.2356H114.511C115.363 59.2356 116.043 59.4254 116.553 59.8051C117.062 60.1848 117.335 60.694 117.372 61.333H115.636C115.608 61.1293 115.492 60.9626 115.289 60.8329C115.094 60.7033 114.835 60.6385 114.511 60.6385H113.983C113.585 60.6385 113.293 60.7126 113.108 60.8607C112.932 60.9996 112.844 61.208 112.844 61.4858C112.844 61.745 112.923 61.9395 113.08 62.0691C113.238 62.1895 113.492 62.2775 113.844 62.333L114.83 62.4719C115.738 62.6016 116.405 62.847 116.831 63.2081C117.266 63.56 117.483 64.0831 117.483 64.7776C117.483 65.5184 117.229 66.0972 116.719 66.5139C116.219 66.9213 115.479 67.125 114.497 67.125H113.886ZM123.339 67C122.608 67 122.034 66.7963 121.617 66.3889C121.21 65.9814 121.006 65.4212 121.006 64.7082V60.9302H118.936V59.3606H121.006V57.2077H122.756V59.3606H125.687V60.9302H122.756V64.7082C122.756 65.1897 122.992 65.4305 123.464 65.4305H125.548V67H123.339ZM130.834 67.125C130.186 67.125 129.621 67.0046 129.14 66.7639C128.668 66.5139 128.297 66.1666 128.029 65.7221C127.769 65.2684 127.64 64.736 127.64 64.1248V62.2358C127.64 61.6247 127.769 61.0969 128.029 60.6524C128.297 60.1986 128.668 59.8514 129.14 59.6106C129.621 59.3606 130.186 59.2356 130.834 59.2356C131.492 59.2356 132.057 59.3606 132.529 59.6106C133.001 59.8514 133.367 60.1986 133.626 60.6524C133.895 61.0969 134.029 61.62 134.029 62.2219V64.1248C134.029 64.736 133.895 65.2684 133.626 65.7221C133.367 66.1666 133.001 66.5139 132.529 66.7639C132.057 67.0046 131.492 67.125 130.834 67.125ZM130.834 65.611C131.297 65.611 131.654 65.486 131.904 65.236C132.163 64.9767 132.293 64.6063 132.293 64.1248V62.2358C132.293 61.745 132.163 61.3746 131.904 61.1246C131.654 60.8746 131.297 60.7496 130.834 60.7496C130.381 60.7496 130.024 60.8746 129.765 61.1246C129.506 61.3746 129.376 61.745 129.376 62.2358V64.1248C129.376 64.6063 129.506 64.9767 129.765 65.236C130.024 65.486 130.381 65.611 130.834 65.611ZM136.302 67V59.3606H137.941V60.8191H138.371L137.857 61.708C137.857 60.8839 138.042 60.2635 138.413 59.8468C138.783 59.4301 139.33 59.2217 140.052 59.2217C140.876 59.2217 141.524 59.4764 141.996 59.9857C142.469 60.495 142.705 61.1987 142.705 62.0969V62.6525H140.885V62.2219C140.885 61.7311 140.756 61.3515 140.496 61.083C140.246 60.8144 139.899 60.6802 139.455 60.6802C139.001 60.6802 138.649 60.8144 138.399 61.083C138.158 61.3515 138.038 61.7311 138.038 62.2219V67H136.302ZM144.38 67V65.4166H147.047V60.9302H144.727V59.3606H148.714V65.4166H151.075V67H144.38ZM147.741 58.0828C147.389 58.0828 147.112 57.9948 146.908 57.8189C146.704 57.6337 146.602 57.3883 146.602 57.0827C146.602 56.7771 146.704 56.5364 146.908 56.3604C147.112 56.1752 147.389 56.0826 147.741 56.0826C148.093 56.0826 148.371 56.1752 148.575 56.3604C148.778 56.5364 148.88 56.7771 148.88 57.0827C148.88 57.3883 148.778 57.6337 148.575 57.8189C148.371 57.9948 148.093 58.0828 147.741 58.0828ZM155.834 67.1389C155.185 67.1389 154.621 67.0139 154.139 66.7639C153.658 66.5139 153.283 66.1666 153.014 65.7221C152.755 65.2684 152.625 64.7406 152.625 64.1387V62.2219C152.625 61.62 152.755 61.0969 153.014 60.6524C153.283 60.1986 153.658 59.8468 154.139 59.5968C154.621 59.3467 155.185 59.2217 155.834 59.2217C156.473 59.2217 157.028 59.3467 157.5 59.5968C157.982 59.8468 158.352 60.1986 158.612 60.6524C158.88 61.0969 159.014 61.62 159.014 62.2219V63.597H154.306V64.1387C154.306 64.6758 154.435 65.0832 154.695 65.361C154.954 65.6295 155.338 65.7638 155.848 65.7638C156.236 65.7638 156.551 65.699 156.792 65.5694C157.033 65.4305 157.186 65.2314 157.25 64.9721H158.959C158.829 65.6295 158.477 66.1574 157.903 66.5555C157.338 66.9444 156.648 67.1389 155.834 67.1389ZM157.334 62.6247V62.208C157.334 61.6802 157.209 61.2774 156.959 60.9996C156.709 60.7126 156.334 60.569 155.834 60.569C155.334 60.569 154.954 60.7126 154.695 60.9996C154.435 61.2867 154.306 61.6941 154.306 62.2219V62.5136L157.459 62.4858L157.334 62.6247ZM163.856 67.125C163.273 67.125 162.764 67.0324 162.329 66.8472C161.893 66.662 161.551 66.4074 161.301 66.0833C161.06 65.7499 160.93 65.361 160.912 64.9165H162.648C162.667 65.1573 162.782 65.3517 162.995 65.4999C163.218 65.6481 163.505 65.7221 163.856 65.7221H164.468C164.894 65.7221 165.213 65.6388 165.426 65.4721C165.639 65.3054 165.745 65.0786 165.745 64.7915C165.745 64.523 165.648 64.3146 165.454 64.1665C165.269 64.0091 164.977 63.9072 164.579 63.8609L163.634 63.722C162.764 63.6016 162.125 63.3701 161.717 63.0275C161.31 62.6849 161.106 62.171 161.106 61.4858C161.106 60.7728 161.347 60.2218 161.829 59.8329C162.31 59.4347 163.018 59.2356 163.954 59.2356H164.482C165.333 59.2356 166.014 59.4254 166.523 59.8051C167.033 60.1848 167.306 60.694 167.343 61.333H165.607C165.579 61.1293 165.463 60.9626 165.259 60.8329C165.065 60.7033 164.806 60.6385 164.482 60.6385H163.954C163.556 60.6385 163.264 60.7126 163.079 60.8607C162.903 60.9996 162.815 61.208 162.815 61.4858C162.815 61.745 162.893 61.9395 163.051 62.0691C163.208 62.1895 163.463 62.2775 163.815 62.333L164.801 62.4719C165.708 62.6016 166.375 62.847 166.801 63.2081C167.236 63.56 167.454 64.0831 167.454 64.7776C167.454 65.5184 167.199 66.0972 166.69 66.5139C166.19 66.9213 165.449 67.125 164.468 67.125H163.856ZM172.477 67.1389C172.078 67.1389 171.759 67.0231 171.518 66.7917C171.287 66.5602 171.171 66.2453 171.171 65.8471C171.171 65.449 171.287 65.1341 171.518 64.9026C171.759 64.6619 172.078 64.5415 172.477 64.5415C172.875 64.5415 173.19 64.6619 173.421 64.9026C173.662 65.1341 173.782 65.449 173.782 65.8471C173.782 66.2453 173.662 66.5602 173.421 66.7917C173.19 67.0231 172.875 67.1389 172.477 67.1389ZM181.638 67C180.907 67 180.333 66.7963 179.916 66.3889C179.509 65.9814 179.305 65.4212 179.305 64.7082V60.9302H177.235V59.3606H179.305V57.2077H181.055V59.3606H183.986V60.9302H181.055V64.7082C181.055 65.1897 181.291 65.4305 181.763 65.4305H183.847V67H181.638ZM188.842 67.125C188.258 67.125 187.749 67.0324 187.314 66.8472C186.879 66.662 186.536 66.4074 186.286 66.0833C186.045 65.7499 185.916 65.361 185.897 64.9165H187.633C187.652 65.1573 187.768 65.3517 187.981 65.4999C188.203 65.6481 188.49 65.7221 188.842 65.7221H189.453C189.879 65.7221 190.198 65.6388 190.411 65.4721C190.624 65.3054 190.731 65.0786 190.731 64.7915C190.731 64.523 190.634 64.3146 190.439 64.1665C190.254 64.0091 189.962 63.9072 189.564 63.8609L188.62 63.722C187.749 63.6016 187.11 63.3701 186.703 63.0275C186.295 62.6849 186.092 62.171 186.092 61.4858C186.092 60.7728 186.332 60.2218 186.814 59.8329C187.295 59.4347 188.004 59.2356 188.939 59.2356H189.467C190.319 59.2356 190.999 59.4254 191.509 59.8051C192.018 60.1848 192.291 60.694 192.328 61.333H190.592C190.564 61.1293 190.448 60.9626 190.245 60.8329C190.05 60.7033 189.791 60.6385 189.467 60.6385H188.939C188.541 60.6385 188.249 60.7126 188.064 60.8607C187.888 60.9996 187.8 61.208 187.8 61.4858C187.8 61.745 187.879 61.9395 188.036 62.0691C188.194 62.1895 188.448 62.2775 188.8 62.333L189.786 62.4719C190.694 62.6016 191.36 62.847 191.786 63.2081C192.222 63.56 192.439 64.0831 192.439 64.7776C192.439 65.5184 192.185 66.0972 191.675 66.5139C191.175 66.9213 190.434 67.125 189.453 67.125H188.842ZM193.795 67L196.462 63.0553L193.976 59.3606H195.934L197.115 61.2357C197.189 61.3469 197.254 61.4719 197.309 61.6108C197.374 61.7497 197.425 61.8608 197.462 61.9441C197.499 61.8608 197.55 61.7497 197.615 61.6108C197.68 61.4719 197.744 61.3469 197.809 61.2357L199.004 59.3606H200.962L198.476 63.0553L201.129 67H199.156L197.837 64.9026C197.763 64.7823 197.693 64.6526 197.629 64.5137C197.564 64.3748 197.508 64.2637 197.462 64.1804C197.425 64.2637 197.374 64.3748 197.309 64.5137C197.244 64.6526 197.175 64.7823 197.101 64.9026L195.753 67H193.795Z" fill="#EFF0F1"/>
<path fill-rule="evenodd" clip-rule="evenodd" d="M23.2654 90C21.7381 90 20.5 91.2381 20.5 92.7654V121.235C20.5 122.762 21.7381 124 23.2654 124H45.2746C46.8019 124 48.04 122.762 48.04 121.235V92.7654C48.04 92.763 48.04 92.7605 48.04 92.7581V98.5L39.54 90H23.2654Z" fill="#1166C0"/>
<path fill-rule="evenodd" clip-rule="evenodd" d="M33.5177 112.576C35.0838 113.061 36.1053 113.842 36.1053 114.666C36.1053 115.488 35.0888 116.269 33.5327 116.754C33.8967 118.362 33.7385 119.643 33.0333 120.054C32.8676 120.15 32.6769 120.196 32.4661 120.196C31.7759 120.196 30.8724 119.704 29.9588 118.846C29.0452 119.709 28.1417 120.206 27.4515 120.206C27.2407 120.206 27.0499 120.16 26.8868 120.064C26.179 119.653 26.0184 118.369 26.3798 116.756C24.8137 116.272 23.7922 115.491 23.7922 114.666C23.7922 113.844 24.8087 113.066 26.3698 112.579C26.0059 110.971 26.164 109.69 26.8692 109.279C27.0349 109.182 27.2256 109.137 27.4365 109.137V109.134C28.1266 109.134 29.0302 109.626 29.9437 110.484C30.8573 109.621 31.7608 109.124 32.451 109.124V109.127C32.6583 109.127 32.8482 109.173 33.0107 109.269C33.7185 109.68 33.8791 110.963 33.5177 112.576ZM32.4485 109.69C31.9265 109.691 31.1597 110.112 30.3428 110.879C30.6967 111.252 31.048 111.678 31.3869 112.147C31.9516 112.208 32.4887 112.302 32.9806 112.424C33.0358 112.168 33.081 111.917 33.1086 111.678C33.224 110.709 33.076 109.956 32.7346 109.758C32.6568 109.715 32.564 109.692 32.4485 109.692V109.69ZM29.5447 110.882C28.7265 110.118 27.956 109.7 27.4365 109.7V109.702C27.321 109.702 27.2231 109.723 27.1478 109.768C26.809 109.969 26.6634 110.722 26.7814 111.691C26.8115 111.927 26.8542 112.173 26.9119 112.426C27.4038 112.302 27.9409 112.208 28.5081 112.147C28.8419 111.678 29.1933 111.255 29.5447 110.882ZM32.4987 113.976C32.6292 113.639 32.7447 113.302 32.8375 112.974C32.5087 112.893 32.1649 112.827 31.8085 112.774C31.9315 112.967 32.0545 113.165 32.1699 113.367C32.2879 113.57 32.3958 113.773 32.4987 113.976ZM31.0832 116.645C31.2915 116.343 31.4923 116.018 31.688 115.676C31.8763 115.343 32.0494 115.004 32.2076 114.664C32.0494 114.324 31.8763 113.986 31.6855 113.654C31.4898 113.314 31.2865 112.992 31.0782 112.69C30.7067 112.66 30.3277 112.642 29.9488 112.642C29.5673 112.642 29.1883 112.66 28.8143 112.693C28.606 112.995 28.4052 113.319 28.2095 113.662C28.0212 113.994 27.8455 114.334 27.6899 114.674C27.8481 115.014 28.0212 115.351 28.212 115.683C28.4077 116.023 28.611 116.345 28.8193 116.647C29.1908 116.678 29.5698 116.695 29.9488 116.695C30.3302 116.695 30.7092 116.678 31.0832 116.645ZM32.8451 116.355C32.7497 116.026 32.6342 115.686 32.4987 115.346C32.3958 115.549 32.2879 115.754 32.1724 115.957C32.057 116.163 31.934 116.363 31.811 116.558C32.1699 116.505 32.5163 116.437 32.8451 116.355ZM29.2561 117.241C29.487 117.537 29.7204 117.809 29.9538 118.052C30.1847 117.809 30.4181 117.537 30.644 117.241C30.4156 117.253 30.1822 117.258 29.9462 117.258C29.7128 117.258 29.4819 117.251 29.2561 117.241ZM27.0575 116.358C27.3863 116.439 27.7301 116.505 28.0865 116.558C27.9635 116.366 27.843 116.168 27.7251 115.965C27.6071 115.762 27.4992 115.559 27.3963 115.356C27.2658 115.693 27.1503 116.031 27.0575 116.358ZM30.6389 112.092C30.408 111.795 30.1746 111.524 29.9412 111.28C29.7103 111.524 29.4769 111.795 29.251 112.092C29.4794 112.079 29.7128 112.074 29.9488 112.074C30.1822 112.074 30.4131 112.082 30.6389 112.092ZM27.7226 113.375C27.838 113.17 27.961 112.969 28.084 112.774C27.7251 112.827 27.3787 112.896 27.0499 112.974C27.1453 113.304 27.2608 113.644 27.3963 113.984C27.4992 113.781 27.6071 113.578 27.7226 113.375ZM24.3494 114.666C24.3494 115.064 24.9242 115.567 25.8126 115.95C26.031 116.043 26.2669 116.13 26.5154 116.208C26.6559 115.714 26.8416 115.199 27.0725 114.671C26.8391 114.141 26.6509 113.624 26.5078 113.127C26.2644 113.205 26.0285 113.289 25.8126 113.383C24.9242 113.763 24.3494 114.268 24.3494 114.666ZM26.7889 117.654C26.6735 118.623 26.8216 119.376 27.1629 119.574C27.2382 119.617 27.3336 119.64 27.4465 119.643C27.9685 119.643 28.7365 119.222 29.5547 118.453C29.2008 118.08 28.8495 117.654 28.5106 117.185C27.9459 117.124 27.4088 117.03 26.9169 116.908C26.8617 117.165 26.8165 117.416 26.7889 117.654ZM32.7497 119.564C33.0885 119.364 33.2341 118.61 33.1161 117.641C33.0885 117.406 33.0433 117.159 32.9856 116.903C32.4937 117.028 31.9566 117.121 31.3894 117.182C31.0556 117.652 30.7042 118.075 30.3528 118.448C31.171 119.211 31.9415 119.63 32.4611 119.63C32.5765 119.63 32.6744 119.61 32.7497 119.564ZM33.3872 116.206C33.6306 116.127 33.8665 116.043 34.0824 115.95C34.9708 115.569 35.5456 115.064 35.5481 114.666C35.5481 114.268 34.9734 113.766 34.0849 113.383C33.864 113.289 33.6281 113.203 33.3796 113.124C33.2391 113.619 33.0534 114.134 32.8225 114.661C33.0559 115.191 33.2441 115.709 33.3872 116.206ZM30.2702 114.666C30.2702 114.86 30.117 115.002 29.9462 115.002C29.7755 115.002 29.6223 114.86 29.6223 114.666C29.6223 114.472 29.7755 114.33 29.9462 114.33C30.117 114.33 30.2702 114.472 30.2702 114.666ZM29.9462 115.825C30.5797 115.825 31.0932 115.306 31.0932 114.666C31.0932 114.026 30.5797 113.507 29.9462 113.507C29.3128 113.507 28.7993 114.026 28.7993 114.666C28.7993 115.306 29.3128 115.825 29.9462 115.825Z" fill="white"/>
<path d="M42.3055 98.5L48.04 98.5L39.54 90L39.54 95.7346C39.54 97.2619 40.7782 98.5 42.3055 98.5Z" fill="#2C89ED"/>
<path d="M61.1096 112V101.86H64.2209C65.2024 101.86 65.9802 102.097 66.5543 102.569C67.1284 103.032 67.4155 103.666 67.4155 104.472C67.4155 104.925 67.3136 105.319 67.1099 105.652C66.9062 105.986 66.6284 106.245 66.2765 106.43C65.9339 106.615 65.5358 106.708 65.082 106.708V106.652C65.5728 106.643 66.008 106.736 66.3877 106.93C66.7766 107.115 67.0821 107.393 67.3044 107.764C67.5359 108.134 67.6516 108.583 67.6516 109.111C67.6516 109.694 67.5174 110.204 67.2488 110.639C66.9803 111.074 66.6006 111.412 66.1099 111.653C65.6284 111.884 65.0496 112 64.3736 112H61.1096ZM62.8041 110.555H64.2625C64.7718 110.555 65.17 110.421 65.457 110.153C65.7534 109.875 65.9015 109.5 65.9015 109.028C65.9015 108.555 65.7534 108.176 65.457 107.889C65.17 107.592 64.7718 107.444 64.2625 107.444H62.8041V110.555ZM62.8041 106.041H64.1931C64.6561 106.041 65.0172 105.921 65.2765 105.68C65.545 105.43 65.6793 105.092 65.6793 104.666C65.6793 104.24 65.545 103.907 65.2765 103.666C65.0172 103.425 64.6561 103.305 64.1931 103.305H62.8041V106.041ZM71.6881 112.139C70.901 112.139 70.2806 111.931 69.8269 111.514C69.3732 111.097 69.1463 110.537 69.1463 109.833C69.1463 109.083 69.3963 108.504 69.8963 108.097C70.3964 107.69 71.1048 107.486 72.0215 107.486H73.9244V106.833C73.9244 106.463 73.804 106.176 73.5632 105.972C73.3225 105.759 72.9938 105.652 72.5771 105.652C72.1974 105.652 71.8826 105.736 71.6326 105.902C71.3826 106.069 71.2344 106.296 71.1881 106.583H69.4935C69.5769 105.861 69.901 105.287 70.4658 104.861C71.0307 104.435 71.7529 104.222 72.6326 104.222C73.5679 104.222 74.304 104.458 74.8411 104.93C75.3874 105.393 75.6606 106.023 75.6606 106.819V112H73.9799V110.667H73.7021L73.9799 110.292C73.9799 110.856 73.7716 111.306 73.3549 111.639C72.9382 111.972 72.3826 112.139 71.6881 112.139ZM72.2576 110.833C72.7484 110.833 73.1466 110.708 73.4521 110.458C73.767 110.208 73.9244 109.884 73.9244 109.486V108.555H72.0493C71.6974 108.555 71.415 108.657 71.202 108.861C70.989 109.065 70.8825 109.333 70.8825 109.667C70.8825 110.028 71.0029 110.315 71.2437 110.528C71.4937 110.731 71.8317 110.833 72.2576 110.833ZM80.211 112.139C79.4517 112.139 78.8359 111.875 78.3637 111.347C77.9007 110.819 77.6692 110.111 77.6692 109.222V107.152C77.6692 106.254 77.9007 105.541 78.3637 105.013C78.8267 104.486 79.4424 104.222 80.211 104.222C80.8407 104.222 81.3407 104.402 81.7111 104.763C82.0815 105.115 82.2667 105.601 82.2667 106.222L81.8778 105.819H82.2806L82.225 103.999V101.86H83.9613V112H82.2667V110.542H81.8778L82.2667 110.139C82.2667 110.759 82.0815 111.25 81.7111 111.611C81.3407 111.963 80.8407 112.139 80.211 112.139ZM80.8222 110.639C81.2666 110.639 81.6093 110.509 81.85 110.25C82.1 109.981 82.225 109.611 82.225 109.139V107.222C82.225 106.75 82.1 106.384 81.85 106.125C81.6093 105.856 81.2666 105.722 80.8222 105.722C80.3777 105.722 80.0304 105.851 79.7804 106.111C79.5304 106.37 79.4054 106.74 79.4054 107.222V109.139C79.4054 109.62 79.5304 109.991 79.7804 110.25C80.0304 110.509 80.3777 110.639 80.8222 110.639ZM87.1366 114.5V113.056H89.4006C89.7895 113.056 90.0812 112.958 90.2757 112.764C90.4701 112.579 90.5674 112.31 90.5674 111.958V111.389L90.5951 109.958H90.2201L90.5951 109.583C90.5951 110.204 90.4099 110.69 90.0395 111.042C89.6784 111.384 89.1876 111.556 88.5672 111.556C87.7894 111.556 87.169 111.292 86.706 110.764C86.2523 110.236 86.0254 109.523 86.0254 108.625V107.139C86.0254 106.25 86.2523 105.541 86.706 105.013C87.169 104.486 87.7894 104.222 88.5672 104.222C89.1876 104.222 89.6784 104.398 90.0395 104.75C90.4099 105.092 90.5951 105.574 90.5951 106.194L90.2201 105.819H90.5951L90.5535 104.361H92.2897V112C92.2897 112.769 92.035 113.375 91.5257 113.82C91.0165 114.273 90.3173 114.5 89.4284 114.5H87.1366ZM89.1506 110.055C89.5951 110.055 89.9377 109.926 90.1784 109.667C90.4285 109.398 90.5535 109.028 90.5535 108.555V107.222C90.5535 106.75 90.4285 106.384 90.1784 106.125C89.9377 105.856 89.5951 105.722 89.1506 105.722C88.7061 105.722 88.3635 105.851 88.1228 106.111C87.882 106.37 87.7616 106.74 87.7616 107.222V108.555C87.7616 109.037 87.882 109.407 88.1228 109.667C88.3635 109.926 88.7061 110.055 89.1506 110.055ZM97.5346 112.139C96.8864 112.139 96.3216 112.014 95.84 111.764C95.3585 111.514 94.9835 111.167 94.715 110.722C94.4557 110.268 94.3261 109.741 94.3261 109.139V107.222C94.3261 106.62 94.4557 106.097 94.715 105.652C94.9835 105.199 95.3585 104.847 95.84 104.597C96.3216 104.347 96.8864 104.222 97.5346 104.222C98.1735 104.222 98.7291 104.347 99.2014 104.597C99.6829 104.847 100.053 105.199 100.313 105.652C100.581 106.097 100.715 106.62 100.715 107.222V108.597H96.0067V109.139C96.0067 109.676 96.1364 110.083 96.3956 110.361C96.6549 110.63 97.0392 110.764 97.5485 110.764C97.9374 110.764 98.2522 110.699 98.493 110.569C98.7337 110.43 98.8865 110.231 98.9513 109.972H100.66C100.53 110.63 100.178 111.157 99.6042 111.556C99.0393 111.944 98.3495 112.139 97.5346 112.139ZM99.0347 107.625V107.208C99.0347 106.68 98.9097 106.277 98.6597 106C98.4096 105.713 98.0346 105.569 97.5346 105.569C97.0346 105.569 96.6549 105.713 96.3956 106C96.1364 106.287 96.0067 106.694 96.0067 107.222V107.514L99.1597 107.486L99.0347 107.625ZM105.849 112.139C105.451 112.139 105.131 112.023 104.891 111.792C104.659 111.56 104.543 111.245 104.543 110.847C104.543 110.449 104.659 110.134 104.891 109.903C105.131 109.662 105.451 109.542 105.849 109.542C106.247 109.542 106.562 109.662 106.794 109.903C107.034 110.134 107.155 110.449 107.155 110.847C107.155 111.245 107.034 111.56 106.794 111.792C106.562 112.023 106.247 112.139 105.849 112.139ZM115.011 112C114.279 112 113.705 111.796 113.289 111.389C112.881 110.981 112.677 110.421 112.677 109.708V105.93H110.608V104.361H112.677V102.208H114.428V104.361H117.358V105.93H114.428V109.708C114.428 110.19 114.664 110.43 115.136 110.43H117.219V112H115.011ZM122.52 112.139C121.872 112.139 121.307 112.014 120.825 111.764C120.344 111.514 119.969 111.167 119.7 110.722C119.441 110.268 119.311 109.741 119.311 109.139V107.222C119.311 106.62 119.441 106.097 119.7 105.652C119.969 105.199 120.344 104.847 120.825 104.597C121.307 104.347 121.872 104.222 122.52 104.222C123.159 104.222 123.714 104.347 124.187 104.597C124.668 104.847 125.039 105.199 125.298 105.652C125.566 106.097 125.701 106.62 125.701 107.222V108.597H120.992V109.139C120.992 109.676 121.122 110.083 121.381 110.361C121.64 110.63 122.024 110.764 122.534 110.764C122.923 110.764 123.238 110.699 123.478 110.569C123.719 110.43 123.872 110.231 123.937 109.972H125.645C125.515 110.63 125.164 111.157 124.589 111.556C124.025 111.944 123.335 112.139 122.52 112.139ZM124.02 107.625V107.208C124.02 106.68 123.895 106.277 123.645 106C123.395 105.713 123.02 105.569 122.52 105.569C122.02 105.569 121.64 105.713 121.381 106C121.122 106.287 120.992 106.694 120.992 107.222V107.514L124.145 107.486L124.02 107.625ZM130.543 112.125C129.959 112.125 129.45 112.032 129.015 111.847C128.58 111.662 128.237 111.407 127.987 111.083C127.746 110.75 127.617 110.361 127.598 109.917H129.334C129.353 110.157 129.469 110.352 129.682 110.5C129.904 110.648 130.191 110.722 130.543 110.722H131.154C131.58 110.722 131.899 110.639 132.112 110.472C132.325 110.305 132.432 110.079 132.432 109.792C132.432 109.523 132.335 109.315 132.14 109.166C131.955 109.009 131.663 108.907 131.265 108.861L130.321 108.722C129.45 108.602 128.811 108.37 128.404 108.028C127.996 107.685 127.793 107.171 127.793 106.486C127.793 105.773 128.033 105.222 128.515 104.833C128.996 104.435 129.705 104.236 130.64 104.236H131.168C132.02 104.236 132.7 104.425 133.21 104.805C133.719 105.185 133.992 105.694 134.029 106.333H132.293C132.265 106.129 132.149 105.963 131.946 105.833C131.751 105.703 131.492 105.638 131.168 105.638H130.64C130.242 105.638 129.95 105.713 129.765 105.861C129.589 106 129.501 106.208 129.501 106.486C129.501 106.745 129.58 106.939 129.737 107.069C129.895 107.19 130.149 107.277 130.501 107.333L131.487 107.472C132.395 107.602 133.061 107.847 133.487 108.208C133.923 108.56 134.14 109.083 134.14 109.778C134.14 110.518 133.886 111.097 133.376 111.514C132.876 111.921 132.135 112.125 131.154 112.125H130.543ZM139.996 112C139.265 112 138.691 111.796 138.274 111.389C137.866 110.981 137.663 110.421 137.663 109.708V105.93H135.593V104.361H137.663V102.208H139.413V104.361H142.344V105.93H139.413V109.708C139.413 110.19 139.649 110.43 140.121 110.43H142.205V112H139.996ZM147.491 112.139C147.093 112.139 146.774 112.023 146.533 111.792C146.301 111.56 146.186 111.245 146.186 110.847C146.186 110.449 146.301 110.134 146.533 109.903C146.774 109.662 147.093 109.542 147.491 109.542C147.889 109.542 148.204 109.662 148.436 109.903C148.677 110.134 148.797 110.449 148.797 110.847C148.797 111.245 148.677 111.56 148.436 111.792C148.204 112.023 147.889 112.139 147.491 112.139ZM156.653 112C155.922 112 155.347 111.796 154.931 111.389C154.523 110.981 154.32 110.421 154.32 109.708V105.93H152.25V104.361H154.32V102.208H156.07V104.361H159V105.93H156.07V109.708C156.07 110.19 156.306 110.43 156.778 110.43H158.862V112H156.653ZM163.856 112.125C163.273 112.125 162.764 112.032 162.329 111.847C161.893 111.662 161.551 111.407 161.301 111.083C161.06 110.75 160.93 110.361 160.912 109.917H162.648C162.667 110.157 162.782 110.352 162.995 110.5C163.218 110.648 163.505 110.722 163.856 110.722H164.468C164.894 110.722 165.213 110.639 165.426 110.472C165.639 110.305 165.745 110.079 165.745 109.792C165.745 109.523 165.648 109.315 165.454 109.166C165.269 109.009 164.977 108.907 164.579 108.861L163.634 108.722C162.764 108.602 162.125 108.37 161.717 108.028C161.31 107.685 161.106 107.171 161.106 106.486C161.106 105.773 161.347 105.222 161.829 104.833C162.31 104.435 163.018 104.236 163.954 104.236H164.482C165.333 104.236 166.014 104.425 166.523 104.805C167.033 105.185 167.306 105.694 167.343 106.333H165.607C165.579 106.129 165.463 105.963 165.259 105.833C165.065 105.703 164.806 105.638 164.482 105.638H163.954C163.556 105.638 163.264 105.713 163.079 105.861C162.903 106 162.815 106.208 162.815 106.486C162.815 106.745 162.893 106.939 163.051 107.069C163.208 107.19 163.463 107.277 163.815 107.333L164.801 107.472C165.708 107.602 166.375 107.847 166.801 108.208C167.236 108.56 167.454 109.083 167.454 109.778C167.454 110.518 167.199 111.097 166.69 111.514C166.19 111.921 165.449 112.125 164.468 112.125H163.856ZM168.81 112L171.477 108.055L168.99 104.361H170.949L172.129 106.236C172.203 106.347 172.268 106.472 172.324 106.611C172.389 106.75 172.44 106.861 172.477 106.944C172.514 106.861 172.565 106.75 172.629 106.611C172.694 106.472 172.759 106.347 172.824 106.236L174.018 104.361H175.977L173.491 108.055L176.143 112H174.171L172.852 109.903C172.778 109.782 172.708 109.653 172.643 109.514C172.578 109.375 172.523 109.264 172.477 109.18C172.44 109.264 172.389 109.375 172.324 109.514C172.259 109.653 172.19 109.782 172.115 109.903L170.768 112H168.81Z" fill="#EFF0F1"/>
<path fill-rule="evenodd" clip-rule="evenodd" d="M23.2654 132C21.7381 132 20.5 133.238 20.5 134.765V163.235C20.5 164.762 21.7381 166 23.2654 166H45.2746C46.8019 166 48.04 164.762 48.04 163.235V134.765C48.04 134.763 48.04 134.761 48.04 134.758V140.5L39.54 132H23.2654Z" fill="#1166C0"/>
<path d="M29.4054 157.544H28.1611C28.1384 157.383 28.092 157.24 28.0219 157.115C27.9518 156.988 27.8619 156.88 27.752 156.791C27.6422 156.702 27.5153 156.634 27.3713 156.587C27.2293 156.539 27.0749 156.516 26.9083 156.516C26.6071 156.516 26.3448 156.59 26.1213 156.74C25.8979 156.888 25.7246 157.104 25.6015 157.388C25.4784 157.67 25.4168 158.013 25.4168 158.416C25.4168 158.831 25.4784 159.179 25.6015 159.462C25.7265 159.744 25.9007 159.957 26.1242 160.101C26.3477 160.245 26.6062 160.317 26.8998 160.317C27.0645 160.317 27.217 160.295 27.3571 160.251C27.4992 160.208 27.6251 160.144 27.735 160.061C27.8448 159.976 27.9357 159.873 28.0077 159.751C28.0816 159.63 28.1327 159.492 28.1611 159.337L29.4054 159.342C29.3732 159.609 29.2928 159.867 29.164 160.115C29.0371 160.361 28.8657 160.582 28.6498 160.777C28.4357 160.97 28.1801 161.123 27.8827 161.237C27.5873 161.349 27.253 161.405 26.8799 161.405C26.3609 161.405 25.8969 161.287 25.4878 161.052C25.0806 160.818 24.7587 160.478 24.5219 160.033C24.2871 159.588 24.1696 159.049 24.1696 158.416C24.1696 157.782 24.289 157.242 24.5276 156.797C24.7662 156.352 25.0901 156.013 25.4992 155.78C25.9083 155.545 26.3685 155.427 26.8799 155.427C27.217 155.427 27.5295 155.475 27.8174 155.57C28.1071 155.664 28.3638 155.802 28.5873 155.984C28.8107 156.164 28.9926 156.385 29.1327 156.646C29.2748 156.908 29.3657 157.207 29.4054 157.544ZM33.4438 157.18C33.4211 156.951 33.3235 156.773 33.1512 156.646C32.9788 156.519 32.7449 156.456 32.4495 156.456C32.2487 156.456 32.0792 156.484 31.941 156.541C31.8027 156.596 31.6966 156.673 31.6228 156.771C31.5508 156.87 31.5148 156.981 31.5148 157.106C31.511 157.211 31.5328 157.302 31.5802 157.379C31.6294 157.457 31.6966 157.524 31.7819 157.581C31.8671 157.636 31.9656 157.684 32.0773 157.726C32.1891 157.766 32.3084 157.8 32.4353 157.828L32.958 157.953C33.2118 158.01 33.4447 158.086 33.6569 158.18C33.869 158.275 34.0527 158.391 34.208 158.53C34.3633 158.668 34.4836 158.831 34.5688 159.018C34.6559 159.206 34.7004 159.421 34.7023 159.663C34.7004 160.019 34.6095 160.328 34.4296 160.589C34.2516 160.849 33.994 161.051 33.6569 161.195C33.3216 161.337 32.9173 161.408 32.4438 161.408C31.9741 161.408 31.565 161.336 31.2165 161.192C30.8699 161.048 30.5991 160.835 30.404 160.552C30.2108 160.268 30.1095 159.917 30.1 159.498H31.2904C31.3036 159.694 31.3595 159.856 31.458 159.987C31.5584 160.116 31.6919 160.213 31.8586 160.28C32.0271 160.344 32.2175 160.376 32.4296 160.376C32.6379 160.376 32.8188 160.346 32.9722 160.285C33.1275 160.225 33.2478 160.141 33.333 160.033C33.4182 159.925 33.4608 159.801 33.4608 159.66C33.4608 159.53 33.422 159.42 33.3444 159.331C33.2686 159.242 33.1569 159.166 33.0091 159.104C32.8633 159.041 32.6843 158.984 32.4722 158.933L31.8387 158.774C31.3481 158.655 30.9608 158.468 30.6767 158.214C30.3927 157.961 30.2516 157.619 30.2535 157.189C30.2516 156.837 30.3453 156.529 30.5347 156.266C30.726 156.002 30.9883 155.797 31.3216 155.649C31.655 155.501 32.0338 155.427 32.458 155.427C32.8898 155.427 33.2667 155.501 33.5887 155.649C33.9125 155.797 34.1644 156.002 34.3444 156.266C34.5243 156.529 34.6171 156.834 34.6228 157.18H33.4438ZM38.686 157.18C38.6633 156.951 38.5657 156.773 38.3934 156.646C38.221 156.519 37.9871 156.456 37.6917 156.456C37.4909 156.456 37.3214 156.484 37.1831 156.541C37.0449 156.596 36.9388 156.673 36.865 156.771C36.793 156.87 36.757 156.981 36.757 157.106C36.7532 157.211 36.775 157.302 36.8223 157.379C36.8716 157.457 36.9388 157.524 37.024 157.581C37.1093 157.636 37.2078 157.684 37.3195 157.726C37.4312 157.766 37.5506 157.8 37.6775 157.828L38.2002 157.953C38.454 158.01 38.6869 158.086 38.899 158.18C39.1112 158.275 39.2949 158.391 39.4502 158.53C39.6055 158.668 39.7258 158.831 39.811 159.018C39.8981 159.206 39.9426 159.421 39.9445 159.663C39.9426 160.019 39.8517 160.328 39.6718 160.589C39.4937 160.849 39.2362 161.051 38.899 161.195C38.5638 161.337 38.1595 161.408 37.686 161.408C37.2163 161.408 36.8072 161.336 36.4587 161.192C36.1121 161.048 35.8413 160.835 35.6462 160.552C35.453 160.268 35.3517 159.917 35.3422 159.498H36.5326C36.5458 159.694 36.6017 159.856 36.7002 159.987C36.8006 160.116 36.9341 160.213 37.1008 160.28C37.2693 160.344 37.4597 160.376 37.6718 160.376C37.8801 160.376 38.061 160.346 38.2144 160.285C38.3697 160.225 38.49 160.141 38.5752 160.033C38.6604 159.925 38.703 159.801 38.703 159.66C38.703 159.53 38.6642 159.42 38.5865 159.331C38.5108 159.242 38.399 159.166 38.2513 159.104C38.1055 159.041 37.9265 158.984 37.7144 158.933L37.0809 158.774C36.5903 158.655 36.203 158.468 35.9189 158.214C35.6348 157.961 35.4937 157.619 35.4956 157.189C35.4937 156.837 35.5875 156.529 35.7769 156.266C35.9682 156.002 36.2305 155.797 36.5638 155.649C36.8972 155.501 37.2759 155.427 37.7002 155.427C38.132 155.427 38.5089 155.501 38.8309 155.649C39.1547 155.797 39.4066 156.002 39.5865 156.266C39.7665 156.529 39.8593 156.834 39.865 157.18H38.686Z" fill="white"/>
<path d="M42.3055 140.5L48.04 140.5L39.54 132L39.54 137.735C39.54 139.262 40.7782 140.5 42.3055 140.5Z" fill="#2C89ED"/>
<path d="M61.1096 154V143.86H64.2209C65.2024 143.86 65.9802 144.097 66.5543 144.569C67.1284 145.032 67.4155 145.666 67.4155 146.472C67.4155 146.925 67.3136 147.319 67.1099 147.652C66.9062 147.986 66.6284 148.245 66.2765 148.43C65.9339 148.615 65.5358 148.708 65.082 148.708V148.652C65.5728 148.643 66.008 148.736 66.3877 148.93C66.7766 149.115 67.0821 149.393 67.3044 149.764C67.5359 150.134 67.6516 150.583 67.6516 151.111C67.6516 151.694 67.5174 152.204 67.2488 152.639C66.9803 153.074 66.6006 153.412 66.1099 153.653C65.6284 153.884 65.0496 154 64.3736 154H61.1096ZM62.8041 152.555H64.2625C64.7718 152.555 65.17 152.421 65.457 152.153C65.7534 151.875 65.9015 151.5 65.9015 151.028C65.9015 150.555 65.7534 150.176 65.457 149.889C65.17 149.592 64.7718 149.444 64.2625 149.444H62.8041V152.555ZM62.8041 148.041H64.1931C64.6561 148.041 65.0172 147.921 65.2765 147.68C65.545 147.43 65.6793 147.092 65.6793 146.666C65.6793 146.24 65.545 145.907 65.2765 145.666C65.0172 145.425 64.6561 145.305 64.1931 145.305H62.8041V148.041ZM71.6881 154.139C70.901 154.139 70.2806 153.931 69.8269 153.514C69.3732 153.097 69.1463 152.537 69.1463 151.833C69.1463 151.083 69.3963 150.504 69.8963 150.097C70.3964 149.69 71.1048 149.486 72.0215 149.486H73.9244V148.833C73.9244 148.463 73.804 148.176 73.5632 147.972C73.3225 147.759 72.9938 147.652 72.5771 147.652C72.1974 147.652 71.8826 147.736 71.6326 147.902C71.3826 148.069 71.2344 148.296 71.1881 148.583H69.4935C69.5769 147.861 69.901 147.287 70.4658 146.861C71.0307 146.435 71.7529 146.222 72.6326 146.222C73.5679 146.222 74.304 146.458 74.8411 146.93C75.3874 147.393 75.6606 148.023 75.6606 148.819V154H73.9799V152.667H73.7021L73.9799 152.292C73.9799 152.856 73.7716 153.306 73.3549 153.639C72.9382 153.972 72.3826 154.139 71.6881 154.139ZM72.2576 152.833C72.7484 152.833 73.1466 152.708 73.4521 152.458C73.767 152.208 73.9244 151.884 73.9244 151.486V150.555H72.0493C71.6974 150.555 71.415 150.657 71.202 150.861C70.989 151.065 70.8825 151.333 70.8825 151.667C70.8825 152.028 71.0029 152.315 71.2437 152.528C71.4937 152.731 71.8317 152.833 72.2576 152.833ZM80.211 154.139C79.4517 154.139 78.8359 153.875 78.3637 153.347C77.9007 152.819 77.6692 152.111 77.6692 151.222V149.152C77.6692 148.254 77.9007 147.541 78.3637 147.013C78.8267 146.486 79.4424 146.222 80.211 146.222C80.8407 146.222 81.3407 146.402 81.7111 146.763C82.0815 147.115 82.2667 147.601 82.2667 148.222L81.8778 147.819H82.2806L82.225 145.999V143.86H83.9613V154H82.2667V152.542H81.8778L82.2667 152.139C82.2667 152.759 82.0815 153.25 81.7111 153.611C81.3407 153.963 80.8407 154.139 80.211 154.139ZM80.8222 152.639C81.2666 152.639 81.6093 152.509 81.85 152.25C82.1 151.981 82.225 151.611 82.225 151.139V149.222C82.225 148.75 82.1 148.384 81.85 148.125C81.6093 147.856 81.2666 147.722 80.8222 147.722C80.3777 147.722 80.0304 147.851 79.7804 148.111C79.5304 148.37 79.4054 148.74 79.4054 149.222V151.139C79.4054 151.62 79.5304 151.991 79.7804 152.25C80.0304 152.509 80.3777 152.639 80.8222 152.639ZM87.1366 156.5V155.056H89.4006C89.7895 155.056 90.0812 154.958 90.2757 154.764C90.4701 154.579 90.5674 154.31 90.5674 153.958V153.389L90.5951 151.958H90.2201L90.5951 151.583C90.5951 152.204 90.4099 152.69 90.0395 153.042C89.6784 153.384 89.1876 153.556 88.5672 153.556C87.7894 153.556 87.169 153.292 86.706 152.764C86.2523 152.236 86.0254 151.523 86.0254 150.625V149.139C86.0254 148.25 86.2523 147.541 86.706 147.013C87.169 146.486 87.7894 146.222 88.5672 146.222C89.1876 146.222 89.6784 146.398 90.0395 146.75C90.4099 147.092 90.5951 147.574 90.5951 148.194L90.2201 147.819H90.5951L90.5535 146.361H92.2897V154C92.2897 154.769 92.035 155.375 91.5257 155.82C91.0165 156.273 90.3173 156.5 89.4284 156.5H87.1366ZM89.1506 152.055C89.5951 152.055 89.9377 151.926 90.1784 151.667C90.4285 151.398 90.5535 151.028 90.5535 150.555V149.222C90.5535 148.75 90.4285 148.384 90.1784 148.125C89.9377 147.856 89.5951 147.722 89.1506 147.722C88.7061 147.722 88.3635 147.851 88.1228 148.111C87.882 148.37 87.7616 148.74 87.7616 149.222V150.555C87.7616 151.037 87.882 151.407 88.1228 151.667C88.3635 151.926 88.7061 152.055 89.1506 152.055ZM97.5346 154.139C96.8864 154.139 96.3216 154.014 95.84 153.764C95.3585 153.514 94.9835 153.167 94.715 152.722C94.4557 152.268 94.3261 151.741 94.3261 151.139V149.222C94.3261 148.62 94.4557 148.097 94.715 147.652C94.9835 147.199 95.3585 146.847 95.84 146.597C96.3216 146.347 96.8864 146.222 97.5346 146.222C98.1735 146.222 98.7291 146.347 99.2014 146.597C99.6829 146.847 100.053 147.199 100.313 147.652C100.581 148.097 100.715 148.62 100.715 149.222V150.597H96.0067V151.139C96.0067 151.676 96.1364 152.083 96.3956 152.361C96.6549 152.63 97.0392 152.764 97.5485 152.764C97.9374 152.764 98.2522 152.699 98.493 152.569C98.7337 152.43 98.8865 152.231 98.9513 151.972H100.66C100.53 152.63 100.178 153.157 99.6042 153.556C99.0393 153.944 98.3495 154.139 97.5346 154.139ZM99.0347 149.625V149.208C99.0347 148.68 98.9097 148.277 98.6597 148C98.4096 147.713 98.0346 147.569 97.5346 147.569C97.0346 147.569 96.6549 147.713 96.3956 148C96.1364 148.287 96.0067 148.694 96.0067 149.222V149.514L99.1597 149.486L99.0347 149.625ZM105.849 154.139C105.451 154.139 105.131 154.023 104.891 153.792C104.659 153.56 104.543 153.245 104.543 152.847C104.543 152.449 104.659 152.134 104.891 151.903C105.131 151.662 105.451 151.542 105.849 151.542C106.247 151.542 106.562 151.662 106.794 151.903C107.034 152.134 107.155 152.449 107.155 152.847C107.155 153.245 107.034 153.56 106.794 153.792C106.562 154.023 106.247 154.139 105.849 154.139ZM110.733 154V146.361H112.15V147.388H112.441L112.205 147.638C112.205 147.213 112.326 146.87 112.566 146.611C112.807 146.351 113.117 146.222 113.497 146.222C113.904 146.222 114.219 146.388 114.441 146.722C114.673 147.055 114.789 147.504 114.789 148.069L114.483 147.388H114.955L114.775 147.638C114.775 147.213 114.895 146.87 115.136 146.611C115.377 146.351 115.696 146.222 116.094 146.222C116.567 146.222 116.942 146.398 117.219 146.75C117.497 147.101 117.636 147.578 117.636 148.18V154H116.108V148.25C116.108 148 116.053 147.805 115.942 147.666C115.83 147.518 115.668 147.444 115.455 147.444C115.252 147.444 115.09 147.513 114.969 147.652C114.858 147.791 114.803 147.99 114.803 148.25V154H113.553V148.25C113.553 147.99 113.497 147.791 113.386 147.652C113.275 147.513 113.113 147.444 112.9 147.444C112.687 147.444 112.525 147.513 112.414 147.652C112.312 147.791 112.261 147.99 112.261 148.25V154H110.733ZM122.506 154.125C121.858 154.125 121.293 154.005 120.811 153.764C120.339 153.514 119.969 153.167 119.7 152.722C119.441 152.268 119.311 151.736 119.311 151.125V149.236C119.311 148.625 119.441 148.097 119.7 147.652C119.969 147.199 120.339 146.851 120.811 146.611C121.293 146.361 121.858 146.236 122.506 146.236C123.163 146.236 123.728 146.361 124.201 146.611C124.673 146.851 125.039 147.199 125.298 147.652C125.566 148.097 125.701 148.62 125.701 149.222V151.125C125.701 151.736 125.566 152.268 125.298 152.722C125.039 153.167 124.673 153.514 124.201 153.764C123.728 154.005 123.163 154.125 122.506 154.125ZM122.506 152.611C122.969 152.611 123.325 152.486 123.576 152.236C123.835 151.977 123.964 151.606 123.964 151.125V149.236C123.964 148.745 123.835 148.375 123.576 148.125C123.325 147.875 122.969 147.75 122.506 147.75C122.052 147.75 121.696 147.875 121.436 148.125C121.177 148.375 121.048 148.745 121.048 149.236V151.125C121.048 151.606 121.177 151.977 121.436 152.236C121.696 152.486 122.052 152.611 122.506 152.611ZM130.182 154.139C129.422 154.139 128.807 153.875 128.334 153.347C127.871 152.819 127.64 152.111 127.64 151.222V149.152C127.64 148.254 127.871 147.541 128.334 147.013C128.797 146.486 129.413 146.222 130.182 146.222C130.811 146.222 131.311 146.402 131.682 146.763C132.052 147.115 132.237 147.601 132.237 148.222L131.848 147.819H132.251L132.196 145.999V143.86H133.932V154H132.237V152.542H131.848L132.237 152.139C132.237 152.759 132.052 153.25 131.682 153.611C131.311 153.963 130.811 154.139 130.182 154.139ZM130.793 152.639C131.237 152.639 131.58 152.509 131.821 152.25C132.071 151.981 132.196 151.611 132.196 151.139V149.222C132.196 148.75 132.071 148.384 131.821 148.125C131.58 147.856 131.237 147.722 130.793 147.722C130.348 147.722 130.001 147.851 129.751 148.111C129.501 148.37 129.376 148.74 129.376 149.222V151.139C129.376 151.62 129.501 151.991 129.751 152.25C130.001 152.509 130.348 152.639 130.793 152.639ZM139.163 154.139C138.191 154.139 137.427 153.87 136.871 153.333C136.315 152.787 136.038 152.046 136.038 151.111V146.361H137.774V151.097C137.774 151.588 137.894 151.967 138.135 152.236C138.376 152.495 138.718 152.625 139.163 152.625C139.598 152.625 139.936 152.495 140.177 152.236C140.427 151.967 140.552 151.588 140.552 151.097V146.361H142.288V151.111C142.288 152.046 142.006 152.787 141.441 153.333C140.876 153.87 140.117 154.139 139.163 154.139ZM148.658 154C148.158 154 147.718 153.898 147.339 153.694C146.968 153.491 146.676 153.204 146.463 152.833C146.25 152.454 146.144 152.018 146.144 151.528V145.43H143.699V143.86H147.88V151.528C147.88 151.805 147.959 152.028 148.116 152.194C148.283 152.352 148.505 152.43 148.783 152.43H151.089V154H148.658ZM155.834 154.139C155.185 154.139 154.621 154.014 154.139 153.764C153.658 153.514 153.283 153.167 153.014 152.722C152.755 152.268 152.625 151.741 152.625 151.139V149.222C152.625 148.62 152.755 148.097 153.014 147.652C153.283 147.199 153.658 146.847 154.139 146.597C154.621 146.347 155.185 146.222 155.834 146.222C156.473 146.222 157.028 146.347 157.5 146.597C157.982 146.847 158.352 147.199 158.612 147.652C158.88 148.097 159.014 148.62 159.014 149.222V150.597H154.306V151.139C154.306 151.676 154.435 152.083 154.695 152.361C154.954 152.63 155.338 152.764 155.848 152.764C156.236 152.764 156.551 152.699 156.792 152.569C157.033 152.43 157.186 152.231 157.25 151.972H158.959C158.829 152.63 158.477 153.157 157.903 153.556C157.338 153.944 156.648 154.139 155.834 154.139ZM157.334 149.625V149.208C157.334 148.68 157.209 148.277 156.959 148C156.709 147.713 156.334 147.569 155.834 147.569C155.334 147.569 154.954 147.713 154.695 148C154.435 148.287 154.306 148.694 154.306 149.222V149.514L157.459 149.486L157.334 149.625ZM164.148 154.139C163.75 154.139 163.431 154.023 163.19 153.792C162.958 153.56 162.843 153.245 162.843 152.847C162.843 152.449 162.958 152.134 163.19 151.903C163.431 151.662 163.75 151.542 164.148 151.542C164.546 151.542 164.861 151.662 165.093 151.903C165.333 152.134 165.454 152.449 165.454 152.847C165.454 153.245 165.333 153.56 165.093 153.792C164.861 154.023 164.546 154.139 164.148 154.139ZM172.518 154.139C171.87 154.139 171.301 154.019 170.81 153.778C170.328 153.528 169.953 153.181 169.685 152.736C169.416 152.282 169.282 151.75 169.282 151.139V149.222C169.282 148.602 169.416 148.069 169.685 147.625C169.953 147.18 170.328 146.838 170.81 146.597C171.301 146.347 171.87 146.222 172.518 146.222C173.481 146.222 174.25 146.472 174.824 146.972C175.398 147.463 175.699 148.134 175.727 148.986H173.991C173.963 148.588 173.819 148.282 173.56 148.069C173.31 147.847 172.963 147.736 172.518 147.736C172.055 147.736 171.69 147.865 171.421 148.125C171.152 148.375 171.018 148.736 171.018 149.208V151.139C171.018 151.611 171.152 151.977 171.421 152.236C171.69 152.495 172.055 152.625 172.518 152.625C172.963 152.625 173.31 152.518 173.56 152.305C173.819 152.083 173.963 151.773 173.991 151.375H175.727C175.699 152.227 175.398 152.903 174.824 153.403C174.25 153.894 173.481 154.139 172.518 154.139ZM180.513 154.125C179.93 154.125 179.421 154.032 178.985 153.847C178.55 153.662 178.208 153.407 177.958 153.083C177.717 152.75 177.587 152.361 177.569 151.917H179.305C179.323 152.157 179.439 152.352 179.652 152.5C179.874 152.648 180.161 152.722 180.513 152.722H181.124C181.55 152.722 181.87 152.639 182.083 152.472C182.296 152.305 182.402 152.079 182.402 151.792C182.402 151.523 182.305 151.315 182.111 151.166C181.925 151.009 181.634 150.907 181.236 150.861L180.291 150.722C179.421 150.602 178.782 150.37 178.374 150.028C177.967 149.685 177.763 149.171 177.763 148.486C177.763 147.773 178.004 147.222 178.485 146.833C178.967 146.435 179.675 146.236 180.611 146.236H181.138C181.99 146.236 182.671 146.425 183.18 146.805C183.689 147.185 183.963 147.694 184 148.333H182.263C182.236 148.129 182.12 147.963 181.916 147.833C181.722 147.703 181.462 147.638 181.138 147.638H180.611C180.212 147.638 179.921 147.713 179.736 147.861C179.56 148 179.472 148.208 179.472 148.486C179.472 148.745 179.55 148.939 179.708 149.069C179.865 149.19 180.12 149.277 180.472 149.333L181.458 149.472C182.365 149.602 183.032 149.847 183.458 150.208C183.893 150.56 184.111 151.083 184.111 151.778C184.111 152.518 183.856 153.097 183.347 153.514C182.847 153.921 182.106 154.125 181.124 154.125H180.513ZM188.842 154.125C188.258 154.125 187.749 154.032 187.314 153.847C186.879 153.662 186.536 153.407 186.286 153.083C186.045 152.75 185.916 152.361 185.897 151.917H187.633C187.652 152.157 187.768 152.352 187.981 152.5C188.203 152.648 188.49 152.722 188.842 152.722H189.453C189.879 152.722 190.198 152.639 190.411 152.472C190.624 152.305 190.731 152.079 190.731 151.792C190.731 151.523 190.634 151.315 190.439 151.166C190.254 151.009 189.962 150.907 189.564 150.861L188.62 150.722C187.749 150.602 187.11 150.37 186.703 150.028C186.295 149.685 186.092 149.171 186.092 148.486C186.092 147.773 186.332 147.222 186.814 146.833C187.295 146.435 188.004 146.236 188.939 146.236H189.467C190.319 146.236 190.999 146.425 191.509 146.805C192.018 147.185 192.291 147.694 192.328 148.333H190.592C190.564 148.129 190.448 147.963 190.245 147.833C190.05 147.703 189.791 147.638 189.467 147.638H188.939C188.541 147.638 188.249 147.713 188.064 147.861C187.888 148 187.8 148.208 187.8 148.486C187.8 148.745 187.879 148.939 188.036 149.069C188.194 149.19 188.448 149.277 188.8 149.333L189.786 149.472C190.694 149.602 191.36 149.847 191.786 150.208C192.222 150.56 192.439 151.083 192.439 151.778C192.439 152.518 192.185 153.097 191.675 153.514C191.175 153.921 190.434 154.125 189.453 154.125H188.842Z" fill="#EFF0F1"/>
<path fill-rule="evenodd" clip-rule="evenodd" d="M23.2654 174C21.7381 174 20.5 175.238 20.5 176.765V205.235C20.5 206.762 21.7381 208 23.2654 208H45.2746C46.8019 208 48.04 206.762 48.04 205.235V176.765C48.04 176.763 48.04 176.761 48.04 176.758V182.5L39.54 174H23.2654Z" fill="#1166C0"/>
<path d="M24.0503 198.521V197.507H28.8287V198.521H27.0475V203.325H25.8316V198.521H24.0503ZM32.7719 199.18C32.7492 198.951 32.6517 198.773 32.4793 198.646C32.307 198.519 32.0731 198.456 31.7776 198.456C31.5768 198.456 31.4073 198.484 31.2691 198.541C31.1308 198.596 31.0248 198.673 30.9509 198.771C30.8789 198.87 30.8429 198.981 30.8429 199.106C30.8392 199.211 30.8609 199.302 30.9083 199.379C30.9575 199.457 31.0248 199.524 31.11 199.581C31.1952 199.636 31.2937 199.684 31.4054 199.726C31.5172 199.766 31.6365 199.8 31.7634 199.828L32.2861 199.953C32.5399 200.01 32.7729 200.086 32.985 200.18C33.1971 200.275 33.3808 200.391 33.5361 200.53C33.6914 200.668 33.8117 200.831 33.8969 201.018C33.984 201.206 34.0285 201.421 34.0304 201.663C34.0285 202.019 33.9376 202.328 33.7577 202.589C33.5797 202.849 33.3221 203.051 32.985 203.195C32.6498 203.337 32.2454 203.408 31.7719 203.408C31.3022 203.408 30.8931 203.336 30.5446 203.192C30.1981 203.048 29.9272 202.835 29.7321 202.552C29.539 202.268 29.4376 201.917 29.4282 201.498H30.6185C30.6318 201.694 30.6876 201.856 30.7861 201.987C30.8865 202.116 31.02 202.213 31.1867 202.28C31.3553 202.344 31.5456 202.376 31.7577 202.376C31.966 202.376 32.1469 202.346 32.3003 202.285C32.4556 202.225 32.5759 202.141 32.6611 202.033C32.7463 201.925 32.789 201.801 32.789 201.66C32.789 201.53 32.7501 201.42 32.6725 201.331C32.5967 201.242 32.485 201.166 32.3373 201.104C32.1914 201.041 32.0124 200.984 31.8003 200.933L31.1668 200.774C30.6763 200.655 30.289 200.468 30.0049 200.214C29.7208 199.961 29.5797 199.619 29.5816 199.189C29.5797 198.837 29.6734 198.529 29.8628 198.266C30.0541 198.002 30.3164 197.797 30.6498 197.649C30.9831 197.501 31.3619 197.427 31.7861 197.427C32.2179 197.427 32.5948 197.501 32.9168 197.649C33.2407 197.797 33.4926 198.002 33.6725 198.266C33.8524 198.529 33.9452 198.834 33.9509 199.18H32.7719Z" fill="white"/>
<path d="M42.3055 182.5L48.04 182.5L39.54 174L39.54 179.735C39.54 181.262 40.7782 182.5 42.3055 182.5Z" fill="#2C89ED"/>
<path d="M61.1096 196V185.86H64.2209C65.2024 185.86 65.9802 186.097 66.5543 186.569C67.1284 187.032 67.4155 187.666 67.4155 188.472C67.4155 188.925 67.3136 189.319 67.1099 189.652C66.9062 189.986 66.6284 190.245 66.2765 190.43C65.9339 190.615 65.5358 190.708 65.082 190.708V190.652C65.5728 190.643 66.008 190.736 66.3877 190.93C66.7766 191.115 67.0821 191.393 67.3044 191.764C67.5359 192.134 67.6516 192.583 67.6516 193.111C67.6516 193.694 67.5174 194.204 67.2488 194.639C66.9803 195.074 66.6006 195.412 66.1099 195.653C65.6284 195.884 65.0496 196 64.3736 196H61.1096ZM62.8041 194.555H64.2625C64.7718 194.555 65.17 194.421 65.457 194.153C65.7534 193.875 65.9015 193.5 65.9015 193.028C65.9015 192.555 65.7534 192.176 65.457 191.889C65.17 191.592 64.7718 191.444 64.2625 191.444H62.8041V194.555ZM62.8041 190.041H64.1931C64.6561 190.041 65.0172 189.921 65.2765 189.68C65.545 189.43 65.6793 189.092 65.6793 188.666C65.6793 188.24 65.545 187.907 65.2765 187.666C65.0172 187.425 64.6561 187.305 64.1931 187.305H62.8041V190.041ZM71.6881 196.139C70.901 196.139 70.2806 195.931 69.8269 195.514C69.3732 195.097 69.1463 194.537 69.1463 193.833C69.1463 193.083 69.3963 192.504 69.8963 192.097C70.3964 191.69 71.1048 191.486 72.0215 191.486H73.9244V190.833C73.9244 190.463 73.804 190.176 73.5632 189.972C73.3225 189.759 72.9938 189.652 72.5771 189.652C72.1974 189.652 71.8826 189.736 71.6326 189.902C71.3826 190.069 71.2344 190.296 71.1881 190.583H69.4935C69.5769 189.861 69.901 189.287 70.4658 188.861C71.0307 188.435 71.7529 188.222 72.6326 188.222C73.5679 188.222 74.304 188.458 74.8411 188.93C75.3874 189.393 75.6606 190.023 75.6606 190.819V196H73.9799V194.667H73.7021L73.9799 194.292C73.9799 194.856 73.7716 195.306 73.3549 195.639C72.9382 195.972 72.3826 196.139 71.6881 196.139ZM72.2576 194.833C72.7484 194.833 73.1466 194.708 73.4521 194.458C73.767 194.208 73.9244 193.884 73.9244 193.486V192.555H72.0493C71.6974 192.555 71.415 192.657 71.202 192.861C70.989 193.065 70.8825 193.333 70.8825 193.667C70.8825 194.028 71.0029 194.315 71.2437 194.528C71.4937 194.731 71.8317 194.833 72.2576 194.833ZM80.211 196.139C79.4517 196.139 78.8359 195.875 78.3637 195.347C77.9007 194.819 77.6692 194.111 77.6692 193.222V191.152C77.6692 190.254 77.9007 189.541 78.3637 189.013C78.8267 188.486 79.4424 188.222 80.211 188.222C80.8407 188.222 81.3407 188.402 81.7111 188.763C82.0815 189.115 82.2667 189.601 82.2667 190.222L81.8778 189.819H82.2806L82.225 187.999V185.86H83.9613V196H82.2667V194.542H81.8778L82.2667 194.139C82.2667 194.759 82.0815 195.25 81.7111 195.611C81.3407 195.963 80.8407 196.139 80.211 196.139ZM80.8222 194.639C81.2666 194.639 81.6093 194.509 81.85 194.25C82.1 193.981 82.225 193.611 82.225 193.139V191.222C82.225 190.75 82.1 190.384 81.85 190.125C81.6093 189.856 81.2666 189.722 80.8222 189.722C80.3777 189.722 80.0304 189.851 79.7804 190.111C79.5304 190.37 79.4054 190.74 79.4054 191.222V193.139C79.4054 193.62 79.5304 193.991 79.7804 194.25C80.0304 194.509 80.3777 194.639 80.8222 194.639ZM87.1366 198.5V197.056H89.4006C89.7895 197.056 90.0812 196.958 90.2757 196.764C90.4701 196.579 90.5674 196.31 90.5674 195.958V195.389L90.5951 193.958H90.2201L90.5951 193.583C90.5951 194.204 90.4099 194.69 90.0395 195.042C89.6784 195.384 89.1876 195.556 88.5672 195.556C87.7894 195.556 87.169 195.292 86.706 194.764C86.2523 194.236 86.0254 193.523 86.0254 192.625V191.139C86.0254 190.25 86.2523 189.541 86.706 189.013C87.169 188.486 87.7894 188.222 88.5672 188.222C89.1876 188.222 89.6784 188.398 90.0395 188.75C90.4099 189.092 90.5951 189.574 90.5951 190.194L90.2201 189.819H90.5951L90.5535 188.361H92.2897V196C92.2897 196.769 92.035 197.375 91.5257 197.82C91.0165 198.273 90.3173 198.5 89.4284 198.5H87.1366ZM89.1506 194.055C89.5951 194.055 89.9377 193.926 90.1784 193.667C90.4285 193.398 90.5535 193.028 90.5535 192.555V191.222C90.5535 190.75 90.4285 190.384 90.1784 190.125C89.9377 189.856 89.5951 189.722 89.1506 189.722C88.7061 189.722 88.3635 189.851 88.1228 190.111C87.882 190.37 87.7616 190.74 87.7616 191.222V192.555C87.7616 193.037 87.882 193.407 88.1228 193.667C88.3635 193.926 88.7061 194.055 89.1506 194.055ZM97.5346 196.139C96.8864 196.139 96.3216 196.014 95.84 195.764C95.3585 195.514 94.9835 195.167 94.715 194.722C94.4557 194.268 94.3261 193.741 94.3261 193.139V191.222C94.3261 190.62 94.4557 190.097 94.715 189.652C94.9835 189.199 95.3585 188.847 95.84 188.597C96.3216 188.347 96.8864 188.222 97.5346 188.222C98.1735 188.222 98.7291 188.347 99.2014 188.597C99.6829 188.847 100.053 189.199 100.313 189.652C100.581 190.097 100.715 190.62 100.715 191.222V192.597H96.0067V193.139C96.0067 193.676 96.1364 194.083 96.3956 194.361C96.6549 194.63 97.0392 194.764 97.5485 194.764C97.9374 194.764 98.2522 194.699 98.493 194.569C98.7337 194.43 98.8865 194.231 98.9513 193.972H100.66C100.53 194.63 100.178 195.157 99.6042 195.556C99.0393 195.944 98.3495 196.139 97.5346 196.139ZM99.0347 191.625V191.208C99.0347 190.68 98.9097 190.277 98.6597 190C98.4096 189.713 98.0346 189.569 97.5346 189.569C97.0346 189.569 96.6549 189.713 96.3956 190C96.1364 190.287 96.0067 190.694 96.0067 191.222V191.514L99.1597 191.486L99.0347 191.625ZM105.849 196.139C105.451 196.139 105.131 196.023 104.891 195.792C104.659 195.56 104.543 195.245 104.543 194.847C104.543 194.449 104.659 194.134 104.891 193.903C105.131 193.662 105.451 193.542 105.849 193.542C106.247 193.542 106.562 193.662 106.794 193.903C107.034 194.134 107.155 194.449 107.155 194.847C107.155 195.245 107.034 195.56 106.794 195.792C106.562 196.023 106.247 196.139 105.849 196.139ZM115.011 196C114.279 196 113.705 195.796 113.289 195.389C112.881 194.981 112.677 194.421 112.677 193.708V189.93H110.608V188.361H112.677V186.208H114.428V188.361H117.358V189.93H114.428V193.708C114.428 194.19 114.664 194.43 115.136 194.43H117.219V196H115.011ZM122.214 196.125C121.631 196.125 121.122 196.032 120.686 195.847C120.251 195.662 119.909 195.407 119.659 195.083C119.418 194.75 119.288 194.361 119.27 193.917H121.006C121.024 194.157 121.14 194.352 121.353 194.5C121.575 194.648 121.862 194.722 122.214 194.722H122.825C123.251 194.722 123.571 194.639 123.784 194.472C123.997 194.305 124.103 194.079 124.103 193.792C124.103 193.523 124.006 193.315 123.812 193.166C123.626 193.009 123.335 192.907 122.937 192.861L121.992 192.722C121.122 192.602 120.483 192.37 120.075 192.028C119.668 191.685 119.464 191.171 119.464 190.486C119.464 189.773 119.705 189.222 120.186 188.833C120.668 188.435 121.376 188.236 122.312 188.236H122.839C123.691 188.236 124.372 188.425 124.881 188.805C125.39 189.185 125.664 189.694 125.701 190.333H123.964C123.937 190.129 123.821 189.963 123.617 189.833C123.423 189.703 123.163 189.638 122.839 189.638H122.312C121.913 189.638 121.622 189.713 121.436 189.861C121.261 190 121.173 190.208 121.173 190.486C121.173 190.745 121.251 190.939 121.409 191.069C121.566 191.19 121.821 191.277 122.173 191.333L123.159 191.472C124.066 191.602 124.733 191.847 125.159 192.208C125.594 192.56 125.812 193.083 125.812 193.778C125.812 194.518 125.557 195.097 125.048 195.514C124.548 195.921 123.807 196.125 122.825 196.125H122.214ZM127.168 196L129.834 192.055L127.348 188.361H129.307L130.487 190.236C130.561 190.347 130.626 190.472 130.682 190.611C130.746 190.75 130.797 190.861 130.834 190.944C130.871 190.861 130.922 190.75 130.987 190.611C131.052 190.472 131.117 190.347 131.182 190.236L132.376 188.361H134.335L131.848 192.055L134.501 196H132.529L131.209 193.903C131.135 193.782 131.066 193.653 131.001 193.514C130.936 193.375 130.881 193.264 130.834 193.18C130.797 193.264 130.746 193.375 130.682 193.514C130.617 193.653 130.547 193.782 130.473 193.903L129.126 196H127.168Z" fill="#EFF0F1"/>
<path fill-rule="evenodd" clip-rule="evenodd" d="M23.2654 216C21.7381 216 20.5 217.238 20.5 218.765V247.235C20.5 248.762 21.7381 250 23.2654 250H45.2746C46.8019 250 48.04 248.762 48.04 247.235V218.765C48.04 218.763 48.04 218.761 48.04 218.758V224.5L39.54 216H23.2654Z" fill="#1166C0"/>
<path d="M24.0503 240.521V239.507H28.8287V240.521H27.0475V245.325H25.8316V240.521H24.0503ZM32.7719 241.18C32.7492 240.951 32.6517 240.773 32.4793 240.646C32.307 240.519 32.0731 240.456 31.7776 240.456C31.5768 240.456 31.4073 240.484 31.2691 240.541C31.1308 240.596 31.0248 240.673 30.9509 240.771C30.8789 240.87 30.8429 240.981 30.8429 241.106C30.8392 241.211 30.8609 241.302 30.9083 241.379C30.9575 241.457 31.0248 241.524 31.11 241.581C31.1952 241.636 31.2937 241.684 31.4054 241.726C31.5172 241.766 31.6365 241.8 31.7634 241.828L32.2861 241.953C32.5399 242.01 32.7729 242.086 32.985 242.18C33.1971 242.275 33.3808 242.391 33.5361 242.53C33.6914 242.668 33.8117 242.831 33.8969 243.018C33.984 243.206 34.0285 243.421 34.0304 243.663C34.0285 244.019 33.9376 244.328 33.7577 244.589C33.5797 244.849 33.3221 245.051 32.985 245.195C32.6498 245.337 32.2454 245.408 31.7719 245.408C31.3022 245.408 30.8931 245.336 30.5446 245.192C30.1981 245.048 29.9272 244.835 29.7321 244.552C29.539 244.268 29.4376 243.917 29.4282 243.498H30.6185C30.6318 243.694 30.6876 243.856 30.7861 243.987C30.8865 244.116 31.02 244.213 31.1867 244.28C31.3553 244.344 31.5456 244.376 31.7577 244.376C31.966 244.376 32.1469 244.346 32.3003 244.285C32.4556 244.225 32.5759 244.141 32.6611 244.033C32.7463 243.925 32.789 243.801 32.789 243.66C32.789 243.53 32.7501 243.42 32.6725 243.331C32.5967 243.242 32.485 243.166 32.3373 243.104C32.1914 243.041 32.0124 242.984 31.8003 242.933L31.1668 242.774C30.6763 242.655 30.289 242.468 30.0049 242.214C29.7208 241.961 29.5797 241.619 29.5816 241.189C29.5797 240.837 29.6734 240.529 29.8628 240.266C30.0541 240.002 30.3164 239.797 30.6498 239.649C30.9831 239.501 31.3619 239.427 31.7861 239.427C32.2179 239.427 32.5948 239.501 32.9168 239.649C33.2407 239.797 33.4926 240.002 33.6725 240.266C33.8524 240.529 33.9452 240.834 33.9509 241.18H32.7719Z" fill="white"/>
<path d="M42.3055 224.5L48.04 224.5L39.54 216L39.54 221.735C39.54 223.262 40.7782 224.5 42.3055 224.5Z" fill="#2C89ED"/>
<path d="M61.1096 238V227.86H64.2209C65.2024 227.86 65.9802 228.097 66.5543 228.569C67.1284 229.032 67.4155 229.666 67.4155 230.472C67.4155 230.925 67.3136 231.319 67.1099 231.652C66.9062 231.986 66.6284 232.245 66.2765 232.43C65.9339 232.615 65.5358 232.708 65.082 232.708V232.652C65.5728 232.643 66.008 232.736 66.3877 232.93C66.7766 233.115 67.0821 233.393 67.3044 233.764C67.5359 234.134 67.6516 234.583 67.6516 235.111C67.6516 235.694 67.5174 236.204 67.2488 236.639C66.9803 237.074 66.6006 237.412 66.1099 237.653C65.6284 237.884 65.0496 238 64.3736 238H61.1096ZM62.8041 236.555H64.2625C64.7718 236.555 65.17 236.421 65.457 236.153C65.7534 235.875 65.9015 235.5 65.9015 235.028C65.9015 234.555 65.7534 234.176 65.457 233.889C65.17 233.592 64.7718 233.444 64.2625 233.444H62.8041V236.555ZM62.8041 232.041H64.1931C64.6561 232.041 65.0172 231.921 65.2765 231.68C65.545 231.43 65.6793 231.092 65.6793 230.666C65.6793 230.24 65.545 229.907 65.2765 229.666C65.0172 229.425 64.6561 229.305 64.1931 229.305H62.8041V232.041ZM71.6881 238.139C70.901 238.139 70.2806 237.931 69.8269 237.514C69.3732 237.097 69.1463 236.537 69.1463 235.833C69.1463 235.083 69.3963 234.504 69.8963 234.097C70.3964 233.69 71.1048 233.486 72.0215 233.486H73.9244V232.833C73.9244 232.463 73.804 232.176 73.5632 231.972C73.3225 231.759 72.9938 231.652 72.5771 231.652C72.1974 231.652 71.8826 231.736 71.6326 231.902C71.3826 232.069 71.2344 232.296 71.1881 232.583H69.4935C69.5769 231.861 69.901 231.287 70.4658 230.861C71.0307 230.435 71.7529 230.222 72.6326 230.222C73.5679 230.222 74.304 230.458 74.8411 230.93C75.3874 231.393 75.6606 232.023 75.6606 232.819V238H73.9799V236.667H73.7021L73.9799 236.292C73.9799 236.856 73.7716 237.306 73.3549 237.639C72.9382 237.972 72.3826 238.139 71.6881 238.139ZM72.2576 236.833C72.7484 236.833 73.1466 236.708 73.4521 236.458C73.767 236.208 73.9244 235.884 73.9244 235.486V234.555H72.0493C71.6974 234.555 71.415 234.657 71.202 234.861C70.989 235.065 70.8825 235.333 70.8825 235.667C70.8825 236.028 71.0029 236.315 71.2437 236.528C71.4937 236.731 71.8317 236.833 72.2576 236.833ZM80.211 238.139C79.4517 238.139 78.8359 237.875 78.3637 237.347C77.9007 236.819 77.6692 236.111 77.6692 235.222V233.152C77.6692 232.254 77.9007 231.541 78.3637 231.013C78.8267 230.486 79.4424 230.222 80.211 230.222C80.8407 230.222 81.3407 230.402 81.7111 230.763C82.0815 231.115 82.2667 231.601 82.2667 232.222L81.8778 231.819H82.2806L82.225 229.999V227.86H83.9613V238H82.2667V236.542H81.8778L82.2667 236.139C82.2667 236.759 82.0815 237.25 81.7111 237.611C81.3407 237.963 80.8407 238.139 80.211 238.139ZM80.8222 236.639C81.2666 236.639 81.6093 236.509 81.85 236.25C82.1 235.981 82.225 235.611 82.225 235.139V233.222C82.225 232.75 82.1 232.384 81.85 232.125C81.6093 231.856 81.2666 231.722 80.8222 231.722C80.3777 231.722 80.0304 231.851 79.7804 232.111C79.5304 232.37 79.4054 232.74 79.4054 233.222V235.139C79.4054 235.62 79.5304 235.991 79.7804 236.25C80.0304 236.509 80.3777 236.639 80.8222 236.639ZM87.1366 240.5V239.056H89.4006C89.7895 239.056 90.0812 238.958 90.2757 238.764C90.4701 238.579 90.5674 238.31 90.5674 237.958V237.389L90.5951 235.958H90.2201L90.5951 235.583C90.5951 236.204 90.4099 236.69 90.0395 237.042C89.6784 237.384 89.1876 237.556 88.5672 237.556C87.7894 237.556 87.169 237.292 86.706 236.764C86.2523 236.236 86.0254 235.523 86.0254 234.625V233.139C86.0254 232.25 86.2523 231.541 86.706 231.013C87.169 230.486 87.7894 230.222 88.5672 230.222C89.1876 230.222 89.6784 230.398 90.0395 230.75C90.4099 231.092 90.5951 231.574 90.5951 232.194L90.2201 231.819H90.5951L90.5535 230.361H92.2897V238C92.2897 238.769 92.035 239.375 91.5257 239.82C91.0165 240.273 90.3173 240.5 89.4284 240.5H87.1366ZM89.1506 236.055C89.5951 236.055 89.9377 235.926 90.1784 235.667C90.4285 235.398 90.5535 235.028 90.5535 234.555V233.222C90.5535 232.75 90.4285 232.384 90.1784 232.125C89.9377 231.856 89.5951 231.722 89.1506 231.722C88.7061 231.722 88.3635 231.851 88.1228 232.111C87.882 232.37 87.7616 232.74 87.7616 233.222V234.555C87.7616 235.037 87.882 235.407 88.1228 235.667C88.3635 235.926 88.7061 236.055 89.1506 236.055ZM97.5346 238.139C96.8864 238.139 96.3216 238.014 95.84 237.764C95.3585 237.514 94.9835 237.167 94.715 236.722C94.4557 236.268 94.3261 235.741 94.3261 235.139V233.222C94.3261 232.62 94.4557 232.097 94.715 231.652C94.9835 231.199 95.3585 230.847 95.84 230.597C96.3216 230.347 96.8864 230.222 97.5346 230.222C98.1735 230.222 98.7291 230.347 99.2014 230.597C99.6829 230.847 100.053 231.199 100.313 231.652C100.581 232.097 100.715 232.62 100.715 233.222V234.597H96.0067V235.139C96.0067 235.676 96.1364 236.083 96.3956 236.361C96.6549 236.63 97.0392 236.764 97.5485 236.764C97.9374 236.764 98.2522 236.699 98.493 236.569C98.7337 236.43 98.8865 236.231 98.9513 235.972H100.66C100.53 236.63 100.178 237.157 99.6042 237.556C99.0393 237.944 98.3495 238.139 97.5346 238.139ZM99.0347 233.625V233.208C99.0347 232.68 98.9097 232.277 98.6597 232C98.4096 231.713 98.0346 231.569 97.5346 231.569C97.0346 231.569 96.6549 231.713 96.3956 232C96.1364 232.287 96.0067 232.694 96.0067 233.222V233.514L99.1597 233.486L99.0347 233.625ZM105.849 238.139C105.451 238.139 105.131 238.023 104.891 237.792C104.659 237.56 104.543 237.245 104.543 236.847C104.543 236.449 104.659 236.134 104.891 235.903C105.131 235.662 105.451 235.542 105.849 235.542C106.247 235.542 106.562 235.662 106.794 235.903C107.034 236.134 107.155 236.449 107.155 236.847C107.155 237.245 107.034 237.56 106.794 237.792C106.562 238.023 106.247 238.139 105.849 238.139ZM115.011 238C114.279 238 113.705 237.796 113.289 237.389C112.881 236.981 112.677 236.421 112.677 235.708V231.93H110.608V230.361H112.677V228.208H114.428V230.361H117.358V231.93H114.428V235.708C114.428 236.19 114.664 236.43 115.136 236.43H117.219V238H115.011ZM120.645 240.5L121.714 237.583L118.867 230.361H120.77L122.187 234.264C122.261 234.477 122.335 234.736 122.409 235.041C122.483 235.338 122.538 235.583 122.575 235.778C122.622 235.583 122.682 235.338 122.756 235.041C122.83 234.736 122.904 234.477 122.978 234.264L124.312 230.361H126.145L122.464 240.5H120.645ZM127.737 240.5V230.361H129.432V231.819H129.82L129.432 232.222C129.432 231.601 129.617 231.115 129.987 230.763C130.358 230.402 130.858 230.222 131.487 230.222C132.256 230.222 132.872 230.486 133.335 231.013C133.798 231.541 134.029 232.25 134.029 233.139V235.208C134.029 235.801 133.923 236.319 133.71 236.764C133.506 237.199 133.214 237.537 132.835 237.778C132.455 238.019 132.006 238.139 131.487 238.139C130.858 238.139 130.358 237.963 129.987 237.611C129.617 237.25 129.432 236.759 129.432 236.139L129.82 236.542H129.418L129.473 238.361V240.5H127.737ZM130.876 236.639C131.321 236.639 131.668 236.509 131.918 236.25C132.168 235.991 132.293 235.62 132.293 235.139V233.222C132.293 232.74 132.168 232.37 131.918 232.111C131.668 231.851 131.321 231.722 130.876 231.722C130.441 231.722 130.098 231.856 129.848 232.125C129.598 232.384 129.473 232.75 129.473 233.222V235.139C129.473 235.611 129.598 235.981 129.848 236.25C130.098 236.509 130.441 236.639 130.876 236.639ZM139.177 238.139C138.529 238.139 137.964 238.014 137.482 237.764C137.001 237.514 136.626 237.167 136.357 236.722C136.098 236.268 135.968 235.741 135.968 235.139V233.222C135.968 232.62 136.098 232.097 136.357 231.652C136.626 231.199 137.001 230.847 137.482 230.597C137.964 230.347 138.529 230.222 139.177 230.222C139.816 230.222 140.371 230.347 140.844 230.597C141.325 230.847 141.695 231.199 141.955 231.652C142.223 232.097 142.358 232.62 142.358 233.222V234.597H137.649V235.139C137.649 235.676 137.779 236.083 138.038 236.361C138.297 236.63 138.681 236.764 139.191 236.764C139.58 236.764 139.894 236.699 140.135 236.569C140.376 236.43 140.529 236.231 140.594 235.972H142.302C142.172 236.63 141.82 237.157 141.246 237.556C140.681 237.944 139.992 238.139 139.177 238.139ZM140.677 233.625V233.208C140.677 232.68 140.552 232.277 140.302 232C140.052 231.713 139.677 231.569 139.177 231.569C138.677 231.569 138.297 231.713 138.038 232C137.779 232.287 137.649 232.694 137.649 233.222V233.514L140.802 233.486L140.677 233.625ZM147.2 238.125C146.616 238.125 146.107 238.032 145.672 237.847C145.237 237.662 144.894 237.407 144.644 237.083C144.403 236.75 144.274 236.361 144.255 235.917H145.991C146.01 236.157 146.125 236.352 146.338 236.5C146.561 236.648 146.848 236.722 147.2 236.722H147.811C148.237 236.722 148.556 236.639 148.769 236.472C148.982 236.305 149.089 236.079 149.089 235.792C149.089 235.523 148.991 235.315 148.797 235.166C148.612 235.009 148.32 234.907 147.922 234.861L146.977 234.722C146.107 234.602 145.468 234.37 145.061 234.028C144.653 233.685 144.449 233.171 144.449 232.486C144.449 231.773 144.69 231.222 145.172 230.833C145.653 230.435 146.362 230.236 147.297 230.236H147.825C148.677 230.236 149.357 230.425 149.866 230.805C150.376 231.185 150.649 231.694 150.686 232.333H148.95C148.922 232.129 148.806 231.963 148.602 231.833C148.408 231.703 148.149 231.638 147.825 231.638H147.297C146.899 231.638 146.607 231.713 146.422 231.861C146.246 232 146.158 232.208 146.158 232.486C146.158 232.745 146.237 232.939 146.394 233.069C146.551 233.19 146.806 233.277 147.158 233.333L148.144 233.472C149.052 233.602 149.718 233.847 150.144 234.208C150.579 234.56 150.797 235.083 150.797 235.778C150.797 236.518 150.542 237.097 150.033 237.514C149.533 237.921 148.792 238.125 147.811 238.125H147.2ZM155.82 238.139C155.422 238.139 155.102 238.023 154.861 237.792C154.63 237.56 154.514 237.245 154.514 236.847C154.514 236.449 154.63 236.134 154.861 235.903C155.102 235.662 155.422 235.542 155.82 235.542C156.218 235.542 156.533 235.662 156.764 235.903C157.005 236.134 157.125 236.449 157.125 236.847C157.125 237.245 157.005 237.56 156.764 237.792C156.533 238.023 156.218 238.139 155.82 238.139ZM164.982 238C164.25 238 163.676 237.796 163.259 237.389C162.852 236.981 162.648 236.421 162.648 235.708V231.93H160.578V230.361H162.648V228.208H164.398V230.361H167.329V231.93H164.398V235.708C164.398 236.19 164.634 236.43 165.107 236.43H167.19V238H164.982ZM172.185 238.125C171.602 238.125 171.092 238.032 170.657 237.847C170.222 237.662 169.879 237.407 169.629 237.083C169.388 236.75 169.259 236.361 169.24 235.917H170.977C170.995 236.157 171.111 236.352 171.324 236.5C171.546 236.648 171.833 236.722 172.185 236.722H172.796C173.222 236.722 173.541 236.639 173.754 236.472C173.967 236.305 174.074 236.079 174.074 235.792C174.074 235.523 173.977 235.315 173.782 235.166C173.597 235.009 173.305 234.907 172.907 234.861L171.963 234.722C171.092 234.602 170.453 234.37 170.046 234.028C169.638 233.685 169.435 233.171 169.435 232.486C169.435 231.773 169.675 231.222 170.157 230.833C170.639 230.435 171.347 230.236 172.282 230.236H172.81C173.662 230.236 174.342 230.425 174.852 230.805C175.361 231.185 175.634 231.694 175.671 232.333H173.935C173.907 232.129 173.791 231.963 173.588 231.833C173.393 231.703 173.134 231.638 172.81 231.638H172.282C171.884 231.638 171.592 231.713 171.407 231.861C171.231 232 171.143 232.208 171.143 232.486C171.143 232.745 171.222 232.939 171.379 233.069C171.537 233.19 171.791 233.277 172.143 233.333L173.129 233.472C174.037 233.602 174.704 233.847 175.13 234.208C175.565 234.56 175.782 235.083 175.782 235.778C175.782 236.518 175.528 237.097 175.018 237.514C174.518 237.921 173.778 238.125 172.796 238.125H172.185Z" fill="#EFF0F1"/>
<path fill-rule="evenodd" clip-rule="evenodd" d="M23.2654 258C21.7381 258 20.5 259.238 20.5 260.765V289.235C20.5 290.762 21.7381 292 23.2654 292H45.2746C46.8019 292 48.04 290.762 48.04 289.235V260.765C48.04 260.763 48.04 260.761 48.04 260.758V266.5L39.54 258H23.2654Z" fill="#1166C0"/>
<path d="M24.0503 282.521V281.507H28.8287V282.521H27.0475V287.325H25.8316V282.521H24.0503ZM32.7719 283.18C32.7492 282.951 32.6517 282.773 32.4793 282.646C32.307 282.519 32.0731 282.456 31.7776 282.456C31.5768 282.456 31.4073 282.484 31.2691 282.541C31.1308 282.596 31.0248 282.673 30.9509 282.771C30.8789 282.87 30.8429 282.981 30.8429 283.106C30.8392 283.211 30.8609 283.302 30.9083 283.379C30.9575 283.457 31.0248 283.524 31.11 283.581C31.1952 283.636 31.2937 283.684 31.4054 283.726C31.5172 283.766 31.6365 283.8 31.7634 283.828L32.2861 283.953C32.5399 284.01 32.7729 284.086 32.985 284.18C33.1971 284.275 33.3808 284.391 33.5361 284.53C33.6914 284.668 33.8117 284.831 33.8969 285.018C33.984 285.206 34.0285 285.421 34.0304 285.663C34.0285 286.019 33.9376 286.328 33.7577 286.589C33.5797 286.849 33.3221 287.051 32.985 287.195C32.6498 287.337 32.2454 287.408 31.7719 287.408C31.3022 287.408 30.8931 287.336 30.5446 287.192C30.1981 287.048 29.9272 286.835 29.7321 286.552C29.539 286.268 29.4376 285.917 29.4282 285.498H30.6185C30.6318 285.694 30.6876 285.856 30.7861 285.987C30.8865 286.116 31.02 286.213 31.1867 286.28C31.3553 286.344 31.5456 286.376 31.7577 286.376C31.966 286.376 32.1469 286.346 32.3003 286.285C32.4556 286.225 32.5759 286.141 32.6611 286.033C32.7463 285.925 32.789 285.801 32.789 285.66C32.789 285.53 32.7501 285.42 32.6725 285.331C32.5967 285.242 32.485 285.166 32.3373 285.104C32.1914 285.041 32.0124 284.984 31.8003 284.933L31.1668 284.774C30.6763 284.655 30.289 284.468 30.0049 284.214C29.7208 283.961 29.5797 283.619 29.5816 283.189C29.5797 282.837 29.6734 282.529 29.8628 282.266C30.0541 282.002 30.3164 281.797 30.6498 281.649C30.9831 281.501 31.3619 281.427 31.7861 281.427C32.2179 281.427 32.5948 281.501 32.9168 281.649C33.2407 281.797 33.4926 282.002 33.6725 282.266C33.8524 282.529 33.9452 282.834 33.9509 283.18H32.7719Z" fill="white"/>
<path d="M42.3055 266.5L48.04 266.5L39.54 258L39.54 263.735C39.54 265.262 40.7782 266.5 42.3055 266.5Z" fill="#2C89ED"/>
<path d="M61.1096 280V269.86H64.2209C65.2024 269.86 65.9802 270.097 66.5543 270.569C67.1284 271.032 67.4155 271.666 67.4155 272.472C67.4155 272.925 67.3136 273.319 67.1099 273.652C66.9062 273.986 66.6284 274.245 66.2765 274.43C65.9339 274.615 65.5358 274.708 65.082 274.708V274.652C65.5728 274.643 66.008 274.736 66.3877 274.93C66.7766 275.115 67.0821 275.393 67.3044 275.764C67.5359 276.134 67.6516 276.583 67.6516 277.111C67.6516 277.694 67.5174 278.204 67.2488 278.639C66.9803 279.074 66.6006 279.412 66.1099 279.653C65.6284 279.884 65.0496 280 64.3736 280H61.1096ZM62.8041 278.555H64.2625C64.7718 278.555 65.17 278.421 65.457 278.153C65.7534 277.875 65.9015 277.5 65.9015 277.028C65.9015 276.555 65.7534 276.176 65.457 275.889C65.17 275.592 64.7718 275.444 64.2625 275.444H62.8041V278.555ZM62.8041 274.041H64.1931C64.6561 274.041 65.0172 273.921 65.2765 273.68C65.545 273.43 65.6793 273.092 65.6793 272.666C65.6793 272.24 65.545 271.907 65.2765 271.666C65.0172 271.425 64.6561 271.305 64.1931 271.305H62.8041V274.041ZM71.6881 280.139C70.901 280.139 70.2806 279.931 69.8269 279.514C69.3732 279.097 69.1463 278.537 69.1463 277.833C69.1463 277.083 69.3963 276.504 69.8963 276.097C70.3964 275.69 71.1048 275.486 72.0215 275.486H73.9244V274.833C73.9244 274.463 73.804 274.176 73.5632 273.972C73.3225 273.759 72.9938 273.652 72.5771 273.652C72.1974 273.652 71.8826 273.736 71.6326 273.902C71.3826 274.069 71.2344 274.296 71.1881 274.583H69.4935C69.5769 273.861 69.901 273.287 70.4658 272.861C71.0307 272.435 71.7529 272.222 72.6326 272.222C73.5679 272.222 74.304 272.458 74.8411 272.93C75.3874 273.393 75.6606 274.023 75.6606 274.819V280H73.9799V278.667H73.7021L73.9799 278.292C73.9799 278.856 73.7716 279.306 73.3549 279.639C72.9382 279.972 72.3826 280.139 71.6881 280.139ZM72.2576 278.833C72.7484 278.833 73.1466 278.708 73.4521 278.458C73.767 278.208 73.9244 277.884 73.9244 277.486V276.555H72.0493C71.6974 276.555 71.415 276.657 71.202 276.861C70.989 277.065 70.8825 277.333 70.8825 277.667C70.8825 278.028 71.0029 278.315 71.2437 278.528C71.4937 278.731 71.8317 278.833 72.2576 278.833ZM80.211 280.139C79.4517 280.139 78.8359 279.875 78.3637 279.347C77.9007 278.819 77.6692 278.111 77.6692 277.222V275.152C77.6692 274.254 77.9007 273.541 78.3637 273.013C78.8267 272.486 79.4424 272.222 80.211 272.222C80.8407 272.222 81.3407 272.402 81.7111 272.763C82.0815 273.115 82.2667 273.601 82.2667 274.222L81.8778 273.819H82.2806L82.225 271.999V269.86H83.9613V280H82.2667V278.542H81.8778L82.2667 278.139C82.2667 278.759 82.0815 279.25 81.7111 279.611C81.3407 279.963 80.8407 280.139 80.211 280.139ZM80.8222 278.639C81.2666 278.639 81.6093 278.509 81.85 278.25C82.1 277.981 82.225 277.611 82.225 277.139V275.222C82.225 274.75 82.1 274.384 81.85 274.125C81.6093 273.856 81.2666 273.722 80.8222 273.722C80.3777 273.722 80.0304 273.851 79.7804 274.111C79.5304 274.37 79.4054 274.74 79.4054 275.222V277.139C79.4054 277.62 79.5304 277.991 79.7804 278.25C80.0304 278.509 80.3777 278.639 80.8222 278.639ZM87.1366 282.5V281.056H89.4006C89.7895 281.056 90.0812 280.958 90.2757 280.764C90.4701 280.579 90.5674 280.31 90.5674 279.958V279.389L90.5951 277.958H90.2201L90.5951 277.583C90.5951 278.204 90.4099 278.69 90.0395 279.042C89.6784 279.384 89.1876 279.556 88.5672 279.556C87.7894 279.556 87.169 279.292 86.706 278.764C86.2523 278.236 86.0254 277.523 86.0254 276.625V275.139C86.0254 274.25 86.2523 273.541 86.706 273.013C87.169 272.486 87.7894 272.222 88.5672 272.222C89.1876 272.222 89.6784 272.398 90.0395 272.75C90.4099 273.092 90.5951 273.574 90.5951 274.194L90.2201 273.819H90.5951L90.5535 272.361H92.2897V280C92.2897 280.769 92.035 281.375 91.5257 281.82C91.0165 282.273 90.3173 282.5 89.4284 282.5H87.1366ZM89.1506 278.055C89.5951 278.055 89.9377 277.926 90.1784 277.667C90.4285 277.398 90.5535 277.028 90.5535 276.555V275.222C90.5535 274.75 90.4285 274.384 90.1784 274.125C89.9377 273.856 89.5951 273.722 89.1506 273.722C88.7061 273.722 88.3635 273.851 88.1228 274.111C87.882 274.37 87.7616 274.74 87.7616 275.222V276.555C87.7616 277.037 87.882 277.407 88.1228 277.667C88.3635 277.926 88.7061 278.055 89.1506 278.055ZM97.5346 280.139C96.8864 280.139 96.3216 280.014 95.84 279.764C95.3585 279.514 94.9835 279.167 94.715 278.722C94.4557 278.268 94.3261 277.741 94.3261 277.139V275.222C94.3261 274.62 94.4557 274.097 94.715 273.652C94.9835 273.199 95.3585 272.847 95.84 272.597C96.3216 272.347 96.8864 272.222 97.5346 272.222C98.1735 272.222 98.7291 272.347 99.2014 272.597C99.6829 272.847 100.053 273.199 100.313 273.652C100.581 274.097 100.715 274.62 100.715 275.222V276.597H96.0067V277.139C96.0067 277.676 96.1364 278.083 96.3956 278.361C96.6549 278.63 97.0392 278.764 97.5485 278.764C97.9374 278.764 98.2522 278.699 98.493 278.569C98.7337 278.43 98.8865 278.231 98.9513 277.972H100.66C100.53 278.63 100.178 279.157 99.6042 279.556C99.0393 279.944 98.3495 280.139 97.5346 280.139ZM99.0347 275.625V275.208C99.0347 274.68 98.9097 274.277 98.6597 274C98.4096 273.713 98.0346 273.569 97.5346 273.569C97.0346 273.569 96.6549 273.713 96.3956 274C96.1364 274.287 96.0067 274.694 96.0067 275.222V275.514L99.1597 275.486L99.0347 275.625ZM105.905 280.139C105.257 280.139 104.687 280.019 104.196 279.778C103.715 279.528 103.34 279.181 103.071 278.736C102.812 278.282 102.682 277.75 102.682 277.139V272.722C102.682 272.101 102.812 271.569 103.071 271.124C103.34 270.68 103.715 270.337 104.196 270.097C104.687 269.847 105.257 269.722 105.905 269.722C106.562 269.722 107.127 269.847 107.599 270.097C108.081 270.337 108.456 270.68 108.724 271.124C108.993 271.569 109.127 272.101 109.127 272.722H107.377C107.377 272.24 107.247 271.874 106.988 271.624C106.738 271.374 106.377 271.249 105.905 271.249C105.432 271.249 105.067 271.374 104.807 271.624C104.548 271.874 104.418 272.236 104.418 272.708V277.139C104.418 277.611 104.548 277.977 104.807 278.236C105.067 278.486 105.432 278.611 105.905 278.611C106.377 278.611 106.738 278.486 106.988 278.236C107.247 277.977 107.377 277.611 107.377 277.139H109.127C109.127 277.741 108.993 278.268 108.724 278.722C108.456 279.176 108.081 279.528 107.599 279.778C107.127 280.019 106.562 280.139 105.905 280.139ZM114.178 280.125C113.529 280.125 112.965 280.005 112.483 279.764C112.011 279.514 111.64 279.167 111.372 278.722C111.113 278.268 110.983 277.736 110.983 277.125V275.236C110.983 274.625 111.113 274.097 111.372 273.652C111.64 273.199 112.011 272.851 112.483 272.611C112.965 272.361 113.529 272.236 114.178 272.236C114.835 272.236 115.4 272.361 115.872 272.611C116.344 272.851 116.71 273.199 116.969 273.652C117.238 274.097 117.372 274.62 117.372 275.222V277.125C117.372 277.736 117.238 278.268 116.969 278.722C116.71 279.167 116.344 279.514 115.872 279.764C115.4 280.005 114.835 280.125 114.178 280.125ZM114.178 278.611C114.641 278.611 114.997 278.486 115.247 278.236C115.506 277.977 115.636 277.606 115.636 277.125V275.236C115.636 274.745 115.506 274.375 115.247 274.125C114.997 273.875 114.641 273.75 114.178 273.75C113.724 273.75 113.367 273.875 113.108 274.125C112.849 274.375 112.719 274.745 112.719 275.236V277.125C112.719 277.606 112.849 277.977 113.108 278.236C113.367 278.486 113.724 278.611 114.178 278.611ZM119.409 280V272.361H121.103V273.819H121.575L121.103 274.222C121.103 273.592 121.284 273.101 121.645 272.75C122.015 272.398 122.52 272.222 123.159 272.222C123.909 272.222 124.506 272.472 124.951 272.972C125.404 273.472 125.631 274.143 125.631 274.986V280H123.895V275.166C123.895 274.703 123.775 274.347 123.534 274.097C123.293 273.847 122.955 273.722 122.52 273.722C122.094 273.722 121.756 273.851 121.506 274.111C121.265 274.37 121.145 274.74 121.145 275.222V280H119.409ZM131.668 280C130.936 280 130.362 279.796 129.945 279.389C129.538 278.981 129.334 278.421 129.334 277.708V273.93H127.265V272.361H129.334V270.208H131.084V272.361H134.015V273.93H131.084V277.708C131.084 278.19 131.321 278.43 131.793 278.43H133.876V280H131.668ZM138.316 280.139C137.529 280.139 136.908 279.931 136.454 279.514C136.001 279.097 135.774 278.537 135.774 277.833C135.774 277.083 136.024 276.504 136.524 276.097C137.024 275.69 137.732 275.486 138.649 275.486H140.552V274.833C140.552 274.463 140.431 274.176 140.191 273.972C139.95 273.759 139.621 273.652 139.205 273.652C138.825 273.652 138.51 273.736 138.26 273.902C138.01 274.069 137.862 274.296 137.816 274.583H136.121C136.204 273.861 136.528 273.287 137.093 272.861C137.658 272.435 138.38 272.222 139.26 272.222C140.195 272.222 140.931 272.458 141.469 272.93C142.015 273.393 142.288 274.023 142.288 274.819V280H140.607V278.667H140.33L140.607 278.292C140.607 278.856 140.399 279.306 139.982 279.639C139.566 279.972 139.01 280.139 138.316 280.139ZM138.885 278.833C139.376 278.833 139.774 278.708 140.08 278.458C140.394 278.208 140.552 277.884 140.552 277.486V276.555H138.677C138.325 276.555 138.042 276.657 137.829 276.861C137.616 277.065 137.51 277.333 137.51 277.667C137.51 278.028 137.63 278.315 137.871 278.528C138.121 278.731 138.459 278.833 138.885 278.833ZM144.38 280V278.417H147.047V273.93H144.727V272.361H148.714V278.417H151.075V280H144.38ZM147.741 271.083C147.389 271.083 147.112 270.995 146.908 270.819C146.704 270.634 146.602 270.388 146.602 270.083C146.602 269.777 146.704 269.536 146.908 269.36C147.112 269.175 147.389 269.083 147.741 269.083C148.093 269.083 148.371 269.175 148.575 269.36C148.778 269.536 148.88 269.777 148.88 270.083C148.88 270.388 148.778 270.634 148.575 270.819C148.371 270.995 148.093 271.083 147.741 271.083ZM152.722 280V272.361H154.417V273.819H154.889L154.417 274.222C154.417 273.592 154.597 273.101 154.959 272.75C155.329 272.398 155.834 272.222 156.473 272.222C157.223 272.222 157.82 272.472 158.264 272.972C158.718 273.472 158.945 274.143 158.945 274.986V280H157.209V275.166C157.209 274.703 157.088 274.347 156.848 274.097C156.607 273.847 156.269 273.722 155.834 273.722C155.408 273.722 155.07 273.851 154.82 274.111C154.579 274.37 154.459 274.74 154.459 275.222V280H152.722ZM164.162 280.139C163.514 280.139 162.949 280.014 162.467 279.764C161.986 279.514 161.611 279.167 161.342 278.722C161.083 278.268 160.954 277.741 160.954 277.139V275.222C160.954 274.62 161.083 274.097 161.342 273.652C161.611 273.199 161.986 272.847 162.467 272.597C162.949 272.347 163.514 272.222 164.162 272.222C164.801 272.222 165.357 272.347 165.829 272.597C166.31 272.847 166.681 273.199 166.94 273.652C167.209 274.097 167.343 274.62 167.343 275.222V276.597H162.634V277.139C162.634 277.676 162.764 278.083 163.023 278.361C163.282 278.63 163.667 278.764 164.176 278.764C164.565 278.764 164.88 278.699 165.12 278.569C165.361 278.43 165.514 278.231 165.579 277.972H167.287C167.158 278.63 166.806 279.157 166.232 279.556C165.667 279.944 164.977 280.139 164.162 280.139ZM165.662 275.625V275.208C165.662 274.68 165.537 274.277 165.287 274C165.037 273.713 164.662 273.569 164.162 273.569C163.662 273.569 163.282 273.713 163.023 274C162.764 274.287 162.634 274.694 162.634 275.222V275.514L165.787 275.486L165.662 275.625ZM169.615 280V272.361H171.254V273.819H171.685L171.171 274.708C171.171 273.884 171.356 273.263 171.727 272.847C172.097 272.43 172.643 272.222 173.366 272.222C174.19 272.222 174.838 272.476 175.31 272.986C175.782 273.495 176.018 274.199 176.018 275.097V275.653H174.199V275.222C174.199 274.731 174.069 274.351 173.81 274.083C173.56 273.814 173.213 273.68 172.768 273.68C172.315 273.68 171.963 273.814 171.713 274.083C171.472 274.351 171.352 274.731 171.352 275.222V280H169.615ZM180.805 280.139C180.407 280.139 180.087 280.023 179.847 279.792C179.615 279.56 179.499 279.245 179.499 278.847C179.499 278.449 179.615 278.134 179.847 277.903C180.087 277.662 180.407 277.542 180.805 277.542C181.203 277.542 181.518 277.662 181.75 277.903C181.99 278.134 182.111 278.449 182.111 278.847C182.111 279.245 181.99 279.56 181.75 279.792C181.518 280.023 181.203 280.139 180.805 280.139ZM189.967 280C189.235 280 188.661 279.796 188.245 279.389C187.837 278.981 187.633 278.421 187.633 277.708V273.93H185.564V272.361H187.633V270.208H189.383V272.361H192.314V273.93H189.383V277.708C189.383 278.19 189.62 278.43 190.092 278.43H192.175V280H189.967ZM197.17 280.125C196.587 280.125 196.078 280.032 195.642 279.847C195.207 279.662 194.865 279.407 194.614 279.083C194.374 278.75 194.244 278.361 194.226 277.917H195.962C195.98 278.157 196.096 278.352 196.309 278.5C196.531 278.648 196.818 278.722 197.17 278.722H197.781C198.207 278.722 198.527 278.639 198.74 278.472C198.953 278.305 199.059 278.079 199.059 277.792C199.059 277.523 198.962 277.315 198.768 277.166C198.582 277.009 198.291 276.907 197.892 276.861L196.948 276.722C196.078 276.602 195.439 276.37 195.031 276.028C194.624 275.685 194.42 275.171 194.42 274.486C194.42 273.773 194.661 273.222 195.142 272.833C195.624 272.435 196.332 272.236 197.267 272.236H197.795C198.647 272.236 199.328 272.425 199.837 272.805C200.346 273.185 200.62 273.694 200.657 274.333H198.92C198.893 274.129 198.777 273.963 198.573 273.833C198.379 273.703 198.119 273.638 197.795 273.638H197.267C196.869 273.638 196.578 273.713 196.392 273.861C196.216 274 196.128 274.208 196.128 274.486C196.128 274.745 196.207 274.939 196.365 275.069C196.522 275.19 196.777 275.277 197.129 275.333L198.115 275.472C199.022 275.602 199.689 275.847 200.115 276.208C200.55 276.56 200.768 277.083 200.768 277.778C200.768 278.518 200.513 279.097 200.004 279.514C199.504 279.921 198.763 280.125 197.781 280.125H197.17ZM202.123 280L204.79 276.055L202.304 272.361H204.262L205.443 274.236C205.517 274.347 205.582 274.472 205.638 274.611C205.702 274.75 205.753 274.861 205.79 274.944C205.827 274.861 205.878 274.75 205.943 274.611C206.008 274.472 206.073 274.347 206.138 274.236L207.332 272.361H209.291L206.804 276.055L209.457 280H207.485L206.165 277.903C206.091 277.782 206.022 277.653 205.957 277.514C205.892 277.375 205.837 277.264 205.79 277.18C205.753 277.264 205.702 277.375 205.638 277.514C205.573 277.653 205.503 277.782 205.429 277.903L204.082 280H202.123Z" fill="#EFF0F1"/>
</svg>
