<svg width="479" height="328" viewBox="0 0 479 328" fill="none" xmlns="http://www.w3.org/2000/svg">
<circle cx="236.5" cy="147" r="90" stroke="#49536F" stroke-width="2" stroke-dasharray="8 8"/>
<circle cx="236.5" cy="101" r="136" stroke="#30374A" stroke-width="2" stroke-dasharray="8 8"/>
<circle cx="236.5" cy="23" r="214" stroke="#30374A" stroke-width="2" stroke-dasharray="8 8"/>
<g filter="url(#filter0_d_45_110)">
<g clip-path="url(#clip0_45_110)">
<rect x="204.5" y="198" width="64" height="64" rx="32" fill="#25224F"/>
<path d="M244.5 239V237C244.5 235.939 244.079 234.922 243.328 234.172C242.578 233.421 241.561 233 240.5 233H232.5C231.439 233 230.422 233.421 229.672 234.172C228.921 234.922 228.5 235.939 228.5 237V239" stroke="#EFF0F1" stroke-width="2" stroke-linecap="round" stroke-linejoin="round"/>
<path d="M236.5 229C238.709 229 240.5 227.209 240.5 225C240.5 222.791 238.709 221 236.5 221C234.291 221 232.5 222.791 232.5 225C232.5 227.209 234.291 229 236.5 229Z" stroke="#EFF0F1" stroke-width="2" stroke-linecap="round" stroke-linejoin="round"/>
</g>
</g>
<g clip-path="url(#clip1_45_110)">
<rect x="204.5" y="198" width="64" height="64" rx="32" fill="#25224F"/>
<path d="M244.5 239V237C244.5 235.939 244.079 234.922 243.328 234.172C242.578 233.421 241.561 233 240.5 233H232.5C231.439 233 230.422 233.421 229.672 234.172C228.921 234.922 228.5 235.939 228.5 237V239" stroke="#EFF0F1" stroke-width="2" stroke-linecap="round" stroke-linejoin="round"/>
<path d="M236.5 229C238.709 229 240.5 227.209 240.5 225C240.5 222.791 238.709 221 236.5 221C234.291 221 232.5 222.791 232.5 225C232.5 227.209 234.291 229 236.5 229Z" stroke="#EFF0F1" stroke-width="2" stroke-linecap="round" stroke-linejoin="round"/>
</g>
<path d="M236.5 260C219.931 260 206.5 246.569 206.5 230H202.5C202.5 248.778 217.722 264 236.5 264V260ZM266.5 230C266.5 246.569 253.069 260 236.5 260V264C255.278 264 270.5 248.778 270.5 230H266.5ZM236.5 200C253.069 200 266.5 213.431 266.5 230H270.5C270.5 211.222 255.278 196 236.5 196V200ZM236.5 196C217.722 196 202.5 211.222 202.5 230H206.5C206.5 213.431 219.931 200 236.5 200V196Z" fill="#8E89CD"/>
<g clip-path="url(#clip2_45_110)">
<rect x="212.5" y="32" width="48" height="48" rx="24" fill="#242938"/>
<path d="M241.833 62V60.6667C241.833 59.9594 241.552 59.2811 241.052 58.781C240.552 58.281 239.874 58 239.167 58H233.833C233.126 58 232.448 58.281 231.948 58.781C231.448 59.2811 231.167 59.9594 231.167 60.6667V62" stroke="#EFF0F1" stroke-width="2" stroke-linecap="round" stroke-linejoin="round"/>
<path d="M236.5 55.3333C237.973 55.3333 239.167 54.1394 239.167 52.6667C239.167 51.1939 237.973 50 236.5 50C235.027 50 233.833 51.1939 233.833 52.6667C233.833 54.1394 235.027 55.3333 236.5 55.3333Z" stroke="#EFF0F1" stroke-width="2" stroke-linecap="round" stroke-linejoin="round"/>
</g>
<path d="M236.5 78C224.35 78 214.5 68.1503 214.5 56H210.5C210.5 70.3594 222.141 82 236.5 82V78ZM258.5 56C258.5 68.1503 248.65 78 236.5 78V82C250.859 82 262.5 70.3594 262.5 56H258.5ZM236.5 34C248.65 34 258.5 43.8497 258.5 56H262.5C262.5 41.6406 250.859 30 236.5 30V34ZM236.5 30C222.141 30 210.5 41.6406 210.5 56H214.5C214.5 43.8497 224.35 34 236.5 34V30Z" fill="#49536F"/>
<g clip-path="url(#clip3_45_110)">
<rect x="303.5" y="123" width="48" height="48" rx="24" fill="#242938"/>
<path d="M332.833 153V151.667C332.833 150.959 332.552 150.281 332.052 149.781C331.552 149.281 330.874 149 330.167 149H324.833C324.126 149 323.448 149.281 322.948 149.781C322.448 150.281 322.167 150.959 322.167 151.667V153" stroke="#EFF0F1" stroke-width="2" stroke-linecap="round" stroke-linejoin="round"/>
<path d="M327.5 146.333C328.973 146.333 330.167 145.139 330.167 143.667C330.167 142.194 328.973 141 327.5 141C326.027 141 324.833 142.194 324.833 143.667C324.833 145.139 326.027 146.333 327.5 146.333Z" stroke="#EFF0F1" stroke-width="2" stroke-linecap="round" stroke-linejoin="round"/>
</g>
<path d="M327.5 169C315.35 169 305.5 159.15 305.5 147H301.5C301.5 161.359 313.141 173 327.5 173V169ZM349.5 147C349.5 159.15 339.65 169 327.5 169V173C341.859 173 353.5 161.359 353.5 147H349.5ZM327.5 125C339.65 125 349.5 134.85 349.5 147H353.5C353.5 132.641 341.859 121 327.5 121V125ZM327.5 121C313.141 121 301.5 132.641 301.5 147H305.5C305.5 134.85 315.35 125 327.5 125V121Z" fill="#49536F"/>
<g clip-path="url(#clip4_45_110)">
<rect x="121.5" y="123" width="48" height="48" rx="24" fill="#242938"/>
<path d="M150.833 153V151.667C150.833 150.959 150.552 150.281 150.052 149.781C149.552 149.281 148.874 149 148.167 149H142.833C142.126 149 141.448 149.281 140.948 149.781C140.448 150.281 140.167 150.959 140.167 151.667V153" stroke="#EFF0F1" stroke-width="2" stroke-linecap="round" stroke-linejoin="round"/>
<path d="M145.5 146.333C146.973 146.333 148.167 145.139 148.167 143.667C148.167 142.194 146.973 141 145.5 141C144.027 141 142.833 142.194 142.833 143.667C142.833 145.139 144.027 146.333 145.5 146.333Z" stroke="#EFF0F1" stroke-width="2" stroke-linecap="round" stroke-linejoin="round"/>
</g>
<path d="M145.5 169C133.35 169 123.5 159.15 123.5 147H119.5C119.5 161.359 131.141 173 145.5 173V169ZM167.5 147C167.5 159.15 157.65 169 145.5 169V173C159.859 173 171.5 161.359 171.5 147H167.5ZM145.5 125C157.65 125 167.5 134.85 167.5 147H171.5C171.5 132.641 159.859 121 145.5 121V125ZM145.5 121C131.141 121 119.5 132.641 119.5 147H123.5C123.5 134.85 133.35 125 145.5 125V121Z" fill="#49536F"/>
<g clip-path="url(#clip5_45_110)">
<rect x="411.5" y="107" width="32" height="32" rx="16" fill="#242938"/>
<path d="M431.5 127.5V126.5C431.5 125.97 431.289 125.461 430.914 125.086C430.539 124.711 430.03 124.5 429.5 124.5H425.5C424.97 124.5 424.461 124.711 424.086 125.086C423.711 125.461 423.5 125.97 423.5 126.5V127.5" stroke="#C1C7D7" stroke-width="1.5" stroke-linecap="round" stroke-linejoin="round"/>
<path d="M427.5 122.5C428.605 122.5 429.5 121.605 429.5 120.5C429.5 119.395 428.605 118.5 427.5 118.5C426.395 118.5 425.5 119.395 425.5 120.5C425.5 121.605 426.395 122.5 427.5 122.5Z" stroke="#C1C7D7" stroke-width="1.5" stroke-linecap="round" stroke-linejoin="round"/>
</g>
<path d="M427.5 137C419.768 137 413.5 130.732 413.5 123H409.5C409.5 132.941 417.559 141 427.5 141V137ZM441.5 123C441.5 130.732 435.232 137 427.5 137V141C437.441 141 445.5 132.941 445.5 123H441.5ZM427.5 109C435.232 109 441.5 115.268 441.5 123H445.5C445.5 113.059 437.441 105 427.5 105V109ZM427.5 105C417.559 105 409.5 113.059 409.5 123H413.5C413.5 115.268 419.768 109 427.5 109V105Z" fill="#30374A"/>
<g clip-path="url(#clip6_45_110)">
<rect x="30.5" y="107" width="32" height="32" rx="16" fill="#242938"/>
<path d="M50.5 127.5V126.5C50.5 125.97 50.2893 125.461 49.9142 125.086C49.5391 124.711 49.0304 124.5 48.5 124.5H44.5C43.9696 124.5 43.4609 124.711 43.0858 125.086C42.7107 125.461 42.5 125.97 42.5 126.5V127.5" stroke="#C1C7D7" stroke-width="1.5" stroke-linecap="round" stroke-linejoin="round"/>
<path d="M46.5 122.5C47.6046 122.5 48.5 121.605 48.5 120.5C48.5 119.395 47.6046 118.5 46.5 118.5C45.3954 118.5 44.5 119.395 44.5 120.5C44.5 121.605 45.3954 122.5 46.5 122.5Z" stroke="#C1C7D7" stroke-width="1.5" stroke-linecap="round" stroke-linejoin="round"/>
</g>
<path d="M46.5 137C38.768 137 32.5 130.732 32.5 123H28.5C28.5 132.941 36.5589 141 46.5 141V137ZM60.5 123C60.5 130.732 54.232 137 46.5 137V141C56.4411 141 64.5 132.941 64.5 123H60.5ZM46.5 109C54.232 109 60.5 115.268 60.5 123H64.5C64.5 113.059 56.4411 105 46.5 105V109ZM46.5 105C36.5589 105 28.5 113.059 28.5 123H32.5C32.5 115.268 38.768 109 46.5 109V105Z" fill="#30374A"/>
<g clip-path="url(#clip7_45_110)">
<rect x="332.5" y="10" width="32" height="32" rx="16" fill="#242938"/>
<path d="M352.5 30.5V29.5C352.5 28.9696 352.289 28.4609 351.914 28.0858C351.539 27.7107 351.03 27.5 350.5 27.5H346.5C345.97 27.5 345.461 27.7107 345.086 28.0858C344.711 28.4609 344.5 28.9696 344.5 29.5V30.5" stroke="#C1C7D7" stroke-width="1.5" stroke-linecap="round" stroke-linejoin="round"/>
<path d="M348.5 25.5C349.605 25.5 350.5 24.6046 350.5 23.5C350.5 22.3954 349.605 21.5 348.5 21.5C347.395 21.5 346.5 22.3954 346.5 23.5C346.5 24.6046 347.395 25.5 348.5 25.5Z" stroke="#C1C7D7" stroke-width="1.5" stroke-linecap="round" stroke-linejoin="round"/>
</g>
<path d="M348.5 40C340.768 40 334.5 33.732 334.5 26H330.5C330.5 35.9411 338.559 44 348.5 44V40ZM362.5 26C362.5 33.732 356.232 40 348.5 40V44C358.441 44 366.5 35.9411 366.5 26H362.5ZM348.5 12C356.232 12 362.5 18.268 362.5 26H366.5C366.5 16.0589 358.441 8 348.5 8V12ZM348.5 8C338.559 8 330.5 16.0589 330.5 26H334.5C334.5 18.268 340.768 12 348.5 12V8Z" fill="#30374A"/>
<g clip-path="url(#clip8_45_110)">
<rect x="104.5" y="10" width="32" height="32" rx="16" fill="#242938"/>
<path d="M124.5 30.5V29.5C124.5 28.9696 124.289 28.4609 123.914 28.0858C123.539 27.7107 123.03 27.5 122.5 27.5H118.5C117.97 27.5 117.461 27.7107 117.086 28.0858C116.711 28.4609 116.5 28.9696 116.5 29.5V30.5" stroke="#C1C7D7" stroke-width="2" stroke-linecap="round" stroke-linejoin="round"/>
<path d="M120.5 25.5C121.605 25.5 122.5 24.6046 122.5 23.5C122.5 22.3954 121.605 21.5 120.5 21.5C119.395 21.5 118.5 22.3954 118.5 23.5C118.5 24.6046 119.395 25.5 120.5 25.5Z" stroke="#C1C7D7" stroke-width="2" stroke-linecap="round" stroke-linejoin="round"/>
</g>
<path d="M120.5 40C112.768 40 106.5 33.732 106.5 26H102.5C102.5 35.9411 110.559 44 120.5 44V40ZM134.5 26C134.5 33.732 128.232 40 120.5 40V44C130.441 44 138.5 35.9411 138.5 26H134.5ZM120.5 12C128.232 12 134.5 18.268 134.5 26H138.5C138.5 16.0589 130.441 8 120.5 8V12ZM120.5 8C110.559 8 102.5 16.0589 102.5 26H106.5C106.5 18.268 112.768 12 120.5 12V8Z" fill="#30374A"/>
<g clip-path="url(#clip9_45_110)">
<rect x="10.5" y="10" width="24" height="24" rx="12" fill="#242938"/>
<path d="M26.5 26.5V25.5C26.5 24.9696 26.2893 24.4609 25.9142 24.0858C25.5391 23.7107 25.0304 23.5 24.5 23.5H20.5C19.9696 23.5 19.4609 23.7107 19.0858 24.0858C18.7107 24.4609 18.5 24.9696 18.5 25.5V26.5" stroke="#C1C7D7" stroke-width="1.5" stroke-linecap="round" stroke-linejoin="round"/>
<path d="M22.5 21.5C23.6046 21.5 24.5 20.6046 24.5 19.5C24.5 18.3954 23.6046 17.5 22.5 17.5C21.3954 17.5 20.5 18.3954 20.5 19.5C20.5 20.6046 21.3954 21.5 22.5 21.5Z" stroke="#C1C7D7" stroke-width="1.5" stroke-linecap="round" stroke-linejoin="round"/>
</g>
<path d="M22.5 32C16.9772 32 12.5 27.5228 12.5 22H8.5C8.5 29.732 14.768 36 22.5 36V32ZM32.5 22C32.5 27.5228 28.0228 32 22.5 32V36C30.232 36 36.5 29.732 36.5 22H32.5ZM22.5 12C28.0228 12 32.5 16.4772 32.5 22H36.5C36.5 14.268 30.232 8 22.5 8V12ZM22.5 8C14.768 8 8.5 14.268 8.5 22H12.5C12.5 16.4772 16.9772 12 22.5 12V8Z" fill="#30374A"/>
<g clip-path="url(#clip10_45_110)">
<rect x="438.5" y="10" width="24" height="24" rx="12" fill="#242938"/>
<path d="M454.5 26.5V25.5C454.5 24.9696 454.289 24.4609 453.914 24.0858C453.539 23.7107 453.03 23.5 452.5 23.5H448.5C447.97 23.5 447.461 23.7107 447.086 24.0858C446.711 24.4609 446.5 24.9696 446.5 25.5V26.5" stroke="#C1C7D7" stroke-width="1.5" stroke-linecap="round" stroke-linejoin="round"/>
<path d="M450.5 21.5C451.605 21.5 452.5 20.6046 452.5 19.5C452.5 18.3954 451.605 17.5 450.5 17.5C449.395 17.5 448.5 18.3954 448.5 19.5C448.5 20.6046 449.395 21.5 450.5 21.5Z" stroke="#C1C7D7" stroke-width="1.5" stroke-linecap="round" stroke-linejoin="round"/>
</g>
<path d="M450.5 32C444.977 32 440.5 27.5228 440.5 22H436.5C436.5 29.732 442.768 36 450.5 36V32ZM460.5 22C460.5 27.5228 456.023 32 450.5 32V36C458.232 36 464.5 29.732 464.5 22H460.5ZM450.5 12C456.023 12 460.5 16.4772 460.5 22H464.5C464.5 14.268 458.232 8 450.5 8V12ZM450.5 8C442.768 8 436.5 14.268 436.5 22H440.5C440.5 16.4772 444.977 12 450.5 12V8Z" fill="#30374A"/>
<rect x="0.5" y="1" width="478" height="61" fill="url(#paint0_linear_45_110)"/>
<defs>
<filter id="filter0_d_45_110" x="122.5" y="100" width="228" height="228" filterUnits="userSpaceOnUse" color-interpolation-filters="sRGB">
<feFlood flood-opacity="0" result="BackgroundImageFix"/>
<feColorMatrix in="SourceAlpha" type="matrix" values="0 0 0 0 0 0 0 0 0 0 0 0 0 0 0 0 0 0 127 0" result="hardAlpha"/>
<feOffset dy="-16"/>
<feGaussianBlur stdDeviation="41"/>
<feComposite in2="hardAlpha" operator="out"/>
<feColorMatrix type="matrix" values="0 0 0 0 0.556863 0 0 0 0 0.537255 0 0 0 0 0.803922 0 0 0 0.4 0"/>
<feBlend mode="normal" in2="BackgroundImageFix" result="effect1_dropShadow_45_110"/>
<feBlend mode="normal" in="SourceGraphic" in2="effect1_dropShadow_45_110" result="shape"/>
</filter>
<linearGradient id="paint0_linear_45_110" x1="239.5" y1="1" x2="239.5" y2="62" gradientUnits="userSpaceOnUse">
<stop stop-color="#242938"/>
<stop offset="1" stop-color="#242938" stop-opacity="0"/>
</linearGradient>
<clipPath id="clip0_45_110">
<path d="M204.5 230C204.5 212.327 218.827 198 236.5 198V198C254.173 198 268.5 212.327 268.5 230V230C268.5 247.673 254.173 262 236.5 262V262C218.827 262 204.5 247.673 204.5 230V230Z" fill="white"/>
</clipPath>
<clipPath id="clip1_45_110">
<path d="M204.5 230C204.5 212.327 218.827 198 236.5 198V198C254.173 198 268.5 212.327 268.5 230V230C268.5 247.673 254.173 262 236.5 262V262C218.827 262 204.5 247.673 204.5 230V230Z" fill="white"/>
</clipPath>
<clipPath id="clip2_45_110">
<path d="M212.5 56C212.5 42.7452 223.245 32 236.5 32V32C249.755 32 260.5 42.7452 260.5 56V56C260.5 69.2548 249.755 80 236.5 80V80C223.245 80 212.5 69.2548 212.5 56V56Z" fill="white"/>
</clipPath>
<clipPath id="clip3_45_110">
<path d="M303.5 147C303.5 133.745 314.245 123 327.5 123V123C340.755 123 351.5 133.745 351.5 147V147C351.5 160.255 340.755 171 327.5 171V171C314.245 171 303.5 160.255 303.5 147V147Z" fill="white"/>
</clipPath>
<clipPath id="clip4_45_110">
<path d="M121.5 147C121.5 133.745 132.245 123 145.5 123V123C158.755 123 169.5 133.745 169.5 147V147C169.5 160.255 158.755 171 145.5 171V171C132.245 171 121.5 160.255 121.5 147V147Z" fill="white"/>
</clipPath>
<clipPath id="clip5_45_110">
<path d="M411.5 123C411.5 114.163 418.663 107 427.5 107V107C436.337 107 443.5 114.163 443.5 123V123C443.5 131.837 436.337 139 427.5 139V139C418.663 139 411.5 131.837 411.5 123V123Z" fill="white"/>
</clipPath>
<clipPath id="clip6_45_110">
<path d="M30.5 123C30.5 114.163 37.6634 107 46.5 107V107C55.3366 107 62.5 114.163 62.5 123V123C62.5 131.837 55.3366 139 46.5 139V139C37.6634 139 30.5 131.837 30.5 123V123Z" fill="white"/>
</clipPath>
<clipPath id="clip7_45_110">
<path d="M332.5 26C332.5 17.1634 339.663 10 348.5 10V10C357.337 10 364.5 17.1634 364.5 26V26C364.5 34.8366 357.337 42 348.5 42V42C339.663 42 332.5 34.8366 332.5 26V26Z" fill="white"/>
</clipPath>
<clipPath id="clip8_45_110">
<path d="M104.5 26C104.5 17.1634 111.663 10 120.5 10V10C129.337 10 136.5 17.1634 136.5 26V26C136.5 34.8366 129.337 42 120.5 42V42C111.663 42 104.5 34.8366 104.5 26V26Z" fill="white"/>
</clipPath>
<clipPath id="clip9_45_110">
<path d="M10.5 22C10.5 15.3726 15.8726 10 22.5 10V10C29.1274 10 34.5 15.3726 34.5 22V22C34.5 28.6274 29.1274 34 22.5 34V34C15.8726 34 10.5 28.6274 10.5 22V22Z" fill="white"/>
</clipPath>
<clipPath id="clip10_45_110">
<path d="M438.5 22C438.5 15.3726 443.873 10 450.5 10V10C457.127 10 462.5 15.3726 462.5 22V22C462.5 28.6274 457.127 34 450.5 34V34C443.873 34 438.5 28.6274 438.5 22V22Z" fill="white"/>
</clipPath>
</defs>
</svg>
