<?xml version="1.0" encoding="utf-8"?>
<!-- Generator: Adobe Illustrator 19.0.0, SVG Export Plug-In . SVG Version: 6.00 Build 0)  -->
<svg version="1.1" id="Layer_4" xmlns="http://www.w3.org/2000/svg" xmlns:xlink="http://www.w3.org/1999/xlink" x="0px" y="0px"
	 viewBox="0 0 1600 1200" style="enable-background:new 0 0 1600 1200;" xml:space="preserve">
<style type="text/css">
	.st0{stroke:#000000;stroke-miterlimit:10;}
</style>
<path d="M1079.6,581.3c4.9-0.5,11.8-1.9,19.4-5.3c5.7-2.6,10.2-5.6,13.5-8.2c0.2,5.5,1.4,12.5,6.5,15.9c2.8,1.9,4.2,1,6.5,2.9
	c4.9,4.3,1.4,11.4,4.7,20c1.1,2.9,3.4,7,8.8,11.2c5.5-1.6,8.2,0.1,8.8,0.6c5.1,3.6,3.4,13.9-0.5,19.8c-1,1.6-4.6,7-10,6.8
	c-2.4-0.1-4.3-1.2-5.4-2c-0.5,1-6.4,11.8-1.2,21.2c4.9,8.8,15.8,9.9,20.2,10.3c12.3,1.2,21.8-4.8,32.7-11.6
	c8.5-5.3,12.7-8,14.7-12.6c3.8-8.7-0.4-18.1-7.4-33.2c-4.7-10.2-9.8-18.2-13.7-23.7c1.1-22.9-7.9-33.2-11.1-36.3
	c-7.5-7.5-21.5-9.3-49-12.6c-17.7-2.1-26.7-3.2-37.1-1.4c-10.8,1.8-28.5,4.8-35.9,18.2c-4.2,7.5-3.6,15.8-2.9,24.1
	c0.8,10.9,4,19.4,6.5,24.7c-1.6,2.3-10.9,16.3-5.9,31.8c2.6,7.9,10.4,20.5,20,19.4c6.4-0.8,10.5-7.3,11.8-9.4
	c-2.4-7.3-5.4-20.1-4.1-35.9S1076.1,588.1,1079.6,581.3z"/>
<g>
	<g>
		<g>
			<path class="st0" d="M1068,631.6c-0.9,0-1.6-11,0.9-24.2c2.5-13.3,7.1-23.3,7.9-22.9c0.9,0.3-2.3,10.6-4.7,23.5
				C1069.7,620.9,1069,631.6,1068,631.6z"/>
		</g>
	</g>
</g>
<g>
	<g>
		<g>
			<path class="st0" d="M1080.9,703.9c-0.3,0.3-1.5-0.4-2.7-2.2c-0.6-0.9-1.2-2-1.6-3.4c-0.4-1.4-0.7-2.9-0.7-4.6
				c0-1.6,0.3-3.2,0.7-4.6c0.4-1.4,1-2.5,1.6-3.4c1.2-1.8,2.4-2.5,2.7-2.2c0.4,0.3-0.1,1.4-0.6,3.2c-0.3,0.9-0.5,1.9-0.8,3.1
				c-0.2,1.2-0.3,2.5-0.3,3.8c0,1.4,0.2,2.7,0.4,3.8c0.2,1.2,0.5,2.2,0.8,3.1C1080.8,702.5,1081.3,703.6,1080.9,703.9z"/>
		</g>
	</g>
</g>
<g>
	<g>
		<g>
			<path class="st0" d="M1078.5,684.8c0.1,0.9-2.6,1.8-6.1,1.8c-3.4-0.1-6.1-1.2-6-2c0.1-0.9,2.8-1.3,6.1-1.2
				C1075.7,683.3,1078.4,683.8,1078.5,684.8z"/>
		</g>
	</g>
</g>
<g>
	<g>
		<g>
			<path class="st0" d="M1155.9,706.7c-0.7,0.6-6.6-5.5-14.4-12.2c-1-0.8-1.9-1.6-2.8-2.2c-0.9-0.6-1.8-0.9-2.8-1.2
				c-1.9-0.4-3.8-0.3-5.2,0.1c-3,0.8-4.5,2.4-4.9,2.1c-0.2-0.1,0-0.7,0.6-1.6c0.6-0.8,1.7-1.9,3.5-2.7c1.7-0.8,4-1.3,6.6-0.9
				c1.3,0.2,2.6,0.7,3.8,1.4c1.2,0.7,2.3,1.6,3.3,2.4C1151.7,699,1156.6,706.1,1155.9,706.7z"/>
		</g>
	</g>
</g>
<g>
	<g>
		<g>
			<path class="st0" d="M1158.4,976.7c-0.6,0.6-4.9-3-8.2-8.8c-3.3-5.9-4.2-11.3-3.4-11.6c0.9-0.3,3.1,4.5,6.2,10
				C1156.2,971.8,1159.1,976.1,1158.4,976.7z"/>
		</g>
	</g>
</g>
<g>
	<g>
		<g>
			<path class="st0" d="M648.8,605.4c0.2,0.4-4.1,2.8-11.5,5.5c-0.9,0.3-1.9,0.7-2.9,1c-1,0.3-2.1,0.6-3.2,1
				c-2.2,0.7-4.6,1.3-7.2,1.9c-5.1,1.2-10.7,2.2-16.7,3c-11.9,1.5-22.8,2-30.6,2.1c-7.8,0.1-12.7-0.2-12.7-0.6c0-0.5,4.8-1,12.6-1.7
				c7.8-0.7,18.5-1.5,30.3-3c5.9-0.8,11.4-1.7,16.5-2.7c2.5-0.5,4.9-1,7.1-1.6c1.1-0.3,2.2-0.5,3.2-0.8c1-0.3,2-0.5,2.9-0.8
				C644,606.6,648.6,604.9,648.8,605.4z"/>
		</g>
	</g>
</g>
<g>
	<g>
		<g>
			<path class="st0" d="M643,604.9c0.2,0.4-1.7,1.7-4.9,3.2c-3.2,1.6-7.9,3.3-13.3,4.6c-5.4,1.3-10.3,1.8-13.9,1.9
				c-0.9,0-1.6,0-2.3,0c-0.3,0-0.4,0-0.6,0.1c-0.2,0.1-0.3,0.2-0.3,0.4c0.1,0.3,0.5,0.2,0.6,0.1c0.2-0.2,0-0.4,0-0.5
				c0-0.1,0-0.1,0-0.1c0,0,0,0,0,0.1c0,0,0,0-0.1,0l-0.1,0c0,0-0.1,0-0.1,0l-0.1-0.1l-0.1,0c-0.1,0-0.1,0-0.2,0
				c-0.1,0-0.2,0-0.4,0.1c-0.2,0-0.5-0.1-0.5-0.4c0-0.3,0.1-0.7,0.4-1c0.3-0.3,0.8-0.5,1.2-0.7c0.2-0.1,0.4-0.1,0.6-0.2
				c0.2,0,0.4-0.1,0.6-0.1c0.4-0.1,0.8-0.2,1.2-0.2c3.5-0.7,8.2-1.5,13.4-2.8C634.4,607.1,642.6,604,643,604.9z"/>
		</g>
	</g>
</g>
<g>
	<g>
		<g>
			<path class="st0" d="M643.7,600c0.3,0.3-0.9,1.7-3.2,3.5c-2.3,1.7-5.8,3.7-10,5.2c-4.2,1.5-8.2,2.2-11.1,2.3
				c-2.9,0.1-4.7-0.2-4.7-0.6c0-0.9,6.8-1.9,14.7-4.7C637.3,602.9,643.1,599.3,643.7,600z"/>
		</g>
	</g>
</g>
<g>
	<g>
		<g>
			
				<ellipse transform="matrix(0.2991 0.9542 -0.9542 0.2991 1027.0313 -191.5236)" class="st0" cx="643.9" cy="603.3" rx="2.9" ry="1.6"/>
		</g>
	</g>
</g>
<g>
	<g>
		<g>
			<path class="st0" d="M643.2,607.9c-0.5,0-0.9-0.2-1.2-0.5c-0.4-0.3-0.6-0.8-0.9-1.3c-0.2-0.5-0.3-1-0.3-1.5
				c0-0.5,0.1-0.9,0.5-1.3c0.3-0.3,0.8-0.4,1.4-0.1c0.5,0.2,1.1,0.8,1.4,1.6c0.3,0.8,0.3,1.6,0.1,2.1
				C644,607.5,643.6,607.9,643.2,607.9z"/>
		</g>
	</g>
</g>
<path d="M1136,1016.3c3.9,2.9,8.6,6.9,13.3,12.3c5.3,6.1,8.8,12,11.2,16.7c-21,22.5-31.4,31.6-36.8,35.1c-0.8,0.5-3.3,2-4.5,4.9
	c-2.8,6.2,1.9,13.8,3.4,16.3c10.3,17.4,21.9,53.4,17.1,56.8c-3.5,2.5-17.9-11.4-28.6-21.8c-14.2-13.8-12.9-16-23.1-23.5
	c-6.7-4.9-11-6.7-12.6-11.9c-1.7-5.5,0.9-11.1,6.1-19.7c11.3-18.8,20.8-29.3,20.8-29.3C1111.7,1041.5,1123,1029.4,1136,1016.3z"/>
<path d="M1009.3,961.5c-2.4,5.9-4.9,13.3-6.5,22.1c-2.1,11.6-2,21.7-1.4,29.3c25.8-1.2,52.3-1.5,79.6-0.7c3.4,0.1,6.8,0.2,10.2,0.3
	c4.2,4.6,9.6,9.9,16.3,15c9.1,6.9,11,9.3,14.6,9.5c6.5,0.3,13.9-4.4,15-10.2c0.6-3.2-1.4-6.6-5.4-13.3c-4-6.6-7.7-11.2-8.5-12.3
	c-9.4-11.6-14.1-17.4-20.4-18.7c-2.5-0.5-7.6-1-14.6,2.7C1062,977.4,1035.7,969.4,1009.3,961.5z"/>
<path d="M390.4,1047.3c-2.1-3.1,10-13.6,35.3-45.4c9.4-11.7,16.8-21.7,21.9-28.6c8.7-0.3,17.4-0.6,26.1-0.8
	c1.6,5.5,3.3,13.7,2.5,23.5c-0.4,5.2-1.4,9.8-2.5,13.5C409.1,1045.5,392.5,1050.5,390.4,1047.3z"/>
<path d="M670.4,975c0.6,12.9,1.1,25.8,1.7,38.7c7.7,2,19.4,4.8,33.6,7.6c29.2,5.8,55.5,10.9,58,5c1.1-2.6-1.8-8.3-22.7-22.7
	c-14.9-12.1-29.7-24.1-44.6-36.2C687.8,969.9,679.1,972.5,670.4,975z"/>
<path d="M512.2,254.8c3.9-0.9,9.2-2.4,15.5-4.6c9.2-3.3,17.9-6.4,27.1-13.2c3.3-2.4,7.7-6.1,12.3-11.5c2,4.3,5,9.4,9.3,14.6
	c8.5,10.2,18.2,15.8,24.4,18.7c0,4.7-0.1,9.5-0.1,14.2c0.3-0.2,5.1-3.8,9.6-1.9c3.2,1.4,4.2,4.7,5.3,8.2c0.8,2.7,2.3,7.3,0,12
	c-0.4,0.9-2.2,4.5-6,6.1c-4.3,1.8-7.8-0.5-10.2,1.8c-1.3,1.2-1.5,3.1-1.4,4.6c-2.5,6.4-4.9,12.8-7.4,19.3c3.6-0.2,10.2-1,17.2-4.8
	c2.5-1.4,9.6-5.3,14.4-13.4c5.3-9,5-17.9,4.8-25c-0.3-12.1-3.6-13.2-3.4-25c0.2-10.2,2.6-10.6,1.9-17.8c-1.4-13.9-11.9-23.1-13-24
	c-8.6-7.3-14-4.5-30.7-9.6c-26.5-8-28.2-19.6-45.6-19.2c-12.2,0.3-22.5,5.4-26.9,7.7c-8.4,4.4-13.9,9.5-20.2,15.4
	c-7.3,6.8-10.9,10.3-12.5,14.4c-4.1,11,0,26.9,8.9,32c2.8,1.6,5.8,2,7.4,5.1c1.1,2.2,1,4.6-0.5,10.9c-2.5,10.5-3.8,9.8-3.8,13.4
	c-0.2,7.6,4,16.7,11,20.6c3.3,1.9,4.9,1.2,6.7,3.4c3.6,4.2-0.2,9.3,1.9,14.9c3.3,8.8,18.7,12.3,20.6,9.6c1.2-1.7-3.5-5.1-7.5-13.9
	c-3.4-7.4-4.3-14.4-4.5-19.2c-1.2,0.2-8,1.2-13.4-3.4c-6-5-6.7-13.8-3.8-20.2c3.5-7.6,11.3-9.8,12.5-10.1
	C512.3,261.5,512.2,258.1,512.2,254.8z"/>
<path d="M541.3,342.9c-1.2,1.2,0.2,3.7,1.4,9.8c0.7,3.6,0.9,6.6,1.1,8.8c3.2,0,8-0.4,13.3-2.5c9.1-3.6,14.3-10,16.5-13
	c-0.1-1.5-0.2-3-0.4-4.6c-9.3,4.6-16.2,4.6-21,3.5C547.1,343.8,542.9,341.2,541.3,342.9z"/>
<g>
	<g>
		<g>
			
				<ellipse transform="matrix(0.7579 -0.6524 0.6524 0.7579 -50.1371 396.6864)" class="st0" cx="509.4" cy="265.9" rx="2.2" ry="1.6"/>
		</g>
	</g>
</g>
<g>
	<g>
		<g>
			<path class="st0" d="M604.4,301.4c-0.7,0.5-2,0-3-1.1c-1-1.1-1.3-2.4-0.7-3.1c0.6-0.7,2.1-0.3,3.2,0.9
				C604.9,299.4,605.1,300.9,604.4,301.4z"/>
		</g>
	</g>
</g>
<g>
	<g>
		<g>
			
				<ellipse transform="matrix(-0.1484 0.9889 -0.9889 -0.1484 986.1049 -246.8444)" class="st0" cx="599.3" cy="301.2" rx="2.3" ry="1.6"/>
		</g>
	</g>
</g>
<g>
	<g>
		<g>
			<path class="st0" d="M591.6,254.4c-0.1,0.4-2.8,0.2-6.6-1.8c-3.8-1.9-8.5-5.7-12.2-11c-3.7-5.3-5.7-10.8-6.8-14.8
				c-0.3-1-0.5-1.9-0.7-2.7c-0.2-0.8-0.3-1.6-0.2-2.2c0-0.7,0.3-1.2,0.5-1.5c0.2-0.3,0.4-0.4,0.5-0.3c0.2,0.1,0,0.7,0.3,1.7
				c0.1,0.5,0.4,1.1,0.7,1.8c0.3,0.7,0.7,1.6,1.1,2.5c1.6,3.7,3.9,8.8,7.3,13.7c3.4,5,7.5,8.7,10.7,10.9
				C589.4,252.9,591.7,253.9,591.6,254.4z"/>
		</g>
	</g>
</g>
<g>
	<g>
		<g>
			<path class="st0" d="M268.4,1027c-0.1,0-0.3-1-0.6-2.9c-0.3-1.9-0.7-4.8-1.2-8.4c-0.2-1.8-0.5-3.9-0.8-6.1
				c-0.3-2.2-0.8-4.6-1.2-7.2c-0.9-5.2-1.7-11.1-3.1-17.5c-0.6-3.2-1.3-6.6-2-10.1c-0.7-3.5-1.6-7.2-2.5-10.9
				c-1.7-7.6-3.8-15.6-5.9-24c-4.5-16.9-9.8-35.3-15.6-54.6c-5.8-19.3-11.3-37.7-16-54.6c-2.3-8.5-4.5-16.5-6.3-24
				c-0.9-3.8-1.9-7.4-2.7-10.9c-0.8-3.5-1.5-6.9-2.2-10.2c-1.5-6.5-2.5-12.4-3.4-17.5c-0.5-2.6-0.9-5-1.3-7.2
				c-0.3-2.2-0.6-4.3-0.8-6.1c-0.5-3.7-0.8-6.5-1-8.5c-0.2-1.9-0.3-3-0.1-3c0.1,0,0.4,1,0.8,2.9c0.4,1.9,1,4.7,1.7,8.3
				c0.3,1.8,0.7,3.8,1.1,6c0.5,2.2,1,4.6,1.5,7.1c1.1,5.1,2.3,11,3.9,17.4c0.8,3.2,1.6,6.6,2.4,10.1c0.9,3.5,1.9,7.1,2.8,10.9
				c1.9,7.5,4.2,15.5,6.6,23.9c4.8,16.8,10.4,35.2,16.2,54.5c5.8,19.3,11,37.8,15.4,54.8c2.1,8.5,4.1,16.6,5.7,24.2
				c0.8,3.8,1.6,7.5,2.3,11c0.6,3.6,1.2,7,1.8,10.2c1.3,6.5,1.9,12.5,2.7,17.7c0.3,2.6,0.7,5,0.9,7.3c0.2,2.2,0.4,4.3,0.5,6.1
				c0.3,3.7,0.5,6.6,0.6,8.5C268.5,1026,268.5,1027,268.4,1027z"/>
		</g>
	</g>
</g>
<g>
	<g>
		<g>
			<path class="st0" d="M260.2,975.1c-0.2,0-0.9-1.9-1.8-5.4c-0.2-0.9-0.5-1.9-0.8-2.9c-0.3-1.1-0.7-2.2-1-3.5
				c-0.8-2.5-1.5-5.3-2.6-8.4c-0.5-1.5-1.1-3.2-1.6-4.9c-0.6-1.7-1.3-3.4-1.9-5.2c-1.3-3.6-2.9-7.4-4.6-11.3
				c-3.5-7.9-7.6-16.4-12.3-25.2c-4.8-8.7-9.7-16.9-14.2-24.2c-2.3-3.6-4.5-7.1-6.6-10.3c-2.1-3.2-4.1-6.2-5.9-8.9
				c-7.3-10.9-11.8-17.6-11.4-17.9c0.2-0.1,1.6,1.4,3.9,4.2c1.2,1.4,2.6,3.2,4.1,5.3c1.6,2.1,3.4,4.4,5.3,7.1
				c1.9,2.6,4.1,5.6,6.3,8.7c2.2,3.2,4.5,6.6,6.9,10.2c4.7,7.3,9.8,15.4,14.6,24.3c4.8,8.8,8.9,17.5,12.2,25.6
				c1.6,4.1,3.1,7.9,4.3,11.6c0.6,1.8,1.3,3.6,1.8,5.3c0.5,1.7,1,3.4,1.4,5c1,3.2,1.6,6.1,2.2,8.6c0.3,1.3,0.6,2.5,0.8,3.6
				c0.2,1.1,0.4,2.1,0.5,3C260.3,973.1,260.5,975.1,260.2,975.1z"/>
		</g>
	</g>
</g>
<g>
	<g>
		<g>
			<path class="st0" d="M231.8,797.7c0.5,0,0.5,6,0.8,15.6c0.1,4.8,0.3,10.5,0.6,16.9c0.3,6.4,0.8,13.3,1.4,20.6
				c0.7,7.3,1.4,14.3,2.2,20.6c0.8,6.3,1.6,12,2.4,16.7c1.5,9.5,2.5,15.4,2,15.5c-0.4,0.1-2.2-5.6-4.3-15.1
				c-1-4.7-2.1-10.4-3.1-16.7c-1-6.3-1.9-13.3-2.5-20.7c-0.6-7.4-1-14.4-1.2-20.8c-0.1-6.4-0.1-12.2,0.1-17
				C230.6,803.6,231.3,797.7,231.8,797.7z"/>
		</g>
	</g>
</g>
<g>
	<g>
		<g>
			<path class="st0" d="M1339.6,969.2c-0.1,0-0.2-0.8-0.3-2.4c-0.1-1.6-0.2-4-0.2-7c0-6.1,0.4-14.9,1.9-25.7
				c0.7-5.4,1.9-11.3,3.4-17.5c1.5-6.2,3.4-12.8,5.8-19.6c4.7-13.6,11.7-28.1,20.4-42.2c4.3-7.1,8.6-13.9,12.3-20.7
				c3.8-6.8,7-13.5,9.6-20.1c5.2-13.2,8.5-25.7,10.9-36.2c2.4-10.5,4-19.2,5.2-25.1c1.2-5.9,1.9-9.2,2.2-9.2c0.2,0-0.1,3.4-0.9,9.4
				c-0.8,6-2.1,14.7-4.2,25.4c-2.1,10.7-5.1,23.3-10.3,36.8c-2.6,6.7-5.8,13.7-9.6,20.5c-3.8,6.9-8.1,13.8-12.3,20.8
				c-8.7,14-15.6,28.1-20.4,41.5c-2.4,6.7-4.4,13.2-6,19.3c-1.5,6.1-2.8,11.9-3.7,17.2c-1.9,10.6-2.6,19.3-3,25.4
				c-0.2,3-0.3,5.4-0.4,7C1339.8,968.4,1339.7,969.2,1339.6,969.2z"/>
		</g>
	</g>
</g>
<g>
	<g>
		<g>
			<path class="st0" d="M1389.5,790.6c0.4,0.3-3,4.3-6.7,11.5c-1.9,3.6-3.9,8.1-5.6,13.2c-1.8,5.1-3.4,10.9-4.9,17
				c-1.4,6.1-2.7,12-3.9,17.4c-1.2,5.4-2.4,10.2-3.6,14.2c-2.4,8-4.6,12.7-5,12.6c-0.5-0.2,1-5.1,2.8-13.2c0.9-4,1.8-8.9,2.9-14.3
				c1-5.4,2.2-11.3,3.6-17.5c1.5-6.2,3.2-12.1,5.2-17.3c2-5.2,4.2-9.7,6.5-13.3C1385.2,793.8,1389.3,790.3,1389.5,790.6z"/>
		</g>
	</g>
</g>
<g>
	<g>
		<g>
			<path class="st0" d="M1299.6,828.4c-0.2-0.1,0.4-2.7,1.7-7.3c1.3-4.6,3.3-11.3,5.8-19.6c5-16.5,11.9-39.2,18-64.7
				c3-12.8,5.5-25,7.4-36.2c0.8-5.6,1.8-10.9,2.3-15.9c0.3-2.5,0.7-4.9,0.9-7.3c0.2-2.3,0.4-4.6,0.6-6.7c0.5-4.3,0.6-8.2,0.9-11.6
				c0.1-1.7,0.2-3.3,0.3-4.7c0.1-1.5,0.1-2.8,0.2-4c0.2-4.8,0.4-7.5,0.7-7.5c0.2,0,0.4,2.7,0.6,7.5c0,1.2,0.1,2.6,0.1,4
				c0,1.5,0,3.1-0.1,4.8c-0.1,3.4-0.1,7.3-0.4,11.7c-0.1,2.2-0.3,4.4-0.4,6.8c-0.2,2.4-0.5,4.8-0.7,7.3c-0.4,5.1-1.3,10.4-2,16.1
				c-1.8,11.3-4.1,23.6-7.2,36.5c-6.2,25.6-13.5,48.4-19,64.7c-2.8,8.2-5.1,14.7-6.8,19.3C1300.9,826,1299.9,828.5,1299.6,828.4z"/>
		</g>
	</g>
</g>
<g>
	<g>
		<g>
			<path class="st0" d="M1291.6,962.4c-0.4,0.1-2-4.5-3.8-12.2c-0.9-3.9-1.8-8.5-2.5-13.7c-0.7-5.2-1.4-10.9-1.7-17
				c-0.4-6-0.4-11.8-0.3-17c0.1-5.2,0.4-9.9,0.9-13.9c0.8-7.9,1.9-12.7,2.3-12.6c1,0.1-1.1,19.5,0.4,43.3
				C1288.2,943.2,1292.6,962.2,1291.6,962.4z"/>
		</g>
	</g>
</g>
<g>
	<g>
		<g>
			
				<ellipse transform="matrix(0.2592 0.9658 -0.9658 0.2592 1782.9728 -579.6282)" class="st0" cx="1269.3" cy="872.5" rx="38.1" ry="1.6"/>
		</g>
	</g>
</g>
<g>
	<g>
		<g>
			<path class="st0" d="M1141,839.4c0,0.2-1.8,0.2-5.1,0.1c-3.2-0.1-7.9-0.3-13.7-0.1c-5.8,0.1-12.7,0.5-20.2,1.5
				c-1.9,0.3-3.8,0.6-5.8,0.9c-1.9,0.3-4.1,0.8-6.1,1c-4.2,0.6-8.6,0.9-13.1,1c-4.5,0-8.9-0.2-13.2-0.9c-1.1-0.2-2.1-0.3-3.1-0.6
				c-1-0.2-2.1-0.5-3.1-0.7c-1-0.3-2-0.6-3-0.9c-1-0.3-2-0.8-3-1.4c-0.9-0.6-1.8-1.4-2.5-2.4c-0.7-1-1-2.2-1.1-3.2
				c-0.1-1.1-0.1-2-0.1-2.9c0-0.9,0-1.8,0-2.6c0.1-3.4,0.2-6.7,0.5-9.6c0.9-11.7,2.5-18.8,2.9-18.7c0.5,0.1-0.3,7.2-0.6,18.8
				c-0.1,2.9-0.1,6.1-0.1,9.5c0,0.9,0,1.7,0,2.6c0,0.9,0,1.8,0.1,2.5c0.1,0.8,0.3,1.4,0.7,1.9c0.4,0.6,1,1.1,1.6,1.5
				c0.7,0.4,1.4,0.7,2.4,1c0.9,0.3,1.8,0.5,2.8,0.8c0.9,0.2,1.9,0.4,2.9,0.7c1,0.2,2,0.3,3,0.5c4,0.6,8.3,0.8,12.7,0.8
				c4.4,0,8.6-0.4,12.7-0.9c2.1-0.2,3.9-0.6,6-0.9c2-0.3,4-0.6,5.9-0.8c7.7-0.9,14.8-1,20.6-0.8c5.9,0.2,10.6,0.7,13.8,1.2
				C1139.3,838.8,1141,839.2,1141,839.4z"/>
		</g>
	</g>
</g>
<g>
	<g>
		<g>
			<path class="st0" d="M1055.1,870.5c-0.9-0.2,0-6.5,0.3-14.2c0.2-3.9,0.2-7.4,0.3-9.9c0-0.3,0-0.6,0-0.9c0-0.2,0-0.5,0-0.7
				c0-0.3-0.1-0.7-0.3-0.7c-0.2,0.1,0,0.3,0.1,0.4c0.2,0.1,0.4-0.1,0.4-0.1c0.1,0,0.1,0,0.1,0c0,0,0,0-0.1-0.1
				c0.1-0.2,0.1-0.4,0.1-0.6c0-0.2,0-0.4,0.2-0.5c0.5,0,1,0.5,1.3,1.2c0.1,0.2,0.1,0.3,0.1,0.5c0,0.1,0.1,0.3,0.1,0.4
				c0.1,0.3,0.1,0.6,0.2,0.9c0.5,2.6,0.9,6.2,0.7,10.3C1058.2,864.5,1055.9,870.7,1055.1,870.5z"/>
		</g>
	</g>
</g>
<g>
	<g>
		<g>
			<path class="st0" d="M1057,867.9c0,0-0.2-0.1-0.4-0.2c-0.1-0.1-0.2-0.2-0.4-0.4c-0.2-0.1-0.4-0.3-0.6-0.4
				c-0.2-0.2-0.5-0.3-0.8-0.4c-0.3-0.1-0.7-0.2-1-0.4c-0.8-0.2-1.7-0.2-2.7-0.2c-2.1,0.2-4.6,1-7.3,2.4c-1.3,0.7-2.7,1.6-4.3,2.5
				c-1.5,0.9-3.1,1.9-4.8,2.9c-13.5,8-32.2,19-53.1,30.8c-10.4,5.9-20.3,11.6-29.4,16.7c-8.9,5.2-16.6,10.5-22.2,15.8
				c-2.8,2.7-5.1,5.3-6.9,7.8c-0.9,1.2-1.7,2.4-2.3,3.6c-0.6,1.2-1.2,2.2-1.7,3.2c-0.4,1-0.8,1.9-1.2,2.6c-0.3,0.8-0.5,1.4-0.8,2
				c-0.4,1.1-0.7,1.6-0.8,1.6s0-0.6,0.2-1.8c0.1-0.6,0.2-1.3,0.5-2.1c0.3-0.8,0.6-1.8,0.9-2.8c0.4-1,1-2.2,1.5-3.4
				c0.6-1.2,1.4-2.5,2.2-3.8c1.7-2.7,4-5.5,6.8-8.4c5.6-5.7,13.3-11.4,22.2-16.7c9-5.3,18.9-11,29.3-16.9
				c20.8-11.9,39.7-22.5,53.5-30c1.7-0.9,3.4-1.8,4.9-2.7c1.6-0.8,3-1.7,4.5-2.3c2.9-1.3,5.7-2,8-2c1.2,0,2.2,0.2,3.1,0.5
				c0.4,0.2,0.8,0.4,1.1,0.6c0.3,0.2,0.6,0.4,0.8,0.6c0.2,0.2,0.4,0.4,0.6,0.6c0.1,0.2,0.2,0.4,0.3,0.5
				C1057,867.7,1057.1,867.8,1057,867.9z"/>
		</g>
	</g>
</g>
<g>
	<g>
		<g>
			<path class="st0" d="M1119.4,874.6c0.1,0.4-3.5,1.7-9.5,2.8c-6,1.1-14.6,1.9-23.9,1.2c-4.7-0.3-9.1-0.9-13.1-1.7
				c-4-0.8-7.6-1.7-10.5-2.9c-2.9-1.2-5.1-2.7-6.3-3.9c-1.3-1.2-1.7-2.1-1.6-2.3c0.4-0.3,3,2.4,8.7,4c2.8,0.9,6.3,1.5,10.2,2.1
				c3.9,0.6,8.2,1.1,12.8,1.4c9.1,0.6,17.4,0.2,23.4-0.3C1115.6,874.6,1119.3,874.1,1119.4,874.6z"/>
		</g>
	</g>
</g>
<g>
	<g>
		<g>
			<path class="st0" d="M1248.6,965.2c-0.5,0.2-2.4-7-7.3-17.6c-1.3-2.6-2.7-5.5-4.5-8.5c-1.7-3-3.7-6-6.1-9c-2.4-3-5.1-6-8.1-8.8
				c-3.1-2.8-6.6-5.4-10.2-8c-3.6-2.6-7.3-5.1-10.7-7.7c-3.4-2.6-6.7-5-9.8-7.5c-6.1-5-11-10.3-14.8-14.9c-1.9-2.3-3.5-4.5-4.8-6.5
				c-0.2-0.2-0.3-0.5-0.5-0.7c-0.2-0.3-0.3-0.6-0.4-0.8c-0.3-0.5-0.5-0.9-0.8-1.3c-0.5-0.8-1.1-1.4-1.7-1.9c-1.2-1-2.4-1.3-3.2-1.6
				c-0.8-0.2-1.3-0.3-1.3-0.4c0-0.1,0.5-0.2,1.4-0.2c0.9,0,2.3,0.2,3.8,1.2c0.8,0.5,1.5,1.1,2.2,2c0.3,0.4,0.7,0.9,1,1.3
				c0.2,0.2,0.3,0.5,0.4,0.6c0.2,0.2,0.4,0.4,0.5,0.7c1.4,1.8,3.1,3.9,5.1,6.1c3.9,4.4,8.8,9.3,14.9,14.1c3,2.4,6.4,4.8,9.8,7.3
				c3.5,2.5,7.1,5,10.8,7.6c3.7,2.7,7.3,5.3,10.5,8.3c3.2,3,6,6.2,8.4,9.4c2.4,3.2,4.4,6.4,6.1,9.5c1.7,3.1,3,6.1,4.2,8.9
				c2.3,5.5,3.6,10.2,4.4,13.4C1248.5,963.4,1248.8,965.2,1248.6,965.2z"/>
		</g>
	</g>
</g>
<g>
	<g>
		<g>
			<path class="st0" d="M1001.7,1022.6c0,0.2-1.7,0.2-4.7,0c-3-0.2-7.3-0.6-12.7-1.8c-2.7-0.6-5.5-1.4-8.5-2.6
				c-3-1.2-6.1-2.9-9.1-4.8c-3-1.9-6.1-4-9.3-5.9c-3.2-1.9-6.7-3.5-10.5-5c-3.8-1.5-7.6-3-11-5c-3.5-2-6.5-4.6-8.8-7.5
				c-2.4-2.8-4.1-5.9-5.5-8.8c-1.4-2.9-2.4-5.7-3.1-8.4c-1.5-5.2-2.3-9.5-2.7-12.5c-0.4-3-0.5-4.6-0.3-4.7c0.2,0,0.7,1.5,1.6,4.4
				c0.8,2.9,1.9,7.1,3.7,12c0.9,2.5,2,5.1,3.4,7.9c1.4,2.7,3.1,5.5,5.3,8c2.2,2.6,4.9,4.9,8.1,6.7c3.2,1.8,6.9,3.3,10.7,4.8
				c3.8,1.5,7.6,3.2,11,5.2c3.4,2,6.4,4.2,9.3,6.1c2.9,1.9,5.7,3.6,8.5,4.8c2.8,1.2,5.5,2.2,8.1,2.9c5.1,1.4,9.3,2.1,12.3,2.7
				C1000.1,1022,1001.8,1022.4,1001.7,1022.6z"/>
		</g>
	</g>
</g>
<g>
	<g>
		<g>
			<path class="st0" d="M1012.3,953.9c-0.5,0.8-5.7-1.5-12.1-4c-6.4-2.5-11.7-4.4-11.5-5.3c0.2-0.9,6-0.4,12.7,2.3
				C1008.2,949.5,1012.8,953.1,1012.3,953.9z"/>
		</g>
	</g>
</g>
<g>
	<g>
		<g>
			<path class="st0" d="M1001,1019.3c-0.4,0-1.3-3.6-1.8-9.5c-0.2-3-0.3-6.6-0.2-10.5c0.2-4,0.6-8.3,1.3-12.8
				c0.8-4.5,1.8-8.8,2.9-12.6c1.1-3.8,2.4-7.2,3.5-9.9c2.4-5.5,4.3-8.6,4.7-8.5c0.9,0.4-5.1,13.8-7.9,31.5
				C1000.6,1004.6,1002,1019.2,1001,1019.3z"/>
		</g>
	</g>
</g>
<g>
	<g>
		<g>
			<path class="st0" d="M1090,1012.3c0,0.4-4.9,1.1-12.9,1.7c-8,0.6-19,1-31.2,0.9c-12.2-0.1-23.3-0.7-31.2-1.4
				c-8-0.7-12.9-1.5-12.8-1.9c0.1-0.9,19.8-0.2,44.1,0C1070.2,1011.8,1089.9,1011.3,1090,1012.3z"/>
		</g>
	</g>
</g>
<g>
	<g>
		<g>
			<path class="st0" d="M1091.6,987.4c-0.3,0.9-18.5-4.2-40.8-10.8c-22.3-6.6-40.3-12.1-40.1-13c0.2-0.9,18.7,3.3,41,9.9
				C1074.1,980.1,1091.9,986.6,1091.6,987.4z"/>
		</g>
	</g>
</g>
<g>
	<g>
		<g>
			<path class="st0" d="M1131.2,1011.8c-0.3,0.3-2.8-1.3-5.9-4.9c-1.5-1.8-3.2-4.1-5-6.6c-1.8-2.5-3.7-5.2-6-7.7
				c-2.3-2.5-4.8-4.5-7.4-5.6c-2.6-1.2-5.1-1.6-7.3-1.6c-2.1,0-3.9,0.5-5,0.9c-1.2,0.4-1.8,0.8-2,0.6c-0.1-0.1,0.3-0.8,1.3-1.7
				c1.1-0.9,3-1.8,5.5-2.1c2.5-0.4,5.5-0.1,8.6,1.1c3.1,1.2,6,3.5,8.6,6.2c2.5,2.7,4.5,5.6,6.1,8.2c1.7,2.6,3.1,4.9,4.3,6.9
				C1129.6,1009.3,1131.5,1011.5,1131.2,1011.8z"/>
		</g>
	</g>
</g>
<g>
	<g>
		<g>
			<path class="st0" d="M1115.9,1032.9c-0.2,0.4-2-0.1-4.6-1.3c-2.6-1.3-6.1-3.4-9.5-6.3c-3.4-2.9-6.2-5.9-7.9-8.3
				c-1.7-2.4-2.5-4-2.1-4.3c0.7-0.6,5.5,4.6,12.1,10.1C1110.4,1028.3,1116.3,1032.1,1115.9,1032.9z"/>
		</g>
	</g>
</g>
<g>
	<g>
		<g>
			<path class="st0" d="M1085.4,938c0.2,0.3-2.9,3-8.6,6.5c-5.7,3.5-14,7.5-23.4,11.1c-4.7,1.8-9.3,3.4-13.4,4.8
				c-4.2,1.4-7.9,2.6-11.1,3.5c-3.2,0.9-6,1.2-7.9,1.2c-1.9,0-2.9-0.3-2.9-0.5c0-0.2,1-0.4,2.8-0.8c1.8-0.4,4.3-1.1,7.3-2.2
				c6.2-2.3,14.6-5.5,24-9.1c9.4-3.6,17.6-7.2,23.5-10.1C1081.6,939.6,1085.2,937.6,1085.4,938z"/>
		</g>
	</g>
</g>
<g>
	<g>
		<g>
			<path class="st0" d="M1131.3,1014.8c-0.3-0.4,1.6-2.5,4.3-6.1c1.3-1.8,2.8-4.1,4.3-6.6c1.5-2.6,2.9-5.6,5.1-8.7
				c1-1.5,2.3-2.9,3.5-4.1c1.2-1.2,2.5-2.3,3.6-3.3c2.3-2,4.3-3.7,5.7-5.4c2.9-3.3,3.1-6.2,3.6-6.2c0.1,0,0.2,0.2,0.3,0.5
				c0.1,0.4,0.1,0.9,0,1.6c-0.1,1.4-0.7,3.4-2.1,5.4c-1.3,2.1-3.3,4.1-5.5,6.2c-2.2,2.1-4.6,4.3-6.5,7c-1.9,2.8-3.5,5.7-5.2,8.4
				c-1.7,2.6-3.5,4.8-5.1,6.6C1134,1013.5,1131.5,1015.1,1131.3,1014.8z"/>
		</g>
	</g>
</g>
<g>
	<g>
		<g>
			<path class="st0" d="M1172,1067.5c-0.4,0.2-2.3-3.2-5.3-8.6c-3-5.4-7.1-13-12.3-20.8c-2.7-3.9-5.4-7.4-8-10.5
				c-1.4-1.5-2.6-3-3.9-4.3c-0.6-0.6-1.2-1.3-1.8-1.9c-0.6-0.6-1.2-1.1-1.7-1.7c-4.5-4.2-7.6-6.5-7.3-6.9c0.2-0.3,3.8,1.3,8.8,5.2
				c0.6,0.5,1.3,1,1.9,1.6c0.7,0.6,1.3,1.2,2,1.8c1.4,1.2,2.8,2.7,4.2,4.2c2.8,3.1,5.7,6.7,8.4,10.7c5.4,8,9.2,15.8,11.7,21.6
				C1171.3,1063.6,1172.4,1067.3,1172,1067.5z"/>
		</g>
	</g>
</g>
<g>
	<g>
		<g>
			<path class="st0" d="M1246.6,967.8c0.2,0,0.4,1.8,0.2,5.1c-0.1,3.3-0.7,8.1-2.1,13.8c-0.7,2.9-1.7,6-2.9,9.2
				c-1.3,3.2-2.7,6.7-4.6,10.1c-3.7,6.9-8.7,14.1-15.2,20.5c-6.4,6.4-13.5,11.4-19.9,15.8c-6.4,4.3-12.2,8.1-17.2,11.3
				c-9.8,6.3-16,10-16.3,9.7c-0.3-0.4,5.5-4.8,15-11.6c4.7-3.4,10.4-7.4,16.7-11.8c6.3-4.5,13.1-9.4,19.3-15.6
				c6.2-6.2,11.1-13,14.8-19.6c1.9-3.3,3.4-6.6,4.7-9.7c1.3-3.1,2.3-6.1,3.2-8.9c1.7-5.5,2.6-10.1,3.1-13.3
				C1246.1,969.6,1246.4,967.8,1246.6,967.8z"/>
		</g>
	</g>
</g>
<g>
	<g>
		<g>
			<path class="st0" d="M1082.9,1080.6c-0.4-0.1,0.7-4.9,4.6-11.7c1.9-3.4,4.5-7.2,7.5-11.3c3-4.1,6.5-8.5,10.3-13
				c7.6-9,15.2-16.5,21-21.6c5.8-5.1,9.7-7.9,10-7.5c0.6,0.7-13.4,13.4-28.5,31.2c-3.8,4.4-7.3,8.7-10.4,12.7c-3.1,4-5.8,7.6-8,10.7
				C1085.1,1076.4,1083.3,1080.8,1082.9,1080.6z"/>
		</g>
	</g>
</g>
<g>
	<g>
		<g>
			<path class="st0" d="M1117.6,1089.6c-0.4-0.2,0.7-3.3,3.4-7.8c0.7-1.1,1.4-2.3,2.3-3.6c0.9-1.3,1.9-2.6,2.9-3.9
				c2.2-2.7,4.7-5.5,7.6-8.3c5.8-5.5,11.6-9.8,15.9-12.6c4.4-2.8,7.3-4.2,7.5-3.8c0.3,0.4-2.2,2.5-6.2,5.7c-4,3.2-9.4,7.7-15,13.1
				c-2.8,2.7-5.3,5.4-7.5,7.9c-1.1,1.3-2.2,2.5-3.1,3.6c-1,1.1-1.8,2.2-2.6,3.3C1119.8,1087.2,1118,1089.9,1117.6,1089.6z"/>
		</g>
	</g>
</g>
<g>
	<g>
		<g>
			<path class="st0" d="M1138.3,1146.8c-0.9,0.2-4.2-12.5-9.9-27.4c-5.7-15-11.7-26.6-10.9-27.1c0.7-0.4,8.1,10.6,13.9,25.9
				C1137.2,1133.5,1139.1,1146.7,1138.3,1146.8z"/>
		</g>
	</g>
</g>
<g>
	<g>
		<g>
			<path class="st0" d="M1139.9,1157.9c0,0.1-0.3,0.3-1.1,0.4c-0.7,0.2-1.9,0.2-3.2-0.1c-1.4-0.3-3-1-4.6-2.1
				c-1.7-1.1-3.4-2.5-5.2-4.1c-7.2-6.4-16.9-15.3-27.5-25.4c-5.3-5-10.3-9.9-14.9-14.3c-1.1-1.1-2.2-2.2-3.3-3.2
				c-1.1-1.1-2.1-2.1-3.1-3.2c-1-1.1-1.9-2.3-2.5-3.6c-0.6-1.3-1-2.7-1-4.1c-0.1-2.7,0.6-4.9,1.4-6.7c0.8-1.8,1.7-3.2,2.5-4.4
				c1.6-2.2,2.6-3.3,2.8-3.2c0.2,0.1-0.5,1.5-1.7,3.8c-0.6,1.2-1.3,2.6-1.9,4.4c-0.6,1.7-1,3.8-0.8,5.9c0.1,1.1,0.5,2.1,1,3.1
				c0.5,1,1.3,2,2.3,2.9c0.9,0.9,2,1.9,3.1,2.9c1.1,1,2.2,2.1,3.4,3.1c4.7,4.3,9.8,9.1,15.1,14.1c10.6,10.1,20.1,19.3,26.9,26.1
				c1.7,1.7,3.2,3.2,4.6,4.3c1.4,1.1,2.8,1.9,4,2.4C1138.4,1157.9,1139.9,1157.6,1139.9,1157.9z"/>
		</g>
	</g>
</g>
<g>
	<g>
		<g>
			<path class="st0" d="M602.6,254.5c0.2,0,0.2,3.3-0.1,9.2c-0.2,3-0.4,6.6-0.6,10.8c-0.3,4.2-0.5,9-1.1,14.3
				c-0.6,5.3-1.4,11.1-2.9,17.3c-1.5,6.1-3.9,12.6-7.6,18.8c-3.7,6.1-8.8,12.1-15.6,16.2c-3.4,2.1-7.2,3.6-11.2,4.5
				c-4,1-8.3,1.2-12.5,0.6c-4.2-0.6-8.3-2.1-11.8-4.4c-3.5-2.3-6.4-5.2-8.8-8.3c-4.9-6.3-7.9-13.2-10.5-19.8
				c-2.5-6.7-4.1-13.2-5.2-19.4c-1.1-6.2-1.8-12-2.2-17.3c-0.8-10.6-0.8-19.2-0.7-25.2c0.1-5.9,0.3-9.2,0.5-9.2
				c0.2,0,0.5,3.3,0.8,9.2c0.3,5.9,0.6,14.5,1.7,25c1.2,10.4,3,23,7.9,35.9c2.5,6.4,5.6,13.1,10.2,18.9c2.3,2.9,5,5.5,8.1,7.5
				c3.1,2,6.7,3.3,10.5,3.9c3.8,0.5,7.6,0.3,11.3-0.5c3.7-0.8,7.1-2.2,10.3-4.1c6.3-3.8,11.1-9.2,14.7-15c3.6-5.8,5.9-12,7.5-17.9
				c1.6-5.9,2.5-11.6,3.2-16.8c0.7-5.2,1.1-10,1.6-14.2c0.4-4.2,0.8-7.8,1.1-10.7C601.9,257.7,602.3,254.4,602.6,254.5z"/>
		</g>
	</g>
</g>
<g>
	<g>
		<g>
			<path class="st0" d="M536.3,383.9c-0.4-0.3,1-2.4,2.4-5.9c1.5-3.6,2.7-8.8,2.9-14.7c0.2-5.9-0.5-11.3-0.9-15.3
				c-0.4-4-0.5-6.5,0-6.6c0.4-0.1,1.3,2.3,2.3,6.2c1,3.9,2,9.5,1.9,15.8c-0.2,6.3-1.9,12-4.1,15.6
				C538.8,382.6,536.6,384.1,536.3,383.9z"/>
		</g>
	</g>
</g>
<g>
	<g>
		<g>
			<path class="st0" d="M577.8,378c-0.4,0.2-1.7-1.5-3.1-4.7c-0.7-1.6-1.4-3.5-2-5.8c-0.6-2.2-1.1-4.7-1.3-7.4
				c-0.2-2.6-0.2-5.2-0.1-7.5c0.2-2.3,0.5-4.3,0.9-6c0.8-3.4,1.8-5.3,2.2-5.2c0.9,0.2-0.7,8.4,0.3,18.4
				C575.5,369.9,578.7,377.6,577.8,378z"/>
		</g>
	</g>
</g>
<g>
	<g>
		<g>
			<path class="st0" d="M572.2,347c0.4,0.2-0.2,2.1-2.1,4.7c-0.5,0.6-1,1.3-1.7,2c-0.6,0.7-1.4,1.3-2.2,2c-1.7,1.3-3.6,2.5-5.9,3.5
				c-2.2,0.9-4.5,1.5-6.6,1.8c-1,0.1-2,0.2-3,0.2c-0.9,0-1.8,0-2.6-0.1c-3.2-0.4-4.9-1.3-4.8-1.7c0.1-0.5,2-0.4,4.9-0.6
				c0.7-0.1,1.5-0.1,2.3-0.3c0.8-0.1,1.7-0.3,2.6-0.5c1.8-0.4,3.8-1,5.8-1.9c2-0.9,3.8-1.9,5.4-2.9c0.8-0.6,1.5-1,2.2-1.6
				c0.7-0.5,1.3-1,1.8-1.5C570.6,348.2,571.8,346.7,572.2,347z"/>
		</g>
	</g>
</g>
<g>
	<g>
		<g>
			<path class="st0" d="M549.2,301c-0.9,0-2-9.9-0.4-22.1c0.3-3,0.9-5.9,1.3-8.4c0.3-2.5,0.4-4.7,0-6.5c-0.7-3.6-2.7-5.2-2.4-5.6
				c0.1-0.2,0.8,0,1.8,0.7c1,0.7,2.1,2.2,2.9,4.2c0.8,2,1,4.7,0.8,7.4c-0.2,2.7-0.7,5.5-1,8.5C550.5,291.2,550.1,301,549.2,301z"/>
		</g>
	</g>
</g>
<g>
	<g>
		<g>
			<path class="st0" d="M556.2,304.5c-0.1,0.4-0.7,0.8-1.6,0.8c-0.9,0-2.2-0.2-3.5-1c-0.6-0.4-1.1-0.8-1.6-1.2
				c-0.5-0.5-0.9-1.1-1-1.7c-0.2-0.7,0-1.2,0.2-1.5c0.3-0.3,0.6-0.3,0.8-0.3c0.2,0,0.3,0.2,0.4,0.3c0.1,0.1,0.3,0.3,0.6,0.4
				c0.3,0.1,0.5,0.3,0.9,0.4c0.4,0.2,0.9,0.5,1.4,0.8C554.6,302.7,556.3,303.6,556.2,304.5z"/>
		</g>
	</g>
</g>
<g>
	<g>
		<g>
			<path class="st0" d="M579.2,307.5c0.2,0.4-1.4,2-4.7,4c-3.2,2-8.1,4-13.5,5.8c-1.4,0.4-2.6,0.9-4,1.3c-1.4,0.4-2.9,0.7-4.3,0.5
				c-1.5-0.2-2.6-0.6-3.6-0.9c-1-0.3-1.9-0.6-2.8-0.8c-3.4-0.8-5.8-0.7-5.8-1.2c-0.1-0.4,2.2-1.3,6.1-1.1c1,0.1,2.1,0.2,3.2,0.5
				c1.1,0.2,2.2,0.5,3.1,0.6c1,0,2-0.2,3.2-0.6c1.2-0.4,2.5-0.9,3.9-1.3c5.3-1.8,10.1-3.4,13.5-4.8
				C576.9,308.1,579,307.1,579.2,307.5z"/>
		</g>
	</g>
</g>
<g>
	<g>
		<g>
			<path class="st0" d="M533.9,278.5c-0.8,0.3-2.4-2.3-2.7-5.9c-0.3-3.6,0.9-6.4,1.8-6.2c0.9,0.1,1.2,2.8,1.5,6
				C534.6,275.6,534.7,278.3,533.9,278.5z"/>
		</g>
	</g>
</g>
<g>
	<g>
		<g>
			<path class="st0" d="M578.9,277.5c-0.9,0-1.8-2.8-1.4-6.3c0.4-3.5,1.8-6.1,2.7-5.8c0.9,0.2,0.9,3,0.6,6.2
				C580.4,274.8,579.8,277.5,578.9,277.5z"/>
		</g>
	</g>
</g>
<g>
	<g>
		<g>
			<path class="st0" d="M536.6,255.7c-0.2,0.4-1.3,0.2-2.8,0.1c-1.5-0.1-3.5,0-5.4,0.8c-1.9,0.8-3.4,2.2-4.3,3.3c-1,1.1-1.5,2-2,1.9
				c-0.4-0.1-0.7-1.3-0.1-3c0.6-1.7,2.3-4,5-5.2c2.8-1.2,5.6-0.8,7.3-0.1C536.1,254.3,536.8,255.3,536.6,255.7z"/>
		</g>
	</g>
</g>
<g>
	<g>
		<g>
			<path class="st0" d="M591.7,259.9c-0.4,0.2-1.2-0.5-2.3-1.7c-1.1-1.2-2.6-2.7-4.5-3.8c-1.9-1.1-3.8-1.4-5.3-1.4
				c-1.5,0-2.5,0.3-2.7-0.1c-0.3-0.3,0.4-1.5,2.3-2.2c1.8-0.7,4.8-0.7,7.4,0.9c2.6,1.5,4.1,3.7,4.8,5.3
				C592,258.6,592.1,259.7,591.7,259.9z"/>
		</g>
	</g>
</g>
<g>
	<g>
		<g>
			<path class="st0" d="M600.3,297.1c0.1-0.2,0.8-0.2,2.1-0.1c1.3,0.1,3.2,0.3,5.3,0c1-0.2,2.1-0.5,3.1-1.2c0.9-0.6,1.7-1.6,2.3-2.8
				c1.2-2.5,2-5.7,1.9-9c-0.1-3.3-1-6.4-2.6-8.7c-1.5-2.3-3.7-3.7-5.6-3.8c-2-0.1-3.6,0.6-4.5,1.4c-0.9,0.7-1.2,1.4-1.5,1.4
				c-0.2,0-0.3-0.9,0.5-2.2c0.8-1.2,2.7-2.7,5.4-2.9c1.4-0.1,3,0.3,4.3,1c1.4,0.8,2.7,1.9,3.7,3.3c2.1,2.8,3.2,6.5,3.4,10.3
				c0.1,3.9-0.8,7.6-2.5,10.5c-0.8,1.5-2.1,2.9-3.5,3.7c-1.4,0.8-2.9,1.1-4.2,1.1c-2.6,0.1-4.5-0.6-5.8-1
				C600.9,297.7,600.2,297.3,600.3,297.1z"/>
		</g>
	</g>
</g>
<g>
	<g>
		<g>
			<path class="st0" d="M517.9,298.4c0,0.2-0.7,0.4-2,0.7c-0.6,0.1-1.4,0.3-2.3,0.5c-0.9,0.2-2,0.4-3.3,0.3c-1.3,0-2.8-0.5-4.2-1.3
				c-1.3-0.8-2.5-2-3.5-3.3c-2.1-2.5-3.8-5.9-4.5-9.7c-0.7-3.8-0.2-7.6,1.2-10.7c1.4-3.1,3.4-5.4,5.5-6.8c2.2-1.4,4.4-1.7,5.9-1.3
				c1.5,0.4,1.9,1.2,1.8,1.3c-0.1,0.2-0.8-0.1-2,0c-1.1,0-2.8,0.6-4.4,1.9c-1.6,1.3-3.1,3.5-4.1,6.1c-1,2.6-1.4,5.8-0.8,9
				c0.6,3.2,2,6.1,3.7,8.4c0.8,1.2,1.7,2.1,2.7,2.8c0.9,0.7,1.9,1.1,2.9,1.3c2,0.3,4,0.1,5.3,0.2
				C517.2,297.9,517.9,298.2,517.9,298.4z"/>
		</g>
	</g>
</g>
<g>
	<g>
		<g>
			<path class="st0" d="M450.7,419.1c0.7,0.7-9.6,11-19,26c-9.6,15-14.4,28.7-15.4,28.3c-0.4-0.1,0.3-3.7,2.3-9.3
				c1-2.8,2.4-6.1,4.1-9.6c1.7-3.5,3.8-7.3,6.2-11.2c2.4-3.8,5-7.3,7.4-10.4c2.5-3,4.8-5.7,6.9-7.8
				C447.4,420.9,450.4,418.8,450.7,419.1z"/>
		</g>
	</g>
</g>
<g>
	<g>
		<g>
			<path class="st0" d="M534.3,374.3c0.3,0.9-16.9,6.8-37.1,16.5c-20.2,9.6-35.5,19.3-36.1,18.6c-0.2-0.4,3.3-3.3,9.5-7.4
				c6.2-4.1,15-9.3,25.2-14.1c10.2-4.9,19.8-8.5,26.8-10.7C529.7,374.8,534.2,373.9,534.3,374.3z"/>
		</g>
	</g>
</g>
<g>
	<g>
		<g>
			<path class="st0" d="M665.8,339.8c0.2,0.4-4,2.8-11.1,6.1c-7.1,3.3-17,7.4-28.3,11.1c-11.3,3.7-21.8,6.3-29.4,7.8
				c-7.6,1.5-12.4,2.1-12.5,1.6c-0.2-0.9,18.5-5.2,40.9-12.6C647.8,346.6,665.4,338.9,665.8,339.8z"/>
		</g>
	</g>
</g>
<g>
	<g>
		<g>
			<path class="st0" d="M670.9,428.6c-0.4,0-1.2-4.9-1.9-13c-0.7-8.1-1.4-19.2-1.8-31.5c-0.3-12.3-0.3-23.5,0-31.6
				c0.3-8.1,0.7-13.1,1.2-13.1c0.9,0,1.4,20,2.1,44.6C671.2,408.6,671.9,428.6,670.9,428.6z"/>
		</g>
	</g>
</g>
<g>
	<g>
		<g>
			<path class="st0" d="M695.5,255.9c0.2,0,0.7,1.2,1.3,3.5c0.6,2.3,1.4,5.6,2,9.8c0.6,4.2,1.2,9.2,1,14.9c-0.1,2.8-0.4,5.8-1.1,8.9
				c-0.7,3-1.7,6.2-3.1,9.2c-1.4,3-3,5.8-4.6,8.4c-1.6,2.6-3.1,5.1-4.6,7.4c-3,4.7-5.9,8.8-8.7,12.1c-5.5,6.6-10,9.5-10.2,9.2
				c-0.3-0.4,3.5-3.8,8.4-10.6c2.4-3.3,5.1-7.5,7.9-12.3c1.4-2.4,2.9-4.9,4.4-7.5c1.5-2.6,3-5.3,4.3-8.1c1.3-2.8,2.3-5.7,2.9-8.5
				c0.6-2.8,1-5.7,1.2-8.4c0.4-5.4,0-10.3-0.3-14.5c-0.4-4.1-0.8-7.5-1-9.9C695.3,257.2,695.3,255.9,695.5,255.9z"/>
		</g>
	</g>
</g>
<g>
	<g>
		<g>
			<path class="st0" d="M691.1,237c-0.4,0.3-2.3-2.4-6.1-5.9c-1-0.9-2.1-1.8-3.2-2.7c-1.2-0.8-2.5-1.6-3.7-1.5
				c-0.6,0-1.2,0.2-1.6,0.5c-0.4,0.3-0.6,0.7-0.6,1.3c-0.1,0.6,0.1,1.4,0.3,2.2c0.1,0.4,0.3,0.9,0.5,1.3c0.1,0.4,0.3,0.9,0.5,1.3
				c1.5,3.5,3.6,6.6,5.8,9.2c2.2,2.6,4.4,4.8,6.3,6.7c3.8,3.7,6.2,6,5.9,6.3c-0.3,0.3-3.1-1.3-7.4-4.6c-2.1-1.7-4.6-3.8-7-6.4
				c-2.4-2.7-4.9-6-6.5-9.9c-0.2-0.5-0.4-1-0.6-1.5c-0.2-0.5-0.4-1-0.5-1.5c-0.3-1.1-0.6-2.2-0.4-3.5c0.1-1.3,0.9-2.7,2-3.5
				c1.1-0.8,2.3-1,3.5-1c2.4,0.1,4,1.3,5.3,2.4c1.3,1.1,2.3,2.1,3.2,3.2C690.2,233.6,691.5,236.8,691.1,237z"/>
		</g>
	</g>
</g>
<g>
	<g>
		<g>
			<path class="st0" d="M694.6,208.3c-0.3,0.2-2.6-3-5.2-9c-1.3-3-2.6-6.7-3.6-11c-0.5-2.1-1.1-4.3-2-6.2c-0.5-1-1-1.9-1.7-2.7
				c-0.4-0.4-0.7-0.8-1.2-1.1l-0.3-0.2l-0.1-0.1c-0.1,0-0.1-0.1-0.2-0.1c-0.2,0-0.4,0.2-0.4,0.3c0,0.1,0,0-0.1,0.2
				c0,0.1-0.1,0.3-0.1,0.4c0,0.3,0,0.6,0,1c0.1,1.6,0.2,3.3,0.4,5c0.5,6.3,1,12.3,2,17.6c0.9,5.3,2.2,10,3.6,13.8
				c0.7,1.9,1.5,3.6,2.1,5.2c0.6,1.5,1.1,2.9,1.4,4.1c0.6,2.3,0.6,3.7,0.4,3.7c-0.2,0-0.6-1.2-1.6-3.2c-0.5-1-1.1-2.3-1.9-3.7
				c-0.8-1.5-1.7-3.1-2.6-5.1c-1.8-3.9-3.4-8.7-4.5-14.2c-1.1-5.5-1.8-11.6-2.3-17.9c-0.1-1.7-0.2-3.4-0.3-5.1c0-0.5,0-1,0.1-1.5
				c0-0.3,0.1-0.5,0.1-0.8c0-0.1,0.1-0.3,0.1-0.5l0.2-0.5c0.5-1.3,1.8-2.3,3.1-2.2c0.5,0,1.1,0.2,1.6,0.4c0.2,0.1,0.5,0.3,0.7,0.4
				l0.5,0.4c0.6,0.5,1.1,1,1.6,1.5c0.9,1.1,1.6,2.3,2.1,3.5c1,2.4,1.5,4.7,2,6.9c0.8,4.2,1.8,7.9,2.8,10.9
				C693.3,204.6,695,208.1,694.6,208.3z"/>
		</g>
	</g>
</g>
<g>
	<g>
		<g>
			<path class="st0" d="M697.1,169.9c0.4,0.3-0.8,2.2-1.3,5.5c-0.3,1.7-0.4,3.7-0.4,5.9c0,2.3,0.2,4.8,0.3,7.5
				c0.4,10.7,0.9,19.5,0,19.6c-0.9,0.1-2.8-8.6-3.3-19.5c-0.1-2.7-0.2-5.3,0-7.7c0.1-2.4,0.5-4.6,1.2-6.4c0.6-1.8,1.4-3.1,2.1-3.9
				C696.4,170.1,696.9,169.8,697.1,169.9z"/>
		</g>
	</g>
</g>
<g>
	<g>
		<g>
			<path class="st0" d="M705.3,169.9c0.9,0.3-0.9,7.7-0.4,16.8c0.4,9.2,3,16.3,2.1,16.7c-0.4,0.2-1.6-1.4-2.8-4.4
				c-0.6-1.5-1.2-3.3-1.7-5.3c-0.5-2.1-0.8-4.4-0.9-6.8c-0.1-2.4,0-4.8,0.2-6.9c0.3-2.1,0.7-4,1.1-5.5
				C703.9,171.5,704.9,169.7,705.3,169.9z"/>
		</g>
	</g>
</g>
<g>
	<g>
		<g>
			<path class="st0" d="M716.8,206.5c-0.4,0-0.4-4,0-10.4c0.2-3.2,0.5-7,0.9-11.2c0.1-1.1,0.3-2.4,1.1-3.8c0.2-0.3,0.5-0.8,0.9-1
				c0.4-0.3,0.8-0.5,1.3-0.7c0.9-0.3,2-0.1,2.9,0.4c0.9,0.5,1.3,1.1,1.7,1.8c0.2,0.3,0.4,0.7,0.5,1c0.1,0.3,0.2,0.6,0.3,1
				c0.4,1.3,0.6,2.6,0.7,3.9c0.7,19.9-3.1,35.5-3.9,35.4c-0.5-0.1-0.1-4,0.2-10.4c0.4-6.3,0.8-15.2,0.4-24.8
				c-0.1-1.1-0.2-2.2-0.5-3.2c-0.1-0.2-0.2-0.5-0.2-0.7c-0.1-0.2-0.2-0.4-0.3-0.6c-0.2-0.3-0.5-0.7-0.6-0.7
				c-0.3-0.2-0.6-0.1-0.8,0.2c-0.4,0.5-0.6,1.5-0.7,2.4c-0.5,4.2-1.1,8-1.6,11.1C718.1,202.7,717.3,206.6,716.8,206.5z"/>
		</g>
	</g>
</g>
<g>
	<g>
		<g>
			<path class="st0" d="M713.2,198.4c-0.4,0.2-1.4-1-2.5-3.3c-1.1-2.2-2.2-5.5-2.9-9.2c-0.7-3.7-0.7-7.2-0.4-9.6
				c0.3-2.5,0.8-3.9,1.2-3.9c0.9,0.1,1.1,6,2.4,13C712.2,192.4,714,198,713.2,198.4z"/>
		</g>
	</g>
</g>
<g>
	<g>
		<g>
			<path class="st0" d="M700.1,174.3c-0.4,0.1-0.9,0-1.3-0.2c-0.4-0.2-0.7-0.4-0.9-0.7c-0.2-0.3-0.4-0.7-0.4-1.1
				c0-0.4,0-0.9,0.2-1.3c0.2-0.4,0.7-0.6,1.2-0.6c0.5,0,1.2,0.4,1.6,1c0.4,0.6,0.6,1.3,0.5,1.9C700.9,173.8,700.5,174.2,700.1,174.3
				z"/>
		</g>
	</g>
</g>
<g>
	<g>
		<g>
			<path class="st0" d="M671.9,397.3c-0.1-0.3,2.4-1.5,6.5-4.4c4.1-2.9,9.6-7.6,15.3-14.5c5.7-6.9,11.7-15.8,16.9-26.4
				c2.6-5.3,5-11.1,7-17.1c2-6.1,3.7-12.6,4.9-19.3c0.3-1.7,0.6-3.3,0.8-5c0.2-1.7,0.4-3.3,0.7-5c0.3-3.3,0.6-6.6,0.7-9.8
				c0.2-6.4,0-12.6-0.5-18.5c-1.2-11.8-3.1-22.4-3.8-31.5c-0.8-9.1-0.5-16.5,0.3-21.5c0.2-1.3,0.4-2.4,0.6-3.3
				c0.2-1,0.4-1.8,0.6-2.4c0.4-1.3,0.6-2,0.7-1.9c0.1,0,0.1,0.7-0.1,2.1c-0.1,0.7-0.2,1.5-0.3,2.4c-0.1,1-0.2,2.1-0.3,3.3
				c-0.4,5-0.3,12.3,0.8,21.2c1,8.9,3.1,19.5,4.5,31.4c0.7,6,0.9,12.4,0.7,18.9c-0.1,3.3-0.4,6.6-0.7,10c-0.2,1.7-0.4,3.4-0.7,5.1
				c-0.2,1.7-0.6,3.4-0.9,5.1c-1.3,6.9-3,13.5-5.1,19.7c-2.2,6.2-4.7,12-7.4,17.4c-5.5,10.7-11.8,19.7-17.9,26.6
				c-6,6.9-12,11.4-16.4,14.1C674.7,396.7,672,397.5,671.9,397.3z"/>
		</g>
	</g>
</g>
<g>
	<g>
		<g>
			<path class="st0" d="M478.9,489.3c-1,0.1-3.9-17.5-10.1-38.7c-3.1-10.6-6.3-20-8.7-26.8c-1.2-3.4-2.1-6.1-2.8-8
				c-0.4-0.8-0.7-0.8-1.1-0.5c-0.3,0.2-0.2,0.5-0.3,0.6c0,0-0.1,0.1-0.3-0.1c-0.1-0.2-0.2-0.5,0-0.8c0.2-0.3,0.5-0.7,1.1-0.7
				c0.1,0,0.2,0,0.3,0c0.1,0,0.1,0,0.2,0c0.2,0.1,0.3,0.1,0.4,0.2c0.3,0.2,0.5,0.4,0.7,0.6c0.4,0.5,0.6,1,0.9,1.6
				c0.3,0.6,0.6,1.2,0.9,1.8c0.6,1.3,1.3,2.8,2.1,4.5c3,6.7,6.6,16.1,9.7,26.8C478.2,471.1,479.7,489.2,478.9,489.3z"/>
		</g>
	</g>
</g>
<g>
	<g>
		<g>
			<path class="st0" d="M494.5,481.8c0.5,0.7-2,3.4-6,5.2c-4,1.8-7.7,1.9-7.9,1c-0.2-0.9,2.9-2.3,6.6-4
				C490.8,482.3,493.9,481,494.5,481.8z"/>
		</g>
	</g>
</g>
<g>
	<g>
		<g>
			<path class="st0" d="M648.7,452.5c-0.7-0.5,2.5-6.5,8-12.7c5.5-6.2,11.1-10.1,11.6-9.5c0.6,0.7-3.8,5.6-9.2,11.6
				C653.8,448.1,649.5,453.1,648.7,452.5z"/>
		</g>
	</g>
</g>
<g>
	<g>
		<g>
			<path class="st0" d="M656.5,587.4c-0.2,0-0.8-2-1.7-5.6c-0.4-1.8-0.9-4.1-1.4-6.7c-0.5-2.6-1.1-5.6-1.7-8.9
				c-0.6-3.3-1.2-6.9-1.7-10.8c-0.6-3.9-1.1-8.1-1.7-12.5c-1-8.8-1.9-18.5-2.5-28.7c-0.6-10.2-0.8-20-0.8-28.8
				c0-4.4,0.1-8.6,0.2-12.6c0.1-3.9,0.3-7.6,0.5-11c0.2-3.3,0.4-6.4,0.6-9c0.2-2.7,0.4-4.9,0.7-6.8c0.4-3.7,0.8-5.8,1-5.8
				c0.5,0,0.2,8.3,0,21.7c0,3.3-0.1,7-0.1,10.9c0,3.9,0.1,8.1,0.1,12.5c0.2,8.8,0.5,18.5,1.1,28.7c0.6,10.2,1.4,19.8,2.3,28.6
				c0.5,4.4,0.9,8.6,1.3,12.5c0.4,3.9,0.9,7.5,1.3,10.8C655.8,579.1,657,587.3,656.5,587.4z"/>
		</g>
	</g>
</g>
<g>
	<g>
		<g>
			<path class="st0" d="M496.4,527.3c-0.8,0.1-2.7-15.3-1.6-34.3c1.1-19,4.7-34.1,5.5-33.9c0.9,0.2-1.2,15.3-2.3,34.1
				C497,511.9,497.4,527.2,496.4,527.3z"/>
		</g>
	</g>
</g>
<g>
	<g>
		<g>
			<path class="st0" d="M484.9,551.5c0,0.2-1.6,0.3-4.3,0c-2.7-0.2-6.7-0.9-11.5-2.2c-4.8-1.3-10.3-3.5-16-6.7
				c-5.7-3.2-11.7-7.4-17.1-12.8c-5.4-5.4-9.7-11.3-12.9-17c-3.2-5.7-5.4-11.2-6.8-16c-1.4-4.8-2.1-8.7-2.3-11.4
				c-0.3-2.7-0.2-4.3,0-4.3c0.5-0.1,1.3,6,4.5,15c1.6,4.5,3.9,9.8,7.2,15.2c3.2,5.4,7.4,11,12.6,16.2c5.2,5.1,10.8,9.3,16.3,12.5
				c5.5,3.2,10.7,5.5,15.3,7.1C479,550.3,485,550.9,484.9,551.5z"/>
		</g>
	</g>
</g>
<g>
	<g>
		<g>
			<path class="st0" d="M488.4,597.3c-0.3,0.2-2.1-1.6-3.7-5.4c-1.7-3.7-2.9-9.3-2.7-15.5c0.2-6.2,1.3-11.5,2.4-15.3
				c1.1-3.8,2-6.1,2.4-6c0.4,0.1,0.3,2.5-0.2,6.4c-0.4,3.9-1.2,9.2-1.4,15c-0.1,5.8,0.6,11,1.6,14.6
				C487.8,594.8,488.8,597,488.4,597.3z"/>
		</g>
	</g>
</g>
<g>
	<g>
		<g>
			<path class="st0" d="M460.1,504.5c-0.8-0.2,0-7.1,3.7-14.8c3.7-7.7,8.5-12.8,9.2-12.3c0.7,0.6-2.7,6.3-6.2,13.7
				C463.2,498.4,461,504.7,460.1,504.5z"/>
		</g>
	</g>
</g>
<g>
	<g>
		<g>
			<path class="st0" d="M536.7,530.7c-0.1,0.2-1.2-0.2-3.2-0.9c-2-0.7-4.9-1.8-8.5-2.2c-1.8-0.2-3.8-0.1-6,0.2
				c-2.2,0.3-4.5,0.7-7.1,1c-1.3,0.2-2.6,0.2-4,0.3c-1.4,0.1-2.8,0-4.2,0c-1.4-0.1-2.9-0.2-4.3-0.4c-1.4-0.3-2.9-0.4-4.4-0.8
				c-5.9-1.3-11.2-3.5-15.7-6.1c-4.5-2.6-8.1-5.6-10.8-8.5c-0.3-0.3-0.7-0.7-1-1c-0.3-0.3-0.6-0.7-0.9-1c-0.6-0.7-1.1-1.3-1.6-1.9
				c-0.9-1.3-1.7-2.3-2.2-3.3c-1.1-1.9-1.6-3-1.4-3.1c0.5-0.3,3,3.8,8.7,8.7c2.8,2.5,6.4,5.2,10.7,7.5c4.3,2.3,9.4,4.3,14.9,5.6
				c1.4,0.4,2.8,0.5,4.1,0.7c1.4,0.2,2.7,0.3,4,0.4c1.3,0,2.6,0.1,3.9,0.1c1.3-0.1,2.5-0.1,3.8-0.2c2.5-0.2,4.9-0.6,7.2-0.7
				c2.3-0.2,4.5-0.1,6.5,0.2c4,0.7,6.8,2.2,8.7,3.3C535.9,529.8,536.8,530.5,536.7,530.7z"/>
		</g>
	</g>
</g>
<g>
	<g>
		<g>
			<path class="st0" d="M520.9,602c-0.4,0.2-2.2-2.7-3.1-7.9c-0.5-2.6-0.7-5.7-0.7-9.2c0-3.4,0.1-7.2,0.5-11.1
				c0.7-7.9,2.2-14.9,3.7-19.9c1.4-5,2.8-7.9,3.2-7.8c0.9,0.3-2.2,12.5-3.6,28c-0.4,3.9-0.6,7.5-0.8,10.9c-0.2,3.3-0.2,6.3,0,8.8
				C520.3,598.9,521.3,601.9,520.9,602z"/>
		</g>
	</g>
</g>
<g>
	<g>
		<g>
			<path class="st0" d="M516.6,599.5c-0.4,0.2-1.8-1.5-3.4-4.7c-0.8-1.6-1.6-3.5-2.3-5.8c-0.7-2.2-1.3-4.8-1.7-7.5
				c-0.4-2.7-0.5-5.3-0.5-7.6c0.1-2.4,0.3-4.5,0.6-6.2c0.6-3.5,1.5-5.5,1.9-5.5c0.9,0.2-0.3,8.6,1.2,18.8
				C513.8,591.3,517.5,599,516.6,599.5z"/>
		</g>
	</g>
</g>
<g>
	<g>
		<g>
			<path class="st0" d="M498.6,607.9c-0.3,0.2-2-1.5-4-4.9c-1-1.7-1.9-3.8-2.8-6.3c-0.8-2.4-1.6-5.2-2-8.2c-0.4-3-0.6-5.8-0.5-8.4
				c0.1-2.6,0.4-4.9,0.8-6.8c0.8-3.8,1.9-6,2.3-5.9c0.5,0.1,0.2,2.5,0,6.2c-0.1,1.9-0.1,4.1-0.1,6.5c0.1,2.4,0.3,5.1,0.7,7.9
				c0.4,2.8,1,5.4,1.7,7.8c0.7,2.4,1.4,4.5,2,6.2C498,605.5,499,607.6,498.6,607.9z"/>
		</g>
	</g>
</g>
<g>
	<g>
		<g>
			<path class="st0" d="M504.3,605.9c-0.4,0.2-1.8-1.5-3.3-4.7c-0.8-1.6-1.5-3.5-2.2-5.8c-0.6-2.2-1.2-4.7-1.5-7.4
				c-0.3-2.7-0.3-5.2-0.2-7.5c0.1-2.3,0.4-4.4,0.8-6.1c0.8-3.4,1.7-5.4,2.1-5.3c0.9,0.2-0.7,8.5,0.5,18.6
				C501.8,597.8,505.2,605.5,504.3,605.9z"/>
		</g>
	</g>
</g>
<g>
	<g>
		<g>
			<path class="st0" d="M654.9,592.6c0.1,0.2-1.7,1.4-5.1,3.5c-0.8,0.5-1.8,1.1-2.8,1.7c-1.1,0.6-2.2,1.2-3.5,1.8
				c-2.5,1.3-5.3,2.8-8.6,4.2c-1.6,0.7-3.3,1.5-5.1,2.2c-1.8,0.8-3.7,1.4-5.6,2.2c-3.9,1.6-8.1,2.8-12.6,4.2
				c-9,2.6-19.1,4.8-29.8,6.3c-10.8,1.3-21.1,1.7-30.5,1.4c-4.7-0.2-9.1-0.4-13.3-0.9c-2.1-0.2-4.1-0.4-6-0.7
				c-1.9-0.3-3.7-0.6-5.5-0.9c-3.5-0.5-6.6-1.3-9.4-1.9c-1.4-0.3-2.6-0.6-3.8-0.9c-1.2-0.3-2.2-0.6-3.2-0.9
				c-3.8-1.1-5.8-1.9-5.8-2.1c0.1-0.2,2.2,0.1,6.1,0.8c1,0.2,2,0.4,3.2,0.6c1.2,0.2,2.5,0.4,3.8,0.6c2.8,0.4,5.9,1,9.3,1.4
				c1.7,0.2,3.6,0.4,5.5,0.7c1.9,0.2,3.9,0.3,5.9,0.5c4.1,0.4,8.5,0.5,13.1,0.6c9.2,0.1,19.4-0.4,30-1.7c10.6-1.4,20.5-3.5,29.4-5.9
				c4.4-1.3,8.7-2.5,12.5-3.9c1.9-0.7,3.8-1.3,5.6-2c1.8-0.7,3.5-1.4,5.1-2c3.3-1.2,6.1-2.6,8.7-3.7c1.3-0.6,2.5-1.1,3.6-1.6
				c1.1-0.5,2.1-1,2.9-1.4C652.8,593.3,654.8,592.4,654.9,592.6z"/>
		</g>
	</g>
</g>
<g>
	<g>
		<g>
			<path class="st0" d="M463.9,795.5c-0.2,0-0.2-2.6-0.1-7.1c0.1-2.3,0.2-5.1,0.4-8.3c0.2-3.2,0.5-7,0.9-11c0.2-2,0.4-4.2,0.6-6.4
				c0.2-2.2,0.5-4.5,0.8-6.9c0.5-4.8,1.2-9.9,2-15.3c1.6-10.7,3.6-22.5,6.1-34.8c2.5-12.3,5.3-23.9,8.1-34.4
				c1.4-5.2,2.8-10.2,4.2-14.8c0.7-2.3,1.3-4.5,2-6.7c0.7-2.1,1.3-4.2,2-6.1c1.2-3.9,2.5-7.4,3.5-10.5c1.1-3.1,2-5.7,2.9-7.8
				c1.7-4.3,2.7-6.6,2.9-6.5c0.2,0.1-0.4,2.5-1.7,6.9c-0.7,2.2-1.5,4.9-2.3,8c-0.9,3.1-2,6.7-3.1,10.6c-0.6,2-1.1,4-1.8,6.2
				c-0.6,2.2-1.2,4.4-1.8,6.7c-1.3,4.6-2.5,9.6-3.9,14.8c-2.6,10.5-5.3,22-7.8,34.3c-2.5,12.2-4.6,23.9-6.3,34.6
				c-0.8,5.3-1.6,10.4-2.3,15.2c-0.3,2.4-0.7,4.7-1,6.9c-0.3,2.2-0.6,4.3-0.8,6.4c-0.6,4.1-0.9,7.7-1.3,11c-0.4,3.2-0.7,6-1,8.3
				C464.6,793,464.1,795.6,463.9,795.5z"/>
		</g>
	</g>
</g>
<g>
	<g>
		<g>
			<path class="st0" d="M672.1,796.8c-0.2,0-0.6-2.8-1.1-7.8c-0.5-5-1.1-12.3-2-21.3c-0.8-9-1.9-19.7-3.1-31.6
				c-1.3-11.9-2.8-24.9-4.6-38.6c-1.8-13.7-3.7-26.7-5.5-38.5c-1.9-11.8-3.6-22.4-5.1-31.3c-1.5-8.9-2.8-16.1-3.6-21.1
				c-0.8-5-1.2-7.8-1-7.8c0.2,0,1,2.6,2.2,7.6c0.6,2.5,1.3,5.5,2.1,9c0.8,3.5,1.7,7.5,2.5,11.9c1.8,8.9,3.8,19.5,5.8,31.3
				c2,11.8,4,24.8,5.8,38.5c1.8,13.7,3.2,26.8,4.4,38.7c1.1,11.9,1.9,22.7,2.4,31.7c0.3,4.5,0.5,8.6,0.6,12.2
				c0.2,3.6,0.3,6.7,0.3,9.2C672.4,794,672.4,796.8,672.1,796.8z"/>
		</g>
	</g>
</g>
<g>
	<g>
		<g>
			<path class="st0" d="M577.4,726.1c-0.7,0.6-7.2-6.2-14.6-15.2c-7.3-9-12.7-16.7-12-17.3c0.7-0.6,7.2,6.2,14.5,15.2
				C572.7,717.8,578.1,725.5,577.4,726.1z"/>
		</g>
	</g>
</g>
<g>
	<g>
		<g>
			<path class="st0" d="M594,812c-0.9,0.1-4.9-19.9-10.3-44.5c-5.4-24.6-10.3-44.4-9.4-44.7c0.4-0.1,2.2,4.7,4.6,12.6
				c2.4,7.9,5.3,19,8,31.3c2.7,12.3,4.7,23.6,5.9,31.8C594,806.8,594.5,811.9,594,812z"/>
		</g>
	</g>
</g>
<g>
	<g>
		<g>
			<path class="st0" d="M674.5,802.8c0.2,0.1-0.3,1.3-1.6,3.1c-1.3,1.9-3.5,4.4-6.7,6.9c-3.2,2.6-7.4,5.1-12.4,7.1
				c-5,2-10.9,3.4-17.1,3.8c-6.2,0.4-12.1-0.1-17.4-0.9c-5.3-0.9-9.9-2.1-13.7-3.3c-7.7-2.4-12.1-4.6-12-5c0.2-0.5,4.9,0.9,12.6,2.8
				c7.7,1.8,18.4,4,30.3,3.2c5.9-0.4,11.4-1.6,16.3-3.4c4.8-1.7,8.9-3.9,12.1-6.1c3.2-2.2,5.5-4.3,7.1-5.9
				C673.5,803.6,674.3,802.6,674.5,802.8z"/>
		</g>
	</g>
</g>
<g>
	<g>
		<g>
			<path class="st0" d="M554.8,810.8c-0.4-0.1-0.2-5,0.9-12.9c1.1-7.9,3-18.7,5.9-30.5c2.9-11.8,6.2-22.3,9-29.7
				c2.7-7.5,4.8-11.9,5.2-11.8c0.9,0.3-5.3,18.9-11,42.3C558.9,791.6,555.7,810.9,554.8,810.8z"/>
		</g>
	</g>
</g>
<g>
	<g>
		<g>
			<path class="st0" d="M554,813.4c0.1,0.4-5.1,1.9-13.8,2.7c-8.7,0.9-20.8,0.9-34-1.4c-6.6-1.1-12.7-2.7-18.2-4.6
				c-2.7-0.9-5.3-1.8-7.7-2.8c-2.4-1-4.6-2.1-6.5-3.2c-3.8-2.3-6.5-4.8-7.9-6.9c-1.5-2-1.9-3.4-1.7-3.4c0.2-0.1,1,1,2.7,2.6
				c1.7,1.7,4.3,3.8,8.1,5.7c1.9,1,4,1.9,6.3,2.7c2.3,0.9,4.9,1.7,7.6,2.5c5.4,1.6,11.5,3.1,17.9,4.2c12.9,2.3,24.7,2.6,33.3,2.3
				C548.6,813.5,553.9,812.9,554,813.4z"/>
		</g>
	</g>
</g>
<g>
	<g>
		<g>
			<path class="st0" d="M674.9,990c-0.2,0.1-1.3-2.1-3.2-6.3c-1.8-4.1-4.4-10.1-7.5-17.5c-6.2-14.8-14.5-35.4-23.5-58.2
				c-2.3-5.7-4.5-11.3-6.4-16.8c-1.9-5.5-3.6-10.9-4.7-16.2c-2.3-10.5-3.3-20-4.4-28c-1-7.9-2.1-14.3-2.9-18.7
				c-0.9-4.4-1.5-6.8-1.2-6.9c0.2-0.1,1.2,2.2,2.5,6.6c1.3,4.3,2.7,10.7,4,18.7c1.4,7.9,2.6,17.4,5,27.6c2.4,10.2,6.7,21,11.2,32.4
				c9,22.8,17,43.5,22.7,58.5c2.8,7.5,5,13.6,6.5,17.9S675.2,989.9,674.9,990z"/>
		</g>
	</g>
</g>
<g>
	<g>
		<g>
			<path class="st0" d="M701.2,981.2c-0.2,0.1-1-2.2-2.3-6.4c-1.3-4.2-3-10.2-5-17.8c-4-15.1-9.2-36-14.1-59.3
				c-5-23.3-8.8-44.5-11.3-59.9c-1.2-7.7-2.2-13.9-2.7-18.3c-0.5-4.3-0.7-6.7-0.5-6.8c0.2,0,0.8,2.3,1.8,6.6
				c0.9,4.3,2.2,10.4,3.7,18.1c3.1,15.3,7.3,36.4,12.2,59.6c5,23.2,9.7,44.2,13.2,59.4c1.7,7.6,3.1,13.7,4,18
				C701,978.7,701.4,981.1,701.2,981.2z"/>
		</g>
	</g>
</g>
<g>
	<g>
		<g>
			<path class="st0" d="M445.8,981.3c-0.2-0.1,0.2-2.6,1.3-7c1-4.5,2.5-10.9,4.4-18.9c1.8-8,3.9-17.5,6.1-28.1
				c2.2-10.6,4.5-22.2,6.8-34.5c4.5-24.5,8.3-46.8,11.1-62.9c1.4-8.1,2.6-14.6,3.5-19.1c0.9-4.5,1.5-7,1.7-6.9s0,2.6-0.5,7.1
				c-0.5,4.6-1.4,11.1-2.5,19.2c-2.3,16.2-5.7,38.6-10.2,63.2c-2.3,12.3-4.7,24-7,34.5c-2.4,10.6-4.7,20.1-6.8,28
				c-1,4-2.1,7.5-3,10.7c-0.9,3.1-1.7,5.8-2.4,8C446.9,978.9,446,981.3,445.8,981.3z"/>
		</g>
	</g>
</g>
<g>
	<g>
		<g>
			<path class="st0" d="M473.5,980.8c-0.2-0.1,0.2-2.4,1.3-6.7c1-4.2,2.7-10.4,5-17.8c4.6-15,11.9-35.4,21.6-57.2
				c4.8-10.9,9.4-21.3,12.6-31c3.3-9.7,5.3-18.7,6.6-26.4c1.3-7.7,1.7-13.9,2-18.3c0.3-4.3,0.4-6.8,0.6-6.8c0.2,0,0.5,2.4,0.6,6.8
				c0.1,4.4,0,10.8-1,18.6c-1,7.8-2.8,17.1-6,27c-3.2,9.9-7.7,20.4-12.5,31.3c-9.7,21.7-17.3,41.9-22.4,56.6
				c-2.6,7.4-4.6,13.3-6,17.5C474.6,978.5,473.8,980.8,473.5,980.8z"/>
		</g>
	</g>
</g>
<g>
	<g>
		<g>
			<path class="st0" d="M285.2,1024.5c-0.1,0-0.2-0.7-0.4-2.2c-0.2-1.5-0.6-3.7-1-6.6c-0.6-5.9-1.2-14.5-0.9-25.7
				c0.3-11.2,1.6-24.8,3.4-40.6c0.9-7.9,1.9-16.3,2.7-25.2c0.8-8.9,1.6-18.4,1.6-28.3c0-2.5-0.1-5-0.1-7.5c0-2.5-0.1-5.1-0.5-7.6
				c-0.3-2.5-0.9-5-2.1-7.2c-1.1-2.2-2.9-4-5-5.1c-2.2-1.1-4.7-1.5-6.9-0.5c-1.1,0.5-2.2,1.3-3.4,2.1c-1.2,0.7-2.7,1.6-4.6,1.6
				c-0.9,0-1.9-0.3-2.7-0.8c-0.8-0.5-1.4-1-1.9-1.6c-1-1.2-1.9-2.4-2.7-3.7c-1.6-2.6-2.6-5.5-3.4-8.4c-1.5-5.9-1.7-12-1.9-18.1
				c-0.2-6-0.5-12.2-0.9-18.4c-0.8-12.5-2-25.2-3.6-38.3c-0.4-3.3-0.7-6.6-1.7-9.5c-0.5-1.4-1.2-2.8-2.1-3.9c-0.9-1-2.2-1.8-3.5-2.2
				c-1.3-0.4-2.8-0.4-3.8,0.2c-0.5,0.3-1,0.7-1.4,1.2c-0.4,0.5-0.8,1.2-1.1,1.9c-0.3,0.7-0.7,1.5-1.1,2.4c-0.4,0.8-0.9,1.7-1.7,2.5
				c-0.8,0.8-2,1.5-3.2,1.6c-1.2,0.2-2.5-0.2-3.5-0.7c-1.9-1.2-3-2.8-4-4.4c-0.9-1.6-1.7-3.1-2.5-4.7c-0.8-1.6-1.5-3.2-2.3-4.8
				c-0.7-1.6-1.4-3.3-2.1-4.9c-2.6-6.6-4.8-13.5-6.8-20.4c-4-13.8-7.2-28.1-12.2-41.9c-1.3-3.4-2.8-6.7-4.8-9.5
				c-0.5-0.7-1.1-1.4-1.7-2c-0.3-0.3-0.6-0.6-0.9-0.9c-0.3-0.3-0.6-0.6-0.9-0.8c-0.6-0.5-1.1-0.6-1.5-0.6c-0.4,0-0.9,0.3-1.5,0.9
				c-0.6,0.5-1.1,1.3-1.7,2c-0.6,0.7-1.2,1.4-1.6,2.1c-0.5,0.8-1,1.5-1.5,2.3l-1.2,2.4c-1.5,3.3-2.6,6.8-3.3,10.4
				c-0.6,3.6-0.9,7.3-0.8,11c0.1,3.7,0.4,7.4,1,11c0.6,3.6,1.4,7.3,2.3,10.8c1,3.6,2.1,7.1,3.2,10.6c2.3,7,4.6,14,6.5,21.2
				c0.9,3.6,1.7,7.2,2.3,10.8c0.3,1.8,0.5,3.7,0.7,5.5c0.1,1.8,0.2,3.7,0.2,5.5c0,1.8-0.1,3.7-0.3,5.5c0,0.5-0.1,0.9-0.2,1.4
				l-0.3,2.3c-0.1,0.4-0.2,0.7-0.3,1l-0.1,0.5l-0.1,0.2c0,0.1-0.1,0.1-0.2,0.1c-0.7-0.1-1.5-0.2-2.1-0.4c-0.7-0.1-1.4-0.4-2.1-0.7
				c-0.4-0.2-0.6-0.3-0.8-0.5c-0.2-0.1-0.4-0.3-0.6-0.5c-0.8-0.6-1.5-1.3-2.1-2c-1.3-1.4-2.3-2.7-3.5-3.8c-1.2-1.1-2.4-1.9-3.7-2.1
				c-1.3-0.2-2.7,0.2-3.9,1c-2.4,1.6-4.2,4.6-5.2,7.6c-0.5,1.5-0.8,3-0.9,4.7c-0.2,1.7-0.2,3.3-0.3,5c0,3.3,0.4,6.6,0.9,9.9
				c0.6,3.2,1.4,6.4,2.4,9.6c1,3.1,2.2,6.2,3.4,9.2c5.1,12,12,22.9,17.5,34.2c2.8,5.7,5.3,11.4,7.2,17.3c1,2.9,1.7,5.9,2.3,8.9
				c0.2,1.5,0.5,3,0.7,4.5c0.2,1.5,0.4,3,0.3,4.6c0,0.8-0.2,1.7-0.5,2.5c-0.3,0.8-0.8,1.7-1.5,2.3c-0.7,0.6-1.6,1.1-2.5,1.3
				c-1,0.2-1.9,0.1-2.7-0.1c-1.7-0.4-3.1-1.3-4.3-2.2c-1.2-0.9-2.3-2-3.3-3.2c-0.9-1-1.8-2-2.8-2.7c-1-0.8-2.1-1.4-3.2-1.7
				c-0.5-0.2-1-0.1-1.5-0.1c-0.5,0.1-0.9,0.3-1.3,0.6c-0.8,0.6-1.2,1.6-1.5,2.8c-0.3,1.2-0.3,2.6-0.5,3.8c-0.1,0.7-0.1,1.3-0.1,2
				c0,0.7-0.1,1.3,0,2c0,2.6,0.3,5.2,0.7,7.7c0.9,5,2.4,9.8,4.3,14.4c3.8,9.1,8.8,17.2,13.6,24.7c4.9,7.5,10.2,14.1,15.7,19.7
				c5.5,5.6,11.4,9.9,17,13.8c5.6,3.8,10.8,7.3,15.1,10.9c8.8,7.1,13.8,14.6,15.9,20.2c1.1,2.8,1.6,5,1.8,6.5
				c0.1,0.7,0.2,1.3,0.2,1.7c0,0.4,0,0.6,0,0.6c-0.1,0-0.2-0.8-0.5-2.2c-0.3-1.5-0.9-3.6-2.1-6.3c-2.3-5.3-7.3-12.6-16.1-19.4
				c-4.3-3.5-9.5-6.8-15.2-10.6c-5.6-3.8-11.8-8.1-17.4-13.8c-5.7-5.6-11.1-12.3-16.2-19.8c-5-7.5-10-15.7-14-25
				c-2-4.6-3.6-9.6-4.6-14.9c-0.9-5.3-1.2-10.8-0.2-16.4c0.3-1.4,0.9-3.1,2.3-4.3c0.7-0.5,1.5-1,2.4-1.1c0.9-0.1,1.8-0.1,2.6,0.1
				c1.6,0.4,3,1.2,4.2,2.1c1.2,0.9,2.3,2,3.3,3.1c0.9,1,1.8,1.9,2.9,2.7c1,0.8,2.2,1.4,3.3,1.7c0.6,0.1,1.1,0.1,1.6,0.1
				c0.5-0.1,0.9-0.3,1.3-0.7c0.7-0.7,1.1-1.8,1.1-3.1c0.1-1.3-0.1-2.7-0.3-4.2c-0.1-1.4-0.4-2.9-0.7-4.3c-0.6-2.9-1.3-5.7-2.2-8.6
				c-1.8-5.7-4.3-11.3-7.1-16.8c-5.5-11.1-12.5-22-17.7-34.3c-1.3-3.1-2.5-6.2-3.6-9.4c-1-3.2-1.9-6.6-2.5-10
				c-0.6-3.4-0.9-6.9-1-10.4c0.1-1.8,0.1-3.5,0.3-5.3c0.1-1.7,0.4-3.6,1-5.4c0.6-1.8,1.4-3.5,2.4-5.1c1-1.6,2.3-3.1,4-4.2
				c1.7-1.1,3.9-1.8,6.1-1.5c2.2,0.3,4,1.6,5.4,2.9c1.4,1.3,2.5,2.7,3.7,4c0.6,0.6,1.1,1.2,1.7,1.6c0.1,0.1,0.3,0.2,0.4,0.3
				c0.2,0.1,0.3,0.2,0.3,0.2c0.1,0,0.2,0.1,0.3,0.1c0.1,0,0.2,0,0.3,0.1c0.1-0.1,0-0.2,0.1-0.3l0.1-0.4c0.1-0.4,0.1-0.9,0.2-1.3
				c0.1-1.7,0.3-3.5,0.2-5.2c0.1-1.7-0.1-3.5-0.2-5.3c-0.2-1.8-0.3-3.5-0.6-5.3c-0.5-3.5-1.3-7-2.2-10.5c-1.8-7-4.2-13.9-6.5-21
				c-1.1-3.5-2.3-7.1-3.2-10.8c-1-3.7-1.7-7.4-2.4-11.2c-0.6-3.8-0.9-7.6-1-11.5c0-3.9,0.2-7.8,0.9-11.7c0.7-3.9,1.9-7.7,3.6-11.2
				l1.4-2.6c0.5-0.8,1.1-1.7,1.6-2.5c0.5-0.9,1.2-1.6,1.8-2.4c0.6-0.8,1.2-1.5,2-2.3c0.8-0.7,1.9-1.6,3.4-1.7
				c0.7-0.1,1.5,0.1,2.1,0.3c0.6,0.2,1.1,0.6,1.6,0.9c0.5,0.3,0.8,0.7,1.2,1c0.4,0.3,0.7,0.7,1.1,1.1c0.7,0.7,1.3,1.5,1.9,2.3
				c2.3,3.2,3.9,6.8,5.3,10.3c5.1,14.1,8.3,28.4,12.2,42.2c2,6.9,4.1,13.6,6.7,20.1c0.6,1.6,1.3,3.2,2,4.8c0.7,1.6,1.5,3.1,2.2,4.7
				c0.8,1.5,1.6,3.1,2.4,4.5c0.8,1.4,1.8,2.6,2.9,3.2c0.5,0.3,1,0.4,1.5,0.4c0.5-0.1,0.9-0.3,1.3-0.7c0.8-0.8,1.4-2.4,2.2-4
				c0.4-0.8,0.8-1.7,1.4-2.5c0.6-0.8,1.5-1.6,2.5-2.1c2-1,4.2-0.9,6.1-0.4c1.9,0.5,3.6,1.6,5,3.1c1.3,1.5,2.1,3.2,2.7,4.9
				c1.2,3.4,1.4,6.8,1.8,10.1c1.6,13.1,2.8,26,3.5,38.5c0.4,6.3,0.6,12.4,0.8,18.5c0.2,6,0.4,12,1.7,17.5c0.7,2.7,1.6,5.4,3,7.7
				c1.4,2.2,3.2,4.9,5.1,4.8c1,0,2.1-0.5,3.2-1.2c1.1-0.7,2.3-1.6,3.8-2.2c1.5-0.7,3.1-0.9,4.7-0.7c1.6,0.2,3,0.6,4.4,1.3
				c2.7,1.4,4.8,3.7,6.1,6.2c1.3,2.6,1.9,5.3,2.3,8c0.3,2.7,0.4,5.3,0.4,7.9c0,2.6,0.1,5.1,0,7.6c-0.1,10-1,19.5-1.9,28.5
				c-0.9,9-2,17.4-3,25.2c-2,15.7-3.4,29.3-3.9,40.4c-0.5,11.1-0.1,19.8,0.3,25.6c0.2,2.9,0.5,5.1,0.6,6.6
				C285.2,1023.7,285.3,1024.5,285.2,1024.5z"/>
		</g>
	</g>
</g>
<g>
	<g>
		<g>
			<path class="st0" d="M307.8,753.6c0.1,0.1-0.5,0.9-1.6,2.3c-0.5,0.7-1.1,1.7-1.8,2.8c-0.5,1.2-1.3,2.5-1.8,4.1
				c-1.2,3.2-2,7.2-2.1,12c-0.1,2.4,0.2,5,0.5,7.6c0.4,2.7,1,5.5,1.9,8.4c0.9,2.9,2,5.9,3.4,8.8c1.4,3,3,6,4.8,9.2
				c3.6,6.2,7.8,12.7,11.7,20c1.9,3.6,3.7,7.5,5.2,11.6c1.5,4.1,2.6,8.5,3.2,13c1.2,9,0.7,18.4-0.3,27.7c-1,9.4-2.4,18.5-3.7,27.2
				c-1.3,8.8-2.6,17.2-3.5,25.2c-2,16.1-2.3,30.7-1,42.9c1.2,12.2,3.9,21.8,6.3,28.1c2.4,6.4,4.2,9.8,3.9,9.9
				c-0.1,0.1-0.6-0.7-1.6-2.3c-0.5-0.8-1-1.8-1.6-3c-0.3-0.6-0.6-1.2-1-1.9c-0.3-0.7-0.6-1.5-1-2.2c-2.8-6.3-5.9-16-7.4-28.4
				c-0.8-6.2-1.2-13-1.1-20.3c0.1-7.3,0.6-15.1,1.4-23.2c1.7-16.3,5-33.9,7-52.5c1-9.3,1.5-18.4,0.4-27c-1.1-8.6-4.2-16.4-7.9-23.6
				c-3.7-7.1-7.8-13.7-11.4-20.1c-1.8-3.2-3.4-6.3-4.8-9.4c-1.4-3.1-2.5-6.2-3.3-9.3c-0.9-3-1.4-6-1.8-8.8c-0.3-2.8-0.4-5.5-0.3-8
				c0.2-5,1.3-9.2,2.7-12.4c0.6-1.6,1.5-2.9,2.2-4.1c0.8-1.1,1.5-2,2.1-2.7C307,754.1,307.7,753.5,307.8,753.6z"/>
		</g>
	</g>
</g>
<g>
	<g>
		<g>
			<path class="st0" d="M318.8,951.3c-0.2,0-0.5-2-0.9-5.6c-0.4-3.6-0.8-8.9-1.6-15.3c-0.9-6.4-2.2-14-5.3-22
				c-1.5-3.9-3.5-7.9-6-11.8c-0.3-0.5-0.6-0.9-1-1.4l-0.4-0.5l-0.3-0.4l-0.1-0.1c0,0,0,0.1-0.1,0.1c0,0.1-0.1,0.1-0.1,0.2
				c-0.1,0.1-0.1,0.3-0.1,0.4c0,0.1,0,0.1,0,0.2l0,0.1c0,0.1,0,0.3,0,0.4c0,1.1,0.1,2.2,0.3,3.5c1.2,9.9,2.7,19.2,4.4,27.6
				c0.8,4.2,1.7,8.1,3.1,11.5c1.4,3.4,3.5,6.3,5.2,9.1c1.7,2.8,3.1,5.6,3.9,8.2c0.8,2.6,1.1,4.9,1.2,6.7c0.1,3.7-0.4,5.8-0.6,5.7
				c-0.3,0-0.1-2.1-0.6-5.6c-0.3-1.8-0.8-3.9-1.6-6.3c-0.9-2.4-2.3-4.8-4.1-7.5c-1.8-2.7-4-5.6-5.7-9.3c-1.7-3.7-2.7-7.8-3.6-12
				c-1.9-8.5-3.5-17.9-4.7-27.9c-0.2-1.2-0.3-2.5-0.3-3.9c0-0.2,0-0.3,0-0.5c0-0.2,0-0.5,0.1-0.8c0-0.3,0.1-0.5,0.1-0.8
				c0-0.3,0.1-0.5,0.2-0.7c0.3-1,0.7-1.8,1.3-2.4l0.8-1c0.2-0.2,0.3-0.4,0.5-0.5l0.5,0.4l0.9,0.8c0.3,0.3,0.6,0.4,0.9,0.9
				c0.6,0.8,1.2,1.6,1.8,2.3c0.3,0.5,0.7,1,1,1.5c2.6,4.1,4.6,8.3,6.1,12.5c3,8.3,4.2,16.2,4.8,22.7c0.6,6.6,0.6,11.9,0.6,15.5
				C319.2,949.3,319,951.3,318.8,951.3z"/>
		</g>
	</g>
</g>
<g>
	<g>
		<g>
			<path class="st0" d="M322.2,934.3c-0.2-0.1,0.5-2.1,2.3-5.4c0.9-1.7,2.1-3.7,3.6-5.9c1.5-2.2,3.5-4.6,5.7-7.2
				c2.2-2.6,4.6-5.3,6.7-8.5c2.1-3.2,3.9-6.9,5.1-11c1.2-4.1,1.9-8.6,1.8-13.3c0-2.3-0.3-4.7-0.6-7.1c-0.3-1.2-0.5-2.4-0.8-3.5
				c-0.4-1.2-0.6-2.4-1.1-3.5c-0.2-0.6-0.4-1.2-0.7-1.8l-0.2-0.5c-0.1-0.2-0.1-0.3-0.2-0.5l-0.1-0.2l-0.1-0.1l0-0.1c0,0,0,0,0,0
				c-0.1,0.3-0.1,0.5-0.2,0.8c-0.1,0.5-0.2,1-0.3,1.5c-0.5,2.2-1,4.4-1.5,6.5c-1.1,4.2-2.3,8.2-3.6,12c-2.6,7.5-5.5,14.1-8.3,19.3
				c-1.4,2.6-2.7,4.9-3.7,7c-1,2.1-1.8,3.9-2.3,5.4c-1,3-1.3,4.8-1.5,4.8c-0.2,0-0.4-1.9,0.4-5.1c0.4-1.6,1-3.6,1.9-5.8
				c0.9-2.2,2-4.6,3.3-7.3c2.5-5.3,5.2-11.7,7.5-19.2c1.2-3.7,2.3-7.7,3.3-11.9c0.5-2.1,1-4.2,1.4-6.4l0.2-0.8l0.3-1.4
				c0.2-1,0.4-2,0.6-3c0.4-2,0.8-4,1.1-6c0.1,0.1,0.1,0.1,0.2,0.3l0.2,0.4l0.4,0.8l0.9,1.5c0.6,1,1.2,2.1,1.7,3.2
				c0.5,1.1,1.1,2.2,1.6,3.2c0.1,0.1,0.2,0.3,0.2,0.4l0.1,0.3l0.2,0.5l0.4,1.1c0.5,1.2,0.8,2.5,1.2,3.8c0.3,1.3,0.6,2.6,0.8,3.8
				c0.4,2.6,0.7,5.1,0.6,7.6c0,5-0.8,9.8-2.1,14.2c-1.4,4.4-3.4,8.3-5.7,11.6c-2.3,3.4-4.9,6-7.2,8.5c-4.6,4.8-7.8,9.1-9.9,12.2
				C323.4,932.6,322.4,934.4,322.2,934.3z"/>
		</g>
	</g>
</g>
<g>
	<g>
		<g>
			<path class="st0" d="M329.1,875.7c-0.1,0-0.3-0.5-0.6-1.4c-0.3-1-0.6-2.4-1.1-4.2c-1-3.7-2.4-8.9-4.8-15.2
				c-2.4-6.3-5.8-13.6-10.4-21.1c-2.3-3.8-5-7.6-7.9-11.4c-0.7-1-1.5-1.9-2.3-2.8l-0.4-0.5c-0.1-0.1-0.1-0.1-0.2-0.2
				c-0.1-0.1-0.2-0.2-0.4-0.3c-0.1-0.1-0.3-0.1-0.4,0c0,0-0.1,0-0.1,0.1c0,0,0,0.1,0,0.1l0,0.2c0.1,0.6,0.3,1.2,0.4,1.8
				c2.4,10,5.4,19.3,8.7,27.6c3.3,8.3,6.8,15.5,10,21.5c1.6,3,3.1,5.7,4.3,8.1c1.2,2.4,2.2,4.6,2.7,6.5c1.2,3.7,1.2,5.9,1,5.9
				c-0.3,0-0.7-2-2.2-5.4c-0.8-1.7-1.8-3.7-3.2-6c-1.3-2.3-3-4.9-4.8-7.8c-3.5-5.9-7.3-13.1-10.8-21.5c-3.5-8.3-6.7-17.8-9.1-28
				l-0.2-1l-0.1-0.6c-0.1-0.3,0-0.5-0.1-0.7c0-0.9-0.1-1.7-0.1-2.6l-0.1-1.3c0-0.2,0-0.4,0-0.6c0.2-0.1,0.3-0.3,0.5-0.4
				c0.8-0.4,1.6-0.5,2.4-0.3c0.8,0.2,1.6,0.6,2.4,1.3c0.4,0.3,0.8,0.7,1.1,1.1l0.8,1c0.8,1,1.6,1.9,2.3,2.9c3,3.9,5.7,7.9,8,11.8
				c4.6,7.8,7.8,15.4,10,21.9c2.2,6.5,3.3,11.9,3.9,15.7c0.3,1.9,0.5,3.4,0.5,4.4C329.3,875.2,329.2,875.7,329.1,875.7z"/>
		</g>
	</g>
</g>
<g>
	<g>
		<g>
			<path class="st0" d="M322.7,822.3c-0.2-0.1,0.7-1.8,2.1-4.9c1.4-3.1,3-7.7,4-13.6c1-5.9,1.4-13.1,0.6-21.1
				c-0.7-8-2.4-16.7-4.2-25.9l3.2-0.6l0.2,1.3c0.9,5,0.4,9.9-0.5,14.4c-0.9,4.5-2.3,8.7-3.7,12.6c-1.4,3.9-2.8,7.6-3.9,11
				c-1.1,3.5-1.9,6.7-2.4,9.7c-1,6-0.6,11,0.2,14.3c0.8,3.3,1.7,5,1.5,5.2c-0.1,0.1-1.5-1.4-2.7-4.8c-1.3-3.3-2-8.6-1.3-15
				c0.4-3.2,1.1-6.6,2.1-10.2c1-3.6,2.3-7.3,3.6-11.2c1.3-3.9,2.6-8,3.4-12.3c0.8-4.3,1.2-8.8,0.4-13.2l-0.2-1.1l3.2-0.6
				c1.8,9.2,3.5,18.1,4,26.3c0.6,8.2,0,15.7-1.4,21.8c-1.4,6.1-3.4,10.8-5.2,13.8C324.1,821,322.8,822.4,322.7,822.3z"/>
		</g>
	</g>
</g>
<g>
	<g>
		<g>
			<path class="st0" d="M300.4,763.5c-0.2-0.1,0.5-1.8,1.7-5c1.2-3.1,3-7.6,4.4-13.4c1.4-5.7,2.4-12.8,1.3-20.4
				c-0.6-3.8-1.7-7.7-3.6-11.4c-1.3-2.4-1.2-2.1-1.6-2.7c-0.1-0.1-0.2-0.3-0.2-0.2l0,0.4c0,0.3,0,0.5-0.1,0.8
				c-0.4,4.4-0.8,8.7-1.1,12.9c-0.4,4.3-0.8,8.4-1.1,12.4c-0.7,7.9-1.5,15-2.1,21c-0.3,3-0.5,5.6-0.6,8c-0.1,2.3,0,4.4,0.2,6
				c0.3,3.3,0.8,5.1,0.5,5.2c-0.2,0.1-1.1-1.6-1.8-5c-0.3-1.7-0.6-3.8-0.8-6.2c-0.1-2.4-0.1-5.2,0.1-8.2c0.3-6,0.8-13.1,1.4-21.1
				c0.3-4,0.6-8.1,0.9-12.4c0.4-4.4,0.7-9,1.1-13.7c0.2-2,0.3-4.2,0.6-5.8c0.1-0.9,0.2-1.7,0.4-2.6c0-0.4,0.2,0,0.3,0.2l0.4,0.5
				l0.9,1.1c1.1,1.4,2.2,2.7,3.3,4.3l0.8,1.2c0.1,0.2,0.3,0.4,0.3,0.6l0.2,0.4c0.3,0.5,0.6,1,0.8,1.5c2,4.1,3.1,8.3,3.7,12.4
				c0.5,4.1,0.5,8,0,11.6c-0.4,3.6-1.2,6.9-2.1,9.8c-1.8,5.9-3.9,10.3-5.5,13.3C301.6,762.1,300.6,763.6,300.4,763.5z"/>
		</g>
	</g>
</g>
<g>
	<g>
		<g>
			<path class="st0" d="M1370.6,993.6c-0.1,0,0-0.9,0.1-2.7c0-0.4,0.1-0.9,0.1-1.5c0.1-0.5,0.2-1.1,0.3-1.8c0.2-1.3,0.4-2.8,0.9-4.5
				c0.2-0.8,0.4-1.7,0.7-2.7c0.3-0.9,0.6-1.9,1-2.9c0.2-0.5,0.3-1,0.5-1.5c0.2-0.5,0.4-1,0.7-1.6c0.5-1.1,0.9-2.2,1.5-3.3
				c2.1-4.6,5.1-9.6,9-14.8c3.9-5.3,8.6-10.8,14.1-16.5c5.5-5.7,11.8-11.6,18.3-18.1c6.5-6.5,13.2-13.8,19-22.4
				c2.9-4.3,5.5-8.9,7.6-14c2.1-5,3.6-10.4,4.3-16.1c0.1-1.4,0.2-2.7-0.2-3.9c-0.2-0.6-0.4-1.1-0.7-1.6c-0.4-0.4-0.8-0.9-1.3-1.1
				c-1-0.5-2.2-0.5-3.6-0.3c-1.3,0.3-2.7,0.8-4.1,1.3c-1.4,0.5-2.9,1.1-4.4,1.5c-1.6,0.4-3.2,0.8-5,0.6c-1.8-0.1-3.6-1-4.9-2.4
				c-1.3-1.3-2.1-3-2.5-4.8c-0.4-1.8-0.3-3.6,0.1-5.3c0.4-1.7,1.1-3.3,1.9-4.8c1.6-3,3.6-5.6,5.7-8.3c4.1-5.2,8.8-10.1,13.2-15.3
				c4.3-5.2,8.1-10.9,11.3-17.1c3.1-6.2,5.6-12.9,7.3-19.8c1.7-7,2.7-14.2,2.6-21.6l0-2.8c0-0.9-0.1-1.8-0.1-2.8
				c-0.1-1.9-0.2-3.6-0.7-5.3c-0.4-1.7-1.2-3.3-2.2-4.3c-1-1-2.4-1.4-3.9-1.1c-1.5,0.4-3,1.3-4.4,2.5c-1.4,1.2-2.8,2.5-4,3.9
				c-2.6,2.8-4.9,5.9-7.4,9c-1.3,1.5-2.6,3-4.1,4.5c-1.5,1.4-3.1,2.8-4.9,3.9c-0.9,0.6-1.8,1.1-2.9,1.5c-1.1,0.4-2.4,0.6-3.8,0.3
				c-1.3-0.3-2.5-1.1-3.4-2c-0.8-0.9-1.4-2-1.8-3.1c-0.4-1.1-0.7-2.2-0.8-3.3c-0.1-1.1-0.2-2.1-0.2-3.2c-0.1-2.1,0.1-4.2,0.4-6.3
				c0.7-4.2,1.9-8.2,3.5-12.1c1.5-3.9,3.3-7.6,5-11.4c1.7-3.7,3.4-7.5,5-11.4c3.1-7.7,5.8-15.7,7.9-23.8c2.1-8.2,3.6-16.5,4.4-25
				l0.3-3.2l0.2-3.2c0.1-2.1,0.1-4.3,0.1-6.4c0-2.1-0.1-4.3-0.2-6.4l-0.2-3.2l-0.1-1.6c-0.1-0.5-0.1-1-0.2-1.5c-0.3-2-1-4-2.1-5.1
				c-1.1-1.2-2.6-1.3-4.4-0.7c-0.5,0.1-0.9,0.3-1.4,0.5l-1.4,0.7c-0.9,0.5-1.9,0.9-2.8,1.5l-1.3,0.8c-0.5,0.3-0.9,0.6-1.3,0.9
				c-0.8,0.7-1.7,1.3-2.5,2c-3.2,2.8-5.9,6.1-8.2,9.7c-2.3,3.6-4.2,7.5-5.7,11.5c-3,8-4.8,16.5-5.6,25c-0.9,8.5-1.2,17.1-2,25.6
				c-0.7,8.5-1.9,17-4.3,25.2c-0.7,2-1.3,4.1-2.1,6c-0.7,2-1.7,3.9-2.7,5.8c-2.1,3.8-4.8,7.3-8.7,9.7c-3.8,2.4-8.5,3.4-13,2.1
				c-1.1-0.3-2.2-0.8-3.2-1.4c-0.5-0.3-0.9-0.7-1.4-1c-0.5-0.3-0.9-0.8-1.3-1.2c-1.6-1.7-2.7-3.6-3.5-5.6c-1.6-3.9-2.4-7.9-3.7-11.5
				c-0.7-1.8-1.5-3.5-2.5-4.9c-1-1.5-2.3-2.6-3.8-3.3c-1.5-0.7-3-0.6-4.3,0.1c-1.3,0.7-2.4,2.1-3.3,3.7c-0.9,1.5-1.6,3.3-2.4,5.1
				c-0.7,1.8-1.4,3.5-1.9,5.3c-2.3,7.2-3.6,14.6-3.9,21.9c-0.1,3.7,0,7.3,0.4,10.9c0.4,3.6,1,7.2,1.6,10.7
				c1.4,7.1,3.1,14.1,4.1,21.2c1,7.1,1.3,14.3,0.1,21.2c-0.6,3.5-1.6,6.8-3,10c-0.7,1.6-1.6,3.1-2.5,4.6c-0.9,1.4-2.1,3-3.8,4
				c-1.7,1-4,1.2-5.8,0.6c-1.8-0.6-3.4-1.6-4.6-2.9c-1.3-1.2-2.3-2.8-2.9-4.4c-0.6-1.6-1.1-3.2-1.4-4.8c-0.7-3.1-1.2-6.2-2.5-8.7
				c-0.7-1.2-1.5-2.4-2.6-3.3c-0.5-0.5-1.1-0.8-1.6-1.2c-0.6-0.3-1.2-0.5-1.8-0.6c-1.2-0.2-2.4,0-3.5,0.7c-1.1,0.7-2.1,1.6-3,2.7
				c-1.8,2.3-3.5,4.6-4.8,7.1c-2.7,5-4.3,10.4-5.2,15.7c-0.9,5.4-1,10.7-0.7,15.9c0.6,10.3,3.3,19.9,6.1,28.6
				c2.9,8.7,6.1,16.7,8.7,24.2c2.7,7.5,4.8,14.4,6.3,20.8c1.5,6.4,2.1,12.2,2.4,17.2c0.2,5-0.1,9.3-0.7,12.7
				c-0.1,0.9-0.3,1.6-0.4,2.4c-0.2,0.7-0.3,1.4-0.4,2.1c-0.3,1.3-0.6,2.3-0.9,3.2c-0.6,1.7-0.9,2.5-1,2.5s0.2-0.9,0.6-2.6
				c0.2-0.9,0.4-1.9,0.7-3.2c0.1-0.6,0.2-1.3,0.4-2.1c0.1-0.7,0.3-1.5,0.3-2.4c0.4-3.4,0.7-7.6,0.4-12.6c-0.3-5-1.1-10.7-2.6-17
				c-1.5-6.3-3.7-13.1-6.5-20.5c-2.7-7.4-6-15.4-9-24.1c-3-8.8-5.8-18.4-6.5-29c-0.3-5.3-0.3-10.8,0.6-16.3
				c0.9-5.5,2.5-11.2,5.3-16.5c1.3-2.7,3.1-5.1,5-7.6c1-1.2,2.1-2.4,3.6-3.3c1.5-0.9,3.4-1.3,5.2-1c0.9,0.1,1.7,0.5,2.5,0.9
				c0.8,0.4,1.5,0.9,2.1,1.5c1.3,1.1,2.3,2.5,3.1,4c1.6,3.1,2,6.3,2.8,9.3c0.3,1.5,0.7,3,1.3,4.4c0.6,1.4,1.3,2.6,2.4,3.6
				c1,1,2.3,1.8,3.6,2.2c1.3,0.4,2.6,0.3,3.7-0.4c1.1-0.7,2.1-1.8,2.9-3.2c0.8-1.4,1.6-2.7,2.3-4.2c1.3-2.9,2.3-6.1,2.8-9.4
				c1.1-6.6,0.9-13.5-0.2-20.3c-1-6.9-2.7-13.9-4.1-21c-0.7-3.6-1.3-7.3-1.7-11c-0.4-3.7-0.5-7.5-0.4-11.3c0.2-7.6,1.6-15.3,4-22.8
				c0.6-1.9,1.3-3.7,2-5.5c0.8-1.8,1.5-3.6,2.5-5.5c1-1.8,2.4-3.6,4.5-4.8c1-0.6,2.3-1,3.5-1c1.2,0,2.4,0.2,3.5,0.7
				c2.1,0.9,3.8,2.5,5.1,4.3c1.3,1.8,2.2,3.7,2.9,5.7c1.4,3.9,2.2,7.8,3.7,11.4c0.7,1.7,1.7,3.3,2.9,4.6c1.2,1.3,2.7,2.3,4.4,2.7
				c3.4,1,7.4,0.1,10.5-1.8c3.2-2,5.7-5.1,7.6-8.6c1-1.7,1.8-3.6,2.5-5.5c0.8-1.9,1.4-3.8,2-5.8c2.3-7.9,3.5-16.1,4.2-24.6
				c0.7-8.4,1-17,1.9-25.7c0.8-8.7,2.6-17.4,5.8-25.8c1.6-4.2,3.6-8.2,6-12.1c2.4-3.8,5.3-7.4,8.8-10.4c0.9-0.8,1.8-1.4,2.7-2.2
				c0.4-0.4,0.9-0.7,1.4-1l1.5-0.9c1-0.7,2-1.1,3-1.6l1.5-0.8c0.5-0.2,1.1-0.5,1.7-0.6c1.2-0.4,2.5-0.7,4-0.4c1.4,0.2,2.8,1,3.8,2
				c1,1,1.6,2.2,2,3.3c0.4,1.2,0.7,2.3,0.9,3.5c0.1,0.6,0.2,1.2,0.2,1.7l0.1,1.7l0.2,3.3c0.1,2.2,0.2,4.4,0.2,6.6
				c0,2.2,0,4.4-0.1,6.6l-0.2,3.3l-0.3,3.3c-0.8,8.7-2.3,17.3-4.5,25.6c-2.2,8.3-4.9,16.4-8,24.2c-1.6,3.9-3.3,7.7-5,11.5
				c-1.7,3.8-3.5,7.5-5,11.2c-1.5,3.7-2.7,7.6-3.3,11.4c-0.3,1.9-0.5,3.9-0.4,5.8c0,1,0.1,1.9,0.2,2.9c0.1,0.9,0.3,1.8,0.6,2.6
				c0.6,1.6,1.6,2.9,2.9,3.1c1.2,0.3,2.9-0.4,4.5-1.4c1.6-1,3.1-2.1,4.4-3.5c1.4-1.3,2.7-2.7,3.9-4.2c2.5-2.9,4.8-6.1,7.5-9.1
				c1.3-1.5,2.8-2.9,4.4-4.2c1.5-1.3,3.3-2.6,5.6-3.1c1.1-0.3,2.4-0.3,3.6,0.1c1.2,0.3,2.3,1,3.1,1.8c1.6,1.7,2.5,3.7,3,5.7
				c0.5,2,0.7,4,0.8,5.9c0,1,0.1,1.9,0.1,2.9l0,2.9c0,7.6-1,15.1-2.8,22.3c-1.8,7.2-4.4,14-7.6,20.4c-3.3,6.4-7.3,12.3-11.7,17.6
				c-4.4,5.3-9.1,10.1-13.2,15.2c-2,2.5-4,5.2-5.5,7.9c-1.5,2.7-2.4,5.6-1.8,8.3c0.3,1.4,0.9,2.6,1.8,3.6c0.9,0.9,2,1.5,3.4,1.6
				c1.3,0.1,2.7-0.1,4.1-0.5c1.4-0.4,2.8-0.9,4.3-1.4c1.4-0.5,2.9-1.1,4.5-1.4c0.8-0.2,1.7-0.2,2.5-0.2c0.9,0.1,1.8,0.3,2.6,0.7
				c0.8,0.5,1.5,1.1,2,1.8c0.5,0.7,0.9,1.6,1.1,2.4c0.4,1.7,0.3,3.3,0.2,4.8c-0.7,5.9-2.3,11.5-4.5,16.7c-2.2,5.2-5,9.9-7.9,14.3
				c-6.1,8.7-12.9,15.9-19.5,22.5c-6.6,6.5-12.9,12.3-18.5,17.9c-5.6,5.6-10.3,11-14.2,16.2c-3.9,5.2-7,10-9.2,14.5
				c-0.6,1.1-1,2.2-1.5,3.3c-0.2,0.5-0.5,1-0.7,1.5c-0.2,0.5-0.4,1-0.6,1.5c-0.4,1-0.7,1.9-1,2.8c-0.3,0.9-0.5,1.8-0.7,2.6
				c-0.5,1.6-0.8,3.1-1,4.4c-0.1,0.6-0.3,1.2-0.4,1.7c-0.1,0.5-0.1,1-0.2,1.5C1370.8,992.7,1370.7,993.6,1370.6,993.6z"/>
		</g>
	</g>
</g>
<g>
	<g>
		<g>
			<path class="st0" d="M1383.2,767.9c-0.1,0,0.1-0.7,0.4-1.9c0.3-1.3,0.8-3.1,1.4-5.6c1.2-4.9,2.9-12.2,4.5-21.7
				c0.8-4.7,1.6-10,2.2-15.8c0.2-2.9,0.3-5.9-0.4-8.9c-0.3-1.5-0.8-3-1.6-4.3c-0.8-1.3-1.8-2.6-3-3.6c-1.2-1-2.7-1.8-4.2-2.1
				c-0.8-0.2-1.6-0.2-2.4-0.2c-0.8,0.1-1.6,0.3-2.4,0.6c-1.6,0.6-3.1,1.6-4.8,2.6c-1.7,1-3.6,1.9-5.8,2c-2.2,0.1-4.3-0.5-6.2-1.6
				c-1.9-1.1-3.5-2.6-4.8-4.3c-1.3-1.7-2.3-3.9-2.8-6c-0.6-2.1-0.9-4.3-0.9-6.6c-0.2-4.4,0.3-8.8,0.5-13.3c0.2-4.5,0.4-9.1,0.4-13.8
				c0.2-9.4,0.1-19.1-0.4-29.2c-0.2-5-0.5-10.2-0.9-15.4c-0.2-2.5-0.5-5.1-1.3-7.4c-0.8-2.3-2-4.5-3.9-5.6c-1.9-1.2-4.3-1.2-6.6-0.2
				c-2.3,0.9-4.4,2.5-6.2,4.5c-3.7,3.9-6.8,8.5-9.1,13.5c-2.3,5-4,10.5-5.1,16.1c-1.1,5.6-1.8,11.4-2.3,17.3
				c-0.5,5.9-0.6,11.9-0.9,18c-0.3,6.1-0.7,12.3-1.5,18.5c-0.8,6.2-2.2,12.5-4.3,18.6c-0.5,1.5-1.2,3-1.8,4.5l-1.1,2.2
				c-0.3,0.7-0.7,1.5-1.1,2.2l-1.2,2.1c-0.4,0.7-0.9,1.4-1.3,2.1c-0.5,0.7-0.9,1.4-1.4,2c-0.5,0.7-1.1,1.3-1.7,2
				c-1.2,1.2-2.6,2.4-4.4,3.2c-0.9,0.4-1.9,0.6-2.9,0.7c-1,0-2.1-0.1-3-0.5c-2-0.7-3.4-2.2-4.4-3.7c-1-1.5-1.7-3.1-2.3-4.7
				c-0.6-1.6-1-3.1-1.5-4.7c-0.5-1.6-1-3.1-1.5-4.7c-1-3.1-1.9-6.2-2.9-9.4c-0.5-1.5-1-2.9-1.8-3.9c-0.2-0.2-0.4-0.5-0.6-0.7
				c-0.2-0.2-0.5-0.3-0.7-0.5c-0.5-0.2-1-0.5-1.6-0.4c-1.2-0.1-2.5,0.4-3.7,1.1c-1.2,0.7-2.4,1.7-3.3,2.8c-0.5,0.5-0.9,1.1-1.4,1.7
				c-0.2,0.3-0.4,0.6-0.6,0.9l-0.5,1c-0.4,0.7-0.7,1.4-1.1,2.1l-0.9,2.1c-1.1,2.9-2.1,5.9-2.6,8.9c-0.6,3.1-1,6.1-1.1,9.3
				c-0.1,1.5-0.1,3.1-0.1,4.7c0.1,1.6,0.1,3.1,0.2,4.7c0.4,6.2,1.4,12.3,2.6,18.3c2.5,12.1,5.7,24,6.6,36.1c0.5,6,0.4,12.1-0.5,18
				c-0.2,1.5-0.5,3-1.1,4.6c-0.3,0.8-0.8,1.6-1.5,2.3c-0.6,0.7-1.5,1.2-2.3,1.6c-1.8,0.7-3.8,0.5-5.3-0.2c-1.6-0.6-2.9-1.5-4.1-2.6
				c-1.1-1.1-2.1-2.5-2.8-3.9c-0.7-1.4-1.2-2.7-1.7-4c-1-2.6-1.9-5.1-3.5-7c-1.6-1.8-3.8-2.8-6.3-2.8c-2.4-0.1-4.9,0.7-7,1.9
				c-4.4,2.4-6.6,7.3-7.3,12.2c-0.8,4.9-0.3,10,0.4,15c1.4,9.9,4,19.3,6.9,28.2c3,8.8,6.5,17.2,10,25c7.1,15.7,14.1,29.6,19.6,42.2
				c5.5,12.6,9.6,23.7,12.1,33.1c2.5,9.3,3.6,16.8,4.1,21.9c0.3,2.5,0.3,4.5,0.4,5.8c0,1.3,0,2,0,2c-0.1,0-0.2-0.7-0.3-2
				c-0.1-1.3-0.3-3.2-0.7-5.7c-0.7-5-2-12.4-4.6-21.6c-2.7-9.2-6.9-20.2-12.5-32.7c-5.6-12.5-12.8-26.3-20-42
				c-3.6-7.9-7.2-16.2-10.3-25.1c-3.1-8.9-5.8-18.5-7.2-28.6c-0.8-5-1.3-10.4-0.5-15.8c0.4-2.7,1.2-5.4,2.6-7.9
				c0.7-1.2,1.6-2.5,2.6-3.5c1-1,2.2-2,3.4-2.7c2.5-1.5,5.4-2.5,8.5-2.4c1.5,0.1,3.1,0.3,4.6,1c1.4,0.7,2.8,1.6,3.8,2.8
				c2.1,2.4,3.1,5.3,4.1,7.9c0.5,1.3,1,2.6,1.6,3.8c0.6,1.2,1.3,2.1,2.2,3c0.9,0.9,2,1.6,3.1,2c1.1,0.4,2.2,0.5,3.1,0.2
				c0.9-0.4,1.6-1.1,2.1-2.2c0.5-1.1,0.7-2.4,0.9-3.9c0.9-5.6,0.9-11.4,0.4-17.3c-1-11.7-4.2-23.5-6.7-35.7
				c-1.3-6.1-2.3-12.4-2.7-18.8c-0.1-1.6-0.2-3.2-0.2-4.8c0-1.6,0-3.2,0.1-4.9c0.1-3.2,0.5-6.5,1.1-9.7c0.6-3.2,1.6-6.4,2.8-9.5
				l1-2.3c0.3-0.8,0.8-1.5,1.1-2.2l0.6-1.1c0.2-0.4,0.5-0.8,0.7-1.1c0.5-0.7,1-1.4,1.6-2.1c1.2-1.3,2.5-2.5,4.1-3.4
				c1.6-0.9,3.4-1.7,5.5-1.5c1,0,2.1,0.4,3,0.8c0.4,0.3,0.9,0.6,1.3,0.9c0.4,0.3,0.8,0.7,1.1,1.1c1.2,1.6,1.8,3.4,2.3,5
				c1,3.1,2,6.3,2.9,9.4c0.5,1.6,1,3.1,1.5,4.7c0.5,1.5,1,3.1,1.5,4.6c0.5,1.5,1.1,2.8,1.9,4c0.8,1.2,1.7,2.1,2.8,2.5
				c2.2,0.9,4.8-0.5,6.8-2.6c0.5-0.5,1-1.1,1.4-1.7c0.5-0.6,0.9-1.3,1.3-1.9c0.4-0.6,0.9-1.3,1.3-1.9l1.1-2c0.4-0.7,0.7-1.4,1.1-2
				l1-2.1c0.6-1.4,1.2-2.8,1.7-4.3c2.1-5.8,3.4-11.8,4.2-17.9c0.8-6.1,1.2-12.2,1.5-18.2c0.3-6.1,0.5-12.1,0.9-18.1
				c0.5-6,1.2-11.9,2.4-17.7c1.2-5.8,2.9-11.5,5.4-16.8c2.5-5.3,5.7-10.2,9.7-14.3c2-2.1,4.4-3.9,7.2-5.1c1.4-0.6,3-0.9,4.6-0.9
				c1.6,0,3.2,0.5,4.6,1.3c1.4,0.8,2.5,2,3.3,3.2c0.8,1.3,1.4,2.6,1.8,4c0.9,2.7,1.2,5.5,1.4,8.1c0.4,5.2,0.6,10.4,0.8,15.5
				c0.4,10.2,0.4,20,0.2,29.4c-0.1,4.7-0.3,9.3-0.5,13.8c-0.2,4.5-0.7,8.9-0.6,13.1c0.1,4.2,1,8.3,3.2,11.3c2.2,3.1,5.7,5.3,9.2,5.1
				c1.7,0,3.3-0.7,4.9-1.6c1.6-0.9,3.2-2,5-2.7c0.9-0.4,1.9-0.6,2.9-0.7c1,0,2,0,2.9,0.2c1.9,0.4,3.6,1.4,5,2.6
				c1.4,1.2,2.5,2.6,3.4,4.1c0.9,1.5,1.4,3.2,1.7,4.8c0.6,3.3,0.5,6.4,0.2,9.4c-0.7,5.9-1.6,11.2-2.5,15.9
				c-1.8,9.5-3.7,16.8-5.1,21.6c-0.7,2.4-1.3,4.3-1.7,5.5C1383.5,767.2,1383.3,767.9,1383.2,767.9z"/>
		</g>
	</g>
</g>
<g>
	<g>
		<g>
			<path class="st0" d="M887.9,479.9c-0.4,0.3-2.8-2.6-7.2-6.8c-4.3-4.2-10.8-9.5-19-13.7c-4-2.1-8.1-3.8-11.8-5.1
				c-3.8-1.2-7.2-2.2-10.2-2.8c-1.5-0.4-2.8-0.5-4-0.8c-0.3-0.1-0.6-0.1-0.8-0.2c-0.2,0-0.4-0.1-0.7,0c-0.4,0-0.9,0.1-1.2,0.2
				c-0.7,0.2-1.1,0.5-1.3,0.9c-0.1,0.4,0,0.5-0.1,0.6c-0.1,0-0.4-0.2-0.5-0.8c-0.1-0.6,0.5-1.4,1.4-1.8c0.4-0.2,0.9-0.4,1.5-0.6
				c0.3-0.1,0.6-0.1,1-0.1c0.3,0,0.6,0,0.9,0c1.2,0.1,2.7,0.1,4.2,0.3c3.1,0.3,6.8,1.1,10.7,2.2c4,1.2,8.2,2.9,12.4,5.1
				c8.5,4.4,15.1,10.3,19.1,15C886.5,476.2,888.2,479.6,887.9,479.9z"/>
		</g>
	</g>
</g>
<g>
	<g>
		<g>
			<path class="st0" d="M896.1,465.3c-0.4,0.2-2.7-2.9-6.1-7.9c-3.5-5-8.2-12.1-14.1-19.2c-3-3.5-6-6.7-8.9-9.5
				c-1.5-1.3-2.9-2.6-4.3-3.7c-0.7-0.5-1.4-1.1-2-1.6c-0.7-0.5-1.3-0.9-1.9-1.4c-5-3.4-8.4-5-8.2-5.5c0.1-0.2,1,0,2.7,0.5
				c0.4,0.1,0.9,0.3,1.4,0.5c0.5,0.2,1,0.4,1.6,0.7c1.1,0.5,2.4,1.1,3.8,1.9c0.7,0.4,1.4,0.8,2.1,1.2c0.7,0.5,1.4,1,2.2,1.5
				c1.6,1,3,2.3,4.7,3.6c3.1,2.7,6.4,6,9.4,9.6c6.1,7.3,10.6,14.7,13.6,20.1C894.9,461.6,896.5,465.1,896.1,465.3z"/>
		</g>
	</g>
</g>
<g>
	<g>
		<g>
			<path class="st0" d="M903.7,406.5c1,0.2-1.6,12.7-1.3,28.3c0.1,15.6,3,28.1,2,28.3c-0.4,0.1-1.7-2.9-2.9-8
				c-0.6-2.5-1.2-5.6-1.6-9c-0.4-3.4-0.7-7.2-0.8-11.2c0-4,0.2-7.8,0.5-11.3c0.4-3.4,0.9-6.5,1.4-9.1
				C902.2,409.4,903.3,406.4,903.7,406.5z"/>
		</g>
	</g>
</g>
<g>
	<g>
		<g>
			<path class="st0" d="M1034.7,188.2c0,0.2-0.8,0.3-2.2,0.2c-1.4-0.1-3.4-0.7-5.7-1.8c-2.3-1.1-4.8-2.9-7.2-5.3
				c-2.4-2.4-4.6-5.3-6.5-8.6c-1.9-3.3-3.4-6.5-4.8-9.4c-1.4-2.9-2.5-5.5-3.6-7.6c-2.1-4.3-3.7-6.8-3.4-7.1c0.3-0.3,2.6,1.8,5.4,6
				c1.4,2.1,2.8,4.6,4.3,7.5c1.5,2.8,3.1,6,4.9,9.1c1.8,3.1,3.8,5.9,5.9,8.2c2.1,2.3,4.2,4.1,6.1,5.3
				C1031.8,187.2,1034.8,187.7,1034.7,188.2z"/>
		</g>
	</g>
</g>
<g>
	<g>
		<g>
			<path class="st0" d="M1048.5,174.2c-0.2,0.3-3.6-1.6-8.2-5.6c-4.6-4-10.5-10.3-15.6-18.2c-1.3-2-2.4-3.9-3.5-5.9
				c-0.5-1-1-1.9-1.5-2.9l-0.3-0.6l-0.1-0.2l-0.1-0.2l-0.2,0c-0.2,0-0.1,0-0.8,0.2c-0.5,0.1-0.9,0.2-1.4,0.4
				c-0.9,0.2-1.8,0.5-2.6,0.8c-1.7,0.5-3.2,1-4.6,1.5c-5.6,2-9,3.7-9.2,3.3c-0.2-0.4,2.8-2.8,8.3-5.4c1.4-0.7,2.9-1.3,4.6-2
				c0.8-0.3,1.7-0.6,2.7-0.9c1-0.3,1.6-0.5,3.5-1c0.4-0.1,0.8-0.2,1.2-0.3c0.2,0.4,0.4,0.8,0.6,1.2c0.3,0.6,0.7,1.3,1,2
				c0.5,0.9,1,1.8,1.5,2.8c1.1,1.9,2.2,3.8,3.5,5.7c5,7.6,10.4,13.9,14.5,18.3C1046,171.3,1048.8,173.8,1048.5,174.2z"/>
		</g>
	</g>
</g>
<g>
	<g>
		<g>
			<path class="st0" d="M1051.2,176.7c0.4,0.2,0.1,1.6-0.9,3.6c-1,2-2.9,4.5-5.5,6.7c-2.6,2.2-5.4,3.6-7.5,4.2
				c-2.1,0.6-3.5,0.6-3.7,0.2c-0.3-0.9,4.4-3,9.1-6.9C1047.5,180.6,1050.4,176.3,1051.2,176.7z"/>
		</g>
	</g>
</g>
<g>
	<g>
		<g>
			<path class="st0" d="M1047.6,380.8c0.2-0.1,0.5,0.4,1.3,0.9c0.4,0.2,0.8,0.4,1.4,0.5c0.6,0.1,1.3,0,1.9-0.2c1.2-0.5,2.2-2,2.3-4
				c0.1-1-0.1-2-0.6-2.9c-0.4-1-1.1-1.9-2-2.6c-1.7-1.5-4-1.9-5.6-1.2c-1.6,0.7-2.5,2.5-2.8,4c-0.3,1.5,0.1,2.8,0.5,3.6
				c0.4,0.8,0.9,1.2,0.7,1.4c-0.1,0.1-0.2,0.1-0.5,0c-0.3-0.1-0.7-0.3-1.2-0.6c-0.9-0.7-1.8-2.4-1.8-4.6c0-1.1,0.2-2.2,0.8-3.4
				c0.6-1.1,1.5-2.3,2.9-3.1c1.4-0.7,3-1,4.6-0.7c1.6,0.2,3.1,1,4.4,2c1.3,1,2.3,2.4,2.9,3.8c0.6,1.5,0.8,3.1,0.6,4.5
				c-0.2,1.4-0.7,2.8-1.5,3.8c-0.8,1.1-1.9,1.8-3.1,2.1c-2.3,0.5-4.1-0.5-4.8-1.5C1047.3,381.6,1047.4,380.9,1047.6,380.8z"/>
		</g>
	</g>
</g>
<g>
	<g>
		<g>
			<path class="st0" d="M745.3,517.2c-0.5,0.7-6.3-2.9-12.2-8.8c-5.9-5.9-9.6-11.6-8.9-12.1c0.7-0.6,5.4,4.1,11.2,9.8
				C741.1,511.9,745.8,516.5,745.3,517.2z"/>
		</g>
	</g>
</g>
<g>
	<g>
		<g>
			<path class="st0" d="M754,458.1c0,0,0.1,0,0.2-0.1c0,0,0,0,0,0c0-0.1,0-0.1,0-0.1c0-0.1,0-0.3-0.1-0.4c0,0-0.1,0,0,0l0.1,0
				c0,0,0,0,0,0c0,0,0.1,0,0,0.1l-0.1,0l0,0l0,0c0.1,0.1,0,0,0.1,0.1l0,0l0,0c0,0-0.1,0-0.1,0c-0.1,0.1-0.2,0.2-0.3,0.5
				c-0.1,0.3-0.2,0.6-0.4,1.1c-0.3,0.9-0.6,1.9-1,3c-0.8,2.2-2,4.8-3.5,7.6c-1.5,2.8-3.3,5.7-5.5,8.7c-4.3,5.9-9.2,10.5-12.9,13.4
				c-3.8,2.9-6.4,4.2-6.7,3.9c-0.6-0.8,8.7-7.8,17-19.2c2.1-2.8,3.9-5.6,5.5-8.2c1.6-2.6,2.9-5,4-7.1c0.5-1,1-2,1.4-2.8
				c0.2-0.4,0.4-0.9,0.8-1.3c0.3-0.4,0.8-0.8,1.4-0.8c0.3,0,0.5,0,0.8,0.2c0.4,0.3,0.4,0.6,0.4,0.8c0,0.4-0.2,0.7-0.4,0.9
				c-0.1,0.1-0.2,0.2-0.4,0.2c-0.1,0-0.3-0.1-0.3-0.1C754,458.2,754,458.1,754,458.1z"/>
		</g>
	</g>
</g>
<g>
	<g>
		<g>
			<path class="st0" d="M768.3,476.4c0.4,0.1,0.3,2.9-0.9,7.3c-0.3,1.1-0.7,2.3-1.1,3.5c-0.4,1.3-1,2.6-1.6,3.9
				c-1.3,2.7-2.9,5.6-4.9,8.5c-2,2.8-4.1,5.4-6.2,7.5c-1.1,1-2.1,2-3.1,2.9c-1,0.9-2,1.6-2.9,2.3c-3.7,2.7-6.3,3.7-6.5,3.4
				c-0.3-0.4,1.9-2.2,5-5.2c0.8-0.8,1.7-1.6,2.5-2.5c0.9-0.9,1.8-1.9,2.8-3c1.9-2.2,3.9-4.6,5.8-7.3c1.9-2.7,3.5-5.4,4.8-8
				c0.6-1.3,1.3-2.5,1.8-3.6c0.6-1.1,1-2.2,1.5-3.2C767,478.8,767.9,476.2,768.3,476.4z"/>
		</g>
	</g>
</g>
<g>
	<g>
		<g>
			<path class="st0" d="M770.2,481c-0.8,0.4-3.8-4.2-7.6-9.6c-3.8-5.5-7.1-9.8-6.4-10.5c0.6-0.6,5.1,2.9,9.1,8.6
				C769.3,475.2,771,480.6,770.2,481z"/>
		</g>
	</g>
</g>
<g>
	<g>
		<g>
			<path class="st0" d="M580.7,367.5c0.3,0.1-0.4,3.4-3.4,7.7c-1.5,2.2-3.5,4.6-6.2,6.8c-2.7,2.2-6,4.3-9.9,5.7
				c-3.9,1.4-7.8,1.8-11.4,1.5c-3.6-0.5-6.7-1.9-8.8-3.8c-2.1-1.8-3.1-4.1-3.3-5.6c0-0.8,0-1.4,0.1-1.8c0.1-0.4,0.2-0.6,0.3-0.6
				c0.1,0,0.2,0.2,0.3,0.6c0.1,0.4,0.2,0.9,0.4,1.5c0.5,1.2,1.5,2.8,3.4,4.1c1.9,1.3,4.6,2.4,7.7,2.6c3.1,0.1,6.6-0.3,10.1-1.5
				c3.5-1.2,6.5-3,9.1-5c2.6-1.9,4.6-4,6.3-5.9C578.7,370.1,580.2,367.3,580.7,367.5z"/>
		</g>
	</g>
</g>
<g>
	<g>
		<g>
			<path class="st0" d="M1120,180.6c0-0.5,1.4-0.7,2.6-1.9c0.6-0.6,1.2-1.5,1.3-2.4c0.1-0.5,0-0.9-0.1-1.4c-0.2-0.5-0.5-0.9-0.9-1.3
				c-0.8-0.8-1.8-1.1-2.6-0.9c-0.8,0.2-1.5,0.9-1.9,1.6c-0.4,0.7-0.6,1.4-0.6,1.9c0,0.5,0,0.9-0.2,1c-0.2,0.1-0.6,0-1-0.7
				c-0.4-0.6-0.7-1.8-0.4-3.1c0.3-1.3,1.2-2.9,3.1-3.6c1-0.4,2.1-0.4,3.1-0.2c1,0.3,2,0.8,2.8,1.6c0.8,0.8,1.3,1.7,1.6,2.7
				c0.3,1,0.3,2.1,0,3c-0.5,1.9-1.8,3-2.9,3.6c-1.2,0.6-2.2,0.7-2.9,0.6C1120.3,181.1,1120,180.9,1120,180.6z"/>
		</g>
	</g>
</g>
<g>
	<g>
		<g>
			<path class="st0" d="M1267.7,298.8c-0.9,0.3-2.8-2.8-5.4-6.3c-2.6-3.6-5-6.4-4.4-7.1c0.3-0.3,1.3-0.1,2.6,0.8
				c1.3,0.9,3,2.4,4.4,4.3c1.4,2,2.4,4,2.8,5.5C1268.1,297.6,1268.1,298.7,1267.7,298.8z"/>
		</g>
	</g>
</g>
<g>
	<g>
		<g>
			<path class="st0" d="M1285.3,248.9c0.4,0.1-0.1,2.8-1.6,6.8c-0.7,2-1.8,4.3-3.1,6.9c-1.3,2.5-2.9,5.2-4.7,7.9
				c-1.9,2.7-3.8,5.1-5.7,7.3c-1.9,2.1-3.7,3.9-5.3,5.3c-3.2,2.9-5.5,4.2-5.8,3.9c-0.6-0.7,6.9-7.9,14-18.4
				C1280.4,258.2,1284.4,248.5,1285.3,248.9z"/>
		</g>
	</g>
</g>
<g>
	<g>
		<g>
			<path class="st0" d="M1293.4,263.4c0.4,0.1,0.2,2.6-1,6.5c-0.6,1.9-1.5,4.2-2.7,6.6c-1.2,2.4-2.8,4.9-4.6,7.4
				c-1.9,2.5-3.9,4.7-5.8,6.5c-2,1.8-3.8,3.4-5.5,4.5c-3.4,2.3-5.7,3.2-5.9,2.8c-0.5-0.8,7.6-6.3,14.7-15.8
				C1289.6,272.5,1292.5,263.1,1293.4,263.4z"/>
		</g>
	</g>
</g>
<g>
	<g>
		<g>
			<path class="st0" d="M1293.2,262.2c-0.9,0.3-2.6-2.5-5-5.7c-2.3-3.2-4.4-5.8-3.9-6.5c0.3-0.3,1.2-0.1,2.5,0.7
				c1.2,0.8,2.7,2.1,4,3.9c1.3,1.8,2.1,3.7,2.5,5.1C1293.7,261.1,1293.6,262,1293.2,262.2z"/>
		</g>
	</g>
</g>
<g>
	<g>
		<g>
			<path class="st0" d="M1294.4,387.1c0.1-0.5,1.1-0.6,1.7-1.6c0.4-0.4,0.7-1.1,0.8-1.8c0-0.3,0.1-0.7,0-1c-0.1-0.3-0.2-0.5-0.4-0.7
				c-0.2-0.2-0.4-0.3-0.7-0.3c-0.3-0.1-0.6,0-1,0c-0.7,0.1-1.3,0.5-1.8,0.9c-0.9,0.7-1,1.7-1.5,1.8c-0.2,0.1-0.5-0.1-0.7-0.7
				c-0.2-0.6-0.2-1.5,0.3-2.4c0.5-0.9,1.4-1.9,2.7-2.4c0.7-0.2,1.4-0.4,2.3-0.3c0.9,0.1,1.8,0.5,2.5,1.1c0.7,0.7,1.1,1.6,1.3,2.4
				c0.2,0.9,0,1.7-0.2,2.3c-0.5,1.4-1.3,2.3-2.2,2.9c-0.9,0.5-1.9,0.6-2.4,0.4C1294.6,387.6,1294.4,387.3,1294.4,387.1z"/>
		</g>
	</g>
</g>
<g>
	<g>
		<g>
			<path class="st0" d="M1196.5,354.2c-0.4-0.3-0.4-0.9-0.8-1.5c-0.3-0.6-0.9-1.2-1.3-1.2c-0.4-0.1-1.2,0.2-1.7,0.6
				c-0.5,0.4-0.8,0.9-1.3,1c-0.2,0-0.5-0.1-0.7-0.4c-0.2-0.3-0.3-0.9-0.2-1.6c0.1-0.7,0.6-1.4,1.3-2c0.7-0.6,1.9-1,3.2-0.8
				c1.3,0.3,2.2,1.1,2.6,2c0.4,0.8,0.5,1.7,0.4,2.4c-0.1,0.7-0.4,1.2-0.8,1.4C1197,354.3,1196.7,354.3,1196.5,354.2z"/>
		</g>
	</g>
</g>
<g>
	<g>
		<g>
			<path class="st0" d="M728.7,62.6c-0.4-0.3-0.1-1.3-0.7-2.4c-0.3-0.6-0.7-1.2-1.3-1.5c-0.6-0.3-1.2-0.4-1.8-0.1
				c-0.6,0.3-1.1,0.9-1.4,1.5c-0.3,0.6-0.3,1.2-0.2,1.7l-0.9-0.6c0.5,0.2,1.2,0.2,1.6,0.2c0.5-0.1,0.8-0.1,1,0
				c0.2,0.2,0.2,0.6-0.3,1.1c-0.4,0.5-1.4,1.1-2.8,1.1l-0.5,0l-0.4-0.6c-0.7-1-0.9-2.4-0.5-3.8c0.4-1.3,1.3-2.7,2.9-3.5
				c0.8-0.4,1.9-0.6,2.8-0.4c0.9,0.2,1.7,0.6,2.3,1.1c1.2,1,1.6,2.3,1.7,3.4c0.1,1.1-0.3,2-0.6,2.4
				C729.2,62.6,728.9,62.7,728.7,62.6z"/>
		</g>
	</g>
</g>
<g>
	<g>
		<g>
			<path class="st0" d="M705.1,237.8c-0.9,0-1.6-2.6-3-5.5c-1.3-2.9-2.9-5.1-2.3-5.8c0.3-0.3,1.1-0.2,2.2,0.6c1,0.7,2.2,2.1,3,3.8
				c0.8,1.8,1.1,3.5,1,4.8C705.9,237,705.5,237.8,705.1,237.8z"/>
		</g>
	</g>
</g>
<g>
	<g>
		<g>
			<path class="st0" d="M286.9,285.7c0.1,0.2-2.3,1.3-6.5,3.1c-1.1,0.4-2.3,0.9-3.6,1.5c-1.3,0.6-2.7,1.2-4.2,1.9
				c-3,1.4-6.4,2.9-10.1,4.8c-1.8,0.9-3.8,1.9-5.8,3c-2,1-4,2.3-6.1,3.4c-4.3,2.3-8.6,5.2-13.3,8c-9.1,6-18.9,13.1-28.5,21.3
				c-9.5,8.3-18,16.9-25.3,25c-3.5,4.2-7,8.1-9.9,12c-1.5,1.9-3,3.7-4.3,5.6c-1.3,1.8-2.6,3.6-3.8,5.3c-2.5,3.3-4.4,6.5-6.3,9.3
				c-0.9,1.4-1.7,2.7-2.5,3.8c-0.7,1.2-1.4,2.3-2,3.3c-2.4,4-3.9,6.1-4.1,6s0.9-2.5,3-6.6c0.5-1,1.1-2.2,1.8-3.5
				c0.7-1.2,1.5-2.6,2.3-4c1.7-2.9,3.5-6.2,5.9-9.6c1.2-1.7,2.4-3.6,3.6-5.5c1.3-1.9,2.8-3.8,4.2-5.7c2.9-4,6.3-8,9.8-12.3
				c7.3-8.4,15.8-17.1,25.4-25.5c9.7-8.3,19.6-15.4,29-21.4c4.7-2.9,9.2-5.6,13.6-7.9c2.2-1.1,4.2-2.3,6.3-3.3c2.1-1,4-1.9,5.9-2.8
				c3.8-1.9,7.3-3.2,10.4-4.4c1.5-0.6,3-1.2,4.3-1.7c1.3-0.5,2.6-0.9,3.7-1.2C284.3,286.2,286.8,285.5,286.9,285.7z"/>
		</g>
	</g>
</g>
<g>
	<g>
		<g>
			<path class="st0" d="M341.2,405.2c0,0.2-2.7,0.4-7.6,0.6c-1.2,0-2.6,0.1-4.1,0.1c-1.5,0.1-3.1,0.2-4.8,0.3
				c-3.5,0.3-7.4,0.4-11.7,0.9c-2.2,0.2-4.4,0.5-6.8,0.7c-2.4,0.3-4.8,0.7-7.3,1.1c-2.5,0.4-5.2,0.7-7.8,1.3
				c-2.7,0.5-5.4,1.1-8.2,1.7c-11.2,2.5-23.4,6-35.8,10.6c-12.4,4.7-23.8,10.2-33.9,15.6c-2.5,1.4-4.9,2.8-7.3,4.2
				c-2.4,1.3-4.6,2.8-6.7,4.2c-2.1,1.4-4.3,2.7-6.2,4c-1.9,1.4-3.8,2.7-5.6,3.9c-3.6,2.4-6.7,4.9-9.4,7c-1.4,1.1-2.7,2-3.8,2.9
				c-1.1,0.9-2.2,1.8-3.1,2.6c-3.8,3.1-5.9,4.7-6.1,4.6s1.7-2.1,5.3-5.5c0.9-0.8,1.9-1.8,3-2.8c1.1-1,2.4-2,3.7-3.2
				c2.7-2.2,5.7-4.9,9.2-7.5c1.8-1.3,3.6-2.7,5.5-4.1c1.9-1.4,4.1-2.8,6.2-4.2c2.2-1.4,4.3-3,6.7-4.4c2.4-1.4,4.8-2.9,7.3-4.3
				c10.2-5.7,21.7-11.3,34.3-16.1c12.6-4.7,25-8.1,36.4-10.5c2.9-0.5,5.7-1,8.4-1.5c2.7-0.6,5.4-0.8,7.9-1.2c2.6-0.3,5-0.7,7.4-0.9
				c2.4-0.2,4.7-0.4,6.9-0.5c4.4-0.4,8.4-0.4,11.9-0.5c1.7,0,3.4-0.1,4.9-0.1c1.5,0.1,2.9,0.1,4.1,0.2
				C338.5,404.7,341.2,405,341.2,405.2z"/>
		</g>
	</g>
</g>
<g>
	<g>
		<g>
			<path class="st0" d="M135.2,366.2c-0.2-0.1,0.2-2.2,1-6.1c0.2-1,0.5-2,0.7-3.2c0.2-1.2,0.5-2.5,0.7-3.9c0.5-2.8,1.2-5.9,1.7-9.4
				c0.3-1.7,0.6-3.6,0.9-5.5c0.3-1.9,0.5-3.9,0.7-6c0.6-4.1,0.9-8.6,1.2-13.2c0.5-9.3,0.7-19.6,0.1-30.4c-0.7-10.8-2-20.9-3.7-30.1
				c-0.9-4.6-1.7-8.9-2.8-13c-0.5-2-0.9-4-1.4-5.8c-0.5-1.9-1-3.6-1.5-5.3c-0.9-3.4-2-6.4-2.8-9.1c-0.4-1.3-0.8-2.6-1.2-3.7
				c-0.4-1.1-0.8-2.2-1.1-3.1c-1.3-3.7-1.9-5.9-1.7-6c0.2-0.1,1.2,1.9,2.9,5.5c0.4,0.9,0.9,1.9,1.4,3c0.5,1.1,0.9,2.4,1.5,3.7
				c1,2.7,2.2,5.6,3.3,9.1c0.6,1.7,1.1,3.5,1.7,5.3c0.6,1.9,1.1,3.8,1.6,5.9c1.2,4,2.1,8.4,3.1,13.1c1.8,9.3,3.3,19.6,4,30.5
				c0.6,10.9,0.4,21.3-0.4,30.8c-0.5,4.7-0.9,9.2-1.6,13.3c-0.3,2.1-0.6,4.1-0.9,6c-0.4,1.9-0.7,3.8-1.1,5.5
				c-0.6,3.5-1.5,6.6-2.2,9.4c-0.4,1.4-0.7,2.7-1,3.8c-0.4,1.2-0.7,2.2-1,3.2C136.2,364.2,135.5,366.3,135.2,366.2z"/>
		</g>
	</g>
</g>
<g>
	<g>
		<g>
			<path class="st0" d="M240.9,219.3c-0.3,0.3-3-2.4-6.4-7.3c-0.9-1.2-1.8-2.6-2.7-4.1c-1-1.5-1.9-3.1-2.9-4.9
				c-1.9-3.5-3.8-7.4-5.5-11.7c-1.7-4.3-3-8.4-4-12.3c-0.5-1.9-0.9-3.8-1.3-5.5c-0.4-1.7-0.6-3.3-0.8-4.8c-0.8-5.9-0.7-9.7-0.3-9.7
				c1-0.1,2.8,14.5,9.5,31.1C233,206.8,241.7,218.7,240.9,219.3z"/>
		</g>
	</g>
</g>
<g>
	<g>
		<g>
			<path class="st0" d="M255.8,212.2c0.2,0.9-3,2.4-6.2,5c-3.3,2.6-5.4,5.3-6.3,4.9c-0.4-0.2-0.3-1.2,0.3-2.7c0.7-1.4,2-3.3,3.9-4.8
				c1.9-1.5,4-2.4,5.5-2.7C254.7,211.6,255.7,211.7,255.8,212.2z"/>
		</g>
	</g>
</g>
<g>
	<g>
		<g>
			<path class="st0" d="M257.6,210.4c-0.3,0.2-2.8-2.6-6.1-7.7c-1.7-2.5-3.5-5.7-5.3-9.2c-1.8-3.6-3.7-7.6-5.4-11.9
				c-1.7-4.3-3.1-8.5-4.2-12.3c-1.1-3.9-1.9-7.4-2.5-10.3c-1.1-6-1.3-9.7-0.8-9.8c1-0.2,3.8,14.4,10.5,31.3
				C250.4,197.3,258.4,209.8,257.6,210.4z"/>
		</g>
	</g>
</g>
<g>
	<g>
		<g>
			<path class="st0" d="M238.3,147.5c0.3,0.9-4.2,3-9.5,6c-5.3,2.9-9.5,5.6-10.1,4.9c-0.6-0.6,2.9-4.7,8.5-7.8
				C232.8,147.5,238.1,146.6,238.3,147.5z"/>
		</g>
	</g>
</g>
<g>
	<g>
		<g>
			<path class="st0" d="M362.4,279.9c-0.7-0.7,9.5-10.4,18-25.2c8.6-14.7,11.9-28.3,12.9-28.1c0.4,0.1,0.1,3.6-1.4,9.2
				c-0.4,1.4-0.8,2.9-1.4,4.5c-0.5,1.6-1.2,3.3-1.9,5c-1.5,3.5-3.3,7.3-5.4,11.1c-2.2,3.8-4.6,7.2-6.9,10.2
				c-1.2,1.5-2.3,2.9-3.4,4.1c-1.1,1.3-2.2,2.4-3.2,3.4C365.6,278.2,362.7,280.2,362.4,279.9z"/>
		</g>
	</g>
</g>
<g>
	<g>
		<g>
			<path class="st0" d="M378.8,287.8c-0.4,0.2-1.2-0.5-2.4-1.5c-1.2-1-2.8-2.2-4.8-3.2c-2-1-4-1.5-5.5-1.8c-1.5-0.3-2.6-0.4-2.7-0.9
				c-0.1-0.4,0.9-1.1,2.7-1.4c0.9-0.2,2-0.2,3.2,0c1.2,0.2,2.5,0.5,3.7,1.1c1.3,0.6,2.4,1.4,3.2,2.2c0.9,0.8,1.6,1.7,2,2.5
				C379.1,286.5,379.1,287.7,378.8,287.8z"/>
		</g>
	</g>
</g>
<g>
	<g>
		<g>
			<path class="st0" d="M406.9,243.2c-0.8,0.5-3.9-3.8-9-7.5c-5.1-3.7-10.1-5.3-9.9-6.2c0.1-0.4,1.5-0.6,3.8-0.1
				c2.2,0.5,5.2,1.7,8.1,3.7c2.8,2.1,4.9,4.5,6,6.5C407,241.6,407.3,243,406.9,243.2z"/>
		</g>
	</g>
</g>
<g>
	<g>
		<g>
			<path class="st0" d="M376.4,290.8c-0.8-0.4,5-12.3,14.3-25.6c9.3-13.3,18.4-22.8,19.1-22.3c0.7,0.6-7.2,10.9-16.4,24.1
				C384.1,280.2,377.2,291.2,376.4,290.8z"/>
		</g>
	</g>
</g>
<g>
	<g>
		<g>
			<path class="st0" d="M322.5,521.6c0.1-0.5,1.5-0.5,2.7-1.9c0.6-0.6,1.2-1.6,1.4-2.7c0.3-1.1,0.1-2.3-0.6-3.1
				c-0.7-0.8-1.8-1.1-2.9-1c-1.1,0.1-2.2,0.5-2.9,1c-1.5,1-1.8,2.4-2.3,2.4c-0.2,0-0.4-0.4-0.5-1.1c0-0.7,0.3-1.9,1.2-2.9
				c0.9-1.1,2.3-2,4.1-2.3c0.9-0.1,1.9-0.2,3,0.1c1,0.3,2.1,0.9,2.9,1.8c0.8,0.9,1.2,2,1.3,3.1c0.1,1.1-0.1,2.1-0.4,2.9
				c-0.6,1.7-1.8,3-2.9,3.7c-1.2,0.7-2.3,0.9-3.1,0.7C322.8,522.1,322.4,521.8,322.5,521.6z"/>
		</g>
	</g>
</g>
<g>
	<g>
		<g>
			<path class="st0" d="M804.1,623.6c0.2-0.4,1.5,0,3.2-0.5c0.8-0.3,1.8-0.8,2.3-1.6c0.3-0.4,0.4-0.8,0.5-1.3c0.1-0.5,0-1.1-0.2-1.6
				c-0.4-1.1-1.2-1.8-2-2c-0.8-0.2-1.8,0.1-2.5,0.6c-0.7,0.5-1.1,1-1.4,1.5c-0.3,0.5-0.4,0.8-0.7,0.8c-0.2,0-0.5-0.3-0.6-1.1
				c-0.1-0.7,0.2-1.9,1.1-2.9c0.9-1,2.4-2,4.5-1.9c1,0.1,2.1,0.5,2.9,1.2c0.8,0.7,1.4,1.6,1.8,2.7c0.4,1,0.5,2.1,0.3,3.2
				c-0.2,1-0.7,2-1.3,2.8c-1.3,1.5-3,1.9-4.3,2c-1.3,0-2.3-0.3-2.9-0.8C804.2,624.2,804,623.8,804.1,623.6z"/>
		</g>
	</g>
</g>
<g>
	<g>
		<g>
			<path class="st0" d="M846.4,239.7c-0.1,0.4-1.1,0.6-2.5,0.3c-1.4-0.4-3.3-1.4-4.8-3.2c-1.5-1.8-2.1-3.9-2.2-5.3
				c-0.1-1.5,0.4-2.4,0.8-2.4c0.5,0,0.9,0.8,1.5,1.8c0.6,1.1,1.4,2.5,2.5,3.9c1.1,1.4,2.3,2.4,3.3,3.2
				C845.8,238.7,846.5,239.2,846.4,239.7z"/>
		</g>
	</g>
</g>
<g>
	<g>
		<g>
			<path class="st0" d="M1333.6,524.6c-0.5,0-0.8-1.1-1.8-2.1c-0.9-1.1-2.8-2.2-4.6-1.9c-1.8,0.3-3.2,2-3.7,3.3
				c-0.6,1.3-0.5,2.4-1,2.6c-0.2,0.1-0.5-0.1-0.8-0.6c-0.3-0.5-0.5-1.4-0.5-2.4c0.1-1.1,0.4-2.3,1.3-3.5c0.8-1.2,2.3-2.2,4.1-2.6
				c1.8-0.3,3.5,0.2,4.7,1c1.2,0.8,2,1.9,2.4,2.8c0.4,1,0.5,1.9,0.4,2.4C1334.1,524.3,1333.8,524.6,1333.6,524.6z"/>
		</g>
	</g>
</g>
<g>
	<g>
		<g>
			<path class="st0" d="M1507.4,1011.3c0,0.2-2.2,0.3-6.1,0.4c-3.9,0-9.5,0-16.5-0.2c-7-0.2-15.2-0.4-24.4-0.7
				c-9.2-0.3-19.3-0.7-29.9-1.1c-10.6-0.3-20.7-0.5-29.8-0.5c-9.2,0-17.4,0.2-24.3,0.5c-13.9,0.6-22.4,1.6-22.5,1.1
				c0-0.2,2.1-0.7,5.9-1.4c1.9-0.3,4.3-0.7,7-1c2.8-0.3,5.9-0.7,9.4-1c6.9-0.6,15.2-1.1,24.5-1.2c9.2-0.2,19.4-0.1,30,0.3
				c10.6,0.4,20.7,0.9,29.9,1.3c9.2,0.5,17.4,1,24.4,1.4s12.6,0.9,16.4,1.2S1507.4,1011,1507.4,1011.3z"/>
		</g>
	</g>
</g>
<g>
	<g>
		<g>
			<path class="st0" d="M942.7,1029.3c0,0.2-1.7,0.8-4.9,1.5c-3.2,0.6-8,1.1-13.9,0.9c-5.9-0.2-12.9-1-20.5-2.4
				c-7.6-1.3-15.9-3.1-24.7-4.3c-4.4-0.6-8.6-0.9-12.8-1.1c-4.1-0.1-8.1,0.1-12,0.3c-7.7,0.4-14.6,0.9-20.5,1.1
				c-11.7,0.6-18.9,0.7-18.9,0.2c0-0.4,7.1-1.4,18.8-2.5c5.8-0.6,12.7-1.2,20.4-1.8c3.9-0.3,8-0.5,12.2-0.5
				c4.3,0.1,8.7,0.4,13.1,1.1c8.9,1.2,17.2,3.1,24.8,4.6c7.5,1.5,14.3,2.6,20.1,3.1c5.8,0.5,10.4,0.3,13.7,0.1
				C940.8,1029.2,942.6,1029,942.7,1029.3z"/>
		</g>
	</g>
</g>
<g>
	<g>
		<g>
			<path class="st0" d="M1083,682.8c-0.3-0.1,0.6-1.5,1-4.2c0.5-2.7,0.3-6.7-1.3-11.2c-1.6-4.6-4.9-9.5-8.4-15.3
				c-1.7-2.9-3.4-6.2-4.4-9.9c-1-3.7-1.4-7.6-1.4-11.5c0.4-15.7,3.8-29.4,7.1-39c1.7-4.8,3.3-8.6,4.6-11.1c1.2-2.5,2.1-3.9,2.3-3.8
				c0.5,0.2-1.9,6-4.7,15.6c-1.4,4.8-2.8,10.6-3.9,17.1c-0.6,3.2-1,6.7-1.4,10.2c-0.4,3.6-0.7,7.3-0.7,11c0,3.7,0.3,7.4,1.2,10.7
				c0.9,3.3,2.3,6.4,3.9,9.2c1.6,2.9,3.2,5.6,4.6,8.2c1.4,2.6,2.6,5.3,3.3,7.8c1.5,5,1.3,9.5,0.4,12.2
				C1084.4,681.8,1083.1,682.9,1083,682.8z"/>
		</g>
	</g>
</g>
<g>
	<g>
		<g>
			<path class="st0" d="M1124.3,698.4c0.3,0.3-1.9,3.1-6.4,6.6c-2.3,1.7-5.2,3.6-8.7,5.2c-3.5,1.5-7.8,2.6-12.3,2.5
				c-4.5-0.1-8.9-1.3-12.2-3.5c-3.4-2.2-5.7-5.1-7-7.7c-1.3-2.7-1.7-5.1-1.7-6.8c0-1.6,0.4-2.5,0.6-2.5c0.3,0,0.4,0.9,0.7,2.4
				c0.3,1.5,1,3.5,2.4,5.8c1.4,2.2,3.6,4.6,6.5,6.3c2.9,1.7,6.7,2.7,10.7,2.8c4,0,7.9-0.8,11.2-2c3.3-1.2,6.2-2.8,8.5-4.3
				C1121.3,700.2,1124,698,1124.3,698.4z"/>
		</g>
	</g>
</g>
<g>
	<g>
		<g>
			<path class="st0" d="M1190.7,785c-0.2,0-0.5-1.3-0.9-3.7c-0.1-0.6-0.2-1.3-0.3-2c-0.1-0.7-0.3-1.5-0.4-2.4
				c-0.3-1.7-0.6-3.6-1.1-5.7c-0.2-1-0.5-2.1-0.7-3.3c-0.3-1.1-0.6-2.3-0.9-3.5c-0.6-2.5-1.4-5-2.2-7.7c-1.8-5.4-4-11.2-6.9-17.1
				c-2.9-5.9-6.1-11.2-9.2-15.9c-1.6-2.3-3.1-4.6-4.7-6.5c-0.8-1-1.5-2-2.2-2.9c-0.8-0.9-1.5-1.8-2.2-2.6c-1.3-1.7-2.7-3.1-3.8-4.4
				c-0.6-0.6-1.1-1.2-1.6-1.8c-0.5-0.5-1-1-1.4-1.5c-1.7-1.8-2.5-2.8-2.4-3c0.1-0.2,1.3,0.6,3.2,2.1c0.5,0.4,1,0.8,1.6,1.3
				c0.6,0.5,1.2,1,1.8,1.6c1.3,1.2,2.8,2.5,4.3,4.1c0.8,0.8,1.5,1.6,2.4,2.5c0.8,0.9,1.6,1.8,2.4,2.8c1.7,1.9,3.3,4.2,5.1,6.5
				c3.4,4.7,6.7,10.2,9.7,16.2c2.9,6,5.2,12,6.8,17.6c0.8,2.8,1.5,5.5,2,8c0.3,1.3,0.5,2.5,0.7,3.7c0.2,1.2,0.3,2.3,0.5,3.4
				c0.4,2.2,0.5,4.1,0.6,5.9c0.1,0.9,0.1,1.7,0.2,2.4c0,0.7,0,1.4,0,2C1191.1,783.6,1190.9,785,1190.7,785z"/>
		</g>
	</g>
</g>
<g>
	<g>
		<g>
			<path class="st0" d="M1145,808c-0.5,0-0.8-2.3-1.8-5.7c-0.1-0.4-0.2-0.9-0.4-1.4c-0.2-0.5-0.3-0.9-0.5-1.4c-0.3-1-0.7-2-1.1-3.2
				c-0.9-2.2-2-4.6-3.2-7c-2.5-4.9-5.2-9.1-7.1-12.3c-1.9-3.2-2.9-5.2-2.5-5.5c0.4-0.3,2,1.3,4.4,4.2c2.4,2.9,5.4,7,8.1,12.1
				c1.3,2.6,2.4,5.1,3.1,7.5c0.3,1.2,0.7,2.3,0.9,3.5c0.1,0.5,0.2,1.1,0.3,1.6c0.1,0.5,0.1,1,0.2,1.5
				C1145.9,805.6,1145.4,808,1145,808z"/>
		</g>
	</g>
</g>
<g>
	<g>
		<g>
			<path class="st0" d="M1194.2,792.6c-0.1,0.2-0.9-0.1-2.2-0.3c-1.3-0.3-3.2-0.3-5.5,0.1c-4.7,1-11.4,2.9-18.2,6
				c-6.8,3.1-12.5,6.9-16.5,9.8c-4,2.9-6.3,5-6.7,4.6c-0.3-0.3,1.5-2.9,5.2-6.4c1.9-1.7,4.2-3.7,7-5.6c2.8-1.9,6-3.8,9.6-5.4
				c3.6-1.6,7.1-2.9,10.4-3.7c1.6-0.4,3.2-0.8,4.7-1c1.5-0.3,2.9-0.5,4.2-0.6c2.6-0.2,4.9,0.2,6.2,0.9
				C1193.9,791.7,1194.4,792.4,1194.2,792.6z"/>
		</g>
	</g>
</g>
<g>
	<g>
		<g>
			<path class="st0" d="M1132.5,923.2c-0.2-0.1,0.2-2.1,1.4-5.6c1.2-3.5,3.3-8.5,6.5-14.5c3.1-5.9,7.4-12.7,12.4-19.9
				c5-7.3,10.7-15,16.3-23.4c2.8-4.2,5.3-8.4,7.7-12.5c2.3-4.1,4.3-8.2,6.1-12.2c3.4-8,5.7-15.5,6.6-21.9c0.5-3.2,0.8-6.2,0.9-8.8
				c0-1.3,0-2.5,0.1-3.6c-0.1-1.1-0.1-2.1-0.1-3.1c0-0.5,0-0.9-0.1-1.3c0-0.4-0.1-0.8-0.1-1.1c-0.1-0.7-0.1-1.3-0.2-1.8
				c-0.1-1,0-1.5,0.1-1.5c0.1,0,0.3,0.5,0.6,1.4c0.1,0.5,0.3,1.1,0.5,1.8c0.1,0.4,0.2,0.7,0.3,1.1c0.1,0.4,0.1,0.8,0.2,1.3
				c0.1,0.9,0.3,2,0.4,3.1c0.1,1.1,0.1,2.4,0.2,3.7c0.1,2.7,0,5.7-0.4,9.1c-0.7,6.7-2.8,14.5-6.2,22.8c-1.7,4.1-3.7,8.3-6,12.6
				c-2.3,4.2-4.9,8.5-7.7,12.8c-5.7,8.5-11.5,16.2-16.6,23.3c-5.1,7.1-9.5,13.6-12.8,19.3C1135.6,915.5,1133,923.3,1132.5,923.2z"/>
		</g>
	</g>
</g>
<g>
	<g>
		<g>
			<path class="st0" d="M1105.5,906.8c-0.4-0.1,0.5-6,4.4-14.8c1.9-4.4,4.5-9.5,7.7-14.9c3.2-5.4,6.9-11.2,10.7-17.4
				c3.7-6.1,7.1-12.1,9.6-17.7c2.6-5.6,4.4-10.9,5.6-15.4c2.3-9.1,1.9-15,2.5-15c0.2,0,0.5,1.4,0.7,4.1c0.2,2.7,0,6.6-0.9,11.3
				c-0.9,4.7-2.6,10.3-5.1,16.1c-2.5,5.8-5.8,12-9.6,18.2c-3.8,6.2-7.6,11.9-10.9,17.2c-3.3,5.3-6.1,10.1-8.2,14.3
				C1107.7,901.3,1106,907,1105.5,906.8z"/>
		</g>
	</g>
</g>
<g>
	<g>
		<g>
			<path class="st0" d="M1049.6,806.3c-0.5,0-0.3-5.1-1.6-13c-0.6-4-1.5-8.7-2.6-14c-1-5.3-2.1-11.2-2.5-17.5
				c-0.8-12.7,1.5-24.1,4.3-31.9c2.8-7.8,5.6-12.1,6-11.9c0.5,0.2-1.6,4.8-3.8,12.6c-2.1,7.7-4.1,18.8-3.3,31
				c0.4,6.1,1.4,11.9,2.2,17.2c0.9,5.3,1.6,10.1,1.9,14.3C1051,801.3,1050,806.4,1049.6,806.3z"/>
		</g>
	</g>
</g>
<g>
	<g>
		<g>
			<path class="st0" d="M1037.5,736.4c-0.5,0.7-9.8-5.9-19.3-16.2c-9.6-10.2-15.5-19.9-14.8-20.3c0.8-0.5,7.8,8.1,17.2,18.1
				C1029.9,728.1,1038.1,735.7,1037.5,736.4z"/>
		</g>
	</g>
</g>
<g>
	<g>
		<g>
			<path class="st0" d="M1029.1,645.8c0.4,0.4-1.9,3-5,7.6c-0.4,0.6-0.8,1.2-1.2,1.8c-0.4,0.6-0.8,1.3-1.2,2
				c-0.9,1.4-1.7,2.9-2.6,4.5c-1.8,3.2-3.6,6.8-5.3,10.6c-3.5,7.7-6.1,15-8.1,20.2c-2,5.2-3.4,8.4-3.8,8.3c-0.4-0.1,0.2-3.6,1.6-9
				c1.5-5.4,3.8-12.9,7.3-20.8c1.8-3.9,3.7-7.6,5.7-10.8c1-1.6,2-3.1,3-4.4c0.5-0.7,1-1.3,1.4-1.9c0.5-0.6,1-1.2,1.4-1.7
				C1026,647.6,1028.8,645.5,1029.1,645.8z"/>
		</g>
	</g>
</g>
<g>
	<g>
		<g>
			<path class="st0" d="M1069.8,687.3c-0.5,0.7-11.6-6.3-23.5-17.3c-3-2.7-5.7-5.4-8.1-8c-2.4-2.5-4.5-4.9-6-7.2
				c-1.5-2.2-2.5-4.3-2.9-5.7c-0.4-1.5-0.5-2.3-0.3-2.4c0.5-0.2,1.6,2.9,5,6.7c1.7,1.9,3.8,4.1,6.3,6.5c2.5,2.4,5.2,5,8.2,7.7
				C1060.2,678.5,1070.3,686.6,1069.8,687.3z"/>
		</g>
	</g>
</g>
<g>
	<g>
		<g>
			<path class="st0" d="M985.3,560.7c0.5,0,1.2,5.1,2.9,13.3c0.2,1,0.5,2.1,0.7,3.2c0.3,1.1,0.6,2.2,0.9,3.4
				c0.6,2.4,1.4,4.9,2.1,7.5c1.7,5.2,3.8,10.9,6.3,16.7c2.6,5.8,5.5,11.1,8.2,15.9c1.4,2.3,2.8,4.6,4.2,6.6c0.7,1,1.3,2,2,3
				c0.7,0.9,1.3,1.8,1.9,2.7c4.9,6.8,8.3,10.7,7.9,11.1c-0.3,0.3-4.3-3.1-9.7-9.7c-0.7-0.8-1.4-1.7-2.1-2.6
				c-0.7-0.9-1.4-1.9-2.2-2.9c-1.5-2-3-4.2-4.5-6.6c-3-4.8-6-10.2-8.6-16.1c-2.6-5.9-4.7-11.8-6.2-17.2c-0.7-2.7-1.4-5.3-1.9-7.8
				c-0.2-1.2-0.5-2.4-0.7-3.5c-0.2-1.1-0.4-2.2-0.5-3.3C984.8,566,984.9,560.8,985.3,560.7z"/>
		</g>
	</g>
</g>
<g>
	<g>
		<g>
			<path class="st0" d="M963.9,573.6c0.5,0,1.2,6.6,3.1,17.2c0.2,1.3,0.5,2.7,0.8,4.1c0.3,1.4,0.6,2.9,0.9,4.5
				c0.6,3.1,1.4,6.4,2.2,9.8c1.8,6.9,3.9,14.4,6.6,22.1c2.7,7.7,5.7,14.9,8.6,21.4c1.5,3.2,2.9,6.3,4.4,9.1c0.7,1.4,1.4,2.8,2.1,4.1
				c0.7,1.3,1.4,2.5,2,3.7c5.1,9.4,8.7,15.1,8.3,15.4c-0.3,0.2-4.6-5-10.3-14.2c-0.7-1.2-1.4-2.4-2.2-3.6c-0.8-1.3-1.5-2.6-2.3-4
				c-1.6-2.8-3.1-5.8-4.7-9.1c-3.1-6.5-6.2-13.8-9-21.6c-2.7-7.8-4.8-15.5-6.4-22.5c-0.7-3.5-1.5-6.8-2-10c-0.3-1.6-0.5-3.1-0.8-4.6
				c-0.2-1.5-0.4-2.9-0.6-4.2C963.4,580.4,963.5,573.7,963.9,573.6z"/>
		</g>
	</g>
</g>
<g>
	<g>
		<g>
			<path class="st0" d="M914.5,527.1c0.5-0.1,1.2,3.6,4.2,8.8c1.5,2.6,3.5,5.4,6.2,8.3c2.7,2.9,5.9,5.7,9.6,8.4
				c3.7,2.7,7.4,5,10.8,7.1c3.4,2.1,6.5,4,9,5.8c5.1,3.4,7.9,6,7.6,6.4c-0.3,0.4-3.5-1.5-8.8-4.4c-2.7-1.5-5.8-3.2-9.4-5.1
				c-3.5-2-7.4-4.3-11.2-7.1c-3.8-2.8-7.2-5.9-9.9-9c-2.7-3.2-4.7-6.3-6-9.2c-1.3-2.9-2-5.3-2.2-7.1
				C914.2,528.1,914.3,527.2,914.5,527.1z"/>
		</g>
	</g>
</g>
<g>
	<g>
		<g>
			<path class="st0" d="M944.7,548.3c0,0.2-0.6,0.4-1.7,0.4c-1.1,0-2.7-0.2-4.4-1c-1.8-0.7-3.8-1.9-5.7-3.6
				c-1.9-1.6-3.8-3.6-5.6-5.7c-1.8-2.1-3.4-4.1-5-5.8c-1.6-1.7-3.1-3-4.6-4c-0.7-0.5-1.3-0.9-1.8-1c-0.1,0-0.2-0.1-0.3-0.1
				c-0.1,0-0.1,0-0.1,0c0,0-0.2,0-0.2,0c-0.1,0-0.3,0.1-0.4,0.2c-0.5,0.4-0.4,0.9-0.5,1.1c-0.1,0.1-0.3,0.1-0.5-0.2
				c-0.2-0.3-0.3-0.9,0-1.6c0.2-0.3,0.4-0.7,0.9-0.9c0.2-0.1,0.2-0.1,0.3-0.1c0.1,0,0.3-0.1,0.4-0.1c0.2,0,0.5-0.1,0.7,0
				c1,0.1,1.8,0.5,2.7,0.8c1.7,0.8,3.7,2.1,5.5,3.8c1.9,1.7,3.6,3.7,5.4,5.8c1.8,2.1,3.4,4,5.1,5.6c1.6,1.6,3.3,2.9,4.7,3.7
				C942.5,547.5,944.7,547.8,944.7,548.3z"/>
		</g>
	</g>
</g>
<g>
	<g>
		<g>
			<path class="st0" d="M946.2,543.3c0,0.2-0.6,0.3-1.6,0.2c-1-0.1-2.5-0.6-4-1.6c-1.6-1-3.2-2.5-4.6-4.4c-1.4-1.9-2.8-4.1-3.9-6.5
				c-4.6-9.5-6.7-17.8-5.8-18.1c0.9-0.3,4.2,7.4,8.7,16.7c1.1,2.3,2.3,4.4,3.4,6.2c1.2,1.8,2.4,3.2,3.6,4.3
				C944.3,542.2,946.3,542.8,946.2,543.3z"/>
		</g>
	</g>
</g>
<g>
	<g>
		<g>
			<path class="st0" d="M952.4,535.8c0,0.2-0.5,0.5-1.6,0.4c-1,0-2.5-0.5-4-1.5c-1.5-1-2.9-2.6-4.3-4.3c-1.3-1.7-2.7-3.7-4-5.9
				c-2.6-4.3-4.5-8.6-5.6-11.7c-1.1-3.1-1.4-5.2-1-5.4c0.9-0.3,4.2,7,9.3,15.4c1.3,2.1,2.5,4.1,3.7,5.9c1.1,1.8,2.2,3.2,3.3,4.3
				C950.4,535.1,952.4,535.3,952.4,535.8z"/>
		</g>
	</g>
</g>
<g>
	<g>
		<g>
			<path class="st0" d="M958.1,528.6c-0.2,0.4-1.9,0-4.4-1.4c-1.2-0.7-2.6-1.7-4.1-2.9c-1.4-1.2-2.8-2.8-4.2-4.5
				c-1.3-1.8-2.3-3.6-3.1-5.3c-0.8-1.7-1.3-3.3-1.6-4.7c-0.6-2.8-0.5-4.6-0.1-4.6c0.9-0.2,2.6,6.3,7.4,12.7
				C952.8,524.4,958.5,527.8,958.1,528.6z"/>
		</g>
	</g>
</g>
<g>
	<g>
		<g>
			<path class="st0" d="M986.1,514.6c0.2,0.2-0.1,0.7-0.4,1.6c-0.3,0.9-0.5,2.3-0.4,4c0.1,1.7,0.7,3.7,1.3,6.2
				c0.3,1.2,0.6,2.6,0.8,4.1c0.1,1.5,0,3.2-0.4,4.7c-0.7,3.1-1.9,5.5-2.6,7.8c-0.7,2.3-1.1,4.4-1.4,6.2c-0.5,3.6-0.5,6-1,6
				c-0.4,0.1-1.2-2.3-1.3-6.2c0-2,0.2-4.3,0.8-6.9c0.6-2.6,1.7-5.2,2.3-7.7c0.3-1.3,0.4-2.5,0.4-3.7c-0.1-1.2-0.3-2.4-0.5-3.7
				c-0.2-1.2-0.5-2.4-0.6-3.6c-0.2-1.2-0.2-2.3-0.1-3.3c0.2-2.1,0.9-3.7,1.6-4.6C985.3,514.7,985.9,514.5,986.1,514.6z"/>
		</g>
	</g>
</g>
<g>
	<g>
		<g>
			<path class="st0" d="M978.9,511.7c0.2,0.5-0.8,1.3-1.9,2.8c-0.5,0.7-1,1.8-1.6,2.9c-0.5,1.2-1,2.5-1.5,4
				c-0.5,1.5-1.1,2.9-1.8,4.2c-0.7,1.3-1.4,2.4-2.2,3.3c-1.5,1.7-3,2.2-3.2,1.9c-0.3-0.4,0.5-1.4,1.3-3.2c0.4-0.9,0.9-1.9,1.3-3.2
				c0.5-1.3,0.9-2.7,1.5-4.2c0.6-1.5,1.2-3,1.9-4.3c0.8-1.3,1.6-2.4,2.6-3.1c0.4-0.4,0.9-0.7,1.3-0.9c0.2-0.1,0.4-0.2,0.6-0.3
				c0.2-0.1,0.4-0.1,0.5-0.1C978.4,511.5,978.8,511.5,978.9,511.7z"/>
		</g>
	</g>
</g>
<g>
	<g>
		<g>
			<path class="st0" d="M1085.2,609.9c-0.9-0.1-1.1-3.5,0.4-7.2c1.5-3.7,4-6,4.7-5.5c0.7,0.5-0.4,3.4-1.7,6.7
				C1087.3,607.2,1086.1,610,1085.2,609.9z"/>
		</g>
	</g>
</g>
<g>
	<g>
		<g>
			<path class="st0" d="M1114,613.3c-0.4,0-0.9-0.9-1-2.3c-0.1-1.4,0.1-3.5,0.8-5.5c0.8-2.1,1.9-3.7,3-4.7c1-1,1.9-1.4,2.3-1.1
				c0.7,0.6-0.9,3.4-2.2,7C1115.6,610.1,1114.9,613.3,1114,613.3z"/>
		</g>
	</g>
</g>
<g>
	<g>
		<g>
			<path class="st0" d="M1089.5,611.6c-0.4,0.8-2.4,0.7-4.7,0.6c-2.3-0.1-4.4-0.1-4.7-0.9c-0.1-0.4,0.2-1,1.1-1.5
				c0.9-0.5,2.2-0.9,3.7-0.8c1.5,0,2.8,0.5,3.6,1.1C1089.3,610.6,1089.6,611.2,1089.5,611.6z"/>
		</g>
	</g>
</g>
<g>
	<g>
		<g>
			<path class="st0" d="M1119.1,615.1c-0.4,0.3-0.9,0.3-1.4,0.2c-0.6-0.1-1.2-0.3-1.8-0.5c-0.6-0.2-1.2-0.5-1.7-0.8
				c-0.5-0.3-0.9-0.6-1-1.1c-0.1-0.4,0.2-0.9,0.9-1.2c0.7-0.3,1.8-0.4,2.9,0c1.1,0.4,1.9,1.2,2.2,1.9
				C1119.6,614.2,1119.5,614.8,1119.1,615.1z"/>
		</g>
	</g>
</g>
<g>
	<g>
		<g>
			<path class="st0" d="M1075.7,604c0.2,0,0.3,1.3,0.6,3.6c0.3,2.3,0.7,5.5,1.9,9.4c0.3,1,0.6,1.9,1.1,2.8c0.5,0.8,1.1,1.5,1.8,1.7
				c0.7,0.2,1.7,0.1,2.7-0.4c0.5-0.2,1-0.5,1.5-0.8c0.5-0.4,1-0.7,1.5-1.1c2-1.6,3.7-3.7,5-6.2c1.4-2.4,2.3-5.2,2.9-8.2
				c0.6-2.9,0.7-5.9,0.6-8.8c-0.1-2.8-0.7-5.5-2-7.2c-0.7-0.9-1.6-1.5-2.5-1.8c-0.9-0.3-1.8-0.3-2.8,0.1c-0.9,0.3-1.9,1-2.7,1.6
				c-0.9,0.6-1.7,1.3-2.4,2c-2.9,2.7-4.6,5.5-5.7,7.5c-1,2-1.5,3.2-1.7,3.2c-0.2,0-0.2-1.4,0.6-3.7c0.7-2.3,2.2-5.5,5.2-8.7
				c0.7-0.8,1.6-1.6,2.5-2.3c0.9-0.7,1.9-1.5,3.3-2.1c1.3-0.6,3.1-0.8,4.6-0.3c1.6,0.5,2.9,1.4,4,2.7c1.1,1.3,1.7,2.8,2.2,4.3
				c0.4,1.5,0.6,3.1,0.7,4.6c0.2,3.1,0.1,6.4-0.6,9.6c-0.7,3.2-1.8,6.4-3.3,9.1c-1.6,2.7-3.6,5.1-5.9,6.9c-0.6,0.4-1.2,0.8-1.8,1.3
				c-0.6,0.4-1.3,0.7-2,1c-1.4,0.5-3.1,0.8-4.7,0.3c-0.8-0.3-1.5-0.8-2-1.3c-0.5-0.6-0.9-1.2-1.2-1.7c-0.6-1.2-0.9-2.3-1.1-3.3
				c-1-4.2-1.1-7.6-1-10C1075.1,605.3,1075.5,604,1075.7,604z"/>
		</g>
	</g>
</g>
<g>
	<g>
		<g>
			<path class="st0" d="M1102.2,603.2c-0.3,0.4-0.7,0.5-1.1,0.7c-0.4,0.1-0.8,0.2-1.2,0.1c-0.4,0-0.8-0.2-1.2-0.4
				c-0.4-0.2-0.7-0.5-0.9-0.9c-0.2-0.4-0.1-0.9,0.4-1.3c0.4-0.4,1.2-0.7,2.1-0.6c0.9,0.1,1.6,0.6,1.9,1.1
				C1102.5,602.3,1102.4,602.8,1102.2,603.2z"/>
		</g>
	</g>
</g>
<g>
	<g>
		<g>
			<path class="st0" d="M1104.9,602.4c0.2,0.1-0.2,1.6-0.6,4.3c-0.2,1.3-0.4,3-0.3,4.9c0.1,1.9,0.5,4,1.6,6c1,2,2.9,3.9,5.2,4.9
				c2.3,1.1,5.2,1.1,7.5-0.5c2.4-1.5,4.1-4.4,5.4-7.5c1.2-3.2,2.1-6.7,2.6-10.3c0.2-1.8,0.4-3.6,0.4-5.4c0-1.8,0-3.5-0.2-5.2
				c-0.4-3.3-1.7-6.3-4-7.6c-1.2-0.6-2.4-0.9-3.7-0.7c-1.3,0.2-2.5,0.7-3.7,1.4c-2.3,1.4-4,3.4-5.3,5.3
				C1107,595.9,1105.6,599.7,1104.9,602.4c-0.8,2.6-1,4.1-1.3,4.1c-0.2,0-0.4-1.6,0-4.4c0.4-2.8,1.5-6.9,4.1-11.3
				c1.3-2.2,3.2-4.6,5.8-6.4c1.3-0.9,2.9-1.6,4.7-2c1.8-0.3,3.8,0,5.6,0.9c0.9,0.5,1.7,1.1,2.4,1.8c0.7,0.7,1.2,1.6,1.7,2.4
				c0.9,1.7,1.4,3.6,1.7,5.5c0.3,1.9,0.3,3.8,0.3,5.7c0,1.9-0.2,3.8-0.4,5.8c-0.5,3.9-1.5,7.6-2.8,11.1c-0.7,1.7-1.6,3.4-2.7,4.9
				c-1.1,1.5-2.4,2.9-4,3.9c-1.6,1-3.4,1.6-5.3,1.6c-1.8,0-3.6-0.4-5-1.2c-2.9-1.5-5-3.9-6.1-6.4c-1.1-2.5-1.4-4.9-1.3-7
				c0.1-2.1,0.4-3.8,0.8-5.2C1103.8,603.6,1104.7,602.3,1104.9,602.4z"/>
		</g>
	</g>
</g>
<g>
	<g>
		<g>
			<path class="st0" d="M1094.6,626.9c-0.1,0.2-0.6,0.1-1.3-0.4c-0.7-0.5-1.6-1.5-2.1-3.1c-1-3.1-0.2-7.4,1.5-11.3
				c3.3-7.8,7.3-13.5,8-13.1c0.8,0.4-1.8,6.7-5,14.4c-1.6,3.7-2.5,7.2-2.3,9.5C1093.6,625.3,1094.9,626.5,1094.6,626.9z"/>
		</g>
	</g>
</g>
<g>
	<g>
		<g>
			<path class="st0" d="M1102.4,633c0.3,0.2,0.1,1.5-1.3,2.8c-0.7,0.7-1.7,1.3-2.8,1.8c-1.2,0.5-2.6,0.8-4.1,0.8
				c-1.5,0-2.9-0.3-4.1-0.8c-1.2-0.5-2.2-1.2-2.8-1.9c-1.4-1.4-1.6-2.6-1.3-2.9c0.4-0.3,1.3,0.4,2.6,1c0.7,0.3,1.5,0.6,2.4,0.9
				c0.9,0.2,2,0.4,3.1,0.4c1.1,0,2.2-0.2,3.1-0.4c0.9-0.2,1.8-0.5,2.4-0.9C1101.1,633.3,1102,632.7,1102.4,633z"/>
		</g>
	</g>
</g>
<g>
	<g>
		<g>
			<path class="st0" d="M1128.6,638.7c0.1,0,0.3,0.1,0.5,0.4c0.1,0.1,0.2,0.3,0.4,0.5c0.2,0.2,0.4,0.4,0.6,0.6
				c0.9,0.9,2.5,1.9,4.8,2.2c2.2,0.3,5.1-0.1,7.4-1.7c1.1-0.8,2.2-2,3-3.3c0.8-1.4,1.5-3,1.9-4.7c0.8-3.4,0.8-7,0.4-10.1
				c-0.2-1.5-0.6-2.9-1.2-4c-0.3-0.6-0.6-1-1-1.4c-0.2-0.2-0.4-0.4-0.6-0.6c-0.2-0.1-0.4-0.3-0.6-0.4c-0.8-0.4-1.8-0.5-2.7-0.4
				c-0.8,0.1-1.5,0.4-2,0.8c-0.9,0.7-1,1.6-1.3,1.5c-0.1,0-0.2-0.2-0.2-0.6c0-0.4,0.1-1.1,0.6-1.8c0.5-0.7,1.3-1.3,2.4-1.7
				c0.6-0.2,1.2-0.3,1.8-0.3c0.7,0,1.4,0.1,2.1,0.3c0.4,0.1,0.8,0.3,1.1,0.5c0.3,0.2,0.7,0.4,1,0.7c0.6,0.5,1.2,1.2,1.6,1.9
				c0.9,1.4,1.5,3.1,1.8,4.9c0.6,3.4,0.8,7.3-0.1,11.3c-1,4-3.2,7.7-6.5,9.7c-1.6,1-3.4,1.5-5,1.7c-1.6,0.2-3.2,0.1-4.5-0.3
				c-2.7-0.7-4.5-2.3-5.3-3.6c-0.2-0.3-0.3-0.6-0.4-0.9c-0.1-0.3-0.1-0.5-0.2-0.7C1128.5,639,1128.5,638.8,1128.6,638.7z"/>
		</g>
	</g>
</g>
<g>
	<g>
		<g>
			<path class="st0" d="M1143.6,961.4c-0.9,0-1.6-9.6-4.8-20.9c-0.8-2.8-1.6-5.5-2.4-7.9c-0.4-1.2-0.8-2.3-1.2-3.4
				c-0.4-1.1-0.8-2.1-1-3.1c-0.6-2-0.6-3.8-0.3-5c0.3-1.2,0.8-1.7,1-1.6c0.2,0.1,0.2,0.7,0.3,1.7c0.1,1,0.4,2.4,1.2,4.1
				c0.4,0.9,0.8,1.8,1.3,2.8c0.5,1.1,1,2.2,1.5,3.4c1,2.4,2,5.2,2.8,8.1c1.6,5.9,2.3,11.4,2.4,15.4
				C1144.4,958.9,1144,961.3,1143.6,961.4z"/>
		</g>
	</g>
</g>
<g>
	<g>
		<g>
			<path class="st0" d="M1091.8,945.4c-0.4,0.1-1.6-2-2-5.8c-0.2-1.9-0.1-4.2,0.3-6.7c0.4-2.5,1.2-5.1,2.1-7.8
				c2-5.4,4.3-9.8,6.1-13.1c1.8-3.2,3-5.1,3.5-5s-0.1,2.4-1.3,5.9c-1.2,3.5-3.2,8.2-5.1,13.3c-0.9,2.6-1.7,5-2.3,7.3
				c-0.5,2.3-0.8,4.3-0.9,6.1C1091.9,943,1092.3,945.2,1091.8,945.4z"/>
		</g>
	</g>
</g>
<g>
	<g>
		<g>
			<path class="st0" d="M1142.2,958.9c0.1,0,0.2,0,0.4,0.2c0.2,0.2,0.3,0.7,0.2,1.2c-0.1,0.5-0.4,1.2-1,1.7c-0.6,0.5-1.4,1-2.5,1
				c-1.1,0-2.1-0.5-2.9-1.2c-0.8-0.7-1.4-1.6-1.9-2.6c-1-1.9-1.6-4-2.1-6.2c-2.3-8.6-3.4-15.8-2.5-16s3.4,6.6,5.7,15.2
				c0.6,2.2,1.1,4.1,1.7,5.8c0.3,0.8,0.7,1.4,1.1,1.9c0.2,0.2,0.4,0.4,0.6,0.6c0.2,0.1,0.5,0.3,0.6,0.3c0.4,0.1,0.8,0,1.2-0.1
				c0.4-0.2,0.7-0.4,0.8-0.6C1142,959.5,1142,959,1142.2,958.9z"/>
		</g>
	</g>
</g>
<g>
	<g>
		<g>
			<path class="st0" d="M1101.8,944.9c0.4-0.1,1.1,1.9,2.1,5.3c0.5,1.7,1,3.7,1.6,6c0.1,0.3,0.1,0.6,0.2,0.9
				c0.1,0.4,0.2,0.8,0.3,1.1c0.2,1,0.3,2.1,0.2,3c-0.1,0.9-0.4,1.7-1,2.3c-0.3,0.3-0.6,0.6-1,0.9c-0.3,0.1-0.5,0.2-0.8,0.3
				c-1.1-1-2.1-2.1-3.2-3.2c-0.3-0.3-0.5-0.6-0.8-0.9l-0.5-0.6c-0.3-0.4-0.6-0.7-0.9-1.1c-4.4-5.7-6.6-11.9-7.4-16.5
				c-0.8-4.6-0.3-7.5,0.1-7.5c0.5,0,0.9,2.7,2.2,6.9c1.3,4.2,3.6,9.8,7.7,15c0.3,0.4,0.5,0.7,0.8,1l0.5,0.6c0.1,0.2,0.3,0.3,0.4,0.5
				l0.2,0.2c0.1,0,0.1-0.1,0.2-0.2c0.1-0.1,0.1-0.3,0.1-0.5c0-0.2,0-0.4,0-0.6c0-0.1,0,0,0-0.2l-0.1-0.5c0-0.3-0.1-0.6-0.1-0.9
				c-0.4-2.3-0.7-4.4-0.9-6.1C1101.5,947.1,1101.5,945,1101.8,944.9z"/>
		</g>
	</g>
</g>
<g>
	<g>
		<g>
			<path class="st0" d="M1126.9,967.4c0,0.2-0.6,0.4-1.7,0.4c-1.1,0-2.7-0.2-4.5-0.8c-1.8-0.6-3.9-1.7-6-3.3c-2-1.6-4-3.7-5.7-6.1
				c-6.5-9.8-7.9-19.2-7-19.4c0.5-0.1,1.3,2,2.9,5.3c0.8,1.6,1.7,3.6,2.9,5.7c1.1,2.1,2.4,4.4,3.9,6.6c1.5,2.2,3.2,4.1,4.9,5.6
				c1.7,1.5,3.4,2.7,5,3.5C1124.6,966.5,1126.9,966.9,1126.9,967.4z"/>
		</g>
	</g>
</g>
<g>
	<g>
		<g>
			<path class="st0" d="M1129,949.9c0.9,0,1.5,4.2,1.4,9.4c0,1.3-0.1,2.6-0.5,3.9c-0.2,0.7-0.5,1.3-0.9,1.8
				c-0.4,0.6-0.9,0.9-1.4,1.2c-1,0.5-2,0.5-2.6,0.3c-0.6-0.3-0.7-0.6-0.6-0.8c0.1-0.2,0.4-0.3,0.8-0.4c0.3-0.2,0.8-0.4,1.2-0.9
				c0.4-0.5,0.6-1,0.7-1.9c0.1-0.8,0.1-2,0.1-3.3C1127.3,954.1,1128.1,949.9,1129,949.9z"/>
		</g>
	</g>
</g>
<g>
	<g>
		<g>
			<path class="st0" d="M1124.1,966.5c-0.4,0.2-1.7-0.9-3.4-3.2c-1.7-2.3-3.6-5.7-5-9.8c-1.4-4.1-2.1-7.9-2.2-10.8
				c-0.1-2.8,0.2-4.6,0.6-4.6c0.9-0.1,1.9,6.6,4.7,14.3C1121.5,960.1,1124.9,965.9,1124.1,966.5z"/>
		</g>
	</g>
</g>
<g>
	<g>
		<g>
			<path class="st0" d="M1090.2,942c-0.1,0.2-0.6,0.2-1.5-0.1c-0.9-0.4-2-1.2-2.9-2.6c-0.9-1.4-1.7-3.3-1.8-5.6
				c-0.1-2.3,0.5-4.7,1.6-6.9c1.1-2.2,2.4-4.1,3.7-5.6c1.3-1.6,2.5-2.8,3.5-3.9c2-2.1,3.2-3.5,3.6-3.3c0.4,0.2-0.2,2.1-1.8,4.7
				c-1.6,2.6-4.3,5.8-6.1,9.6c-0.9,1.9-1.5,3.8-1.5,5.5c-0.1,1.7,0.3,3.3,0.8,4.5C1088.8,940.6,1090.4,941.5,1090.2,942z"/>
		</g>
	</g>
</g>
</svg>
