<svg width="48" height="48" viewBox="0 0 48 48" fill="none" xmlns="http://www.w3.org/2000/svg">
<rect width="48" height="48" rx="24" fill="#4D4BE7"/>
<path fill-rule="evenodd" clip-rule="evenodd" d="M24 36C30.6274 36 36 30.6274 36 24C36 17.3726 30.6274 12 24 12C17.3726 12 12 17.3726 12 24C12 30.6274 17.3726 36 24 36ZM24 33.5C29.2467 33.5 33.5 29.2467 33.5 24C33.5 18.7533 29.2467 14.5 24 14.5C20.8272 14.5 21.4917 16.0554 22.5128 18.4453C23.1802 20.0074 24 21.9261 24 24C24 26.0739 23.1802 27.9926 22.5128 29.5547C21.4917 31.9446 20.8272 33.5 24 33.5Z" fill="white"/>
</svg>
